# https://github.com/mikedh/trimesh
mtllib material.mtl
usemtl material_0
v -0.01867236 0.04169937 0.15150830
v -0.01867236 0.04169936 0.06691393
v -0.01921326 0.04138708 0.06691393
v -0.01867236 0.04169937 0.15150830
v -0.01921326 0.04138708 0.06691393
v -0.01921326 0.04138708 0.15150830
v -0.01921326 0.04138708 0.06691393
v -0.01921326 0.04076247 0.06691393
v -0.01921326 0.04076248 0.15150830
v -0.01921326 0.04138708 0.06691393
v -0.01921326 0.04076248 0.15150830
v -0.01921326 0.04138708 0.15150830
v -0.01867236 0.04045019 0.06691393
v -0.01867236 0.04045020 0.15150830
v -0.01921326 0.04076248 0.15150830
v -0.01867236 0.04045019 0.06691393
v -0.01921326 0.04076248 0.15150830
v -0.01921326 0.04076247 0.06691393
v -0.01813145 0.04076247 0.06691393
v -0.01813145 0.04076248 0.15150830
v -0.01867236 0.04045020 0.15150830
v -0.01813145 0.04076247 0.06691393
v -0.01867236 0.04045020 0.15150830
v -0.01867236 0.04045019 0.06691393
v -0.01813145 0.04076247 0.06691393
v -0.01813145 0.04138708 0.06691393
v -0.01813145 0.04138708 0.15150830
v -0.01813145 0.04076247 0.06691393
v -0.01813145 0.04138708 0.15150830
v -0.01813145 0.04076248 0.15150830
v -0.01813145 0.04138708 0.06691393
v -0.01867236 0.04169936 0.06691393
v -0.01867236 0.04169937 0.15150830
v -0.01813145 0.04138708 0.06691393
v -0.01867236 0.04169937 0.15150830
v -0.01813145 0.04138708 0.15150830
vn -0.00000250 1.00000000 -0.00000008
vn -0.00000250 1.00000000 -0.00000008
vn -0.86602193 0.50000596 -0.00000004
vn -0.00000250 1.00000000 -0.00000008
vn -0.86602193 0.50000596 -0.00000004
vn -0.86602199 0.50000596 -0.00000004
vn -0.86602193 0.50000596 -0.00000004
vn -0.86602199 -0.50000596 0.00000004
vn -0.86602193 -0.50000596 0.00000004
vn -0.86602193 0.50000596 -0.00000004
vn -0.86602193 -0.50000596 0.00000004
vn -0.86602199 0.50000596 -0.00000004
vn -0.00000340 -1.00000000 0.00000008
vn -0.00000160 -1.00000000 0.00000008
vn -0.86602193 -0.50000596 0.00000004
vn -0.00000340 -1.00000000 0.00000008
vn -0.86602193 -0.50000596 0.00000004
vn -0.86602199 -0.50000596 0.00000004
vn 0.86602068 -0.50000817 0.00000004
vn 0.86602074 -0.50000811 0.00000004
vn -0.00000160 -1.00000000 0.00000008
vn 0.86602068 -0.50000817 0.00000004
vn -0.00000160 -1.00000000 0.00000008
vn -0.00000340 -1.00000000 0.00000008
vn 0.86602068 -0.50000817 0.00000004
vn 0.86602032 0.50000882 -0.00000004
vn 0.86602116 0.50000739 -0.00000004
vn 0.86602068 -0.50000817 0.00000004
vn 0.86602116 0.50000739 -0.00000004
vn 0.86602074 -0.50000811 0.00000004
vn 0.86602032 0.50000882 -0.00000004
vn -0.00000250 1.00000000 -0.00000008
vn -0.00000250 1.00000000 -0.00000008
vn 0.86602032 0.50000882 -0.00000004
vn -0.00000250 1.00000000 -0.00000008
vn 0.86602116 0.50000739 -0.00000004
vt 0.00000000 0.00000000
vt 0.00000000 0.00000000
vt 0.00000000 0.00000000
vt 0.00000000 0.00000000
vt 0.00000000 0.00000000
vt 0.00000000 0.00000000
vt 0.00000000 0.00000000
vt 0.00000000 0.00000000
vt 0.00000000 0.00000000
vt 0.00000000 0.00000000
vt 0.00000000 0.00000000
vt 0.00000000 0.00000000
vt 0.00000000 0.00000000
vt 0.00000000 0.00000000
vt 0.00000000 0.00000000
vt 0.00000000 0.00000000
vt 0.00000000 0.00000000
vt 0.00000000 0.00000000
vt 0.00000000 0.00000000
vt 0.00000000 0.00000000
vt 0.00000000 0.00000000
vt 0.00000000 0.00000000
vt 0.00000000 0.00000000
vt 0.00000000 0.00000000
vt 0.00000000 0.00000000
vt 0.00000000 0.00000000
vt 0.00000000 0.00000000
vt 0.00000000 0.00000000
vt 0.00000000 0.00000000
vt 0.00000000 0.00000000
vt 0.00000000 0.00000000
vt 0.00000000 0.00000000
vt 0.00000000 0.00000000
vt 0.00000000 0.00000000
vt 0.00000000 0.00000000
vt 0.00000000 0.00000000
f 1/1/1 2/2/2 3/3/3
f 4/4/4 5/5/5 6/6/6
f 7/7/7 8/8/8 9/9/9
f 10/10/10 11/11/11 12/12/12
f 13/13/13 14/14/14 15/15/15
f 16/16/16 17/17/17 18/18/18
f 19/19/19 20/20/20 21/21/21
f 22/22/22 23/23/23 24/24/24
f 25/25/25 26/26/26 27/27/27
f 28/28/28 29/29/29 30/30/30
f 31/31/31 32/32/32 33/33/33
f 34/34/34 35/35/35 36/36/36

