####
#
# OBJ File Generated by Meshlab
#
####
# Object cube.obj
#
# Vertices: 82
# Faces: 160
#
####
v 1.0000000 1.0000000 1.0000000
v 1.0000000 1.0000000 -1.0000000
v 1.0000000 -1.0000000 1.0000000
v 1.0000000 -1.0000000 -1.0000000
v -1.0000000 1.0000000 1.0000000
v -1.0000000 1.0000000 -1.0000000
v -1.0000000 -1.0000000 1.0000000
v -1.0000000 -1.0000000 -1.0000000
v -1.0000000 0.0000000 1.0000000
v 0.0000000 0.0000000 1.0000000
v 1.0000000 0.0000000 1.0000000
v 1.0000000 -1.0000000 0.0000000
v 0.0000000 -1.0000000 0.0000000
v -1.0000000 -1.0000000 0.0000000
v -1.0000000 0.0000000 0.0000000
v -1.0000000 1.0000000 0.0000000
v -1.0000000 0.0000000 -1.0000000
v 1.0000000 0.0000000 -1.0000000
v 0.0000000 0.0000000 -1.0000000
v 1.0000000 1.0000000 0.0000000
v 1.0000000 0.0000000 0.0000000
v 0.0000000 1.0000000 0.0000000
v -1.0000000 0.5000000 1.0000000
v -0.5307692 0.0000000 1.0000000
v -0.4692308 0.5000000 1.0000000
v 0.4692308 -0.5000000 1.0000000
v 1.0000000 -0.5000000 1.0000000
v 0.5307692 0.0000000 1.0000000
v 1.0000000 -1.0000000 0.5000000
v 0.4692308 -1.0000000 0.5000000
v 0.5307692 -1.0000000 0.0000000
v -0.5307692 -1.0000000 0.0000000
v -1.0000000 -1.0000000 -0.5000000
v -0.4692308 -1.0000000 -0.5000000
v -1.0000000 -0.5000000 0.5000000
v -1.0000000 0.0000000 0.5000000
v -1.0000000 -0.5000000 0.0000000
v -1.0000000 0.5000000 0.0000000
v -1.0000000 0.5000000 -0.5000000
v -1.0000000 0.0000000 -0.5000000
v 1.0000000 0.5000000 -1.0000000
v 0.5307692 0.0000000 -1.0000000
v 0.4692308 0.5000000 -1.0000000
v -0.4692308 -0.5000000 -1.0000000
v -1.0000000 -0.5000000 -1.0000000
v -0.5307692 0.0000000 -1.0000000
v 1.0000000 0.5000000 0.5000000
v 1.0000000 0.0000000 0.5000000
v 1.0000000 0.5000000 0.0000000
v 1.0000000 -0.5000000 0.0000000
v 1.0000000 -0.5000000 -0.5000000
v 1.0000000 0.0000000 -0.5000000
v -1.0000000 1.0000000 0.5000000
v -0.4692308 1.0000000 0.5000000
v -0.5307692 1.0000000 0.0000000
v 0.5307692 1.0000000 0.0000000
v 1.0000000 1.0000000 -0.5000000
v 0.4692308 1.0000000 -0.5000000
v 0.0000000 1.0000000 1.0000000
v 0.4692308 0.5000000 1.0000000
v -1.0000000 -0.5000000 1.0000000
v -0.4692308 -0.5000000 1.0000000
v 1.0000000 0.5000000 1.0000000
v 0.0000000 -1.0000000 1.0000000
v 1.0000000 -1.0000000 -0.5000000
v 0.4692308 -1.0000000 -0.5000000
v -0.4692308 -1.0000000 0.5000000
v 0.0000000 -1.0000000 -1.0000000
v -1.0000000 -1.0000000 0.5000000
v -1.0000000 -0.5000000 -0.5000000
v -1.0000000 0.5000000 0.5000000
v -1.0000000 1.0000000 -0.5000000
v -1.0000000 0.5000000 -1.0000000
v 0.0000000 1.0000000 -1.0000000
v -0.4692308 0.5000000 -1.0000000
v 1.0000000 -0.5000000 -1.0000000
v 0.4692308 -0.5000000 -1.0000000
v 1.0000000 0.5000000 -0.5000000
v 1.0000000 1.0000000 0.5000000
v 1.0000000 -0.5000000 0.5000000
v -0.4692308 1.0000000 -0.5000000
v 0.4692308 1.0000000 0.5000000
# 82 vertices, 0 vertices normals

f 23 24 25
f 26 27 28
f 29 30 31
f 32 33 34
f 35 36 37
f 38 39 40
f 41 42 43
f 44 45 46
f 47 48 49
f 50 51 52
f 53 54 55
f 56 57 58
f 59 25 60
f 24 61 62
f 60 28 63
f 62 64 26
f 65 31 66
f 30 64 67
f 66 34 68
f 67 69 32
f 33 37 70
f 69 61 35
f 36 23 71
f 70 40 45
f 71 53 38
f 39 72 73
f 74 43 75
f 42 76 77
f 75 46 73
f 77 68 44
f 57 49 78
f 79 63 47
f 48 27 80
f 78 52 41
f 80 29 50
f 51 65 76
f 72 55 81
f 54 59 82
f 81 58 74
f 82 79 56
f 5 23 25
f 23 9 24
f 25 24 10
f 10 26 28
f 26 3 27
f 28 27 11
f 12 29 31
f 29 3 30
f 31 30 13
f 13 32 34
f 32 14 33
f 34 33 8
f 14 35 37
f 35 9 36
f 37 36 15
f 15 38 40
f 38 16 39
f 40 39 17
f 2 41 43
f 41 18 42
f 43 42 19
f 19 44 46
f 44 8 45
f 46 45 17
f 20 47 49
f 47 11 48
f 49 48 21
f 21 50 52
f 50 12 51
f 52 51 18
f 16 53 55
f 53 5 54
f 55 54 22
f 22 56 58
f 56 20 57
f 58 57 2
f 1 59 60
f 59 5 25
f 60 25 10
f 10 24 62
f 24 9 61
f 62 61 7
f 1 60 63
f 60 10 28
f 63 28 11
f 10 62 26
f 62 7 64
f 26 64 3
f 4 65 66
f 65 12 31
f 66 31 13
f 13 30 67
f 30 3 64
f 67 64 7
f 4 66 68
f 66 13 34
f 68 34 8
f 13 67 32
f 67 7 69
f 32 69 14
f 8 33 70
f 33 14 37
f 70 37 15
f 14 69 35
f 69 7 61
f 35 61 9
f 15 36 71
f 36 9 23
f 71 23 5
f 8 70 45
f 70 15 40
f 45 40 17
f 15 71 38
f 71 5 53
f 38 53 16
f 17 39 73
f 39 16 72
f 73 72 6
f 6 74 75
f 74 2 43
f 75 43 19
f 19 42 77
f 42 18 76
f 77 76 4
f 6 75 73
f 75 19 46
f 73 46 17
f 19 77 44
f 77 4 68
f 44 68 8
f 2 57 78
f 57 20 49
f 78 49 21
f 20 79 47
f 79 1 63
f 47 63 11
f 21 48 80
f 48 11 27
f 80 27 3
f 2 78 41
f 78 21 52
f 41 52 18
f 21 80 50
f 80 3 29
f 50 29 12
f 18 51 76
f 51 12 65
f 76 65 4
f 6 72 81
f 72 16 55
f 81 55 22
f 22 54 82
f 54 5 59
f 82 59 1
f 6 81 74
f 81 22 58
f 74 58 2
f 22 82 56
f 82 1 79
f 56 79 20
# 160 faces, 0 coords texture

# End of File
