####
#
# OBJ File Generated by Meshlab
#
####
# Object cube640.obj
#
# Vertices: 322
# Faces: 640
#
####
v 1.0000000 1.0000000 1.0000000
v 1.0000000 1.0000000 -1.0000000
v 1.0000000 -1.0000000 1.0000000
v 1.0000000 -1.0000000 -1.0000000
v -1.0000000 1.0000000 1.0000000
v -1.0000000 1.0000000 -1.0000000
v -1.0000000 -1.0000000 1.0000000
v -1.0000000 -1.0000000 -1.0000000
v -1.0000000 0.0000000 1.0000000
v 0.0000000 0.0000000 1.0000000
v 1.0000000 0.0000000 1.0000000
v 1.0000000 -1.0000000 0.0000000
v 0.0000000 -1.0000000 0.0000000
v -1.0000000 -1.0000000 0.0000000
v -1.0000000 0.0000000 0.0000000
v -1.0000000 1.0000000 0.0000000
v -1.0000000 0.0000000 -1.0000000
v 1.0000000 0.0000000 -1.0000000
v 0.0000000 0.0000000 -1.0000000
v 1.0000000 1.0000000 0.0000000
v 1.0000000 0.0000000 0.0000000
v 0.0000000 1.0000000 0.0000000
v -1.0000000 0.5000000 1.0000000
v -0.5423669 0.0000000 1.0000000
v -0.4576332 0.5000000 1.0000000
v 0.4576332 -0.5000000 1.0000000
v 1.0000000 -0.5000000 1.0000000
v 0.5423669 0.0000000 1.0000000
v 1.0000000 -1.0000000 0.5000000
v 0.4576332 -1.0000000 0.5000000
v 0.5423669 -1.0000000 0.0000000
v -0.5423669 -1.0000000 0.0000000
v -1.0000000 -1.0000000 -0.5000000
v -0.4576332 -1.0000000 -0.5000000
v -1.0000000 -0.5000000 0.5000000
v -1.0000000 0.0000000 0.5000000
v -1.0000000 -0.5000000 0.0000000
v -1.0000000 0.5000000 0.0000000
v -1.0000000 0.5000000 -0.5000000
v -1.0000000 0.0000000 -0.5000000
v 1.0000000 0.5000000 -1.0000000
v 0.5423669 0.0000000 -1.0000000
v 0.4576332 0.5000000 -1.0000000
v -0.4576332 -0.5000000 -1.0000000
v -1.0000000 -0.5000000 -1.0000000
v -0.5423669 0.0000000 -1.0000000
v 1.0000000 0.5000000 0.5000000
v 1.0000000 0.0000000 0.5000000
v 1.0000000 0.5000000 0.0000000
v 1.0000000 -0.5000000 0.0000000
v 1.0000000 -0.5000000 -0.5000000
v 1.0000000 0.0000000 -0.5000000
v -1.0000000 1.0000000 0.5000000
v -0.4576332 1.0000000 0.5000000
v -0.5423669 1.0000000 0.0000000
v 0.5423669 1.0000000 0.0000000
v 1.0000000 1.0000000 -0.5000000
v 0.4576332 1.0000000 -0.5000000
v 0.0000000 1.0000000 1.0000000
v 0.4576332 0.5000000 1.0000000
v -1.0000000 -0.5000000 1.0000000
v -0.4576332 -0.5000000 1.0000000
v 1.0000000 0.5000000 1.0000000
v 0.0000000 -1.0000000 1.0000000
v 1.0000000 -1.0000000 -0.5000000
v 0.4576332 -1.0000000 -0.5000000
v -0.4576332 -1.0000000 0.5000000
v 0.0000000 -1.0000000 -1.0000000
v -1.0000000 -1.0000000 0.5000000
v -1.0000000 -0.5000000 -0.5000000
v -1.0000000 0.5000000 0.5000000
v -1.0000000 1.0000000 -0.5000000
v -1.0000000 0.5000000 -1.0000000
v 0.0000000 1.0000000 -1.0000000
v -0.4576332 0.5000000 -1.0000000
v 1.0000000 -0.5000000 -1.0000000
v 0.4576332 -0.5000000 -1.0000000
v 1.0000000 0.5000000 -0.5000000
v 1.0000000 1.0000000 0.5000000
v 1.0000000 -0.5000000 0.5000000
v -0.4576332 1.0000000 -0.5000000
v 0.4576332 1.0000000 0.5000000
v -0.7634912 0.2500000 1.0000000
v -0.5000000 0.2500000 1.0000000
v -0.7365089 0.5000000 1.0000000
v 0.7365089 -0.5000000 1.0000000
v 0.7634912 -0.2500000 1.0000000
v 0.5000000 -0.2500000 1.0000000
v 0.7365089 -1.0000000 0.5000000
v 0.5000000 -1.0000000 0.2500000
v 0.7634912 -1.0000000 0.2500000
v -0.7634912 -1.0000000 -0.2500000
v -0.7365089 -1.0000000 -0.5000000
v -0.5000000 -1.0000000 -0.2500000
v -1.0000000 -0.2500000 0.5000000
v -1.0000000 -0.2500000 0.2500000
v -1.0000000 -0.5000000 0.2500000
v -1.0000000 0.5000000 -0.2500000
v -1.0000000 0.2500000 -0.5000000
v -1.0000000 0.2500000 -0.2500000
v 0.7634912 0.2500000 -1.0000000
v 0.5000000 0.2500000 -1.0000000
v 0.7365089 0.5000000 -1.0000000
v -0.7365089 -0.5000000 -1.0000000
v -0.7634912 -0.2500000 -1.0000000
v -0.5000000 -0.2500000 -1.0000000
v 1.0000000 0.2500000 0.5000000
v 1.0000000 0.2500000 0.2500000
v 1.0000000 0.5000000 0.2500000
v 1.0000000 -0.5000000 -0.2500000
v 1.0000000 -0.2500000 -0.5000000
v 1.0000000 -0.2500000 -0.2500000
v -0.7365089 1.0000000 0.5000000
v -0.5000000 1.0000000 0.2500000
v -0.7634912 1.0000000 0.2500000
v 0.7634912 1.0000000 -0.2500000
v 0.7365089 1.0000000 -0.5000000
v 0.5000000 1.0000000 -0.2500000
v -0.2365089 0.7500000 1.0000000
v 0.0000000 0.5000000 1.0000000
v 0.2365089 0.7500000 1.0000000
v -0.7634912 -0.2500000 1.0000000
v -0.7365089 -0.5000000 1.0000000
v -0.5000000 -0.2500000 1.0000000
v 0.5000000 0.2500000 1.0000000
v 0.7634912 0.2500000 1.0000000
v 0.7365089 0.5000000 1.0000000
v -0.2365089 -0.7500000 1.0000000
v 0.2365089 -0.7500000 1.0000000
v 0.0000000 -0.5000000 1.0000000
v 0.7634912 -1.0000000 -0.2500000
v 0.5000000 -1.0000000 -0.2500000
v 0.7365089 -1.0000000 -0.5000000
v 0.2365089 -1.0000000 0.7500000
v -0.2365089 -1.0000000 0.7500000
v 0.0000000 -1.0000000 0.5000000
v 0.0000000 -1.0000000 -0.5000000
v -0.2365089 -1.0000000 -0.7500000
v 0.2365089 -1.0000000 -0.7500000
v -0.7365089 -1.0000000 0.5000000
v -0.7634912 -1.0000000 0.2500000
v -0.5000000 -1.0000000 0.2500000
v -1.0000000 -0.7500000 -0.2500000
v -1.0000000 -0.5000000 -0.2500000
v -1.0000000 -0.7500000 -0.5000000
v -1.0000000 -0.7500000 0.7500000
v -1.0000000 -0.5000000 0.7500000
v -1.0000000 -0.7500000 0.5000000
v -1.0000000 0.2500000 0.7500000
v -1.0000000 0.5000000 0.7500000
v -1.0000000 0.2500000 0.5000000
v -1.0000000 -0.2500000 -0.5000000
v -1.0000000 -0.2500000 -0.7500000
v -1.0000000 -0.5000000 -0.7500000
v -1.0000000 0.7500000 0.5000000
v -1.0000000 0.7500000 0.2500000
v -1.0000000 0.5000000 0.2500000
v -1.0000000 0.7500000 -0.5000000
v -1.0000000 0.7500000 -0.7500000
v -1.0000000 0.5000000 -0.7500000
v 0.2365089 0.7500000 -1.0000000
v 0.0000000 0.5000000 -1.0000000
v -0.2365089 0.7500000 -1.0000000
v 0.7634912 -0.2500000 -1.0000000
v 0.7365089 -0.5000000 -1.0000000
v 0.5000000 -0.2500000 -1.0000000
v -0.5000000 0.2500000 -1.0000000
v -0.7634912 0.2500000 -1.0000000
v -0.7365089 0.5000000 -1.0000000
v 0.2365089 -0.7500000 -1.0000000
v -0.2365089 -0.7500000 -1.0000000
v 0.0000000 -0.5000000 -1.0000000
v 1.0000000 0.7500000 -0.2500000
v 1.0000000 0.5000000 -0.2500000
v 1.0000000 0.7500000 -0.5000000
v 1.0000000 0.7500000 0.7500000
v 1.0000000 0.5000000 0.7500000
v 1.0000000 0.7500000 0.5000000
v 1.0000000 -0.2500000 0.7500000
v 1.0000000 -0.5000000 0.7500000
v 1.0000000 -0.2500000 0.5000000
v 1.0000000 0.2500000 -0.5000000
v 1.0000000 0.2500000 -0.7500000
v 1.0000000 0.5000000 -0.7500000
v 1.0000000 -0.7500000 0.5000000
v 1.0000000 -0.7500000 0.2500000
v 1.0000000 -0.5000000 0.2500000
v 1.0000000 -0.7500000 -0.5000000
v 1.0000000 -0.7500000 -0.7500000
v 1.0000000 -0.5000000 -0.7500000
v -0.7634912 1.0000000 -0.2500000
v -0.5000000 1.0000000 -0.2500000
v -0.7365089 1.0000000 -0.5000000
v -0.2365089 1.0000000 0.7500000
v 0.2365089 1.0000000 0.7500000
v 0.0000000 1.0000000 0.5000000
v 0.0000000 1.0000000 -0.5000000
v 0.2365089 1.0000000 -0.7500000
v -0.2365089 1.0000000 -0.7500000
v 0.7365089 1.0000000 0.5000000
v 0.7634912 1.0000000 0.2500000
v 0.5000000 1.0000000 0.2500000
v -1.0000000 0.7500000 1.0000000
v -0.7201775 0.7500000 1.0000000
v -1.0000000 0.2500000 1.0000000
v -0.7798225 0.0000000 1.0000000
v -0.2779290 0.0000000 1.0000000
v -0.2220710 0.2500000 1.0000000
v 0.2220710 -0.2500000 1.0000000
v 0.2779290 0.0000000 1.0000000
v 0.7201775 -0.7500000 1.0000000
v 1.0000000 -0.7500000 1.0000000
v 1.0000000 -0.2500000 1.0000000
v 0.7798225 0.0000000 1.0000000
v 1.0000000 -1.0000000 0.2500000
v 0.7798225 -1.0000000 0.0000000
v 1.0000000 -1.0000000 0.7500000
v 0.7201775 -1.0000000 0.7500000
v 0.2220710 -1.0000000 0.2500000
v 0.2779290 -1.0000000 0.0000000
v -0.2779290 -1.0000000 0.0000000
v -0.2220710 -1.0000000 -0.2500000
v -0.7798225 -1.0000000 0.0000000
v -1.0000000 -1.0000000 -0.2500000
v -1.0000000 -1.0000000 -0.7500000
v -0.7201775 -1.0000000 -0.7500000
v -1.0000000 -0.7500000 0.2500000
v -1.0000000 -0.7500000 0.0000000
v -1.0000000 -0.2500000 0.7500000
v -1.0000000 0.0000000 0.7500000
v -1.0000000 0.0000000 0.2500000
v -1.0000000 -0.2500000 0.0000000
v -1.0000000 0.2500000 0.0000000
v -1.0000000 0.0000000 -0.2500000
v -1.0000000 0.7500000 0.0000000
v -1.0000000 0.7500000 -0.2500000
v -1.0000000 0.2500000 -0.7500000
v -1.0000000 0.0000000 -0.7500000
v 1.0000000 0.7500000 -1.0000000
v 0.7201775 0.7500000 -1.0000000
v 1.0000000 0.2500000 -1.0000000
v 0.7798225 0.0000000 -1.0000000
v 0.2779290 0.0000000 -1.0000000
v 0.2220710 0.2500000 -1.0000000
v -0.2220710 -0.2500000 -1.0000000
v -0.2779290 0.0000000 -1.0000000
v -0.7201775 -0.7500000 -1.0000000
v -1.0000000 -0.7500000 -1.0000000
v -1.0000000 -0.2500000 -1.0000000
v -0.7798225 0.0000000 -1.0000000
v 1.0000000 0.7500000 0.2500000
v 1.0000000 0.7500000 0.0000000
v 1.0000000 0.2500000 0.7500000
v 1.0000000 0.0000000 0.7500000
v 1.0000000 0.0000000 0.2500000
v 1.0000000 0.2500000 0.0000000
v 1.0000000 -0.2500000 0.0000000
v 1.0000000 0.0000000 -0.2500000
v 1.0000000 -0.7500000 0.0000000
v 1.0000000 -0.7500000 -0.2500000
v 1.0000000 -0.2500000 -0.7500000
v 1.0000000 0.0000000 -0.7500000
v -1.0000000 1.0000000 0.2500000
v -0.7798225 1.0000000 0.0000000
v -1.0000000 1.0000000 0.7500000
v -0.7201775 1.0000000 0.7500000
v -0.2220710 1.0000000 0.2500000
v -0.2779290 1.0000000 0.0000000
v 0.2779290 1.0000000 0.0000000
v 0.2220710 1.0000000 -0.2500000
v 0.7798225 1.0000000 0.0000000
v 1.0000000 1.0000000 -0.2500000
v 1.0000000 1.0000000 -0.7500000
v 0.7201775 1.0000000 -0.7500000
v 0.5000000 1.0000000 1.0000000
v 0.7201775 0.7500000 1.0000000
v -0.5000000 1.0000000 1.0000000
v 0.2220710 0.2500000 1.0000000
v -0.2220710 -0.2500000 1.0000000
v -1.0000000 -0.2500000 1.0000000
v -1.0000000 -0.7500000 1.0000000
v -0.7201775 -0.7500000 1.0000000
v 1.0000000 0.7500000 1.0000000
v 1.0000000 0.2500000 1.0000000
v -0.5000000 -1.0000000 1.0000000
v 0.5000000 -1.0000000 1.0000000
v 1.0000000 -1.0000000 -0.7500000
v 0.7201775 -1.0000000 -0.7500000
v 1.0000000 -1.0000000 -0.2500000
v 0.2220710 -1.0000000 -0.2500000
v -0.2220710 -1.0000000 0.2500000
v -0.7201775 -1.0000000 0.7500000
v 0.5000000 -1.0000000 -1.0000000
v -0.5000000 -1.0000000 -1.0000000
v -1.0000000 -1.0000000 0.7500000
v -1.0000000 -1.0000000 0.2500000
v -1.0000000 -0.7500000 -0.7500000
v -1.0000000 -0.2500000 -0.2500000
v -1.0000000 0.2500000 0.2500000
v -1.0000000 0.7500000 0.7500000
v -1.0000000 0.2500000 -1.0000000
v -1.0000000 1.0000000 -0.2500000
v -1.0000000 1.0000000 -0.7500000
v -1.0000000 0.7500000 -1.0000000
v -0.5000000 1.0000000 -1.0000000
v -0.7201775 0.7500000 -1.0000000
v 0.5000000 1.0000000 -1.0000000
v -0.2220710 0.2500000 -1.0000000
v 0.2220710 -0.2500000 -1.0000000
v 1.0000000 -0.2500000 -1.0000000
v 1.0000000 -0.7500000 -1.0000000
v 0.7201775 -0.7500000 -1.0000000
v 1.0000000 0.7500000 -0.7500000
v 1.0000000 0.2500000 -0.2500000
v 1.0000000 1.0000000 0.2500000
v 1.0000000 1.0000000 0.7500000
v 1.0000000 -0.2500000 0.2500000
v 1.0000000 -0.7500000 0.7500000
v -0.7201775 1.0000000 -0.7500000
v -0.2220710 1.0000000 -0.2500000
v 0.2220710 1.0000000 0.2500000
v 0.7201775 1.0000000 0.7500000
# 322 vertices, 0 vertices normals

f 83 84 85
f 86 87 88
f 89 90 91
f 92 93 94
f 95 96 97
f 98 99 100
f 101 102 103
f 104 105 106
f 107 108 109
f 110 111 112
f 113 114 115
f 116 117 118
f 119 120 121
f 122 123 124
f 125 126 127
f 128 129 130
f 131 132 133
f 134 135 136
f 137 138 139
f 140 141 142
f 143 144 145
f 146 147 148
f 149 150 151
f 152 153 154
f 155 156 157
f 158 159 160
f 161 162 163
f 164 165 166
f 167 168 169
f 170 171 172
f 173 174 175
f 176 177 178
f 179 180 181
f 182 183 184
f 185 186 187
f 188 189 190
f 191 192 193
f 194 195 196
f 197 198 199
f 200 201 202
f 203 85 204
f 205 206 83
f 84 207 208
f 209 88 210
f 211 212 86
f 87 213 214
f 215 91 216
f 217 218 89
f 90 219 220
f 221 94 222
f 223 224 92
f 93 225 226
f 227 97 228
f 229 230 95
f 96 231 232
f 233 100 234
f 235 236 98
f 99 237 238
f 239 103 240
f 241 242 101
f 102 243 244
f 245 106 246
f 247 248 104
f 105 249 250
f 251 109 252
f 253 254 107
f 108 255 256
f 257 112 258
f 259 260 110
f 111 261 262
f 263 115 264
f 265 266 113
f 114 267 268
f 269 118 270
f 271 272 116
f 117 273 274
f 275 121 276
f 277 204 119
f 120 208 278
f 207 124 279
f 206 280 122
f 123 281 282
f 276 127 283
f 278 210 125
f 126 214 284
f 279 130 209
f 282 285 128
f 129 286 211
f 287 133 288
f 289 216 131
f 132 220 290
f 219 136 291
f 218 286 134
f 135 285 292
f 288 139 293
f 290 222 137
f 138 226 294
f 291 142 221
f 292 295 140
f 141 296 223
f 225 145 297
f 224 228 143
f 144 232 298
f 296 148 227
f 295 281 146
f 147 280 229
f 231 151 299
f 230 205 149
f 150 203 300
f 297 154 248
f 298 234 152
f 153 238 249
f 299 157 233
f 300 265 155
f 156 263 235
f 237 160 301
f 236 302 158
f 159 303 304
f 305 163 306
f 307 240 161
f 162 244 308
f 243 166 309
f 242 310 164
f 165 311 312
f 306 169 304
f 308 246 167
f 168 250 301
f 309 172 245
f 312 293 170
f 171 294 247
f 273 175 313
f 272 252 173
f 174 256 314
f 315 178 251
f 316 283 176
f 177 284 253
f 255 181 317
f 254 213 179
f 180 212 318
f 313 184 239
f 314 258 182
f 183 262 241
f 317 187 257
f 318 217 185
f 186 215 259
f 261 190 310
f 260 289 188
f 189 287 311
f 303 193 319
f 302 264 191
f 192 268 320
f 267 196 321
f 266 277 194
f 195 275 322
f 319 199 305
f 320 270 197
f 198 274 307
f 321 202 269
f 322 316 200
f 201 315 271
f 23 83 85
f 83 24 84
f 85 84 25
f 26 86 88
f 86 27 87
f 88 87 28
f 29 89 91
f 89 30 90
f 91 90 31
f 32 92 94
f 92 33 93
f 94 93 34
f 35 95 97
f 95 36 96
f 97 96 37
f 38 98 100
f 98 39 99
f 100 99 40
f 41 101 103
f 101 42 102
f 103 102 43
f 44 104 106
f 104 45 105
f 106 105 46
f 47 107 109
f 107 48 108
f 109 108 49
f 50 110 112
f 110 51 111
f 112 111 52
f 53 113 115
f 113 54 114
f 115 114 55
f 56 116 118
f 116 57 117
f 118 117 58
f 59 119 121
f 119 25 120
f 121 120 60
f 24 122 124
f 122 61 123
f 124 123 62
f 60 125 127
f 125 28 126
f 127 126 63
f 62 128 130
f 128 64 129
f 130 129 26
f 65 131 133
f 131 31 132
f 133 132 66
f 30 134 136
f 134 64 135
f 136 135 67
f 66 137 139
f 137 34 138
f 139 138 68
f 67 140 142
f 140 69 141
f 142 141 32
f 33 143 145
f 143 37 144
f 145 144 70
f 69 146 148
f 146 61 147
f 148 147 35
f 36 149 151
f 149 23 150
f 151 150 71
f 70 152 154
f 152 40 153
f 154 153 45
f 71 155 157
f 155 53 156
f 157 156 38
f 39 158 160
f 158 72 159
f 160 159 73
f 74 161 163
f 161 43 162
f 163 162 75
f 42 164 166
f 164 76 165
f 166 165 77
f 75 167 169
f 167 46 168
f 169 168 73
f 77 170 172
f 170 68 171
f 172 171 44
f 57 173 175
f 173 49 174
f 175 174 78
f 79 176 178
f 176 63 177
f 178 177 47
f 48 179 181
f 179 27 180
f 181 180 80
f 78 182 184
f 182 52 183
f 184 183 41
f 80 185 187
f 185 29 186
f 187 186 50
f 51 188 190
f 188 65 189
f 190 189 76
f 72 191 193
f 191 55 192
f 193 192 81
f 54 194 196
f 194 59 195
f 196 195 82
f 81 197 199
f 197 58 198
f 199 198 74
f 82 200 202
f 200 79 201
f 202 201 56
f 5 203 204
f 203 23 85
f 204 85 25
f 23 205 83
f 205 9 206
f 83 206 24
f 25 84 208
f 84 24 207
f 208 207 10
f 10 209 210
f 209 26 88
f 210 88 28
f 26 211 86
f 211 3 212
f 86 212 27
f 28 87 214
f 87 27 213
f 214 213 11
f 12 215 216
f 215 29 91
f 216 91 31
f 29 217 89
f 217 3 218
f 89 218 30
f 31 90 220
f 90 30 219
f 220 219 13
f 13 221 222
f 221 32 94
f 222 94 34
f 32 223 92
f 223 14 224
f 92 224 33
f 34 93 226
f 93 33 225
f 226 225 8
f 14 227 228
f 227 35 97
f 228 97 37
f 35 229 95
f 229 9 230
f 95 230 36
f 37 96 232
f 96 36 231
f 232 231 15
f 15 233 234
f 233 38 100
f 234 100 40
f 38 235 98
f 235 16 236
f 98 236 39
f 40 99 238
f 99 39 237
f 238 237 17
f 2 239 240
f 239 41 103
f 240 103 43
f 41 241 101
f 241 18 242
f 101 242 42
f 43 102 244
f 102 42 243
f 244 243 19
f 19 245 246
f 245 44 106
f 246 106 46
f 44 247 104
f 247 8 248
f 104 248 45
f 46 105 250
f 105 45 249
f 250 249 17
f 20 251 252
f 251 47 109
f 252 109 49
f 47 253 107
f 253 11 254
f 107 254 48
f 49 108 256
f 108 48 255
f 256 255 21
f 21 257 258
f 257 50 112
f 258 112 52
f 50 259 110
f 259 12 260
f 110 260 51
f 52 111 262
f 111 51 261
f 262 261 18
f 16 263 264
f 263 53 115
f 264 115 55
f 53 265 113
f 265 5 266
f 113 266 54
f 55 114 268
f 114 54 267
f 268 267 22
f 22 269 270
f 269 56 118
f 270 118 58
f 56 271 116
f 271 20 272
f 116 272 57
f 58 117 274
f 117 57 273
f 274 273 2
f 1 275 276
f 275 59 121
f 276 121 60
f 59 277 119
f 277 5 204
f 119 204 25
f 60 120 278
f 120 25 208
f 278 208 10
f 10 207 279
f 207 24 124
f 279 124 62
f 24 206 122
f 206 9 280
f 122 280 61
f 62 123 282
f 123 61 281
f 282 281 7
f 1 276 283
f 276 60 127
f 283 127 63
f 60 278 125
f 278 10 210
f 125 210 28
f 63 126 284
f 126 28 214
f 284 214 11
f 10 279 209
f 279 62 130
f 209 130 26
f 62 282 128
f 282 7 285
f 128 285 64
f 26 129 211
f 129 64 286
f 211 286 3
f 4 287 288
f 287 65 133
f 288 133 66
f 65 289 131
f 289 12 216
f 131 216 31
f 66 132 290
f 132 31 220
f 290 220 13
f 13 219 291
f 219 30 136
f 291 136 67
f 30 218 134
f 218 3 286
f 134 286 64
f 67 135 292
f 135 64 285
f 292 285 7
f 4 288 293
f 288 66 139
f 293 139 68
f 66 290 137
f 290 13 222
f 137 222 34
f 68 138 294
f 138 34 226
f 294 226 8
f 13 291 221
f 291 67 142
f 221 142 32
f 67 292 140
f 292 7 295
f 140 295 69
f 32 141 223
f 141 69 296
f 223 296 14
f 8 225 297
f 225 33 145
f 297 145 70
f 33 224 143
f 224 14 228
f 143 228 37
f 70 144 298
f 144 37 232
f 298 232 15
f 14 296 227
f 296 69 148
f 227 148 35
f 69 295 146
f 295 7 281
f 146 281 61
f 35 147 229
f 147 61 280
f 229 280 9
f 15 231 299
f 231 36 151
f 299 151 71
f 36 230 149
f 230 9 205
f 149 205 23
f 71 150 300
f 150 23 203
f 300 203 5
f 8 297 248
f 297 70 154
f 248 154 45
f 70 298 152
f 298 15 234
f 152 234 40
f 45 153 249
f 153 40 238
f 249 238 17
f 15 299 233
f 299 71 157
f 233 157 38
f 71 300 155
f 300 5 265
f 155 265 53
f 38 156 235
f 156 53 263
f 235 263 16
f 17 237 301
f 237 39 160
f 301 160 73
f 39 236 158
f 236 16 302
f 158 302 72
f 73 159 304
f 159 72 303
f 304 303 6
f 6 305 306
f 305 74 163
f 306 163 75
f 74 307 161
f 307 2 240
f 161 240 43
f 75 162 308
f 162 43 244
f 308 244 19
f 19 243 309
f 243 42 166
f 309 166 77
f 42 242 164
f 242 18 310
f 164 310 76
f 77 165 312
f 165 76 311
f 312 311 4
f 6 306 304
f 306 75 169
f 304 169 73
f 75 308 167
f 308 19 246
f 167 246 46
f 73 168 301
f 168 46 250
f 301 250 17
f 19 309 245
f 309 77 172
f 245 172 44
f 77 312 170
f 312 4 293
f 170 293 68
f 44 171 247
f 171 68 294
f 247 294 8
f 2 273 313
f 273 57 175
f 313 175 78
f 57 272 173
f 272 20 252
f 173 252 49
f 78 174 314
f 174 49 256
f 314 256 21
f 20 315 251
f 315 79 178
f 251 178 47
f 79 316 176
f 316 1 283
f 176 283 63
f 47 177 253
f 177 63 284
f 253 284 11
f 21 255 317
f 255 48 181
f 317 181 80
f 48 254 179
f 254 11 213
f 179 213 27
f 80 180 318
f 180 27 212
f 318 212 3
f 2 313 239
f 313 78 184
f 239 184 41
f 78 314 182
f 314 21 258
f 182 258 52
f 41 183 241
f 183 52 262
f 241 262 18
f 21 317 257
f 317 80 187
f 257 187 50
f 80 318 185
f 318 3 217
f 185 217 29
f 50 186 259
f 186 29 215
f 259 215 12
f 18 261 310
f 261 51 190
f 310 190 76
f 51 260 188
f 260 12 289
f 188 289 65
f 76 189 311
f 189 65 287
f 311 287 4
f 6 303 319
f 303 72 193
f 319 193 81
f 72 302 191
f 302 16 264
f 191 264 55
f 81 192 320
f 192 55 268
f 320 268 22
f 22 267 321
f 267 54 196
f 321 196 82
f 54 266 194
f 266 5 277
f 194 277 59
f 82 195 322
f 195 59 275
f 322 275 1
f 6 319 305
f 319 81 199
f 305 199 74
f 81 320 197
f 320 22 270
f 197 270 58
f 74 198 307
f 198 58 274
f 307 274 2
f 22 321 269
f 321 82 202
f 269 202 56
f 82 322 200
f 322 1 316
f 200 316 79
f 56 201 271
f 201 79 315
f 271 315 20
# 640 faces, 0 coords texture

# End of File
