####
#
# OBJ File Generated by Meshlab
#
####
# Object cylinder.obj
#
# Vertices: 246
# Faces: 488
#
####
v 0.0000000 1.0000000 -1.0000000
v 0.1950900 0.9807850 1.0000000
v 0.3826830 0.9238800 -1.0000000
v 0.5555700 0.8314700 -1.0000000
v 0.5555700 0.8314700 1.0000000
v 0.7071070 0.7071070 -1.0000000
v 0.7071070 0.7071070 1.0000000
v 0.8314700 0.5555700 -1.0000000
v 0.8314700 0.5555700 1.0000000
v 0.9238800 0.3826830 -1.0000000
v 0.9238800 0.3826830 1.0000000
v 0.9807850 0.1950900 -1.0000000
v 0.9807850 0.1950900 1.0000000
v 1.0000000 0.0000000 -1.0000000
v 1.0000000 0.0000000 1.0000000
v 0.9807850 -0.1950900 -1.0000000
v 0.9807850 -0.1950900 1.0000000
v 0.9238800 -0.3826830 -1.0000000
v 0.9238800 -0.3826830 1.0000000
v 0.8314700 -0.5555700 -1.0000000
v 0.8314700 -0.5555700 1.0000000
v 0.7071070 -0.7071070 -1.0000000
v 0.7071070 -0.7071070 1.0000000
v 0.5555700 -0.8314700 -1.0000000
v 0.5555700 -0.8314700 1.0000000
v 0.3826830 -0.9238800 -1.0000000
v 0.3826830 -0.9238800 1.0000000
v 0.1950900 -0.9807850 -1.0000000
v 0.1950900 -0.9807850 1.0000000
v 0.0000000 -1.0000000 -1.0000000
v 0.0000000 -1.0000000 1.0000000
v -0.1950900 -0.9807850 -1.0000000
v -0.1950900 -0.9807850 1.0000000
v -0.3826830 -0.9238800 -1.0000000
v -0.3826830 -0.9238800 1.0000000
v -0.5555700 -0.8314700 -1.0000000
v -0.5555700 -0.8314700 1.0000000
v -0.7071070 -0.7071070 -1.0000000
v -0.7071070 -0.7071070 1.0000000
v -0.8314700 -0.5555700 -1.0000000
v -0.8314700 -0.5555700 1.0000000
v -0.9238800 -0.3826830 -1.0000000
v -0.9238800 -0.3826830 1.0000000
v -0.9807850 -0.1950900 -1.0000000
v -0.9807850 -0.1950900 1.0000000
v -1.0000000 0.0000000 -1.0000000
v -1.0000000 0.0000000 1.0000000
v -0.9807850 0.1950900 -1.0000000
v -0.9807850 0.1950900 1.0000000
v -0.9238800 0.3826830 -1.0000000
v -0.9238800 0.3826830 1.0000000
v -0.8314700 0.5555700 -1.0000000
v -0.8314700 0.5555700 1.0000000
v -0.7071070 0.7071070 -1.0000000
v -0.7071070 0.7071070 1.0000000
v -0.5555700 0.8314700 -1.0000000
v -0.5555700 0.8314700 1.0000000
v -0.3826830 0.9238800 -1.0000000
v -0.3826830 0.9238800 1.0000000
v -0.1950900 0.9807850 1.0000000
v -0.0045886 0.9995481 0.0000000
v 0.0487725 0.9951962 1.0000000
v 0.0975450 0.9903925 0.0000000
v 0.1995023 0.9794466 0.0000000
v 0.1463175 0.9855888 -1.0000000
v 0.2888865 0.9523325 1.0000000
v 0.2888865 0.9523325 0.0000000
v 0.3782708 0.9252184 0.0000000
v 0.2888865 0.9523325 -1.0000000
v 0.4259048 0.9007775 1.0000000
v 0.4677966 0.8783858 0.0000000
v 0.5554678 0.8315246 0.0000000
v 0.4691265 0.8776750 -1.0000000
v 0.6313385 0.7692885 1.0000000
v 0.6313385 0.7692885 0.0000000
v 0.7070174 0.7071806 0.0000000
v 0.6313385 0.7692885 -1.0000000
v 0.7692885 0.6313385 1.0000000
v 0.7692885 0.6313385 0.0000000
v 0.8315246 0.5554678 0.0000000
v 0.7692885 0.6313385 -1.0000000
v 0.8776750 0.4691265 1.0000000
v 0.8776750 0.4691265 0.0000000
v 0.9239135 0.3825721 0.0000000
v 0.8776750 0.4691265 -1.0000000
v 0.9523325 0.2888865 1.0000000
v 0.9523325 0.2888865 0.0000000
v 0.9807513 0.1952009 0.0000000
v 0.9523325 0.2888865 -1.0000000
v 0.9903925 0.0975450 1.0000000
v 0.9903925 0.0975450 0.0000000
v 0.9999886 0.0001153 0.0000000
v 0.9903925 0.0975450 -1.0000000
v 0.9903925 -0.0975450 1.0000000
v 0.9903925 -0.0975450 0.0000000
v 0.9807964 -0.1949747 0.0000000
v 0.9903925 -0.0975450 -1.0000000
v 0.9523325 -0.2888865 1.0000000
v 0.9523325 -0.2888865 0.0000000
v 0.9239136 -0.3825721 0.0000000
v 0.9523325 -0.2888865 -1.0000000
v 0.8776750 -0.4691265 1.0000000
v 0.8776750 -0.4691265 0.0000000
v 0.8315246 -0.5554678 0.0000000
v 0.8776750 -0.4691265 -1.0000000
v 0.7692885 -0.6313385 1.0000000
v 0.7692885 -0.6313385 0.0000000
v 0.7071806 -0.7070174 0.0000000
v 0.7692885 -0.6313385 -1.0000000
v 0.6313385 -0.7692885 1.0000000
v 0.6313385 -0.7692885 0.0000000
v 0.5554678 -0.8315246 0.0000000
v 0.6313385 -0.7692885 -1.0000000
v 0.4691265 -0.8776750 1.0000000
v 0.4691265 -0.8776750 0.0000000
v 0.3825721 -0.9239135 0.0000000
v 0.4691265 -0.8776750 -1.0000000
v 0.2888865 -0.9523325 1.0000000
v 0.2888865 -0.9523325 0.0000000
v 0.1952009 -0.9807513 0.0000000
v 0.2888865 -0.9523325 -1.0000000
v 0.0975450 -0.9903925 1.0000000
v 0.0975450 -0.9903925 0.0000000
v 0.0001153 -0.9999886 0.0000000
v 0.0975450 -0.9903925 -1.0000000
v -0.0975450 -0.9903925 1.0000000
v -0.0975450 -0.9903925 0.0000000
v -0.1949747 -0.9807964 0.0000000
v -0.0975450 -0.9903925 -1.0000000
v -0.2888865 -0.9523325 1.0000000
v -0.2888865 -0.9523325 0.0000000
v -0.3827853 -0.9238253 0.0000000
v -0.2888865 -0.9523325 -1.0000000
v -0.4691265 -0.8776750 1.0000000
v -0.4691265 -0.8776750 0.0000000
v -0.5554678 -0.8315246 0.0000000
v -0.4691265 -0.8776750 -1.0000000
v -0.6313385 -0.7692885 1.0000000
v -0.6313385 -0.7692885 0.0000000
v -0.7070174 -0.7071806 0.0000000
v -0.6313385 -0.7692885 -1.0000000
v -0.7692885 -0.6313385 1.0000000
v -0.7692885 -0.6313385 0.0000000
v -0.8315246 -0.5554678 0.0000000
v -0.7692885 -0.6313385 -1.0000000
v -0.8776750 -0.4691265 1.0000000
v -0.8776750 -0.4691265 0.0000000
v -0.9239135 -0.3825721 0.0000000
v -0.8776750 -0.4691265 -1.0000000
v -0.9523325 -0.2888865 1.0000000
v -0.9523325 -0.2888865 0.0000000
v -0.9807513 -0.1952009 0.0000000
v -0.9523325 -0.2888865 -1.0000000
v -0.9903925 -0.0975450 1.0000000
v -0.9903925 -0.0975450 0.0000000
v -0.9999886 -0.0001153 0.0000000
v -0.9903925 -0.0975450 -1.0000000
v -0.9903925 0.0975450 1.0000000
v -0.9903925 0.0975450 0.0000000
v -0.9807964 0.1949747 0.0000000
v -0.9903925 0.0975450 -1.0000000
v -0.9523325 0.2888865 1.0000000
v -0.9523325 0.2888865 0.0000000
v -0.9239136 0.3825721 0.0000000
v -0.9523325 0.2888865 -1.0000000
v -0.8776750 0.4691265 1.0000000
v -0.8776750 0.4691265 0.0000000
v -0.8315246 0.5554678 0.0000000
v -0.8776750 0.4691265 -1.0000000
v -0.7692885 0.6313385 1.0000000
v -0.7692885 0.6313385 0.0000000
v -0.7070174 0.7071806 0.0000000
v -0.7692885 0.6313385 -1.0000000
v -0.6313385 0.7692885 1.0000000
v -0.6313385 0.7692885 0.0000000
v -0.5554678 0.8315246 0.0000000
v -0.6313385 0.7692885 -1.0000000
v -0.4691265 0.8776750 1.0000000
v -0.4691265 0.8776750 0.0000000
v -0.3825721 0.9239135 0.0000000
v -0.4691265 0.8776750 -1.0000000
v -0.0975450 0.9903925 1.0000000
v -0.0051843 0.9806238 1.0000000
v -0.2888865 0.9523325 1.0000000
v -0.1026898 0.9526618 1.0000000
v -0.1950294 0.9053067 1.0000000
v -0.2763563 0.8408469 1.0000000
v -0.3435450 0.7617595 1.0000000
v -0.3940136 0.6710840 1.0000000
v -0.4258220 0.5723051 1.0000000
v -0.4377489 0.4692187 1.0000000
v -0.4293353 0.3657862 1.0000000
v -0.4009050 0.2659825 1.0000000
v -0.3535500 0.1736429 1.0000000
v -0.2890902 0.0923159 1.0000000
v -0.2100028 0.0251272 1.0000000
v -0.1211256 -0.0443230 1.0000000
v -0.0117749 -0.0591963 1.0000000
v 0.0915422 -0.0693723 1.0000000
v 0.1948593 -0.0591963 1.0000000
v 0.2942061 -0.0290601 1.0000000
v 0.3857648 0.0198790 1.0000000
v 0.4660167 0.0857400 1.0000000
v 0.5318778 0.1659920 1.0000000
v 0.5808168 0.2575506 1.0000000
v 0.6109530 0.3568974 1.0000000
v 0.6211290 0.4602145 1.0000000
v 0.6109530 0.5635316 1.0000000
v 0.5871338 0.6631606 1.0000000
v 0.5204716 0.7683355 1.0000000
v 0.4507884 0.8468060 1.0000000
v 0.3690926 0.9084978 1.0000000
v -0.2874434 0.9527702 0.0000000
v -0.1905014 0.9812369 0.0000000
v -0.2419882 0.9665588 -1.0000000
v -0.0975450 0.9903925 0.0000000
v -0.0975450 0.9903925 -1.0000000
v 0.1963948 0.9607704 -1.0000000
v 0.2865716 0.9143230 -1.0000000
v 0.3678986 0.8498632 -1.0000000
v 0.4350873 0.7707758 -1.0000000
v 0.4855558 0.6801003 -1.0000000
v 0.5173643 0.5813214 -1.0000000
v 0.5292912 0.4782349 -1.0000000
v 0.5208775 0.3748025 -1.0000000
v 0.4924472 0.2749988 -1.0000000
v 0.4450922 0.1826592 -1.0000000
v 0.3806324 0.1013322 -1.0000000
v 0.3015450 0.0341435 -1.0000000
v 0.2108695 -0.0163250 -1.0000000
v 0.1120906 -0.0481335 -1.0000000
v 0.0052024 -0.0784628 -1.0000000
v -0.1033171 -0.0501800 -1.0000000
v -0.2026639 -0.0200438 -1.0000000
v -0.2942225 0.0288952 -1.0000000
v -0.3744745 0.0947562 -1.0000000
v -0.4403355 0.1750082 -1.0000000
v -0.4892746 0.2665669 -1.0000000
v -0.5194108 0.3659137 -1.0000000
v -0.5295868 0.4692308 -1.0000000
v -0.5194108 0.5725479 -1.0000000
v -0.4892746 0.6718947 -1.0000000
v -0.4464760 0.7649626 -1.0000000
v -0.3605761 0.8551115 -1.0000000
v -0.2769229 0.9184795 -1.0000000
v -0.1847616 0.9630479 -1.0000000
# 246 vertices, 0 vertices normals

f 61 62 63
f 63 64 65
f 64 66 67
f 67 68 69
f 68 70 71
f 71 72 73
f 72 74 75
f 75 76 77
f 76 78 79
f 79 80 81
f 80 82 83
f 83 84 85
f 84 86 87
f 87 88 89
f 88 90 91
f 91 92 93
f 92 94 95
f 95 96 97
f 96 98 99
f 99 100 101
f 100 102 103
f 103 104 105
f 104 106 107
f 107 108 109
f 108 110 111
f 111 112 113
f 112 114 115
f 115 116 117
f 116 118 119
f 119 120 121
f 120 122 123
f 123 124 125
f 124 126 127
f 127 128 129
f 128 130 131
f 131 132 133
f 132 134 135
f 135 136 137
f 136 138 139
f 139 140 141
f 140 142 143
f 143 144 145
f 144 146 147
f 147 148 149
f 148 150 151
f 151 152 153
f 152 154 155
f 155 156 157
f 156 158 159
f 159 160 161
f 160 162 163
f 163 164 165
f 164 166 167
f 167 168 169
f 168 170 171
f 171 172 173
f 172 174 175
f 175 176 177
f 176 178 179
f 179 180 181
f 62 182 183
f 183 60 185
f 185 59 186
f 186 57 187
f 187 55 188
f 188 53 189
f 189 51 190
f 190 49 191
f 191 47 192
f 192 45 193
f 193 43 194
f 194 41 195
f 195 39 196
f 196 37 197
f 197 130 198
f 198 126 199
f 199 122 200
f 200 118 201
f 201 114 202
f 202 110 203
f 203 106 204
f 204 102 205
f 205 98 206
f 206 94 207
f 207 90 208
f 208 86 209
f 209 82 9
f 210 78 7
f 211 74 5
f 212 70 66
f 180 184 213
f 213 214 215
f 214 182 216
f 216 61 217
f 65 69 218
f 218 3 219
f 219 4 220
f 220 6 221
f 221 8 222
f 222 10 223
f 223 12 224
f 224 14 225
f 225 16 226
f 226 18 227
f 227 20 228
f 228 22 229
f 229 24 230
f 230 26 231
f 231 28 232
f 232 129 233
f 233 133 234
f 234 137 235
f 235 141 236
f 236 145 237
f 237 149 238
f 238 153 239
f 239 157 240
f 240 161 241
f 241 165 242
f 242 169 243
f 243 173 54
f 244 177 56
f 245 181 58
f 246 215 217
f 1 61 63
f 63 62 2
f 1 63 65
f 63 2 64
f 69 64 67
f 64 2 66
f 68 66 70
f 65 64 69
f 67 66 68
f 69 68 3
f 3 68 71
f 71 70 5
f 3 71 73
f 71 5 72
f 73 72 4
f 4 72 75
f 72 5 74
f 75 74 7
f 4 75 77
f 75 7 76
f 77 76 6
f 6 76 79
f 76 7 78
f 79 78 9
f 6 79 81
f 79 9 80
f 81 80 8
f 8 80 83
f 80 9 82
f 83 82 11
f 8 83 85
f 83 11 84
f 85 84 10
f 10 84 87
f 84 11 86
f 87 86 13
f 10 87 89
f 87 13 88
f 89 88 12
f 12 88 91
f 88 13 90
f 91 90 15
f 12 91 93
f 91 15 92
f 93 92 14
f 14 92 95
f 92 15 94
f 95 94 17
f 14 95 97
f 95 17 96
f 97 96 16
f 16 96 99
f 96 17 98
f 99 98 19
f 16 99 101
f 99 19 100
f 101 100 18
f 18 100 103
f 100 19 102
f 103 102 21
f 18 103 105
f 103 21 104
f 105 104 20
f 20 104 107
f 104 21 106
f 107 106 23
f 20 107 109
f 107 23 108
f 109 108 22
f 22 108 111
f 108 23 110
f 111 110 25
f 22 111 113
f 111 25 112
f 113 112 24
f 24 112 115
f 112 25 114
f 115 114 27
f 24 115 117
f 115 27 116
f 117 116 26
f 26 116 119
f 116 27 118
f 119 118 29
f 26 119 121
f 119 29 120
f 121 120 28
f 28 120 123
f 120 29 122
f 123 122 31
f 28 123 125
f 123 31 124
f 125 124 30
f 30 124 127
f 124 31 126
f 127 126 33
f 30 127 129
f 127 33 128
f 129 128 32
f 32 128 131
f 128 33 130
f 131 130 35
f 32 131 133
f 131 35 132
f 133 132 34
f 34 132 135
f 132 35 134
f 135 134 37
f 34 135 137
f 135 37 136
f 137 136 36
f 36 136 139
f 136 37 138
f 139 138 39
f 36 139 141
f 139 39 140
f 141 140 38
f 38 140 143
f 140 39 142
f 143 142 41
f 38 143 145
f 143 41 144
f 145 144 40
f 40 144 147
f 144 41 146
f 147 146 43
f 40 147 149
f 147 43 148
f 149 148 42
f 42 148 151
f 148 43 150
f 151 150 45
f 42 151 153
f 151 45 152
f 153 152 44
f 44 152 155
f 152 45 154
f 155 154 47
f 44 155 157
f 155 47 156
f 157 156 46
f 46 156 159
f 156 47 158
f 159 158 49
f 46 159 161
f 159 49 160
f 161 160 48
f 48 160 163
f 160 49 162
f 163 162 51
f 48 163 165
f 163 51 164
f 165 164 50
f 50 164 167
f 164 51 166
f 167 166 53
f 50 167 169
f 167 53 168
f 169 168 52
f 52 168 171
f 168 53 170
f 171 170 55
f 52 171 173
f 171 55 172
f 173 172 54
f 54 172 175
f 172 55 174
f 175 174 57
f 54 175 177
f 175 57 176
f 177 176 56
f 56 176 179
f 176 57 178
f 179 178 59
f 56 179 181
f 179 59 180
f 181 180 58
f 2 62 183
f 183 182 60
f 2 183 185
f 185 60 184
f 185 184 59
f 2 185 186
f 186 59 178
f 186 178 57
f 2 186 187
f 187 57 174
f 187 174 55
f 2 187 188
f 188 55 170
f 188 170 53
f 2 188 189
f 189 53 166
f 189 166 51
f 2 189 190
f 190 51 162
f 190 162 49
f 2 190 191
f 191 49 158
f 191 158 47
f 2 191 192
f 192 47 154
f 192 154 45
f 2 192 193
f 193 45 150
f 193 150 43
f 2 193 194
f 194 43 146
f 194 146 41
f 2 194 195
f 195 41 142
f 195 142 39
f 2 195 196
f 196 39 138
f 196 138 37
f 2 196 197
f 197 37 134
f 197 134 35
f 2 197 198
f 197 35 130
f 198 130 33
f 2 198 199
f 198 33 126
f 199 126 31
f 2 199 200
f 199 31 122
f 200 122 29
f 2 200 201
f 200 29 118
f 201 118 27
f 2 201 202
f 201 27 114
f 202 114 25
f 2 202 203
f 202 25 110
f 203 110 23
f 2 203 204
f 203 23 106
f 204 106 21
f 2 204 205
f 204 21 102
f 205 102 19
f 2 205 206
f 205 19 98
f 206 98 17
f 2 206 207
f 206 17 94
f 207 94 15
f 2 207 208
f 207 15 90
f 208 90 13
f 2 208 209
f 208 13 86
f 209 86 11
f 2 209 210
f 209 11 82
f 78 209 9
f 2 210 211
f 210 209 78
f 74 210 7
f 2 211 212
f 211 210 74
f 70 211 5
f 2 212 66
f 212 211 70
f 58 180 213
f 180 59 184
f 213 184 60
f 58 213 215
f 213 60 214
f 217 214 216
f 214 60 182
f 61 182 62
f 215 214 217
f 216 182 61
f 217 61 1
f 1 65 218
f 218 69 3
f 1 218 219
f 219 3 73
f 219 73 4
f 1 219 220
f 220 4 77
f 220 77 6
f 1 220 221
f 221 6 81
f 221 81 8
f 1 221 222
f 222 8 85
f 222 85 10
f 1 222 223
f 223 10 89
f 223 89 12
f 1 223 224
f 224 12 93
f 224 93 14
f 1 224 225
f 225 14 97
f 225 97 16
f 1 225 226
f 226 16 101
f 226 101 18
f 1 226 227
f 227 18 105
f 227 105 20
f 1 227 228
f 228 20 109
f 228 109 22
f 1 228 229
f 229 22 113
f 229 113 24
f 1 229 230
f 230 24 117
f 230 117 26
f 1 230 231
f 231 26 121
f 231 121 28
f 1 231 232
f 232 28 125
f 232 125 30
f 1 232 233
f 232 30 129
f 233 129 32
f 1 233 234
f 233 32 133
f 234 133 34
f 1 234 235
f 234 34 137
f 235 137 36
f 1 235 236
f 235 36 141
f 236 141 38
f 1 236 237
f 236 38 145
f 237 145 40
f 1 237 238
f 237 40 149
f 238 149 42
f 1 238 239
f 238 42 153
f 239 153 44
f 1 239 240
f 239 44 157
f 240 157 46
f 1 240 241
f 240 46 161
f 241 161 48
f 1 241 242
f 241 48 165
f 242 165 50
f 1 242 243
f 242 50 169
f 243 169 52
f 1 243 244
f 243 52 173
f 177 243 54
f 1 244 245
f 244 243 177
f 181 244 56
f 1 245 246
f 245 244 181
f 215 245 58
f 1 246 217
f 246 245 215
# 488 faces, 0 coords texture

# End of File
