####
#
# OBJ File Generated by Meshlab
#
####
# Object ico_sub1.obj
#
# Vertices: 162
# Faces: 320
#
####
v 0.0000000 0.0000000 -1.0000000
v 0.7236000 -0.5257200 -0.4472150
v -0.2763850 -0.8506400 -0.4472150
v -0.8944250 0.0000000 -0.4472150
v -0.2763850 0.8506400 -0.4472150
v 0.7236000 0.5257200 -0.4472150
v 0.2763850 -0.8506400 0.4472150
v -0.7236000 -0.5257200 0.4472150
v -0.7236000 0.5257200 0.4472150
v 0.2763850 0.8506400 0.4472150
v 0.8944250 0.0000000 0.4472150
v 0.0000000 0.0000000 1.0000000
v 0.3618000 -0.2628600 -0.7236075
v 0.2236075 -0.6881800 -0.4472150
v -0.1381925 -0.4253200 -0.7236075
v 0.3618000 0.2628600 -0.7236075
v 0.7236000 0.0000000 -0.4472150
v -0.5854050 -0.4253200 -0.4472150
v -0.4472125 0.0000000 -0.7236075
v -0.5854050 0.4253200 -0.4472150
v -0.1381925 0.4253200 -0.7236075
v 0.2236075 0.6881800 -0.4472150
v 0.8090125 0.2628600 0.0000000
v 0.8090125 -0.2628600 0.0000000
v 0.4999925 -0.6881800 0.0000000
v 0.0000000 -0.8506400 0.0000000
v -0.4999925 -0.6881800 0.0000000
v -0.8090125 -0.2628600 0.0000000
v -0.8090125 0.2628600 0.0000000
v -0.4999925 0.6881800 0.0000000
v 0.0000000 0.8506400 0.0000000
v 0.4999925 0.6881800 0.0000000
v 0.5854050 -0.4253200 0.4472150
v -0.2236075 -0.6881800 0.4472150
v -0.7236000 0.0000000 0.4472150
v -0.2236075 0.6881800 0.4472150
v 0.5854050 0.4253200 0.4472150
v 0.4472125 0.0000000 0.7236075
v 0.1381925 -0.4253200 0.7236075
v -0.3618000 -0.2628600 0.7236075
v -0.3618000 0.2628600 0.7236075
v 0.1381925 0.4253200 0.7236075
v 0.2927037 -0.4755200 -0.5854113
v 0.0427075 -0.5567500 -0.5854113
v 0.1118037 -0.3440900 -0.7236075
v 0.3618000 0.0000000 -0.7236075
v 0.5427000 0.1314300 -0.5854113
v 0.5427000 -0.1314300 -0.5854113
v -0.3617988 -0.4253200 -0.5854113
v -0.5163087 -0.2126600 -0.5854113
v -0.2927025 -0.2126600 -0.7236075
v -0.5163087 0.2126600 -0.5854113
v -0.3617988 0.4253200 -0.5854113
v -0.2927025 0.2126600 -0.7236075
v 0.0427075 0.5567500 -0.5854113
v 0.2927037 0.4755200 -0.5854113
v 0.1118037 0.3440900 -0.7236075
v 0.7663062 0.1314300 -0.2236075
v 0.8090125 0.0000000 0.0000000
v 0.7663062 -0.1314300 -0.2236075
v 0.3618000 -0.6881800 -0.2236075
v 0.2499962 -0.7694100 0.0000000
v 0.1118037 -0.7694100 -0.2236075
v -0.5426987 -0.5567500 -0.2236075
v -0.6545025 -0.4755200 0.0000000
v -0.6972088 -0.3440900 -0.2236075
v -0.6972088 0.3440900 -0.2236075
v -0.6545025 0.4755200 0.0000000
v -0.5426987 0.5567500 -0.2236075
v 0.1118037 0.7694100 -0.2236075
v 0.2499962 0.7694100 0.0000000
v 0.3618000 0.6881800 -0.2236075
v 0.6972088 -0.3440900 0.2236075
v 0.5426987 -0.5567500 0.2236075
v 0.6545025 -0.4755200 0.0000000
v -0.1118037 -0.7694100 0.2236075
v -0.3618000 -0.6881800 0.2236075
v -0.2499962 -0.7694100 0.0000000
v -0.7663062 -0.1314300 0.2236075
v -0.7663062 0.1314300 0.2236075
v -0.8090125 0.0000000 0.0000000
v -0.3618000 0.6881800 0.2236075
v -0.1118037 0.7694100 0.2236075
v -0.2499962 0.7694100 0.0000000
v 0.5426987 0.5567500 0.2236075
v 0.6972088 0.3440900 0.2236075
v 0.6545025 0.4755200 0.0000000
v 0.5163087 -0.2126600 0.5854113
v 0.2927025 -0.2126600 0.7236075
v 0.3617988 -0.4253200 0.5854113
v -0.0427075 -0.5567500 0.5854113
v -0.1118037 -0.3440900 0.7236075
v -0.2927037 -0.4755200 0.5854113
v -0.5427000 -0.1314300 0.5854113
v -0.3618000 0.0000000 0.7236075
v -0.5427000 0.1314300 0.5854113
v -0.2927037 0.4755200 0.5854113
v -0.1118037 0.3440900 0.7236075
v -0.0427075 0.5567500 0.5854113
v 0.3617988 0.4253200 0.5854113
v 0.2927025 0.2126600 0.7236075
v 0.5163087 0.2126600 0.5854113
v 0.1809000 -0.1314300 -0.8618038
v -0.0690963 -0.2126600 -0.8618038
v 0.5427000 -0.3942900 -0.5854113
v 0.4736037 -0.6069500 -0.4472150
v -0.0263888 -0.7694100 -0.4472150
v -0.2072887 -0.6379800 -0.5854113
v 0.7236000 -0.2628600 -0.4472150
v 0.1809000 0.1314300 -0.8618038
v 0.5427000 0.3942900 -0.5854113
v 0.7236000 0.2628600 -0.4472150
v -0.2236062 0.0000000 -0.8618038
v -0.4308950 -0.6379800 -0.4472150
v -0.7399150 -0.2126600 -0.4472150
v -0.6708187 0.0000000 -0.5854113
v -0.0690963 0.2126600 -0.8618038
v -0.7399150 0.2126600 -0.4472150
v -0.4308950 0.6379800 -0.4472150
v -0.2072887 0.6379800 -0.5854113
v -0.0263888 0.7694100 -0.4472150
v 0.4736037 0.6069500 -0.4472150
v 0.7663062 -0.3942900 -0.2236075
v 0.7663062 0.3942900 -0.2236075
v 0.8517187 0.1314300 0.2236075
v 0.8517187 -0.1314300 0.2236075
v -0.1381925 -0.8506400 -0.2236075
v 0.6117963 -0.6069500 -0.2236075
v 0.3881887 -0.7694100 0.2236075
v 0.1381925 -0.8506400 0.2236075
v -0.8517187 -0.1314300 -0.2236075
v -0.3881887 -0.7694100 -0.2236075
v -0.6117963 -0.6069500 0.2236075
v -0.7663062 -0.3942900 0.2236075
v -0.3881887 0.7694100 -0.2236075
v -0.8517187 0.1314300 -0.2236075
v -0.7663062 0.3942900 0.2236075
v -0.6117963 0.6069500 0.2236075
v 0.6117963 0.6069500 -0.2236075
v -0.1381925 0.8506400 -0.2236075
v 0.1381925 0.8506400 0.2236075
v 0.3881887 0.7694100 0.2236075
v 0.7399150 -0.2126600 0.4472150
v 0.4308950 -0.6379800 0.4472150
v 0.0263888 -0.7694100 0.4472150
v -0.4736037 -0.6069500 0.4472150
v -0.7236000 -0.2628600 0.4472150
v -0.7236000 0.2628600 0.4472150
v -0.4736037 0.6069500 0.4472150
v 0.0263888 0.7694100 0.4472150
v 0.4308950 0.6379800 0.4472150
v 0.7399150 0.2126600 0.4472150
v 0.2072887 -0.6379800 0.5854113
v 0.6708187 0.0000000 0.5854113
v 0.2236062 0.0000000 0.8618038
v 0.0690963 -0.2126600 0.8618038
v -0.5427000 -0.3942900 0.5854113
v -0.1809000 -0.1314300 0.8618038
v -0.5427000 0.3942900 0.5854113
v -0.1809000 0.1314300 0.8618038
v 0.2072887 0.6379800 0.5854113
v 0.0690963 0.2126600 0.8618038
# 162 vertices, 0 vertices normals

f 43 44 45
f 46 47 48
f 49 50 51
f 52 53 54
f 55 56 57
f 58 59 60
f 61 62 63
f 64 65 66
f 67 68 69
f 70 71 72
f 73 74 75
f 76 77 78
f 79 80 81
f 82 83 84
f 85 86 87
f 88 89 90
f 91 92 93
f 94 95 96
f 97 98 99
f 100 101 102
f 103 45 104
f 105 106 43
f 44 107 108
f 105 48 109
f 103 110 46
f 47 111 112
f 104 51 113
f 108 114 49
f 50 115 116
f 113 54 117
f 116 118 52
f 53 119 120
f 117 57 110
f 120 121 55
f 56 122 111
f 109 60 123
f 112 124 58
f 59 125 126
f 107 63 127
f 106 128 61
f 62 129 130
f 115 66 131
f 114 132 64
f 65 133 134
f 119 69 135
f 118 136 67
f 68 137 138
f 122 72 139
f 121 140 70
f 71 141 142
f 123 75 128
f 126 143 73
f 74 144 129
f 127 78 132
f 130 145 76
f 77 146 133
f 131 81 136
f 134 147 79
f 80 148 137
f 135 84 140
f 138 149 82
f 83 150 141
f 139 87 124
f 142 151 85
f 86 152 125
f 144 90 153
f 143 154 88
f 89 155 156
f 146 93 157
f 145 153 91
f 92 156 158
f 148 96 159
f 147 157 94
f 95 158 160
f 150 99 161
f 149 159 97
f 98 160 162
f 152 102 154
f 151 161 100
f 101 162 155
f 13 43 45
f 43 14 44
f 45 44 15
f 13 46 48
f 46 16 47
f 48 47 17
f 15 49 51
f 49 18 50
f 51 50 19
f 19 52 54
f 52 20 53
f 54 53 21
f 21 55 57
f 55 22 56
f 57 56 16
f 17 58 60
f 58 23 59
f 60 59 24
f 14 61 63
f 61 25 62
f 63 62 26
f 18 64 66
f 64 27 65
f 66 65 28
f 20 67 69
f 67 29 68
f 69 68 30
f 22 70 72
f 70 31 71
f 72 71 32
f 24 73 75
f 73 33 74
f 75 74 25
f 26 76 78
f 76 34 77
f 78 77 27
f 28 79 81
f 79 35 80
f 81 80 29
f 30 82 84
f 82 36 83
f 84 83 31
f 32 85 87
f 85 37 86
f 87 86 23
f 33 88 90
f 88 38 89
f 90 89 39
f 34 91 93
f 91 39 92
f 93 92 40
f 35 94 96
f 94 40 95
f 96 95 41
f 36 97 99
f 97 41 98
f 99 98 42
f 37 100 102
f 100 42 101
f 102 101 38
f 1 103 104
f 103 13 45
f 104 45 15
f 13 105 43
f 105 2 106
f 43 106 14
f 15 44 108
f 44 14 107
f 108 107 3
f 2 105 109
f 105 13 48
f 109 48 17
f 13 103 46
f 103 1 110
f 46 110 16
f 17 47 112
f 47 16 111
f 112 111 6
f 1 104 113
f 104 15 51
f 113 51 19
f 15 108 49
f 108 3 114
f 49 114 18
f 19 50 116
f 50 18 115
f 116 115 4
f 1 113 117
f 113 19 54
f 117 54 21
f 19 116 52
f 116 4 118
f 52 118 20
f 21 53 120
f 53 20 119
f 120 119 5
f 1 117 110
f 117 21 57
f 110 57 16
f 21 120 55
f 120 5 121
f 55 121 22
f 16 56 111
f 56 22 122
f 111 122 6
f 2 109 123
f 109 17 60
f 123 60 24
f 17 112 58
f 112 6 124
f 58 124 23
f 24 59 126
f 59 23 125
f 126 125 11
f 3 107 127
f 107 14 63
f 127 63 26
f 14 106 61
f 106 2 128
f 61 128 25
f 26 62 130
f 62 25 129
f 130 129 7
f 4 115 131
f 115 18 66
f 131 66 28
f 18 114 64
f 114 3 132
f 64 132 27
f 28 65 134
f 65 27 133
f 134 133 8
f 5 119 135
f 119 20 69
f 135 69 30
f 20 118 67
f 118 4 136
f 67 136 29
f 30 68 138
f 68 29 137
f 138 137 9
f 6 122 139
f 122 22 72
f 139 72 32
f 22 121 70
f 121 5 140
f 70 140 31
f 32 71 142
f 71 31 141
f 142 141 10
f 2 123 128
f 123 24 75
f 128 75 25
f 24 126 73
f 126 11 143
f 73 143 33
f 25 74 129
f 74 33 144
f 129 144 7
f 3 127 132
f 127 26 78
f 132 78 27
f 26 130 76
f 130 7 145
f 76 145 34
f 27 77 133
f 77 34 146
f 133 146 8
f 4 131 136
f 131 28 81
f 136 81 29
f 28 134 79
f 134 8 147
f 79 147 35
f 29 80 137
f 80 35 148
f 137 148 9
f 5 135 140
f 135 30 84
f 140 84 31
f 30 138 82
f 138 9 149
f 82 149 36
f 31 83 141
f 83 36 150
f 141 150 10
f 6 139 124
f 139 32 87
f 124 87 23
f 32 142 85
f 142 10 151
f 85 151 37
f 23 86 125
f 86 37 152
f 125 152 11
f 7 144 153
f 144 33 90
f 153 90 39
f 33 143 88
f 143 11 154
f 88 154 38
f 39 89 156
f 89 38 155
f 156 155 12
f 8 146 157
f 146 34 93
f 157 93 40
f 34 145 91
f 145 7 153
f 91 153 39
f 40 92 158
f 92 39 156
f 158 156 12
f 9 148 159
f 148 35 96
f 159 96 41
f 35 147 94
f 147 8 157
f 94 157 40
f 41 95 160
f 95 40 158
f 160 158 12
f 10 150 161
f 150 36 99
f 161 99 42
f 36 149 97
f 149 9 159
f 97 159 41
f 42 98 162
f 98 41 160
f 162 160 12
f 11 152 154
f 152 37 102
f 154 102 38
f 37 151 100
f 151 10 161
f 100 161 42
f 38 101 155
f 101 42 162
f 155 162 12
# 320 faces, 0 coords texture

# End of File
