####
#
# OBJ File Generated by Meshlab
#
####
# Object ico_sub2.obj
#
# Vertices: 162
# Faces: 320
#
####
v -0.0034335 0.0024946 -0.9985097
v 0.7206305 -0.5285520 -0.4453802
v -0.2799965 -0.8486917 -0.4453802
v -0.8936796 -0.0040365 -0.4453764
v -0.2799965 0.8486916 -0.4453802
v 0.7206305 0.5285520 -0.4453802
v 0.2799965 -0.8486916 0.4453802
v -0.7206305 -0.5285520 0.4453802
v -0.7206305 0.5285520 0.4453802
v 0.2799965 0.8486917 0.4453802
v 0.8936796 -0.0040365 0.4453764
v 0.0034335 0.0024946 0.9985098
v -0.1673006 -0.4972704 -0.8488833
v 0.4212348 -0.3127766 -0.8488833
v 0.2632069 -0.8100528 -0.5200079
v 0.8517423 0.0000000 -0.5200061
v 0.4212348 0.3127765 -0.8488832
v -0.5246355 -0.0054493 -0.8488815
v -0.6890743 -0.5006403 -0.5200059
v -0.1673006 0.4972705 -0.8488833
v -0.6890743 0.5006403 -0.5200059
v 0.2632069 0.8100529 -0.5200079
v 0.9476457 -0.3127787 0.0028649
v 0.9476457 0.3127787 0.0028649
v 0.0046356 -0.9979185 -0.0028650
v 0.5903129 -0.8046082 0.0028650
v -0.9476457 -0.3127787 -0.0028649
v -0.5903129 -0.8046082 -0.0028650
v -0.5903129 0.8046082 -0.0028650
v -0.9476457 0.3127787 -0.0028649
v 0.5903129 0.8046082 0.0028650
v 0.0046356 0.9979185 -0.0028650
v 0.6890743 -0.5006403 0.5200059
v -0.2632070 -0.8100529 0.5200078
v -0.8517423 0.0000000 0.5200061
v -0.2632070 0.8100529 0.5200078
v 0.6890743 0.5006403 0.5200059
v 0.1569354 -0.5006382 0.8488834
v 0.5246355 0.0054493 0.8488815
v -0.4212348 -0.3127765 0.8488832
v -0.4212348 0.3127766 0.8488833
v 0.1673006 0.4972704 0.8488833
v 0.2082763 -0.1527619 -0.9263852
v 0.1322388 -0.4069816 -0.8486631
v -0.0809248 -0.2452879 -0.9263852
v 0.5775710 -0.4181825 -0.6453202
v 0.6366825 -0.1516656 -0.6891904
v 0.7864618 -0.2673085 -0.4846945
v -0.3462014 -0.2515293 -0.8486621
v -0.2582920 0.0011668 -0.9263843
v -0.3462014 0.2515293 -0.8486621
v -0.0809248 0.2452879 -0.9263852
v 0.1322388 0.4069815 -0.8486631
v 0.2082763 0.1527619 -0.9263852
v 0.9011605 -0.1516665 -0.2612574
v 0.8348730 -0.4200716 -0.2267786
v -0.0111939 -0.8305714 -0.4846955
v 0.1342307 -0.9039209 -0.2612584
v -0.1415242 -0.9238206 -0.2267787
v -0.7933823 -0.2460101 -0.4846925
v -0.8182029 -0.4069837 -0.2612573
v -0.9223407 -0.1508748 -0.2267767
v -0.4791366 0.6785287 -0.4846945
v -0.6399058 0.6523901 -0.2612575
v -0.4301150 0.8294068 -0.2280055
v 0.4972607 0.6653615 -0.4846955
v 0.4227214 0.8101847 -0.2612584
v 0.6575066 0.6641968 -0.2267787
v 0.7689242 -0.5586534 0.0032212
v 0.6575067 -0.6641968 -0.2267787
v -0.2937029 -0.9039234 0.0032213
v -0.4301150 -0.8294069 -0.2280055
v -0.9504427 0.0000000 0.0032214
v -0.9223407 0.1508748 -0.2267767
v -0.2937029 0.9039234 0.0032213
v -0.1415242 0.9238206 -0.2267787
v 0.7689242 0.5586534 0.0032212
v 0.8348730 0.4200716 -0.2267786
v 0.4791366 -0.6785287 0.4846945
v 0.4259377 -0.4969326 0.6891904
v 0.2192368 -0.6785275 0.6453203
v -0.4972607 -0.6653615 0.4846955
v -0.3409924 -0.5586498 0.6891914
v -0.5761993 -0.4200704 0.6453202
v -0.7852349 0.2673085 0.4866797
v -0.6366825 0.1516656 0.6891904
v -0.5775710 0.4181825 0.6453202
v 0.0111939 0.8305714 0.4846955
v -0.0525048 0.6523865 0.6891913
v 0.2214562 0.6778064 0.6453203
v 0.7933823 0.2460101 0.4846926
v 0.6042359 0.2515302 0.6891894
v 0.7130693 -0.0011668 0.6453174
v 0.3462014 0.2515293 0.8486621
v 0.0787054 0.2460091 0.9263852
v 0.2582920 0.0011668 0.9263843
v 0.4259377 0.4969326 0.6891904
v 0.4791366 0.6785287 0.4846945
v -0.1322388 0.4069816 0.8486631
v -0.2082763 0.1527619 0.9263852
v -0.3409924 0.5586498 0.6891914
v -0.4972607 0.6653615 0.4846955
v -0.4279291 0.0000000 0.8486632
v -0.2096480 -0.1508739 0.9263852
v -0.6366826 -0.1516656 0.6891904
v -0.7864618 -0.2673085 0.4846945
v -0.1322388 -0.4069815 0.8486631
v 0.0809248 -0.2452879 0.9263852
v -0.0525048 -0.6523866 0.6891914
v 0.0111939 -0.8305714 0.4846955
v 0.3462014 -0.2515293 0.8486621
v 0.6042359 -0.2515302 0.6891894
v 0.7933823 -0.2460101 0.4846926
v 0.8182029 0.4069837 0.2612573
v 0.9217272 0.1527628 0.2280036
v 0.6399058 0.6523901 0.2612575
v 0.4301150 0.8294068 0.2280055
v -0.1342307 0.9039209 0.2612584
v 0.1415242 0.9238206 0.2267787
v -0.4227214 0.8101847 0.2612584
v -0.6575067 0.6641968 0.2267787
v -0.9011605 0.1516665 0.2612574
v -0.8348731 0.4200716 0.2267786
v -0.9011605 -0.1516665 0.2612574
v -0.8348730 -0.4200715 0.2267786
v -0.4227214 -0.8101847 0.2612584
v -0.6575066 -0.6641968 0.2267787
v -0.1342307 -0.9039209 0.2612584
v 0.1415242 -0.9238206 0.2267787
v 0.6399058 -0.6523901 0.2612575
v 0.4301150 -0.8294068 0.2280055
v 0.8182029 -0.4069837 0.2612573
v 0.9217272 -0.1527628 0.2280036
v 0.2937029 0.9039234 -0.0032213
v 0.1342307 0.9039209 -0.2612584
v -0.0111939 0.8305714 -0.4846955
v -0.7689242 0.5586534 -0.0032212
v -0.8182029 0.4069837 -0.2612573
v -0.7933823 0.2460101 -0.4846925
v -0.7689242 -0.5586534 -0.0032212
v -0.6399058 -0.6523901 -0.2612575
v -0.4791366 -0.6785287 -0.4846945
v 0.2937029 -0.9039234 -0.0032213
v 0.4227214 -0.8101847 -0.2612584
v 0.4972607 -0.6653615 -0.4846955
v 0.9504427 0.0000000 -0.0032214
v 0.9011605 0.1516665 -0.2612574
v 0.7852349 0.2673085 -0.4866798
v 0.3409924 0.5586498 -0.6891914
v 0.5761994 0.4200705 -0.6453202
v 0.0525048 0.6523866 -0.6891914
v -0.2214562 0.6778064 -0.6453203
v -0.4259377 0.4969326 -0.6891904
v -0.6042359 0.2515302 -0.6891894
v -0.7130694 -0.0011668 -0.6453174
v -0.6042359 -0.2515302 -0.6891894
v -0.4259377 -0.4969326 -0.6891904
v -0.2214562 -0.6778064 -0.6453203
v 0.6366825 0.1516656 -0.6891904
v 0.4279291 -0.0000000 -0.8486632
v 0.0525048 -0.6523865 -0.6891913
v 0.3409924 -0.5586498 -0.6891914
# 162 vertices, 0 vertices normals

f 43 44 45
f 46 47 48
f 45 49 50
f 50 51 52
f 52 53 54
f 48 55 56
f 57 58 59
f 60 61 62
f 63 64 65
f 66 67 68
f 56 69 70
f 59 71 72
f 62 73 74
f 65 75 76
f 68 77 78
f 79 80 81
f 82 83 84
f 85 86 87
f 88 89 90
f 91 92 93
f 94 95 96
f 92 97 94
f 98 90 97
f 99 100 95
f 89 101 99
f 102 87 101
f 103 104 100
f 86 105 103
f 106 84 105
f 107 108 104
f 83 109 107
f 110 81 109
f 111 96 108
f 80 112 111
f 113 93 112
f 114 91 115
f 77 116 114
f 117 98 116
f 118 88 119
f 75 120 118
f 121 102 120
f 122 85 123
f 73 124 122
f 125 106 124
f 126 82 127
f 71 128 126
f 129 110 128
f 130 79 131
f 69 132 130
f 133 113 132
f 134 119 117
f 67 135 134
f 136 76 135
f 137 123 121
f 64 138 137
f 139 74 138
f 140 127 125
f 61 141 140
f 142 72 141
f 143 131 129
f 58 144 143
f 145 70 144
f 146 115 133
f 55 147 146
f 148 78 147
f 149 66 150
f 53 151 149
f 152 136 151
f 153 63 152
f 51 154 153
f 155 139 154
f 156 60 155
f 49 157 156
f 158 142 157
f 159 150 148
f 47 160 159
f 43 54 160
f 161 57 158
f 44 162 161
f 46 145 162
f 1 43 45
f 43 14 44
f 45 44 13
f 2 46 48
f 46 14 47
f 48 47 16
f 1 45 50
f 45 13 49
f 50 49 18
f 1 50 52
f 50 18 51
f 52 51 20
f 1 52 54
f 52 20 53
f 54 53 17
f 2 48 56
f 48 16 55
f 56 55 23
f 3 57 59
f 57 15 58
f 59 58 25
f 4 60 62
f 60 19 61
f 62 61 27
f 5 63 65
f 63 21 64
f 65 64 29
f 6 66 68
f 66 22 67
f 68 67 31
f 2 56 70
f 56 23 69
f 70 69 26
f 3 59 72
f 59 25 71
f 72 71 28
f 4 62 74
f 62 27 73
f 74 73 30
f 5 65 76
f 65 29 75
f 76 75 32
f 6 68 78
f 68 31 77
f 78 77 24
f 7 79 81
f 79 33 80
f 81 80 38
f 8 82 84
f 82 34 83
f 84 83 40
f 9 85 87
f 85 35 86
f 87 86 41
f 10 88 90
f 88 36 89
f 90 89 42
f 11 91 93
f 91 37 92
f 93 92 39
f 39 94 96
f 94 42 95
f 96 95 12
f 39 92 94
f 92 37 97
f 94 97 42
f 37 98 97
f 98 10 90
f 97 90 42
f 42 99 95
f 99 41 100
f 95 100 12
f 42 89 99
f 89 36 101
f 99 101 41
f 36 102 101
f 102 9 87
f 101 87 41
f 41 103 100
f 103 40 104
f 100 104 12
f 41 86 103
f 86 35 105
f 103 105 40
f 35 106 105
f 106 8 84
f 105 84 40
f 40 107 104
f 107 38 108
f 104 108 12
f 40 83 107
f 83 34 109
f 107 109 38
f 34 110 109
f 110 7 81
f 109 81 38
f 38 111 108
f 111 39 96
f 108 96 12
f 38 80 111
f 80 33 112
f 111 112 39
f 33 113 112
f 113 11 93
f 112 93 39
f 24 114 115
f 114 37 91
f 115 91 11
f 24 77 114
f 77 31 116
f 114 116 37
f 31 117 116
f 117 10 98
f 116 98 37
f 32 118 119
f 118 36 88
f 119 88 10
f 32 75 118
f 75 29 120
f 118 120 36
f 29 121 120
f 121 9 102
f 120 102 36
f 30 122 123
f 122 35 85
f 123 85 9
f 30 73 122
f 73 27 124
f 122 124 35
f 27 125 124
f 125 8 106
f 124 106 35
f 28 126 127
f 126 34 82
f 127 82 8
f 28 71 126
f 71 25 128
f 126 128 34
f 25 129 128
f 129 7 110
f 128 110 34
f 26 130 131
f 130 33 79
f 131 79 7
f 26 69 130
f 69 23 132
f 130 132 33
f 23 133 132
f 133 11 113
f 132 113 33
f 31 134 117
f 134 32 119
f 117 119 10
f 31 67 134
f 67 22 135
f 134 135 32
f 22 136 135
f 136 5 76
f 135 76 32
f 29 137 121
f 137 30 123
f 121 123 9
f 29 64 137
f 64 21 138
f 137 138 30
f 21 139 138
f 139 4 74
f 138 74 30
f 27 140 125
f 140 28 127
f 125 127 8
f 27 61 140
f 61 19 141
f 140 141 28
f 19 142 141
f 142 3 72
f 141 72 28
f 25 143 129
f 143 26 131
f 129 131 7
f 25 58 143
f 58 15 144
f 143 144 26
f 15 145 144
f 145 2 70
f 144 70 26
f 23 146 133
f 146 24 115
f 133 115 11
f 23 55 146
f 55 16 147
f 146 147 24
f 16 148 147
f 148 6 78
f 147 78 24
f 17 149 150
f 149 22 66
f 150 66 6
f 17 53 149
f 53 20 151
f 149 151 22
f 20 152 151
f 152 5 136
f 151 136 22
f 20 153 152
f 153 21 63
f 152 63 5
f 20 51 153
f 51 18 154
f 153 154 21
f 18 155 154
f 155 4 139
f 154 139 21
f 18 156 155
f 156 19 60
f 155 60 4
f 18 49 156
f 49 13 157
f 156 157 19
f 13 158 157
f 158 3 142
f 157 142 19
f 16 159 148
f 159 17 150
f 148 150 6
f 16 47 159
f 47 14 160
f 159 160 17
f 14 43 160
f 43 1 54
f 160 54 17
f 13 161 158
f 161 15 57
f 158 57 3
f 13 44 161
f 44 14 162
f 161 162 15
f 14 46 162
f 46 2 145
f 162 145 15
# 320 faces, 0 coords texture

# End of File
