####
#
# OBJ File Generated by Meshlab
#
####
# Object 20_90.obj
#
# Vertices: 1481
# Faces: 2560
#
####
v 0.8904520 0.0000000 1.4856290
v 0.9622760 0.0000000 1.4401480
v 1.0317810 0.0000000 1.3911960
v 1.0988010 0.0000000 1.3388931
v 1.1631740 0.0000000 1.2833650
v 1.2247450 0.0000000 1.2247450
v 1.2833650 0.0000000 1.1631740
v 1.3388931 0.0000000 1.0988010
v 1.3911951 0.0000000 1.0317810
v 1.4401470 0.0000000 0.9622760
v 1.4856290 0.0000000 0.8904520
v 1.5275320 0.0000000 0.8164830
v 1.5657550 0.0000000 0.7405470
v 1.6002049 0.0000000 0.6628270
v 1.6308020 0.0000000 0.5835100
v 1.6574690 0.0000000 0.5027880
v 1.6801420 0.0000000 0.4208540
v 1.6987690 0.0000000 0.3379060
v 1.7133040 0.0000000 0.2541450
v 1.7237099 0.0000000 0.1697710
v 1.7299640 0.0000000 0.0849880
v 0.9576420 -0.0943190 1.4401480
v 1.0268130 -0.1011320 1.3911960
v 1.0935100 -0.1077010 1.3388931
v 1.1575730 -0.1140110 1.2833650
v 1.2188470 -0.1200460 1.2247450
v 1.2771850 -0.1257920 1.1631740
v 1.3324460 -0.1312350 1.0988010
v 1.3844960 -0.1363610 1.0317810
v 1.4332120 -0.1411590 0.9622760
v 1.4784750 -0.1456170 0.8904520
v 1.5201761 -0.1497240 0.8164830
v 1.5582160 -0.1534710 0.7405470
v 1.5925000 -0.1568480 0.6628270
v 1.6229490 -0.1598470 0.5835100
v 1.6494870 -0.1624600 0.5027880
v 1.6720520 -0.1646830 0.4208540
v 1.6905890 -0.1665080 0.3379060
v 1.7050540 -0.1679330 0.2541450
v 1.7154100 -0.1689530 0.1697710
v 1.7216340 -0.1695660 0.0849880
v 0.9437860 -0.1877310 1.4401480
v 1.0119560 -0.2012910 1.3911960
v 1.0776880 -0.2143660 1.3388931
v 1.1408240 -0.2269240 1.2833650
v 1.2012110 -0.2389360 1.2247450
v 1.2587050 -0.2503720 1.1631740
v 1.3131660 -0.2612050 1.0988010
v 1.3644640 -0.2714090 1.0317810
v 1.4124750 -0.2809590 0.9622760
v 1.4570830 -0.2898320 0.8904520
v 1.4981810 -0.2980070 0.8164830
v 1.5356700 -0.3054630 0.7405470
v 1.5694580 -0.3121850 0.6628270
v 1.5994660 -0.3181540 0.5835100
v 1.6256210 -0.3233560 0.5027880
v 1.6478590 -0.3277800 0.4208540
v 1.6661270 -0.3314130 0.3379060
v 1.6803830 -0.3342490 0.2541450
v 1.6905890 -0.3362790 0.1697710
v 1.6967230 -0.3374990 0.0849880
v 0.9208400 -0.2793340 1.4401480
v 0.9873530 -0.2995100 1.3911960
v 1.0514870 -0.3189650 1.3388931
v 1.1130880 -0.3376520 1.2833650
v 1.1720070 -0.3555250 1.2247450
v 1.2281040 -0.3725410 1.1631740
v 1.2812400 -0.3886600 1.0988010
v 1.3312910 -0.4038430 1.0317810
v 1.3781350 -0.4180520 0.9622760
v 1.4216580 -0.4312550 0.8904520
v 1.4617569 -0.4434190 0.8164830
v 1.4983341 -0.4545150 0.7405470
v 1.5313010 -0.4645150 0.6628270
v 1.5605800 -0.4733970 0.5835100
v 1.5860990 -0.4811380 0.5027880
v 1.6077960 -0.4877200 0.4208540
v 1.6256200 -0.4931270 0.3379060
v 1.6395290 -0.4973460 0.2541450
v 1.6494880 -0.5003670 0.1697710
v 1.6554720 -0.5021820 0.0849880
v 0.8890270 -0.3682470 1.4401480
v 0.9532420 -0.3948460 1.3911960
v 1.0151600 -0.4204930 1.3388931
v 1.0746320 -0.4451280 1.2833650
v 1.1315160 -0.4686890 1.2247450
v 1.1856750 -0.4911220 1.1631740
v 1.2369760 -0.5123720 1.0988010
v 1.2852970 -0.5323870 1.0317810
v 1.3305219 -0.5511200 0.9622760
v 1.3725420 -0.5685250 0.8904520
v 1.4112550 -0.5845610 0.8164830
v 1.4465690 -0.5991880 0.7405470
v 1.4783970 -0.6123720 0.6628270
v 1.5066640 -0.6240810 0.5835100
v 1.5313010 -0.6342860 0.5027880
v 1.5522490 -0.6429630 0.4208540
v 1.5694580 -0.6500910 0.3379060
v 1.5828860 -0.6556530 0.2541450
v 1.5925000 -0.6596350 0.1697710
v 1.5982780 -0.6620290 0.0849880
v 0.8486510 -0.4536140 1.4401480
v 0.9099500 -0.4863780 1.3911960
v 0.9690560 -0.5179710 1.3388931
v 1.0258280 -0.5483160 1.2833650
v 1.0801280 -0.5773410 1.2247450
v 1.1318270 -0.6049740 1.1631740
v 1.1807981 -0.6311500 1.0988010
v 1.2269250 -0.6558050 1.0317810
v 1.2700959 -0.6788800 0.9622760
v 1.3102070 -0.7003200 0.8904520
v 1.3471630 -0.7200730 0.8164830
v 1.3808730 -0.7380920 0.7405470
v 1.4112550 -0.7543310 0.6628270
v 1.4382390 -0.7687550 0.5835100
v 1.4617569 -0.7813250 0.5027880
v 1.4817530 -0.7920140 0.4208540
v 1.4981800 -0.8007940 0.3379060
v 1.5109990 -0.8076460 0.2541450
v 1.5201761 -0.8125510 0.1697710
v 1.5256920 -0.8155000 0.0849880
v 0.8001030 -0.5346120 1.4401480
v 0.8578950 -0.5732270 1.3911960
v 0.9136200 -0.6104610 1.3388931
v 0.9671440 -0.6462250 1.2833650
v 1.0183380 -0.6804320 1.2247450
v 1.0670789 -0.7129990 1.1631740
v 1.1132480 -0.7438490 1.0988010
v 1.1567360 -0.7729070 1.0317810
v 1.1974380 -0.8001020 0.9622760
v 1.2352550 -0.8253710 0.8904520
v 1.2700959 -0.8486510 0.8164830
v 1.3018780 -0.8698870 0.7405470
v 1.3305219 -0.8890260 0.6628270
v 1.3559620 -0.9060250 0.5835100
v 1.3781350 -0.9208400 0.5027880
v 1.3969870 -0.9334370 0.4208540
v 1.4124750 -0.9437850 0.3379060
v 1.4245600 -0.9518600 0.2541450
v 1.4332120 -0.9576420 0.1697710
v 1.4384130 -0.9611170 0.0849880
v 0.7438490 -0.6104610 1.4401480
v 0.7975780 -0.6545550 1.3911960
v 0.8493850 -0.6970720 1.3388931
v 0.8991450 -0.7379100 1.2833650
v 0.9467410 -0.7769700 1.2247450
v 0.9920550 -0.8141580 1.1631740
v 1.0349780 -0.8493850 1.0988010
v 1.0754080 -0.8825650 1.0317810
v 1.1132489 -0.9136190 0.9622760
v 1.1484060 -0.9424730 0.8904520
v 1.1807981 -0.9690560 0.8164830
v 1.2103450 -0.9933040 0.7405470
v 1.2369750 -1.0151590 0.6628270
v 1.2606270 -1.0345700 0.5835100
v 1.2812400 -1.0514870 0.5027880
v 1.2987670 -1.0658710 0.4208540
v 1.3131660 -1.0776880 0.3379060
v 1.3244010 -1.0869080 0.2541450
v 1.3324460 -1.0935100 0.1697710
v 1.3372800 -1.0974780 0.0849880
v 0.6804320 -0.6804320 1.4401480
v 0.7295800 -0.7295800 1.3911960
v 0.7769700 -0.7769700 1.3388931
v 0.8224880 -0.8224880 1.2833650
v 0.8660250 -0.8660250 1.2247450
v 0.9074760 -0.9074760 1.1631740
v 0.9467400 -0.9467400 1.0988010
v 0.9837230 -0.9837240 1.0317810
v 1.0183380 -1.0183370 0.9622760
v 1.0504980 -1.0504980 0.8904520
v 1.0801280 -1.0801280 0.8164830
v 1.1071560 -1.1071560 0.7405470
v 1.1315160 -1.1315160 0.6628270
v 1.1531510 -1.1531510 0.5835100
v 1.1720070 -1.1720070 0.5027880
v 1.1880400 -1.1880400 0.4208540
v 1.2012110 -1.2012110 0.3379060
v 1.2114880 -1.2114890 0.2541450
v 1.2188470 -1.2188470 0.1697710
v 1.2232690 -1.2232690 0.0849880
v 0.6104610 -0.7438490 1.4401480
v 0.6545550 -0.7975780 1.3911960
v 0.6970720 -0.8493850 1.3388931
v 0.7379090 -0.8991460 1.2833650
v 0.7769700 -0.9467400 1.2247450
v 0.8141580 -0.9920550 1.1631740
v 0.8493840 -1.0349780 1.0988010
v 0.8825650 -1.0754080 1.0317810
v 0.9136200 -1.1132480 0.9622760
v 0.9424730 -1.1484060 0.8904520
v 0.9690560 -1.1807981 0.8164830
v 0.9933050 -1.2103450 0.7405470
v 1.0151590 -1.2369750 0.6628270
v 1.0345700 -1.2606270 0.5835100
v 1.0514870 -1.2812411 0.5027880
v 1.0658710 -1.2987680 0.4208540
v 1.0776880 -1.3131660 0.3379060
v 1.0869080 -1.3244020 0.2541450
v 1.0935100 -1.3324460 0.1697710
v 1.0974770 -1.3372800 0.0849880
v 0.5346120 -0.8001030 1.4401480
v 0.5732270 -0.8578950 1.3911960
v 0.6104610 -0.9136200 1.3388931
v 0.6462250 -0.9671440 1.2833650
v 0.6804320 -1.0183380 1.2247450
v 0.7129990 -1.0670789 1.1631740
v 0.7438490 -1.1132489 1.0988010
v 0.7729060 -1.1567360 1.0317810
v 0.8001030 -1.1974380 0.9622760
v 0.8253710 -1.2352550 0.8904520
v 0.8486510 -1.2700959 0.8164830
v 0.8698870 -1.3018780 0.7405470
v 0.8890260 -1.3305219 0.6628270
v 0.9060250 -1.3559620 0.5835100
v 0.9208400 -1.3781350 0.5027880
v 0.9334370 -1.3969870 0.4208540
v 0.9437850 -1.4124750 0.3379060
v 0.9518600 -1.4245600 0.2541450
v 0.9576420 -1.4332130 0.1697710
v 0.9611160 -1.4384130 0.0849880
v 0.4536140 -0.8486510 1.4401480
v 0.4863780 -0.9099500 1.3911960
v 0.5179710 -0.9690560 1.3388931
v 0.5483160 -1.0258280 1.2833650
v 0.5773410 -1.0801280 1.2247450
v 0.6049740 -1.1318270 1.1631740
v 0.6311490 -1.1807981 1.0988010
v 0.6558050 -1.2269250 1.0317810
v 0.6788810 -1.2700959 0.9622760
v 0.7003210 -1.3102070 0.8904520
v 0.7200740 -1.3471620 0.8164830
v 0.7380920 -1.3808730 0.7405470
v 0.7543310 -1.4112550 0.6628270
v 0.7687540 -1.4382390 0.5835100
v 0.7813250 -1.4617569 0.5027880
v 0.7920130 -1.4817530 0.4208540
v 0.8007940 -1.4981800 0.3379060
v 0.8076460 -1.5109990 0.2541450
v 0.8125510 -1.5201770 0.1697710
v 0.8154990 -1.5256920 0.0849880
v 0.3682470 -0.8890270 1.4401480
v 0.3948450 -0.9532420 1.3911960
v 0.4204930 -1.0151600 1.3388931
v 0.4451270 -1.0746330 1.2833650
v 0.4686890 -1.1315171 1.2247450
v 0.4911230 -1.1856750 1.1631740
v 0.5123720 -1.2369760 1.0988010
v 0.5323870 -1.2852970 1.0317810
v 0.5511200 -1.3305219 0.9622760
v 0.5685250 -1.3725420 0.8904520
v 0.5845610 -1.4112550 0.8164830
v 0.5991890 -1.4465690 0.7405470
v 0.6123720 -1.4783970 0.6628270
v 0.6240810 -1.5066640 0.5835100
v 0.6342860 -1.5313010 0.5027880
v 0.6429620 -1.5522490 0.4208540
v 0.6500910 -1.5694580 0.3379060
v 0.6556530 -1.5828860 0.2541450
v 0.6596350 -1.5925010 0.1697710
v 0.6620280 -1.5982780 0.0849880
v 0.2793340 -0.9208400 1.4401480
v 0.2995100 -0.9873530 1.3911960
v 0.3189650 -1.0514870 1.3388931
v 0.3376510 -1.1130880 1.2833650
v 0.3555250 -1.1720080 1.2247450
v 0.3725410 -1.2281040 1.1631740
v 0.3886600 -1.2812400 1.0988010
v 0.4038420 -1.3312900 1.0317810
v 0.4180530 -1.3781340 0.9622760
v 0.4312550 -1.4216580 0.8904520
v 0.4434190 -1.4617560 0.8164830
v 0.4545150 -1.4983341 0.7405470
v 0.4645150 -1.5313010 0.6628270
v 0.4733970 -1.5605800 0.5835100
v 0.4811380 -1.5860990 0.5027880
v 0.4877190 -1.6077960 0.4208540
v 0.4931270 -1.6256200 0.3379060
v 0.4973460 -1.6395290 0.2541450
v 0.5003670 -1.6494880 0.1697710
v 0.5021820 -1.6554720 0.0849880
v 0.1877310 -0.9437860 1.4401480
v 0.2012900 -1.0119560 1.3911960
v 0.2143650 -1.0776880 1.3388931
v 0.2269240 -1.1408240 1.2833650
v 0.2389360 -1.2012120 1.2247450
v 0.2503720 -1.2587060 1.1631740
v 0.2612050 -1.3131660 1.0988010
v 0.2714080 -1.3644630 1.0317810
v 0.2809590 -1.4124740 0.9622760
v 0.2898320 -1.4570830 0.8904520
v 0.2980070 -1.4981800 0.8164830
v 0.3054640 -1.5356690 0.7405470
v 0.3121840 -1.5694571 0.6628270
v 0.3181540 -1.5994660 0.5835100
v 0.3233560 -1.6256210 0.5027880
v 0.3277790 -1.6478590 0.4208540
v 0.3314130 -1.6661270 0.3379060
v 0.3342490 -1.6803830 0.2541450
v 0.3362790 -1.6905890 0.1697710
v 0.3374990 -1.6967230 0.0849880
v 0.0943190 -0.9576420 1.4401480
v 0.1011320 -1.0268130 1.3911960
v 0.1077010 -1.0935100 1.3388931
v 0.1140110 -1.1575730 1.2833650
v 0.1200460 -1.2188470 1.2247450
v 0.1257920 -1.2771850 1.1631740
v 0.1312340 -1.3324460 1.0988010
v 0.1363610 -1.3844960 1.0317810
v 0.1411590 -1.4332120 0.9622760
v 0.1456170 -1.4784750 0.8904520
v 0.1497240 -1.5201761 0.8164830
v 0.1534710 -1.5582150 0.7405470
v 0.1568470 -1.5924990 0.6628270
v 0.1598460 -1.6229490 0.5835100
v 0.1624600 -1.6494870 0.5027880
v 0.1646830 -1.6720520 0.4208540
v 0.1665080 -1.6905880 0.3379060
v 0.1679330 -1.7050540 0.2541450
v 0.1689530 -1.7154100 0.1697710
v 0.1695660 -1.7216340 0.0849880
v 1.7320499 0.0000000 0.0000000
v 1.7237090 -0.1697700 0.0000000
v 1.6987690 -0.3379060 0.0000000
v 1.6574680 -0.5027870 0.0000000
v 1.6002049 -0.6628270 0.0000000
v 1.5275310 -0.8164820 0.0000000
v 1.4401470 -0.9622750 0.0000000
v 1.3388920 -1.0988010 0.0000000
v 1.2247440 -1.2247440 0.0000000
v 1.0988010 -1.3388920 0.0000000
v 0.9622750 -1.4401470 0.0000000
v 0.8164830 -1.5275310 0.0000000
v 0.6628270 -1.6002049 0.0000000
v 0.5027870 -1.6574680 0.0000000
v 0.3379060 -1.6987690 0.0000000
v 0.1697710 -1.7237090 0.0000000
v 0.0000000 -0.9622760 1.4401480
v 0.0000000 -1.0317810 1.3911960
v 0.0000000 -1.0988010 1.3388931
v 0.0000000 -1.1631740 1.2833650
v 0.0000000 -1.2247450 1.2247450
v 0.0000000 -1.2833650 1.1631740
v 0.0000000 -1.3388931 1.0988010
v 0.0000000 -1.3911951 1.0317810
v 0.0000000 -1.4401460 0.9622760
v 0.0000000 -1.4856280 0.8904520
v 0.0000000 -1.5275310 0.8164830
v 0.0000000 -1.5657550 0.7405470
v 0.0000000 -1.6002049 0.6628270
v 0.0000000 -1.6308020 0.5835100
v 0.0000000 -1.6574680 0.5027880
v 0.0000000 -1.6801420 0.4208540
v 0.0000000 -1.6987680 0.3379060
v 0.0000000 -1.7133040 0.2541450
v 0.0000000 -1.7237099 0.1697710
v 0.0000000 -1.7299640 0.0849880
v 0.0000000 -1.7320490 0.0000000
v 0.0000000 0.8904520 1.4856290
v 0.0000000 0.9622760 1.4401480
v 0.0000000 1.0317810 1.3911960
v 0.0000000 1.0988010 1.3388931
v 0.0000000 1.1631740 1.2833650
v 0.0000000 1.2247450 1.2247450
v 0.0000000 1.2833650 1.1631740
v 0.0000000 1.3388931 1.0988010
v 0.0000000 1.3911951 1.0317810
v 0.0000000 1.4401470 0.9622760
v 0.0000000 1.4856290 0.8904520
v 0.0000000 1.5275320 0.8164830
v 0.0000000 1.5657550 0.7405470
v 0.0000000 1.6002049 0.6628270
v 0.0000000 1.6308020 0.5835100
v 0.0000000 1.6574690 0.5027880
v 0.0000000 1.6801420 0.4208540
v 0.0000000 1.6987690 0.3379060
v 0.0000000 1.7133040 0.2541450
v 0.0000000 1.7237099 0.1697710
v 0.0000000 1.7299640 0.0849880
v 0.0943190 0.9576420 1.4401480
v 0.1011320 1.0268130 1.3911960
v 0.1077010 1.0935100 1.3388931
v 0.1140110 1.1575730 1.2833650
v 0.1200460 1.2188470 1.2247450
v 0.1257920 1.2771850 1.1631740
v 0.1312350 1.3324460 1.0988010
v 0.1363610 1.3844960 1.0317810
v 0.1411590 1.4332120 0.9622760
v 0.1456170 1.4784750 0.8904520
v 0.1497240 1.5201761 0.8164830
v 0.1534710 1.5582160 0.7405470
v 0.1568480 1.5925000 0.6628270
v 0.1598470 1.6229490 0.5835100
v 0.1624600 1.6494870 0.5027880
v 0.1646830 1.6720520 0.4208540
v 0.1665080 1.6905890 0.3379060
v 0.1679330 1.7050540 0.2541450
v 0.1689530 1.7154100 0.1697710
v 0.1695660 1.7216340 0.0849880
v 0.1877310 0.9437860 1.4401480
v 0.2012910 1.0119560 1.3911960
v 0.2143660 1.0776880 1.3388931
v 0.2269240 1.1408240 1.2833650
v 0.2389360 1.2012110 1.2247450
v 0.2503720 1.2587050 1.1631740
v 0.2612050 1.3131660 1.0988010
v 0.2714090 1.3644640 1.0317810
v 0.2809590 1.4124750 0.9622760
v 0.2898320 1.4570830 0.8904520
v 0.2980070 1.4981810 0.8164830
v 0.3054630 1.5356700 0.7405470
v 0.3121850 1.5694580 0.6628270
v 0.3181540 1.5994660 0.5835100
v 0.3233560 1.6256210 0.5027880
v 0.3277800 1.6478590 0.4208540
v 0.3314130 1.6661270 0.3379060
v 0.3342490 1.6803830 0.2541450
v 0.3362790 1.6905890 0.1697710
v 0.3374990 1.6967230 0.0849880
v 0.2793340 0.9208400 1.4401480
v 0.2995100 0.9873530 1.3911960
v 0.3189650 1.0514870 1.3388931
v 0.3376520 1.1130880 1.2833650
v 0.3555250 1.1720070 1.2247450
v 0.3725410 1.2281040 1.1631740
v 0.3886600 1.2812400 1.0988010
v 0.4038430 1.3312910 1.0317810
v 0.4180520 1.3781350 0.9622760
v 0.4312550 1.4216580 0.8904520
v 0.4434190 1.4617569 0.8164830
v 0.4545150 1.4983341 0.7405470
v 0.4645150 1.5313010 0.6628270
v 0.4733970 1.5605800 0.5835100
v 0.4811380 1.5860990 0.5027880
v 0.4877200 1.6077960 0.4208540
v 0.4931270 1.6256200 0.3379060
v 0.4973460 1.6395290 0.2541450
v 0.5003670 1.6494880 0.1697710
v 0.5021820 1.6554720 0.0849880
v 0.3682470 0.8890270 1.4401480
v 0.3948460 0.9532420 1.3911960
v 0.4204930 1.0151600 1.3388931
v 0.4451280 1.0746320 1.2833650
v 0.4686890 1.1315160 1.2247450
v 0.4911220 1.1856750 1.1631740
v 0.5123720 1.2369760 1.0988010
v 0.5323870 1.2852970 1.0317810
v 0.5511200 1.3305219 0.9622760
v 0.5685250 1.3725420 0.8904520
v 0.5845610 1.4112550 0.8164830
v 0.5991880 1.4465690 0.7405470
v 0.6123720 1.4783970 0.6628270
v 0.6240810 1.5066640 0.5835100
v 0.6342860 1.5313010 0.5027880
v 0.6429630 1.5522490 0.4208540
v 0.6500910 1.5694580 0.3379060
v 0.6556530 1.5828860 0.2541450
v 0.6596350 1.5925000 0.1697710
v 0.6620290 1.5982780 0.0849880
v 0.4536140 0.8486510 1.4401480
v 0.4863780 0.9099500 1.3911960
v 0.5179710 0.9690560 1.3388931
v 0.5483160 1.0258280 1.2833650
v 0.5773410 1.0801280 1.2247450
v 0.6049740 1.1318270 1.1631740
v 0.6311500 1.1807981 1.0988010
v 0.6558050 1.2269250 1.0317810
v 0.6788800 1.2700959 0.9622760
v 0.7003200 1.3102070 0.8904520
v 0.7200730 1.3471630 0.8164830
v 0.7380920 1.3808730 0.7405470
v 0.7543310 1.4112550 0.6628270
v 0.7687550 1.4382390 0.5835100
v 0.7813250 1.4617569 0.5027880
v 0.7920140 1.4817530 0.4208540
v 0.8007940 1.4981800 0.3379060
v 0.8076460 1.5109990 0.2541450
v 0.8125510 1.5201761 0.1697710
v 0.8155000 1.5256920 0.0849880
v 0.5346120 0.8001030 1.4401480
v 0.5732270 0.8578950 1.3911960
v 0.6104610 0.9136200 1.3388931
v 0.6462250 0.9671440 1.2833650
v 0.6804320 1.0183380 1.2247450
v 0.7129990 1.0670789 1.1631740
v 0.7438490 1.1132480 1.0988010
v 0.7729070 1.1567360 1.0317810
v 0.8001020 1.1974380 0.9622760
v 0.8253710 1.2352550 0.8904520
v 0.8486510 1.2700959 0.8164830
v 0.8698870 1.3018780 0.7405470
v 0.8890260 1.3305219 0.6628270
v 0.9060250 1.3559620 0.5835100
v 0.9208400 1.3781350 0.5027880
v 0.9334370 1.3969870 0.4208540
v 0.9437850 1.4124750 0.3379060
v 0.9518600 1.4245600 0.2541450
v 0.9576420 1.4332120 0.1697710
v 0.9611170 1.4384130 0.0849880
v 0.6104610 0.7438490 1.4401480
v 0.6545550 0.7975780 1.3911960
v 0.6970720 0.8493850 1.3388931
v 0.7379100 0.8991450 1.2833650
v 0.7769700 0.9467410 1.2247450
v 0.8141580 0.9920550 1.1631740
v 0.8493850 1.0349780 1.0988010
v 0.8825650 1.0754080 1.0317810
v 0.9136190 1.1132489 0.9622760
v 0.9424730 1.1484060 0.8904520
v 0.9690560 1.1807981 0.8164830
v 0.9933040 1.2103450 0.7405470
v 1.0151590 1.2369750 0.6628270
v 1.0345700 1.2606270 0.5835100
v 1.0514870 1.2812400 0.5027880
v 1.0658710 1.2987670 0.4208540
v 1.0776880 1.3131660 0.3379060
v 1.0869080 1.3244010 0.2541450
v 1.0935100 1.3324460 0.1697710
v 1.0974780 1.3372800 0.0849880
v 0.6804320 0.6804320 1.4401480
v 0.7295800 0.7295800 1.3911960
v 0.7769700 0.7769700 1.3388931
v 0.8224880 0.8224880 1.2833650
v 0.8660250 0.8660250 1.2247450
v 0.9074760 0.9074760 1.1631740
v 0.9467400 0.9467400 1.0988010
v 0.9837240 0.9837230 1.0317810
v 1.0183370 1.0183380 0.9622760
v 1.0504980 1.0504980 0.8904520
v 1.0801280 1.0801280 0.8164830
v 1.1071560 1.1071560 0.7405470
v 1.1315160 1.1315160 0.6628270
v 1.1531510 1.1531510 0.5835100
v 1.1720070 1.1720070 0.5027880
v 1.1880400 1.1880400 0.4208540
v 1.2012110 1.2012110 0.3379060
v 1.2114890 1.2114880 0.2541450
v 1.2188470 1.2188470 0.1697710
v 1.2232690 1.2232690 0.0849880
v 0.7438490 0.6104610 1.4401480
v 0.7975780 0.6545550 1.3911960
v 0.8493850 0.6970720 1.3388931
v 0.8991460 0.7379090 1.2833650
v 0.9467400 0.7769700 1.2247450
v 0.9920550 0.8141580 1.1631740
v 1.0349780 0.8493840 1.0988010
v 1.0754080 0.8825650 1.0317810
v 1.1132480 0.9136200 0.9622760
v 1.1484060 0.9424730 0.8904520
v 1.1807981 0.9690560 0.8164830
v 1.2103450 0.9933050 0.7405470
v 1.2369750 1.0151590 0.6628270
v 1.2606270 1.0345700 0.5835100
v 1.2812411 1.0514870 0.5027880
v 1.2987680 1.0658710 0.4208540
v 1.3131660 1.0776880 0.3379060
v 1.3244020 1.0869080 0.2541450
v 1.3324460 1.0935100 0.1697710
v 1.3372800 1.0974770 0.0849880
v 0.8001030 0.5346120 1.4401480
v 0.8578950 0.5732270 1.3911960
v 0.9136200 0.6104610 1.3388931
v 0.9671440 0.6462250 1.2833650
v 1.0183380 0.6804320 1.2247450
v 1.0670789 0.7129990 1.1631740
v 1.1132489 0.7438490 1.0988010
v 1.1567360 0.7729060 1.0317810
v 1.1974380 0.8001030 0.9622760
v 1.2352550 0.8253710 0.8904520
v 1.2700959 0.8486510 0.8164830
v 1.3018780 0.8698870 0.7405470
v 1.3305219 0.8890260 0.6628270
v 1.3559620 0.9060250 0.5835100
v 1.3781350 0.9208400 0.5027880
v 1.3969870 0.9334370 0.4208540
v 1.4124750 0.9437850 0.3379060
v 1.4245600 0.9518600 0.2541450
v 1.4332130 0.9576420 0.1697710
v 1.4384130 0.9611160 0.0849880
v 0.8486510 0.4536140 1.4401480
v 0.9099500 0.4863780 1.3911960
v 0.9690560 0.5179710 1.3388931
v 1.0258280 0.5483160 1.2833650
v 1.0801280 0.5773410 1.2247450
v 1.1318270 0.6049740 1.1631740
v 1.1807981 0.6311490 1.0988010
v 1.2269250 0.6558050 1.0317810
v 1.2700959 0.6788810 0.9622760
v 1.3102070 0.7003210 0.8904520
v 1.3471620 0.7200740 0.8164830
v 1.3808730 0.7380920 0.7405470
v 1.4112550 0.7543310 0.6628270
v 1.4382390 0.7687540 0.5835100
v 1.4617569 0.7813250 0.5027880
v 1.4817530 0.7920130 0.4208540
v 1.4981800 0.8007940 0.3379060
v 1.5109990 0.8076460 0.2541450
v 1.5201770 0.8125510 0.1697710
v 1.5256920 0.8154990 0.0849880
v 0.8890270 0.3682470 1.4401480
v 0.9532420 0.3948450 1.3911960
v 1.0151600 0.4204930 1.3388931
v 1.0746330 0.4451270 1.2833650
v 1.1315171 0.4686890 1.2247450
v 1.1856750 0.4911230 1.1631740
v 1.2369760 0.5123720 1.0988010
v 1.2852970 0.5323870 1.0317810
v 1.3305219 0.5511200 0.9622760
v 1.3725420 0.5685250 0.8904520
v 1.4112550 0.5845610 0.8164830
v 1.4465690 0.5991890 0.7405470
v 1.4783970 0.6123720 0.6628270
v 1.5066640 0.6240810 0.5835100
v 1.5313010 0.6342860 0.5027880
v 1.5522490 0.6429620 0.4208540
v 1.5694580 0.6500910 0.3379060
v 1.5828860 0.6556530 0.2541450
v 1.5925010 0.6596350 0.1697710
v 1.5982780 0.6620280 0.0849880
v 0.9208400 0.2793340 1.4401480
v 0.9873530 0.2995100 1.3911960
v 1.0514870 0.3189650 1.3388931
v 1.1130880 0.3376510 1.2833650
v 1.1720080 0.3555250 1.2247450
v 1.2281040 0.3725410 1.1631740
v 1.2812400 0.3886600 1.0988010
v 1.3312900 0.4038420 1.0317810
v 1.3781340 0.4180530 0.9622760
v 1.4216580 0.4312550 0.8904520
v 1.4617560 0.4434190 0.8164830
v 1.4983341 0.4545150 0.7405470
v 1.5313010 0.4645150 0.6628270
v 1.5605800 0.4733970 0.5835100
v 1.5860990 0.4811380 0.5027880
v 1.6077960 0.4877190 0.4208540
v 1.6256200 0.4931270 0.3379060
v 1.6395290 0.4973460 0.2541450
v 1.6494880 0.5003670 0.1697710
v 1.6554720 0.5021820 0.0849880
v 0.9437860 0.1877310 1.4401480
v 1.0119560 0.2012900 1.3911960
v 1.0776880 0.2143650 1.3388931
v 1.1408240 0.2269240 1.2833650
v 1.2012120 0.2389360 1.2247450
v 1.2587060 0.2503720 1.1631740
v 1.3131660 0.2612050 1.0988010
v 1.3644630 0.2714080 1.0317810
v 1.4124740 0.2809590 0.9622760
v 1.4570830 0.2898320 0.8904520
v 1.4981800 0.2980070 0.8164830
v 1.5356690 0.3054640 0.7405470
v 1.5694571 0.3121840 0.6628270
v 1.5994660 0.3181540 0.5835100
v 1.6256210 0.3233560 0.5027880
v 1.6478590 0.3277790 0.4208540
v 1.6661270 0.3314130 0.3379060
v 1.6803830 0.3342490 0.2541450
v 1.6905890 0.3362790 0.1697710
v 1.6967230 0.3374990 0.0849880
v 0.9576420 0.0943190 1.4401480
v 1.0268130 0.1011320 1.3911960
v 1.0935100 0.1077010 1.3388931
v 1.1575730 0.1140110 1.2833650
v 1.2188470 0.1200460 1.2247450
v 1.2771850 0.1257920 1.1631740
v 1.3324460 0.1312340 1.0988010
v 1.3844960 0.1363610 1.0317810
v 1.4332120 0.1411590 0.9622760
v 1.4784750 0.1456170 0.8904520
v 1.5201761 0.1497240 0.8164830
v 1.5582150 0.1534710 0.7405470
v 1.5924990 0.1568470 0.6628270
v 1.6229490 0.1598460 0.5835100
v 1.6494870 0.1624600 0.5027880
v 1.6720520 0.1646830 0.4208540
v 1.6905880 0.1665080 0.3379060
v 1.7050540 0.1679330 0.2541450
v 1.7154100 0.1689530 0.1697710
v 1.7216340 0.1695660 0.0849880
v 0.0000000 1.7320499 0.0000000
v 0.1697700 1.7237090 0.0000000
v 0.3379060 1.6987690 0.0000000
v 0.5027870 1.6574680 0.0000000
v 0.6628270 1.6002049 0.0000000
v 0.8164820 1.5275310 0.0000000
v 0.9622750 1.4401470 0.0000000
v 1.0988010 1.3388920 0.0000000
v 1.2247440 1.2247440 0.0000000
v 1.3388920 1.0988010 0.0000000
v 1.4401470 0.9622750 0.0000000
v 1.5275310 0.8164830 0.0000000
v 1.6002049 0.6628270 0.0000000
v 1.6574680 0.5027870 0.0000000
v 1.6987690 0.3379060 0.0000000
v 1.7237090 0.1697710 0.0000000
v 0.9622760 0.0000000 1.4401480
v 1.0317810 0.0000000 1.3911960
v 1.0988010 0.0000000 1.3388931
v 1.1631740 0.0000000 1.2833650
v 1.2247450 0.0000000 1.2247450
v 1.2833650 0.0000000 1.1631740
v 1.3388931 0.0000000 1.0988010
v 1.3911951 0.0000000 1.0317810
v 1.4401460 0.0000000 0.9622760
v 1.4856280 0.0000000 0.8904520
v 1.5275310 0.0000000 0.8164830
v 1.5657550 0.0000000 0.7405470
v 1.6002049 0.0000000 0.6628270
v 1.6308020 0.0000000 0.5835100
v 1.6574680 0.0000000 0.5027880
v 1.6801420 0.0000000 0.4208540
v 1.6987680 0.0000000 0.3379060
v 1.7133040 0.0000000 0.2541450
v 1.7237099 0.0000000 0.1697710
v 1.7299640 0.0000000 0.0849880
v 1.7320490 0.0000000 0.0000000
v -0.9622760 0.0000000 1.4401480
v -1.0317810 0.0000000 1.3911960
v -1.0988010 0.0000000 1.3388931
v -1.1631740 0.0000000 1.2833650
v -1.2247450 0.0000000 1.2247450
v -1.2833650 0.0000000 1.1631740
v -1.3388931 0.0000000 1.0988010
v -1.3911951 0.0000000 1.0317810
v -1.4401470 0.0000000 0.9622760
v -1.4856290 0.0000000 0.8904520
v -1.5275320 0.0000000 0.8164830
v -1.5657550 0.0000000 0.7405470
v -1.6002049 0.0000000 0.6628270
v -1.6308020 0.0000000 0.5835100
v -1.6574690 0.0000000 0.5027880
v -1.6801420 0.0000000 0.4208540
v -1.6987690 0.0000000 0.3379060
v -1.7133040 0.0000000 0.2541450
v -1.7237099 0.0000000 0.1697710
v -1.7299640 0.0000000 0.0849880
v -0.9576420 0.0943190 1.4401480
v -1.0268130 0.1011320 1.3911960
v -1.0935100 0.1077010 1.3388931
v -1.1575730 0.1140110 1.2833650
v -1.2188470 0.1200460 1.2247450
v -1.2771850 0.1257920 1.1631740
v -1.3324460 0.1312350 1.0988010
v -1.3844960 0.1363610 1.0317810
v -1.4332120 0.1411590 0.9622760
v -1.4784750 0.1456170 0.8904520
v -1.5201761 0.1497240 0.8164830
v -1.5582160 0.1534710 0.7405470
v -1.5925000 0.1568480 0.6628270
v -1.6229490 0.1598470 0.5835100
v -1.6494870 0.1624600 0.5027880
v -1.6720520 0.1646830 0.4208540
v -1.6905890 0.1665080 0.3379060
v -1.7050540 0.1679330 0.2541450
v -1.7154100 0.1689530 0.1697710
v -1.7216340 0.1695660 0.0849880
v -0.9437860 0.1877310 1.4401480
v -1.0119560 0.2012910 1.3911960
v -1.0776880 0.2143660 1.3388931
v -1.1408240 0.2269240 1.2833650
v -1.2012110 0.2389360 1.2247450
v -1.2587050 0.2503720 1.1631740
v -1.3131660 0.2612050 1.0988010
v -1.3644640 0.2714090 1.0317810
v -1.4124750 0.2809590 0.9622760
v -1.4570830 0.2898320 0.8904520
v -1.4981810 0.2980070 0.8164830
v -1.5356700 0.3054630 0.7405470
v -1.5694580 0.3121850 0.6628270
v -1.5994660 0.3181540 0.5835100
v -1.6256210 0.3233560 0.5027880
v -1.6478590 0.3277800 0.4208540
v -1.6661270 0.3314130 0.3379060
v -1.6803830 0.3342490 0.2541450
v -1.6905890 0.3362790 0.1697710
v -1.6967230 0.3374990 0.0849880
v -0.9208400 0.2793340 1.4401480
v -0.9873530 0.2995100 1.3911960
v -1.0514870 0.3189650 1.3388931
v -1.1130880 0.3376520 1.2833650
v -1.1720070 0.3555250 1.2247450
v -1.2281040 0.3725410 1.1631740
v -1.2812400 0.3886600 1.0988010
v -1.3312910 0.4038430 1.0317810
v -1.3781350 0.4180520 0.9622760
v -1.4216580 0.4312550 0.8904520
v -1.4617569 0.4434190 0.8164830
v -1.4983341 0.4545150 0.7405470
v -1.5313010 0.4645150 0.6628270
v -1.5605800 0.4733970 0.5835100
v -1.5860990 0.4811380 0.5027880
v -1.6077960 0.4877200 0.4208540
v -1.6256200 0.4931270 0.3379060
v -1.6395290 0.4973460 0.2541450
v -1.6494880 0.5003670 0.1697710
v -1.6554720 0.5021820 0.0849880
v -0.8890270 0.3682470 1.4401480
v -0.9532420 0.3948460 1.3911960
v -1.0151600 0.4204930 1.3388931
v -1.0746320 0.4451280 1.2833650
v -1.1315160 0.4686890 1.2247450
v -1.1856750 0.4911220 1.1631740
v -1.2369760 0.5123720 1.0988010
v -1.2852970 0.5323870 1.0317810
v -1.3305219 0.5511200 0.9622760
v -1.3725420 0.5685250 0.8904520
v -1.4112550 0.5845610 0.8164830
v -1.4465690 0.5991880 0.7405470
v -1.4783970 0.6123720 0.6628270
v -1.5066640 0.6240810 0.5835100
v -1.5313010 0.6342860 0.5027880
v -1.5522490 0.6429630 0.4208540
v -1.5694580 0.6500910 0.3379060
v -1.5828860 0.6556530 0.2541450
v -1.5925000 0.6596350 0.1697710
v -1.5982780 0.6620290 0.0849880
v -0.8486510 0.4536140 1.4401480
v -0.9099500 0.4863780 1.3911960
v -0.9690560 0.5179710 1.3388931
v -1.0258280 0.5483160 1.2833650
v -1.0801280 0.5773410 1.2247450
v -1.1318270 0.6049740 1.1631740
v -1.1807981 0.6311500 1.0988010
v -1.2269250 0.6558050 1.0317810
v -1.2700959 0.6788800 0.9622760
v -1.3102070 0.7003200 0.8904520
v -1.3471630 0.7200730 0.8164830
v -1.3808730 0.7380920 0.7405470
v -1.4112550 0.7543310 0.6628270
v -1.4382390 0.7687550 0.5835100
v -1.4617569 0.7813250 0.5027880
v -1.4817530 0.7920140 0.4208540
v -1.4981800 0.8007940 0.3379060
v -1.5109990 0.8076460 0.2541450
v -1.5201761 0.8125510 0.1697710
v -1.5256920 0.8155000 0.0849880
v -0.8001030 0.5346120 1.4401480
v -0.8578950 0.5732270 1.3911960
v -0.9136200 0.6104610 1.3388931
v -0.9671440 0.6462250 1.2833650
v -1.0183380 0.6804320 1.2247450
v -1.0670789 0.7129990 1.1631740
v -1.1132480 0.7438490 1.0988010
v -1.1567360 0.7729070 1.0317810
v -1.1974380 0.8001020 0.9622760
v -1.2352550 0.8253710 0.8904520
v -1.2700959 0.8486510 0.8164830
v -1.3018780 0.8698870 0.7405470
v -1.3305219 0.8890260 0.6628270
v -1.3559620 0.9060250 0.5835100
v -1.3781350 0.9208400 0.5027880
v -1.3969870 0.9334370 0.4208540
v -1.4124750 0.9437850 0.3379060
v -1.4245600 0.9518600 0.2541450
v -1.4332120 0.9576420 0.1697710
v -1.4384130 0.9611170 0.0849880
v -0.7438490 0.6104610 1.4401480
v -0.7975780 0.6545550 1.3911960
v -0.8493850 0.6970720 1.3388931
v -0.8991450 0.7379100 1.2833650
v -0.9467410 0.7769700 1.2247450
v -0.9920550 0.8141580 1.1631740
v -1.0349780 0.8493850 1.0988010
v -1.0754080 0.8825650 1.0317810
v -1.1132489 0.9136190 0.9622760
v -1.1484060 0.9424730 0.8904520
v -1.1807981 0.9690560 0.8164830
v -1.2103450 0.9933040 0.7405470
v -1.2369750 1.0151590 0.6628270
v -1.2606270 1.0345700 0.5835100
v -1.2812400 1.0514870 0.5027880
v -1.2987670 1.0658710 0.4208540
v -1.3131660 1.0776880 0.3379060
v -1.3244010 1.0869080 0.2541450
v -1.3324460 1.0935100 0.1697710
v -1.3372800 1.0974780 0.0849880
v -0.6804320 0.6804320 1.4401480
v -0.7295800 0.7295800 1.3911960
v -0.7769700 0.7769700 1.3388931
v -0.8224880 0.8224880 1.2833650
v -0.8660250 0.8660250 1.2247450
v -0.9074760 0.9074760 1.1631740
v -0.9467400 0.9467400 1.0988010
v -0.9837230 0.9837240 1.0317810
v -1.0183380 1.0183370 0.9622760
v -1.0504980 1.0504980 0.8904520
v -1.0801280 1.0801280 0.8164830
v -1.1071560 1.1071560 0.7405470
v -1.1315160 1.1315160 0.6628270
v -1.1531510 1.1531510 0.5835100
v -1.1720070 1.1720070 0.5027880
v -1.1880400 1.1880400 0.4208540
v -1.2012110 1.2012110 0.3379060
v -1.2114880 1.2114890 0.2541450
v -1.2188470 1.2188470 0.1697710
v -1.2232690 1.2232690 0.0849880
v -0.6104610 0.7438490 1.4401480
v -0.6545550 0.7975780 1.3911960
v -0.6970720 0.8493850 1.3388931
v -0.7379090 0.8991460 1.2833650
v -0.7769700 0.9467400 1.2247450
v -0.8141580 0.9920550 1.1631740
v -0.8493840 1.0349780 1.0988010
v -0.8825650 1.0754080 1.0317810
v -0.9136200 1.1132480 0.9622760
v -0.9424730 1.1484060 0.8904520
v -0.9690560 1.1807981 0.8164830
v -0.9933050 1.2103450 0.7405470
v -1.0151590 1.2369750 0.6628270
v -1.0345700 1.2606270 0.5835100
v -1.0514870 1.2812411 0.5027880
v -1.0658710 1.2987680 0.4208540
v -1.0776880 1.3131660 0.3379060
v -1.0869080 1.3244020 0.2541450
v -1.0935100 1.3324460 0.1697710
v -1.0974770 1.3372800 0.0849880
v -0.5346120 0.8001030 1.4401480
v -0.5732270 0.8578950 1.3911960
v -0.6104610 0.9136200 1.3388931
v -0.6462250 0.9671440 1.2833650
v -0.6804320 1.0183380 1.2247450
v -0.7129990 1.0670789 1.1631740
v -0.7438490 1.1132489 1.0988010
v -0.7729060 1.1567360 1.0317810
v -0.8001030 1.1974380 0.9622760
v -0.8253710 1.2352550 0.8904520
v -0.8486510 1.2700959 0.8164830
v -0.8698870 1.3018780 0.7405470
v -0.8890260 1.3305219 0.6628270
v -0.9060250 1.3559620 0.5835100
v -0.9208400 1.3781350 0.5027880
v -0.9334370 1.3969870 0.4208540
v -0.9437850 1.4124750 0.3379060
v -0.9518600 1.4245600 0.2541450
v -0.9576420 1.4332130 0.1697710
v -0.9611160 1.4384130 0.0849880
v -0.4536140 0.8486510 1.4401480
v -0.4863780 0.9099500 1.3911960
v -0.5179710 0.9690560 1.3388931
v -0.5483160 1.0258280 1.2833650
v -0.5773410 1.0801280 1.2247450
v -0.6049740 1.1318270 1.1631740
v -0.6311490 1.1807981 1.0988010
v -0.6558050 1.2269250 1.0317810
v -0.6788810 1.2700959 0.9622760
v -0.7003210 1.3102070 0.8904520
v -0.7200740 1.3471620 0.8164830
v -0.7380920 1.3808730 0.7405470
v -0.7543310 1.4112550 0.6628270
v -0.7687540 1.4382390 0.5835100
v -0.7813250 1.4617569 0.5027880
v -0.7920130 1.4817530 0.4208540
v -0.8007940 1.4981800 0.3379060
v -0.8076460 1.5109990 0.2541450
v -0.8125510 1.5201770 0.1697710
v -0.8154990 1.5256920 0.0849880
v -0.3682470 0.8890270 1.4401480
v -0.3948450 0.9532420 1.3911960
v -0.4204930 1.0151600 1.3388931
v -0.4451270 1.0746330 1.2833650
v -0.4686890 1.1315171 1.2247450
v -0.4911230 1.1856750 1.1631740
v -0.5123720 1.2369760 1.0988010
v -0.5323870 1.2852970 1.0317810
v -0.5511200 1.3305219 0.9622760
v -0.5685250 1.3725420 0.8904520
v -0.5845610 1.4112550 0.8164830
v -0.5991890 1.4465690 0.7405470
v -0.6123720 1.4783970 0.6628270
v -0.6240810 1.5066640 0.5835100
v -0.6342860 1.5313010 0.5027880
v -0.6429620 1.5522490 0.4208540
v -0.6500910 1.5694580 0.3379060
v -0.6556530 1.5828860 0.2541450
v -0.6596350 1.5925010 0.1697710
v -0.6620280 1.5982780 0.0849880
v -0.2793340 0.9208400 1.4401480
v -0.2995100 0.9873530 1.3911960
v -0.3189650 1.0514870 1.3388931
v -0.3376510 1.1130880 1.2833650
v -0.3555250 1.1720080 1.2247450
v -0.3725410 1.2281040 1.1631740
v -0.3886600 1.2812400 1.0988010
v -0.4038420 1.3312900 1.0317810
v -0.4180530 1.3781340 0.9622760
v -0.4312550 1.4216580 0.8904520
v -0.4434190 1.4617560 0.8164830
v -0.4545150 1.4983341 0.7405470
v -0.4645150 1.5313010 0.6628270
v -0.4733970 1.5605800 0.5835100
v -0.4811380 1.5860990 0.5027880
v -0.4877190 1.6077960 0.4208540
v -0.4931270 1.6256200 0.3379060
v -0.4973460 1.6395290 0.2541450
v -0.5003670 1.6494880 0.1697710
v -0.5021820 1.6554720 0.0849880
v -0.1877310 0.9437860 1.4401480
v -0.2012900 1.0119560 1.3911960
v -0.2143650 1.0776880 1.3388931
v -0.2269240 1.1408240 1.2833650
v -0.2389360 1.2012120 1.2247450
v -0.2503720 1.2587060 1.1631740
v -0.2612050 1.3131660 1.0988010
v -0.2714080 1.3644630 1.0317810
v -0.2809590 1.4124740 0.9622760
v -0.2898320 1.4570830 0.8904520
v -0.2980070 1.4981800 0.8164830
v -0.3054640 1.5356690 0.7405470
v -0.3121840 1.5694571 0.6628270
v -0.3181540 1.5994660 0.5835100
v -0.3233560 1.6256210 0.5027880
v -0.3277790 1.6478590 0.4208540
v -0.3314130 1.6661270 0.3379060
v -0.3342490 1.6803830 0.2541450
v -0.3362790 1.6905890 0.1697710
v -0.3374990 1.6967230 0.0849880
v -0.0943190 0.9576420 1.4401480
v -0.1011320 1.0268130 1.3911960
v -0.1077010 1.0935100 1.3388931
v -0.1140110 1.1575730 1.2833650
v -0.1200460 1.2188470 1.2247450
v -0.1257920 1.2771850 1.1631740
v -0.1312340 1.3324460 1.0988010
v -0.1363610 1.3844960 1.0317810
v -0.1411590 1.4332120 0.9622760
v -0.1456170 1.4784750 0.8904520
v -0.1497240 1.5201761 0.8164830
v -0.1534710 1.5582150 0.7405470
v -0.1568470 1.5924990 0.6628270
v -0.1598460 1.6229490 0.5835100
v -0.1624600 1.6494870 0.5027880
v -0.1646830 1.6720520 0.4208540
v -0.1665080 1.6905880 0.3379060
v -0.1679330 1.7050540 0.2541450
v -0.1689530 1.7154100 0.1697710
v -0.1695660 1.7216340 0.0849880
v -1.7320499 0.0000000 0.0000000
v -1.7237090 0.1697700 0.0000000
v -1.6987690 0.3379060 0.0000000
v -1.6574680 0.5027870 0.0000000
v -1.6002049 0.6628270 0.0000000
v -1.5275310 0.8164820 0.0000000
v -1.4401470 0.9622750 0.0000000
v -1.3388920 1.0988010 0.0000000
v -1.2247440 1.2247440 0.0000000
v -1.0988010 1.3388920 0.0000000
v -0.9622750 1.4401470 0.0000000
v -0.8164830 1.5275310 0.0000000
v -0.6628270 1.6002049 0.0000000
v -0.5027870 1.6574680 0.0000000
v -0.3379060 1.6987690 0.0000000
v -0.1697710 1.7237090 0.0000000
v 0.0000000 0.9622760 1.4401480
v 0.0000000 1.0317810 1.3911960
v 0.0000000 1.0988010 1.3388931
v 0.0000000 1.1631740 1.2833650
v 0.0000000 1.2247450 1.2247450
v 0.0000000 1.2833650 1.1631740
v 0.0000000 1.3388931 1.0988010
v 0.0000000 1.3911951 1.0317810
v 0.0000000 1.4401460 0.9622760
v 0.0000000 1.4856280 0.8904520
v 0.0000000 1.5275310 0.8164830
v 0.0000000 1.5657550 0.7405470
v 0.0000000 1.6002049 0.6628270
v 0.0000000 1.6308020 0.5835100
v 0.0000000 1.6574680 0.5027880
v 0.0000000 1.6801420 0.4208540
v 0.0000000 1.6987680 0.3379060
v 0.0000000 1.7133040 0.2541450
v 0.0000000 1.7237099 0.1697710
v 0.0000000 1.7299640 0.0849880
v 0.0000000 1.7320490 0.0000000
v 0.0000000 -0.9622760 1.4401480
v 0.0000000 -1.0317810 1.3911960
v 0.0000000 -1.0988010 1.3388931
v 0.0000000 -1.1631740 1.2833650
v 0.0000000 -1.2247450 1.2247450
v 0.0000000 -1.2833650 1.1631740
v 0.0000000 -1.3388931 1.0988010
v 0.0000000 -1.3911951 1.0317810
v 0.0000000 -1.4401470 0.9622760
v 0.0000000 -1.4856290 0.8904520
v 0.0000000 -1.5275320 0.8164830
v 0.0000000 -1.5657550 0.7405470
v 0.0000000 -1.6002049 0.6628270
v 0.0000000 -1.6308020 0.5835100
v 0.0000000 -1.6574690 0.5027880
v 0.0000000 -1.6801420 0.4208540
v 0.0000000 -1.6987690 0.3379060
v 0.0000000 -1.7133040 0.2541450
v 0.0000000 -1.7237099 0.1697710
v 0.0000000 -1.7299640 0.0849880
v -0.0943190 -0.9576420 1.4401480
v -0.1011320 -1.0268130 1.3911960
v -0.1077010 -1.0935100 1.3388931
v -0.1140110 -1.1575730 1.2833650
v -0.1200460 -1.2188470 1.2247450
v -0.1257920 -1.2771850 1.1631740
v -0.1312350 -1.3324460 1.0988010
v -0.1363610 -1.3844960 1.0317810
v -0.1411590 -1.4332120 0.9622760
v -0.1456170 -1.4784750 0.8904520
v -0.1497240 -1.5201761 0.8164830
v -0.1534710 -1.5582160 0.7405470
v -0.1568480 -1.5925000 0.6628270
v -0.1598470 -1.6229490 0.5835100
v -0.1624600 -1.6494870 0.5027880
v -0.1646830 -1.6720520 0.4208540
v -0.1665080 -1.6905890 0.3379060
v -0.1679330 -1.7050540 0.2541450
v -0.1689530 -1.7154100 0.1697710
v -0.1695660 -1.7216340 0.0849880
v -0.1877310 -0.9437860 1.4401480
v -0.2012910 -1.0119560 1.3911960
v -0.2143660 -1.0776880 1.3388931
v -0.2269240 -1.1408240 1.2833650
v -0.2389360 -1.2012110 1.2247450
v -0.2503720 -1.2587050 1.1631740
v -0.2612050 -1.3131660 1.0988010
v -0.2714090 -1.3644640 1.0317810
v -0.2809590 -1.4124750 0.9622760
v -0.2898320 -1.4570830 0.8904520
v -0.2980070 -1.4981810 0.8164830
v -0.3054630 -1.5356700 0.7405470
v -0.3121850 -1.5694580 0.6628270
v -0.3181540 -1.5994660 0.5835100
v -0.3233560 -1.6256210 0.5027880
v -0.3277800 -1.6478590 0.4208540
v -0.3314130 -1.6661270 0.3379060
v -0.3342490 -1.6803830 0.2541450
v -0.3362790 -1.6905890 0.1697710
v -0.3374990 -1.6967230 0.0849880
v -0.2793340 -0.9208400 1.4401480
v -0.2995100 -0.9873530 1.3911960
v -0.3189650 -1.0514870 1.3388931
v -0.3376520 -1.1130880 1.2833650
v -0.3555250 -1.1720070 1.2247450
v -0.3725410 -1.2281040 1.1631740
v -0.3886600 -1.2812400 1.0988010
v -0.4038430 -1.3312910 1.0317810
v -0.4180520 -1.3781350 0.9622760
v -0.4312550 -1.4216580 0.8904520
v -0.4434190 -1.4617569 0.8164830
v -0.4545150 -1.4983341 0.7405470
v -0.4645150 -1.5313010 0.6628270
v -0.4733970 -1.5605800 0.5835100
v -0.4811380 -1.5860990 0.5027880
v -0.4877200 -1.6077960 0.4208540
v -0.4931270 -1.6256200 0.3379060
v -0.4973460 -1.6395290 0.2541450
v -0.5003670 -1.6494880 0.1697710
v -0.5021820 -1.6554720 0.0849880
v -0.3682470 -0.8890270 1.4401480
v -0.3948460 -0.9532420 1.3911960
v -0.4204930 -1.0151600 1.3388931
v -0.4451280 -1.0746320 1.2833650
v -0.4686890 -1.1315160 1.2247450
v -0.4911220 -1.1856750 1.1631740
v -0.5123720 -1.2369760 1.0988010
v -0.5323870 -1.2852970 1.0317810
v -0.5511200 -1.3305219 0.9622760
v -0.5685250 -1.3725420 0.8904520
v -0.5845610 -1.4112550 0.8164830
v -0.5991880 -1.4465690 0.7405470
v -0.6123720 -1.4783970 0.6628270
v -0.6240810 -1.5066640 0.5835100
v -0.6342860 -1.5313010 0.5027880
v -0.6429630 -1.5522490 0.4208540
v -0.6500910 -1.5694580 0.3379060
v -0.6556530 -1.5828860 0.2541450
v -0.6596350 -1.5925000 0.1697710
v -0.6620290 -1.5982780 0.0849880
v -0.4536140 -0.8486510 1.4401480
v -0.4863780 -0.9099500 1.3911960
v -0.5179710 -0.9690560 1.3388931
v -0.5483160 -1.0258280 1.2833650
v -0.5773410 -1.0801280 1.2247450
v -0.6049740 -1.1318270 1.1631740
v -0.6311500 -1.1807981 1.0988010
v -0.6558050 -1.2269250 1.0317810
v -0.6788800 -1.2700959 0.9622760
v -0.7003200 -1.3102070 0.8904520
v -0.7200730 -1.3471630 0.8164830
v -0.7380920 -1.3808730 0.7405470
v -0.7543310 -1.4112550 0.6628270
v -0.7687550 -1.4382390 0.5835100
v -0.7813250 -1.4617569 0.5027880
v -0.7920140 -1.4817530 0.4208540
v -0.8007940 -1.4981800 0.3379060
v -0.8076460 -1.5109990 0.2541450
v -0.8125510 -1.5201761 0.1697710
v -0.8155000 -1.5256920 0.0849880
v -0.5346120 -0.8001030 1.4401480
v -0.5732270 -0.8578950 1.3911960
v -0.6104610 -0.9136200 1.3388931
v -0.6462250 -0.9671440 1.2833650
v -0.6804320 -1.0183380 1.2247450
v -0.7129990 -1.0670789 1.1631740
v -0.7438490 -1.1132480 1.0988010
v -0.7729070 -1.1567360 1.0317810
v -0.8001020 -1.1974380 0.9622760
v -0.8253710 -1.2352550 0.8904520
v -0.8486510 -1.2700959 0.8164830
v -0.8698870 -1.3018780 0.7405470
v -0.8890260 -1.3305219 0.6628270
v -0.9060250 -1.3559620 0.5835100
v -0.9208400 -1.3781350 0.5027880
v -0.9334370 -1.3969870 0.4208540
v -0.9437850 -1.4124750 0.3379060
v -0.9518600 -1.4245600 0.2541450
v -0.9576420 -1.4332120 0.1697710
v -0.9611170 -1.4384130 0.0849880
v -0.6104610 -0.7438490 1.4401480
v -0.6545550 -0.7975780 1.3911960
v -0.6970720 -0.8493850 1.3388931
v -0.7379100 -0.8991450 1.2833650
v -0.7769700 -0.9467410 1.2247450
v -0.8141580 -0.9920550 1.1631740
v -0.8493850 -1.0349780 1.0988010
v -0.8825650 -1.0754080 1.0317810
v -0.9136190 -1.1132489 0.9622760
v -0.9424730 -1.1484060 0.8904520
v -0.9690560 -1.1807981 0.8164830
v -0.9933040 -1.2103450 0.7405470
v -1.0151590 -1.2369750 0.6628270
v -1.0345700 -1.2606270 0.5835100
v -1.0514870 -1.2812400 0.5027880
v -1.0658710 -1.2987670 0.4208540
v -1.0776880 -1.3131660 0.3379060
v -1.0869080 -1.3244010 0.2541450
v -1.0935100 -1.3324460 0.1697710
v -1.0974780 -1.3372800 0.0849880
v -0.6804320 -0.6804320 1.4401480
v -0.7295800 -0.7295800 1.3911960
v -0.7769700 -0.7769700 1.3388931
v -0.8224880 -0.8224880 1.2833650
v -0.8660250 -0.8660250 1.2247450
v -0.9074760 -0.9074760 1.1631740
v -0.9467400 -0.9467400 1.0988010
v -0.9837240 -0.9837230 1.0317810
v -1.0183370 -1.0183380 0.9622760
v -1.0504980 -1.0504980 0.8904520
v -1.0801280 -1.0801280 0.8164830
v -1.1071560 -1.1071560 0.7405470
v -1.1315160 -1.1315160 0.6628270
v -1.1531510 -1.1531510 0.5835100
v -1.1720070 -1.1720070 0.5027880
v -1.1880400 -1.1880400 0.4208540
v -1.2012110 -1.2012110 0.3379060
v -1.2114890 -1.2114880 0.2541450
v -1.2188470 -1.2188470 0.1697710
v -1.2232690 -1.2232690 0.0849880
v -0.7438490 -0.6104610 1.4401480
v -0.7975780 -0.6545550 1.3911960
v -0.8493850 -0.6970720 1.3388931
v -0.8991460 -0.7379090 1.2833650
v -0.9467400 -0.7769700 1.2247450
v -0.9920550 -0.8141580 1.1631740
v -1.0349780 -0.8493840 1.0988010
v -1.0754080 -0.8825650 1.0317810
v -1.1132480 -0.9136200 0.9622760
v -1.1484060 -0.9424730 0.8904520
v -1.1807981 -0.9690560 0.8164830
v -1.2103450 -0.9933050 0.7405470
v -1.2369750 -1.0151590 0.6628270
v -1.2606270 -1.0345700 0.5835100
v -1.2812411 -1.0514870 0.5027880
v -1.2987680 -1.0658710 0.4208540
v -1.3131660 -1.0776880 0.3379060
v -1.3244020 -1.0869080 0.2541450
v -1.3324460 -1.0935100 0.1697710
v -1.3372800 -1.0974770 0.0849880
v -0.8001030 -0.5346120 1.4401480
v -0.8578950 -0.5732270 1.3911960
v -0.9136200 -0.6104610 1.3388931
v -0.9671440 -0.6462250 1.2833650
v -1.0183380 -0.6804320 1.2247450
v -1.0670789 -0.7129990 1.1631740
v -1.1132489 -0.7438490 1.0988010
v -1.1567360 -0.7729060 1.0317810
v -1.1974380 -0.8001030 0.9622760
v -1.2352550 -0.8253710 0.8904520
v -1.2700959 -0.8486510 0.8164830
v -1.3018780 -0.8698870 0.7405470
v -1.3305219 -0.8890260 0.6628270
v -1.3559620 -0.9060250 0.5835100
v -1.3781350 -0.9208400 0.5027880
v -1.3969870 -0.9334370 0.4208540
v -1.4124750 -0.9437850 0.3379060
v -1.4245600 -0.9518600 0.2541450
v -1.4332130 -0.9576420 0.1697710
v -1.4384130 -0.9611160 0.0849880
v -0.8486510 -0.4536140 1.4401480
v -0.9099500 -0.4863780 1.3911960
v -0.9690560 -0.5179710 1.3388931
v -1.0258280 -0.5483160 1.2833650
v -1.0801280 -0.5773410 1.2247450
v -1.1318270 -0.6049740 1.1631740
v -1.1807981 -0.6311490 1.0988010
v -1.2269250 -0.6558050 1.0317810
v -1.2700959 -0.6788810 0.9622760
v -1.3102070 -0.7003210 0.8904520
v -1.3471620 -0.7200740 0.8164830
v -1.3808730 -0.7380920 0.7405470
v -1.4112550 -0.7543310 0.6628270
v -1.4382390 -0.7687540 0.5835100
v -1.4617569 -0.7813250 0.5027880
v -1.4817530 -0.7920130 0.4208540
v -1.4981800 -0.8007940 0.3379060
v -1.5109990 -0.8076460 0.2541450
v -1.5201770 -0.8125510 0.1697710
v -1.5256920 -0.8154990 0.0849880
v -0.8890270 -0.3682470 1.4401480
v -0.9532420 -0.3948450 1.3911960
v -1.0151600 -0.4204930 1.3388931
v -1.0746330 -0.4451270 1.2833650
v -1.1315171 -0.4686890 1.2247450
v -1.1856750 -0.4911230 1.1631740
v -1.2369760 -0.5123720 1.0988010
v -1.2852970 -0.5323870 1.0317810
v -1.3305219 -0.5511200 0.9622760
v -1.3725420 -0.5685250 0.8904520
v -1.4112550 -0.5845610 0.8164830
v -1.4465690 -0.5991890 0.7405470
v -1.4783970 -0.6123720 0.6628270
v -1.5066640 -0.6240810 0.5835100
v -1.5313010 -0.6342860 0.5027880
v -1.5522490 -0.6429620 0.4208540
v -1.5694580 -0.6500910 0.3379060
v -1.5828860 -0.6556530 0.2541450
v -1.5925010 -0.6596350 0.1697710
v -1.5982780 -0.6620280 0.0849880
v -0.9208400 -0.2793340 1.4401480
v -0.9873530 -0.2995100 1.3911960
v -1.0514870 -0.3189650 1.3388931
v -1.1130880 -0.3376510 1.2833650
v -1.1720080 -0.3555250 1.2247450
v -1.2281040 -0.3725410 1.1631740
v -1.2812400 -0.3886600 1.0988010
v -1.3312900 -0.4038420 1.0317810
v -1.3781340 -0.4180530 0.9622760
v -1.4216580 -0.4312550 0.8904520
v -1.4617560 -0.4434190 0.8164830
v -1.4983341 -0.4545150 0.7405470
v -1.5313010 -0.4645150 0.6628270
v -1.5605800 -0.4733970 0.5835100
v -1.5860990 -0.4811380 0.5027880
v -1.6077960 -0.4877190 0.4208540
v -1.6256200 -0.4931270 0.3379060
v -1.6395290 -0.4973460 0.2541450
v -1.6494880 -0.5003670 0.1697710
v -1.6554720 -0.5021820 0.0849880
v -0.9437860 -0.1877310 1.4401480
v -1.0119560 -0.2012900 1.3911960
v -1.0776880 -0.2143650 1.3388931
v -1.1408240 -0.2269240 1.2833650
v -1.2012120 -0.2389360 1.2247450
v -1.2587060 -0.2503720 1.1631740
v -1.3131660 -0.2612050 1.0988010
v -1.3644630 -0.2714080 1.0317810
v -1.4124740 -0.2809590 0.9622760
v -1.4570830 -0.2898320 0.8904520
v -1.4981800 -0.2980070 0.8164830
v -1.5356690 -0.3054640 0.7405470
v -1.5694571 -0.3121840 0.6628270
v -1.5994660 -0.3181540 0.5835100
v -1.6256210 -0.3233560 0.5027880
v -1.6478590 -0.3277790 0.4208540
v -1.6661270 -0.3314130 0.3379060
v -1.6803830 -0.3342490 0.2541450
v -1.6905890 -0.3362790 0.1697710
v -1.6967230 -0.3374990 0.0849880
v -0.9576420 -0.0943190 1.4401480
v -1.0268130 -0.1011320 1.3911960
v -1.0935100 -0.1077010 1.3388931
v -1.1575730 -0.1140110 1.2833650
v -1.2188470 -0.1200460 1.2247450
v -1.2771850 -0.1257920 1.1631740
v -1.3324460 -0.1312340 1.0988010
v -1.3844960 -0.1363610 1.0317810
v -1.4332120 -0.1411590 0.9622760
v -1.4784750 -0.1456170 0.8904520
v -1.5201761 -0.1497240 0.8164830
v -1.5582150 -0.1534710 0.7405470
v -1.5924990 -0.1568470 0.6628270
v -1.6229490 -0.1598460 0.5835100
v -1.6494870 -0.1624600 0.5027880
v -1.6720520 -0.1646830 0.4208540
v -1.6905880 -0.1665080 0.3379060
v -1.7050540 -0.1679330 0.2541450
v -1.7154100 -0.1689530 0.1697710
v -1.7216340 -0.1695660 0.0849880
v 0.0000000 -1.7320499 0.0000000
v -0.1697700 -1.7237090 0.0000000
v -0.3379060 -1.6987690 0.0000000
v -0.5027870 -1.6574680 0.0000000
v -0.6628270 -1.6002049 0.0000000
v -0.8164820 -1.5275310 0.0000000
v -0.9622750 -1.4401470 0.0000000
v -1.0988010 -1.3388920 0.0000000
v -1.2247440 -1.2247440 0.0000000
v -1.3388920 -1.0988010 0.0000000
v -1.4401470 -0.9622750 0.0000000
v -1.5275310 -0.8164830 0.0000000
v -1.6002049 -0.6628270 0.0000000
v -1.6574680 -0.5027870 0.0000000
v -1.6987690 -0.3379060 0.0000000
v -1.7237090 -0.1697710 0.0000000
v -0.9622760 0.0000000 1.4401480
v -1.0317810 0.0000000 1.3911960
v -1.0988010 0.0000000 1.3388931
v -1.1631740 0.0000000 1.2833650
v -1.2247450 0.0000000 1.2247450
v -1.2833650 0.0000000 1.1631740
v -1.3388931 0.0000000 1.0988010
v -1.3911951 0.0000000 1.0317810
v -1.4401460 0.0000000 0.9622760
v -1.4856280 0.0000000 0.8904520
v -1.5275310 0.0000000 0.8164830
v -1.5657550 0.0000000 0.7405470
v -1.6002049 0.0000000 0.6628270
v -1.6308020 0.0000000 0.5835100
v -1.6574680 0.0000000 0.5027880
v -1.6801420 0.0000000 0.4208540
v -1.6987680 0.0000000 0.3379060
v -1.7133040 0.0000000 0.2541450
v -1.7237099 0.0000000 0.1697710
v -1.7299640 0.0000000 0.0849880
v -1.7320490 0.0000000 0.0000000
v 0.8779900 -0.3061460 1.4600000
v 0.5171950 -0.7740360 1.4600000
v 0.4715510 0.8013930 1.4600000
v 0.8600630 0.3562500 1.4600000
v 0.9001080 0.2332340 1.4600000
v 0.9264430 -0.0912460 1.4600000
v 0.5905730 -0.7196150 1.4600000
v 0.4844780 -0.7936450 1.4600000
v 0.8210020 0.4388350 1.4600000
v 0.8729130 0.3203370 1.4600000
v -0.9264430 -0.0912470 1.4600000
v -0.9309250 0.0000000 1.4600000
v 0.9208460 -0.1289760 1.4600000
v 0.6582640 -0.6582640 1.4600000
v 0.5599360 -0.7423370 1.4600000
v 0.7740360 0.5171950 1.4600000
v 0.8373100 0.4043550 1.4600000
v -0.9130380 -0.1816150 1.4600000
v -0.9283140 -0.0531500 1.4600000
v 0.7196150 -0.5905730 1.4600000
v 0.6300020 -0.6838790 1.4600000
v 0.7196150 0.5905730 1.4600000
v 0.7936450 0.4844780 1.4600000
v -0.8908400 -0.2702340 1.4600000
v -0.9186350 -0.1438850 1.4600000
v 0.7740360 -0.5171940 1.4600000
v 0.6940000 -0.6188340 1.4600000
v 0.6582640 0.6582640 1.4600000
v 0.7423370 0.5599360 1.4600000
v -0.9130380 0.1816140 1.4600000
v -0.9001080 -0.2332340 1.4600000
v 0.8210020 -0.4388350 1.4600000
v 0.7513150 -0.5478310 1.4600000
v 0.5905730 0.7196150 1.4600000
v 0.6838790 0.6300020 1.4600000
v 0.9264430 0.0912470 1.4600000
v 0.9309250 0.0000000 1.4600000
v -0.9264430 0.0912460 1.4600000
v -0.8729130 -0.3203370 1.4600000
v 0.8600630 -0.3562500 1.4600000
v 0.8013930 -0.4715510 1.4600000
v 0.5171940 0.7740360 1.4600000
v 0.6188340 0.6940000 1.4600000
v 0.9130380 0.1816150 1.4600000
v 0.9283140 0.0531500 1.4600000
v -0.9208460 0.1289760 1.4600000
v 0.8908400 -0.2702330 1.4600000
v 0.8437550 -0.3907300 1.4600000
v 0.5478310 0.7513150 1.4600000
v 0.8908400 0.2702340 1.4600000
v 0.9186350 0.1438850 1.4600000
# 1481 vertices, 0 vertices normals

f 4 3 23
f 4 23 24
f 5 4 24
f 5 24 25
f 6 5 25
f 6 25 26
f 7 6 26
f 7 26 27
f 8 7 27
f 8 27 28
f 9 8 28
f 9 28 29
f 10 9 29
f 10 29 30
f 11 10 30
f 11 30 31
f 12 11 31
f 12 31 32
f 13 12 32
f 13 32 33
f 14 13 33
f 14 33 34
f 15 14 34
f 15 34 35
f 16 15 35
f 16 35 36
f 17 16 36
f 17 36 37
f 18 17 37
f 18 37 38
f 19 18 38
f 19 38 39
f 20 19 39
f 20 39 40
f 21 20 40
f 21 40 41
f 322 21 41
f 322 41 323
f 3 2 22
f 3 22 23
f 26 25 45
f 26 45 46
f 27 26 46
f 27 46 47
f 28 27 47
f 28 47 48
f 29 28 48
f 29 48 49
f 30 29 49
f 30 49 50
f 31 30 50
f 31 50 51
f 32 31 51
f 32 51 52
f 33 32 52
f 33 52 53
f 34 33 53
f 34 53 54
f 35 34 54
f 35 54 55
f 36 35 55
f 36 55 56
f 37 36 56
f 37 56 57
f 38 37 57
f 38 57 58
f 39 38 58
f 39 58 59
f 40 39 59
f 40 59 60
f 41 40 60
f 41 60 61
f 323 41 61
f 323 61 324
f 23 22 42
f 23 42 43
f 24 23 43
f 24 43 44
f 25 24 44
f 25 44 45
f 48 47 67
f 48 67 68
f 49 48 68
f 49 68 69
f 50 49 69
f 50 69 70
f 51 50 70
f 51 70 71
f 52 51 71
f 52 71 72
f 53 52 72
f 53 72 73
f 54 53 73
f 54 73 74
f 55 54 74
f 55 74 75
f 56 55 75
f 56 75 76
f 57 56 76
f 57 76 77
f 58 57 77
f 58 77 78
f 59 58 78
f 59 78 79
f 60 59 79
f 60 79 80
f 61 60 80
f 61 80 81
f 324 61 81
f 324 81 325
f 43 42 62
f 43 62 63
f 44 43 63
f 44 63 64
f 45 44 64
f 45 64 65
f 46 45 65
f 46 65 66
f 47 46 66
f 47 66 67
f 70 69 89
f 70 89 90
f 71 70 90
f 71 90 91
f 72 71 91
f 72 91 92
f 73 72 92
f 73 92 93
f 74 73 93
f 74 93 94
f 75 74 94
f 75 94 95
f 76 75 95
f 76 95 96
f 77 76 96
f 77 96 97
f 78 77 97
f 78 97 98
f 79 78 98
f 79 98 99
f 80 79 99
f 80 99 100
f 81 80 100
f 81 100 101
f 325 81 101
f 325 101 326
f 63 62 82
f 63 82 83
f 64 63 83
f 64 83 84
f 65 64 84
f 65 84 85
f 66 65 85
f 66 85 86
f 67 66 86
f 67 86 87
f 68 67 87
f 68 87 88
f 69 68 88
f 69 88 89
f 92 91 111
f 92 111 112
f 93 92 112
f 93 112 113
f 94 93 113
f 94 113 114
f 95 94 114
f 95 114 115
f 96 95 115
f 96 115 116
f 97 96 116
f 97 116 117
f 98 97 117
f 98 117 118
f 99 98 118
f 99 118 119
f 100 99 119
f 100 119 120
f 101 100 120
f 101 120 121
f 326 101 121
f 326 121 327
f 83 82 102
f 83 102 103
f 84 83 103
f 84 103 104
f 85 84 104
f 85 104 105
f 86 85 105
f 86 105 106
f 87 86 106
f 87 106 107
f 88 87 107
f 88 107 108
f 89 88 108
f 89 108 109
f 90 89 109
f 90 109 110
f 91 90 110
f 91 110 111
f 114 113 133
f 114 133 134
f 115 114 134
f 115 134 135
f 116 115 135
f 116 135 136
f 117 116 136
f 117 136 137
f 118 117 137
f 118 137 138
f 119 118 138
f 119 138 139
f 120 119 139
f 120 139 140
f 121 120 140
f 121 140 141
f 327 121 141
f 327 141 328
f 103 102 122
f 103 122 123
f 104 103 123
f 104 123 124
f 105 104 124
f 105 124 125
f 106 105 125
f 106 125 126
f 107 106 126
f 107 126 127
f 108 107 127
f 108 127 128
f 109 108 128
f 109 128 129
f 110 109 129
f 110 129 130
f 111 110 130
f 111 130 131
f 112 111 131
f 112 131 132
f 113 112 132
f 113 132 133
f 136 135 155
f 136 155 156
f 137 136 156
f 137 156 157
f 138 137 157
f 138 157 158
f 139 138 158
f 139 158 159
f 140 139 159
f 140 159 160
f 141 140 160
f 141 160 161
f 328 141 161
f 328 161 329
f 123 122 142
f 123 142 143
f 124 123 143
f 124 143 144
f 125 124 144
f 125 144 145
f 126 125 145
f 126 145 146
f 127 126 146
f 127 146 147
f 128 127 147
f 128 147 148
f 129 128 148
f 129 148 149
f 130 129 149
f 130 149 150
f 131 130 150
f 131 150 151
f 132 131 151
f 132 151 152
f 133 132 152
f 133 152 153
f 134 133 153
f 134 153 154
f 135 134 154
f 135 154 155
f 143 142 162
f 143 162 163
f 144 143 163
f 144 163 164
f 145 144 164
f 145 164 165
f 146 145 165
f 146 165 166
f 147 146 166
f 147 166 167
f 148 147 167
f 148 167 168
f 149 148 168
f 149 168 169
f 150 149 169
f 150 169 170
f 151 150 170
f 151 170 171
f 152 151 171
f 152 171 172
f 153 152 172
f 153 172 173
f 154 153 173
f 154 173 174
f 155 154 174
f 155 174 175
f 156 155 175
f 156 175 176
f 157 156 176
f 157 176 177
f 158 157 177
f 158 177 178
f 159 158 178
f 159 178 179
f 160 159 179
f 160 179 180
f 161 160 180
f 161 180 181
f 329 161 181
f 329 181 330
f 163 162 182
f 163 182 183
f 164 163 183
f 164 183 184
f 165 164 184
f 165 184 185
f 166 165 185
f 166 185 186
f 167 166 186
f 167 186 187
f 168 167 187
f 168 187 188
f 169 168 188
f 169 188 189
f 170 169 189
f 170 189 190
f 171 170 190
f 171 190 191
f 172 171 191
f 172 191 192
f 173 172 192
f 173 192 193
f 174 173 193
f 174 193 194
f 175 174 194
f 175 194 195
f 176 175 195
f 176 195 196
f 177 176 196
f 177 196 197
f 178 177 197
f 178 197 198
f 179 178 198
f 179 198 199
f 180 179 199
f 180 199 200
f 181 180 200
f 181 200 201
f 330 181 201
f 330 201 331
f 185 184 204
f 185 204 205
f 186 185 205
f 186 205 206
f 187 186 206
f 187 206 207
f 188 187 207
f 188 207 208
f 189 188 208
f 189 208 209
f 190 189 209
f 190 209 210
f 191 190 210
f 191 210 211
f 192 191 211
f 192 211 212
f 193 192 212
f 193 212 213
f 194 193 213
f 194 213 214
f 195 194 214
f 195 214 215
f 196 195 215
f 196 215 216
f 197 196 216
f 197 216 217
f 198 197 217
f 198 217 218
f 199 198 218
f 199 218 219
f 200 199 219
f 200 219 220
f 201 200 220
f 201 220 221
f 331 201 221
f 331 221 332
f 183 182 202
f 183 202 203
f 184 183 203
f 184 203 204
f 207 206 226
f 207 226 227
f 208 207 227
f 208 227 228
f 209 208 228
f 209 228 229
f 210 209 229
f 210 229 230
f 211 210 230
f 211 230 231
f 212 211 231
f 212 231 232
f 213 212 232
f 213 232 233
f 214 213 233
f 214 233 234
f 215 214 234
f 215 234 235
f 216 215 235
f 216 235 236
f 217 216 236
f 217 236 237
f 218 217 237
f 218 237 238
f 219 218 238
f 219 238 239
f 220 219 239
f 220 239 240
f 221 220 240
f 221 240 241
f 332 221 241
f 332 241 333
f 203 202 222
f 203 222 223
f 204 203 223
f 204 223 224
f 205 204 224
f 205 224 225
f 206 205 225
f 206 225 226
f 229 228 248
f 229 248 249
f 230 229 249
f 230 249 250
f 231 230 250
f 231 250 251
f 232 231 251
f 232 251 252
f 233 232 252
f 233 252 253
f 234 233 253
f 234 253 254
f 235 234 254
f 235 254 255
f 236 235 255
f 236 255 256
f 237 236 256
f 237 256 257
f 238 237 257
f 238 257 258
f 239 238 258
f 239 258 259
f 240 239 259
f 240 259 260
f 241 240 260
f 241 260 261
f 333 241 261
f 333 261 334
f 223 222 242
f 223 242 243
f 224 223 243
f 224 243 244
f 225 224 244
f 225 244 245
f 226 225 245
f 226 245 246
f 227 226 246
f 227 246 247
f 228 227 247
f 228 247 248
f 251 250 270
f 251 270 271
f 252 251 271
f 252 271 272
f 253 252 272
f 253 272 273
f 254 253 273
f 254 273 274
f 255 254 274
f 255 274 275
f 256 255 275
f 256 275 276
f 257 256 276
f 257 276 277
f 258 257 277
f 258 277 278
f 259 258 278
f 259 278 279
f 260 259 279
f 260 279 280
f 261 260 280
f 261 280 281
f 334 261 281
f 334 281 335
f 243 242 262
f 243 262 263
f 244 243 263
f 244 263 264
f 245 244 264
f 245 264 265
f 246 245 265
f 246 265 266
f 247 246 266
f 247 266 267
f 248 247 267
f 248 267 268
f 249 248 268
f 249 268 269
f 250 249 269
f 250 269 270
f 273 272 292
f 273 292 293
f 274 273 293
f 274 293 294
f 275 274 294
f 275 294 295
f 276 275 295
f 276 295 296
f 277 276 296
f 277 296 297
f 278 277 297
f 278 297 298
f 279 278 298
f 279 298 299
f 280 279 299
f 280 299 300
f 281 280 300
f 281 300 301
f 335 281 301
f 335 301 336
f 263 262 282
f 263 282 283
f 264 263 283
f 264 283 284
f 265 264 284
f 265 284 285
f 266 265 285
f 266 285 286
f 267 266 286
f 267 286 287
f 268 267 287
f 268 287 288
f 269 268 288
f 269 288 289
f 270 269 289
f 270 289 290
f 271 270 290
f 271 290 291
f 272 271 291
f 272 291 292
f 295 294 314
f 295 314 315
f 296 295 315
f 296 315 316
f 297 296 316
f 297 316 317
f 298 297 317
f 298 317 318
f 299 298 318
f 299 318 319
f 300 299 319
f 300 319 320
f 301 300 320
f 301 320 321
f 336 301 321
f 336 321 337
f 283 282 302
f 283 302 303
f 284 283 303
f 284 303 304
f 285 284 304
f 285 304 305
f 286 285 305
f 286 305 306
f 287 286 306
f 287 306 307
f 288 287 307
f 288 307 308
f 289 288 308
f 289 308 309
f 290 289 309
f 290 309 310
f 291 290 310
f 291 310 311
f 292 291 311
f 292 311 312
f 293 292 312
f 293 312 313
f 294 293 313
f 294 313 314
f 317 316 352
f 317 352 353
f 318 317 353
f 318 353 354
f 319 318 354
f 319 354 355
f 320 319 355
f 320 355 356
f 321 320 356
f 321 356 357
f 337 321 357
f 337 357 358
f 303 302 338
f 303 338 339
f 304 303 339
f 304 339 340
f 305 304 340
f 305 340 341
f 306 305 341
f 306 341 342
f 307 306 342
f 307 342 343
f 308 307 343
f 308 343 344
f 309 308 344
f 309 344 345
f 310 309 345
f 310 345 346
f 311 310 346
f 311 346 347
f 312 311 347
f 312 347 348
f 313 312 348
f 313 348 349
f 314 313 349
f 314 349 350
f 315 314 350
f 315 350 351
f 316 315 351
f 316 351 352
f 362 361 381
f 362 381 382
f 363 362 382
f 363 382 383
f 364 363 383
f 364 383 384
f 365 364 384
f 365 384 385
f 366 365 385
f 366 385 386
f 367 366 386
f 367 386 387
f 368 367 387
f 368 387 388
f 369 368 388
f 369 388 389
f 370 369 389
f 370 389 390
f 371 370 390
f 371 390 391
f 372 371 391
f 372 391 392
f 373 372 392
f 373 392 393
f 374 373 393
f 374 393 394
f 375 374 394
f 375 394 395
f 376 375 395
f 376 395 396
f 377 376 396
f 377 396 397
f 378 377 397
f 378 397 398
f 379 378 398
f 379 398 399
f 680 379 399
f 680 399 681
f 361 360 380
f 361 380 381
f 384 383 403
f 384 403 404
f 385 384 404
f 385 404 405
f 386 385 405
f 386 405 406
f 387 386 406
f 387 406 407
f 388 387 407
f 388 407 408
f 389 388 408
f 389 408 409
f 390 389 409
f 390 409 410
f 391 390 410
f 391 410 411
f 392 391 411
f 392 411 412
f 393 392 412
f 393 412 413
f 394 393 413
f 394 413 414
f 395 394 414
f 395 414 415
f 396 395 415
f 396 415 416
f 397 396 416
f 397 416 417
f 398 397 417
f 398 417 418
f 399 398 418
f 399 418 419
f 681 399 419
f 681 419 682
f 381 380 400
f 381 400 401
f 382 381 401
f 382 401 402
f 383 382 402
f 383 402 403
f 406 405 425
f 406 425 426
f 407 406 426
f 407 426 427
f 408 407 427
f 408 427 428
f 409 408 428
f 409 428 429
f 410 409 429
f 410 429 430
f 411 410 430
f 411 430 431
f 412 411 431
f 412 431 432
f 413 412 432
f 413 432 433
f 414 413 433
f 414 433 434
f 415 414 434
f 415 434 435
f 416 415 435
f 416 435 436
f 417 416 436
f 417 436 437
f 418 417 437
f 418 437 438
f 419 418 438
f 419 438 439
f 682 419 439
f 682 439 683
f 401 400 420
f 401 420 421
f 402 401 421
f 402 421 422
f 403 402 422
f 403 422 423
f 404 403 423
f 404 423 424
f 405 404 424
f 405 424 425
f 428 427 447
f 428 447 448
f 429 428 448
f 429 448 449
f 430 429 449
f 430 449 450
f 431 430 450
f 431 450 451
f 432 431 451
f 432 451 452
f 433 432 452
f 433 452 453
f 434 433 453
f 434 453 454
f 435 434 454
f 435 454 455
f 436 435 455
f 436 455 456
f 437 436 456
f 437 456 457
f 438 437 457
f 438 457 458
f 439 438 458
f 439 458 459
f 683 439 459
f 683 459 684
f 421 420 440
f 421 440 441
f 422 421 441
f 422 441 442
f 423 422 442
f 423 442 443
f 424 423 443
f 424 443 444
f 425 424 444
f 425 444 445
f 426 425 445
f 426 445 446
f 427 426 446
f 427 446 447
f 450 449 469
f 450 469 470
f 451 450 470
f 451 470 471
f 452 451 471
f 452 471 472
f 453 452 472
f 453 472 473
f 454 453 473
f 454 473 474
f 455 454 474
f 455 474 475
f 456 455 475
f 456 475 476
f 457 456 476
f 457 476 477
f 458 457 477
f 458 477 478
f 459 458 478
f 459 478 479
f 684 459 479
f 684 479 685
f 441 440 460
f 441 460 461
f 442 441 461
f 442 461 462
f 443 442 462
f 443 462 463
f 444 443 463
f 444 463 464
f 445 444 464
f 445 464 465
f 446 445 465
f 446 465 466
f 447 446 466
f 447 466 467
f 448 447 467
f 448 467 468
f 449 448 468
f 449 468 469
f 472 471 491
f 472 491 492
f 473 472 492
f 473 492 493
f 474 473 493
f 474 493 494
f 475 474 494
f 475 494 495
f 476 475 495
f 476 495 496
f 477 476 496
f 477 496 497
f 478 477 497
f 478 497 498
f 479 478 498
f 479 498 499
f 685 479 499
f 685 499 686
f 461 460 480
f 461 480 481
f 462 461 481
f 462 481 482
f 463 462 482
f 463 482 483
f 464 463 483
f 464 483 484
f 465 464 484
f 465 484 485
f 466 465 485
f 466 485 486
f 467 466 486
f 467 486 487
f 468 467 487
f 468 487 488
f 469 468 488
f 469 488 489
f 470 469 489
f 470 489 490
f 471 470 490
f 471 490 491
f 494 493 513
f 494 513 514
f 495 494 514
f 495 514 515
f 496 495 515
f 496 515 516
f 497 496 516
f 497 516 517
f 498 497 517
f 498 517 518
f 499 498 518
f 499 518 519
f 686 499 519
f 686 519 687
f 481 480 500
f 481 500 501
f 482 481 501
f 482 501 502
f 483 482 502
f 483 502 503
f 484 483 503
f 484 503 504
f 485 484 504
f 485 504 505
f 486 485 505
f 486 505 506
f 487 486 506
f 487 506 507
f 488 487 507
f 488 507 508
f 489 488 508
f 489 508 509
f 490 489 509
f 490 509 510
f 491 490 510
f 491 510 511
f 492 491 511
f 492 511 512
f 493 492 512
f 493 512 513
f 501 500 520
f 501 520 521
f 502 501 521
f 502 521 522
f 503 502 522
f 503 522 523
f 504 503 523
f 504 523 524
f 505 504 524
f 505 524 525
f 506 505 525
f 506 525 526
f 507 506 526
f 507 526 527
f 508 507 527
f 508 527 528
f 509 508 528
f 509 528 529
f 510 509 529
f 510 529 530
f 511 510 530
f 511 530 531
f 512 511 531
f 512 531 532
f 513 512 532
f 513 532 533
f 514 513 533
f 514 533 534
f 515 514 534
f 515 534 535
f 516 515 535
f 516 535 536
f 517 516 536
f 517 536 537
f 518 517 537
f 518 537 538
f 519 518 538
f 519 538 539
f 687 519 539
f 687 539 688
f 521 520 540
f 521 540 541
f 522 521 541
f 522 541 542
f 523 522 542
f 523 542 543
f 524 523 543
f 524 543 544
f 525 524 544
f 525 544 545
f 526 525 545
f 526 545 546
f 527 526 546
f 527 546 547
f 528 527 547
f 528 547 548
f 529 528 548
f 529 548 549
f 530 529 549
f 530 549 550
f 531 530 550
f 531 550 551
f 532 531 551
f 532 551 552
f 533 532 552
f 533 552 553
f 534 533 553
f 534 553 554
f 535 534 554
f 535 554 555
f 536 535 555
f 536 555 556
f 537 536 556
f 537 556 557
f 538 537 557
f 538 557 558
f 539 538 558
f 539 558 559
f 688 539 559
f 688 559 689
f 543 542 562
f 543 562 563
f 544 543 563
f 544 563 564
f 545 544 564
f 545 564 565
f 546 545 565
f 546 565 566
f 547 546 566
f 547 566 567
f 548 547 567
f 548 567 568
f 549 548 568
f 549 568 569
f 550 549 569
f 550 569 570
f 551 550 570
f 551 570 571
f 552 551 571
f 552 571 572
f 553 552 572
f 553 572 573
f 554 553 573
f 554 573 574
f 555 554 574
f 555 574 575
f 556 555 575
f 556 575 576
f 557 556 576
f 557 576 577
f 558 557 577
f 558 577 578
f 559 558 578
f 559 578 579
f 689 559 579
f 689 579 690
f 541 540 560
f 541 560 561
f 542 541 561
f 542 561 562
f 565 564 584
f 565 584 585
f 566 565 585
f 566 585 586
f 567 566 586
f 567 586 587
f 568 567 587
f 568 587 588
f 569 568 588
f 569 588 589
f 570 569 589
f 570 589 590
f 571 570 590
f 571 590 591
f 572 571 591
f 572 591 592
f 573 572 592
f 573 592 593
f 574 573 593
f 574 593 594
f 575 574 594
f 575 594 595
f 576 575 595
f 576 595 596
f 577 576 596
f 577 596 597
f 578 577 597
f 578 597 598
f 579 578 598
f 579 598 599
f 690 579 599
f 690 599 691
f 561 560 580
f 561 580 581
f 562 561 581
f 562 581 582
f 563 562 582
f 563 582 583
f 564 563 583
f 564 583 584
f 587 586 606
f 587 606 607
f 588 587 607
f 588 607 608
f 589 588 608
f 589 608 609
f 590 589 609
f 590 609 610
f 591 590 610
f 591 610 611
f 592 591 611
f 592 611 612
f 593 592 612
f 593 612 613
f 594 593 613
f 594 613 614
f 595 594 614
f 595 614 615
f 596 595 615
f 596 615 616
f 597 596 616
f 597 616 617
f 598 597 617
f 598 617 618
f 599 598 618
f 599 618 619
f 691 599 619
f 691 619 692
f 581 580 600
f 581 600 601
f 582 581 601
f 582 601 602
f 583 582 602
f 583 602 603
f 584 583 603
f 584 603 604
f 585 584 604
f 585 604 605
f 586 585 605
f 586 605 606
f 609 608 628
f 609 628 629
f 610 609 629
f 610 629 630
f 611 610 630
f 611 630 631
f 612 611 631
f 612 631 632
f 613 612 632
f 613 632 633
f 614 613 633
f 614 633 634
f 615 614 634
f 615 634 635
f 616 615 635
f 616 635 636
f 617 616 636
f 617 636 637
f 618 617 637
f 618 637 638
f 619 618 638
f 619 638 639
f 692 619 639
f 692 639 693
f 601 600 620
f 601 620 621
f 602 601 621
f 602 621 622
f 603 602 622
f 603 622 623
f 604 603 623
f 604 623 624
f 605 604 624
f 605 624 625
f 606 605 625
f 606 625 626
f 607 606 626
f 607 626 627
f 608 607 627
f 608 627 628
f 631 630 650
f 631 650 651
f 632 631 651
f 632 651 652
f 633 632 652
f 633 652 653
f 634 633 653
f 634 653 654
f 635 634 654
f 635 654 655
f 636 635 655
f 636 655 656
f 637 636 656
f 637 656 657
f 638 637 657
f 638 657 658
f 639 638 658
f 639 658 659
f 693 639 659
f 693 659 694
f 621 620 640
f 621 640 641
f 622 621 641
f 622 641 642
f 623 622 642
f 623 642 643
f 624 623 643
f 624 643 644
f 625 624 644
f 625 644 645
f 626 625 645
f 626 645 646
f 627 626 646
f 627 646 647
f 628 627 647
f 628 647 648
f 629 628 648
f 629 648 649
f 630 629 649
f 630 649 650
f 653 652 672
f 653 672 673
f 654 653 673
f 654 673 674
f 655 654 674
f 655 674 675
f 656 655 675
f 656 675 676
f 657 656 676
f 657 676 677
f 658 657 677
f 658 677 678
f 659 658 678
f 659 678 679
f 694 659 679
f 694 679 695
f 641 640 660
f 641 660 661
f 642 641 661
f 642 661 662
f 643 642 662
f 643 662 663
f 644 643 663
f 644 663 664
f 645 644 664
f 645 664 665
f 646 645 665
f 646 665 666
f 647 646 666
f 647 666 667
f 648 647 667
f 648 667 668
f 649 648 668
f 649 668 669
f 650 649 669
f 650 669 670
f 651 650 670
f 651 670 671
f 652 651 671
f 652 671 672
f 675 674 710
f 675 710 711
f 676 675 711
f 676 711 712
f 677 676 712
f 677 712 713
f 678 677 713
f 678 713 714
f 679 678 714
f 679 714 715
f 695 679 715
f 695 715 716
f 661 660 696
f 661 696 697
f 662 661 697
f 662 697 698
f 663 662 698
f 663 698 699
f 664 663 699
f 664 699 700
f 665 664 700
f 665 700 701
f 666 665 701
f 666 701 702
f 667 666 702
f 667 702 703
f 668 667 703
f 668 703 704
f 669 668 704
f 669 704 705
f 670 669 705
f 670 705 706
f 671 670 706
f 671 706 707
f 672 671 707
f 672 707 708
f 673 672 708
f 673 708 709
f 674 673 709
f 674 709 710
f 719 718 738
f 719 738 739
f 720 719 739
f 720 739 740
f 721 720 740
f 721 740 741
f 722 721 741
f 722 741 742
f 723 722 742
f 723 742 743
f 724 723 743
f 724 743 744
f 725 724 744
f 725 744 745
f 726 725 745
f 726 745 746
f 727 726 746
f 727 746 747
f 728 727 747
f 728 747 748
f 729 728 748
f 729 748 749
f 730 729 749
f 730 749 750
f 731 730 750
f 731 750 751
f 732 731 751
f 732 751 752
f 733 732 752
f 733 752 753
f 734 733 753
f 734 753 754
f 735 734 754
f 735 754 755
f 736 735 755
f 736 755 756
f 1037 736 756
f 1037 756 1038
f 718 717 737
f 718 737 738
f 741 740 760
f 741 760 761
f 742 741 761
f 742 761 762
f 743 742 762
f 743 762 763
f 744 743 763
f 744 763 764
f 745 744 764
f 745 764 765
f 746 745 765
f 746 765 766
f 747 746 766
f 747 766 767
f 748 747 767
f 748 767 768
f 749 748 768
f 749 768 769
f 750 749 769
f 750 769 770
f 751 750 770
f 751 770 771
f 752 751 771
f 752 771 772
f 753 752 772
f 753 772 773
f 754 753 773
f 754 773 774
f 755 754 774
f 755 774 775
f 756 755 775
f 756 775 776
f 1038 756 776
f 1038 776 1039
f 738 737 757
f 738 757 758
f 739 738 758
f 739 758 759
f 740 739 759
f 740 759 760
f 763 762 782
f 763 782 783
f 764 763 783
f 764 783 784
f 765 764 784
f 765 784 785
f 766 765 785
f 766 785 786
f 767 766 786
f 767 786 787
f 768 767 787
f 768 787 788
f 769 768 788
f 769 788 789
f 770 769 789
f 770 789 790
f 771 770 790
f 771 790 791
f 772 771 791
f 772 791 792
f 773 772 792
f 773 792 793
f 774 773 793
f 774 793 794
f 775 774 794
f 775 794 795
f 776 775 795
f 776 795 796
f 1039 776 796
f 1039 796 1040
f 758 757 777
f 758 777 778
f 759 758 778
f 759 778 779
f 760 759 779
f 760 779 780
f 761 760 780
f 761 780 781
f 762 761 781
f 762 781 782
f 785 784 804
f 785 804 805
f 786 785 805
f 786 805 806
f 787 786 806
f 787 806 807
f 788 787 807
f 788 807 808
f 789 788 808
f 789 808 809
f 790 789 809
f 790 809 810
f 791 790 810
f 791 810 811
f 792 791 811
f 792 811 812
f 793 792 812
f 793 812 813
f 794 793 813
f 794 813 814
f 795 794 814
f 795 814 815
f 796 795 815
f 796 815 816
f 1040 796 816
f 1040 816 1041
f 778 777 797
f 778 797 798
f 779 778 798
f 779 798 799
f 780 779 799
f 780 799 800
f 781 780 800
f 781 800 801
f 782 781 801
f 782 801 802
f 783 782 802
f 783 802 803
f 784 783 803
f 784 803 804
f 807 806 826
f 807 826 827
f 808 807 827
f 808 827 828
f 809 808 828
f 809 828 829
f 810 809 829
f 810 829 830
f 811 810 830
f 811 830 831
f 812 811 831
f 812 831 832
f 813 812 832
f 813 832 833
f 814 813 833
f 814 833 834
f 815 814 834
f 815 834 835
f 816 815 835
f 816 835 836
f 1041 816 836
f 1041 836 1042
f 798 797 817
f 798 817 818
f 799 798 818
f 799 818 819
f 800 799 819
f 800 819 820
f 801 800 820
f 801 820 821
f 802 801 821
f 802 821 822
f 803 802 822
f 803 822 823
f 804 803 823
f 804 823 824
f 805 804 824
f 805 824 825
f 806 805 825
f 806 825 826
f 829 828 848
f 829 848 849
f 830 829 849
f 830 849 850
f 831 830 850
f 831 850 851
f 832 831 851
f 832 851 852
f 833 832 852
f 833 852 853
f 834 833 853
f 834 853 854
f 835 834 854
f 835 854 855
f 836 835 855
f 836 855 856
f 1042 836 856
f 1042 856 1043
f 818 817 837
f 818 837 838
f 819 818 838
f 819 838 839
f 820 819 839
f 820 839 840
f 821 820 840
f 821 840 841
f 822 821 841
f 822 841 842
f 823 822 842
f 823 842 843
f 824 823 843
f 824 843 844
f 825 824 844
f 825 844 845
f 826 825 845
f 826 845 846
f 827 826 846
f 827 846 847
f 828 827 847
f 828 847 848
f 851 850 870
f 851 870 871
f 852 851 871
f 852 871 872
f 853 852 872
f 853 872 873
f 854 853 873
f 854 873 874
f 855 854 874
f 855 874 875
f 856 855 875
f 856 875 876
f 1043 856 876
f 1043 876 1044
f 838 837 857
f 838 857 858
f 839 838 858
f 839 858 859
f 840 839 859
f 840 859 860
f 841 840 860
f 841 860 861
f 842 841 861
f 842 861 862
f 843 842 862
f 843 862 863
f 844 843 863
f 844 863 864
f 845 844 864
f 845 864 865
f 846 845 865
f 846 865 866
f 847 846 866
f 847 866 867
f 848 847 867
f 848 867 868
f 849 848 868
f 849 868 869
f 850 849 869
f 850 869 870
f 858 857 877
f 858 877 878
f 859 858 878
f 859 878 879
f 860 859 879
f 860 879 880
f 861 860 880
f 861 880 881
f 862 861 881
f 862 881 882
f 863 862 882
f 863 882 883
f 864 863 883
f 864 883 884
f 865 864 884
f 865 884 885
f 866 865 885
f 866 885 886
f 867 866 886
f 867 886 887
f 868 867 887
f 868 887 888
f 869 868 888
f 869 888 889
f 870 869 889
f 870 889 890
f 871 870 890
f 871 890 891
f 872 871 891
f 872 891 892
f 873 872 892
f 873 892 893
f 874 873 893
f 874 893 894
f 875 874 894
f 875 894 895
f 876 875 895
f 876 895 896
f 1044 876 896
f 1044 896 1045
f 878 877 897
f 878 897 898
f 879 878 898
f 879 898 899
f 880 879 899
f 880 899 900
f 881 880 900
f 881 900 901
f 882 881 901
f 882 901 902
f 883 882 902
f 883 902 903
f 884 883 903
f 884 903 904
f 885 884 904
f 885 904 905
f 886 885 905
f 886 905 906
f 887 886 906
f 887 906 907
f 888 887 907
f 888 907 908
f 889 888 908
f 889 908 909
f 890 889 909
f 890 909 910
f 891 890 910
f 891 910 911
f 892 891 911
f 892 911 912
f 893 892 912
f 893 912 913
f 894 893 913
f 894 913 914
f 895 894 914
f 895 914 915
f 896 895 915
f 896 915 916
f 1045 896 916
f 1045 916 1046
f 900 899 919
f 900 919 920
f 901 900 920
f 901 920 921
f 902 901 921
f 902 921 922
f 903 902 922
f 903 922 923
f 904 903 923
f 904 923 924
f 905 904 924
f 905 924 925
f 906 905 925
f 906 925 926
f 907 906 926
f 907 926 927
f 908 907 927
f 908 927 928
f 909 908 928
f 909 928 929
f 910 909 929
f 910 929 930
f 911 910 930
f 911 930 931
f 912 911 931
f 912 931 932
f 913 912 932
f 913 932 933
f 914 913 933
f 914 933 934
f 915 914 934
f 915 934 935
f 916 915 935
f 916 935 936
f 1046 916 936
f 1046 936 1047
f 898 897 917
f 898 917 918
f 899 898 918
f 899 918 919
f 922 921 941
f 922 941 942
f 923 922 942
f 923 942 943
f 924 923 943
f 924 943 944
f 925 924 944
f 925 944 945
f 926 925 945
f 926 945 946
f 927 926 946
f 927 946 947
f 928 927 947
f 928 947 948
f 929 928 948
f 929 948 949
f 930 929 949
f 930 949 950
f 931 930 950
f 931 950 951
f 932 931 951
f 932 951 952
f 933 932 952
f 933 952 953
f 934 933 953
f 934 953 954
f 935 934 954
f 935 954 955
f 936 935 955
f 936 955 956
f 1047 936 956
f 1047 956 1048
f 918 917 937
f 918 937 938
f 919 918 938
f 919 938 939
f 920 919 939
f 920 939 940
f 921 920 940
f 921 940 941
f 944 943 963
f 944 963 964
f 945 944 964
f 945 964 965
f 946 945 965
f 946 965 966
f 947 946 966
f 947 966 967
f 948 947 967
f 948 967 968
f 949 948 968
f 949 968 969
f 950 949 969
f 950 969 970
f 951 950 970
f 951 970 971
f 952 951 971
f 952 971 972
f 953 952 972
f 953 972 973
f 954 953 973
f 954 973 974
f 955 954 974
f 955 974 975
f 956 955 975
f 956 975 976
f 1048 956 976
f 1048 976 1049
f 938 937 957
f 938 957 958
f 939 938 958
f 939 958 959
f 940 939 959
f 940 959 960
f 941 940 960
f 941 960 961
f 942 941 961
f 942 961 962
f 943 942 962
f 943 962 963
f 966 965 985
f 966 985 986
f 967 966 986
f 967 986 987
f 968 967 987
f 968 987 988
f 969 968 988
f 969 988 989
f 970 969 989
f 970 989 990
f 971 970 990
f 971 990 991
f 972 971 991
f 972 991 992
f 973 972 992
f 973 992 993
f 974 973 993
f 974 993 994
f 975 974 994
f 975 994 995
f 976 975 995
f 976 995 996
f 1049 976 996
f 1049 996 1050
f 958 957 977
f 958 977 978
f 959 958 978
f 959 978 979
f 960 959 979
f 960 979 980
f 961 960 980
f 961 980 981
f 962 961 981
f 962 981 982
f 963 962 982
f 963 982 983
f 964 963 983
f 964 983 984
f 965 964 984
f 965 984 985
f 988 987 1007
f 988 1007 1008
f 989 988 1008
f 989 1008 1009
f 990 989 1009
f 990 1009 1010
f 991 990 1010
f 991 1010 1011
f 992 991 1011
f 992 1011 1012
f 993 992 1012
f 993 1012 1013
f 994 993 1013
f 994 1013 1014
f 995 994 1014
f 995 1014 1015
f 996 995 1015
f 996 1015 1016
f 1050 996 1016
f 1050 1016 1051
f 978 977 997
f 978 997 998
f 979 978 998
f 979 998 999
f 980 979 999
f 980 999 1000
f 981 980 1000
f 981 1000 1001
f 982 981 1001
f 982 1001 1002
f 983 982 1002
f 983 1002 1003
f 984 983 1003
f 984 1003 1004
f 985 984 1004
f 985 1004 1005
f 986 985 1005
f 986 1005 1006
f 987 986 1006
f 987 1006 1007
f 1010 1009 1029
f 1010 1029 1030
f 1011 1010 1030
f 1011 1030 1031
f 1012 1011 1031
f 1012 1031 1032
f 1013 1012 1032
f 1013 1032 1033
f 1014 1013 1033
f 1014 1033 1034
f 1015 1014 1034
f 1015 1034 1035
f 1016 1015 1035
f 1016 1035 1036
f 1051 1016 1036
f 1051 1036 1052
f 998 997 1017
f 998 1017 1018
f 999 998 1018
f 999 1018 1019
f 1000 999 1019
f 1000 1019 1020
f 1001 1000 1020
f 1001 1020 1021
f 1002 1001 1021
f 1002 1021 1022
f 1003 1002 1022
f 1003 1022 1023
f 1004 1003 1023
f 1004 1023 1024
f 1005 1004 1024
f 1005 1024 1025
f 1006 1005 1025
f 1006 1025 1026
f 1007 1006 1026
f 1007 1026 1027
f 1008 1007 1027
f 1008 1027 1028
f 1009 1008 1028
f 1009 1028 1029
f 1032 1031 1067
f 1032 1067 1068
f 1033 1032 1068
f 1033 1068 1069
f 1034 1033 1069
f 1034 1069 1070
f 1035 1034 1070
f 1035 1070 1071
f 1036 1035 1071
f 1036 1071 1072
f 1052 1036 1072
f 1052 1072 1073
f 1018 1017 1053
f 1018 1053 1054
f 1019 1018 1054
f 1019 1054 1055
f 1020 1019 1055
f 1020 1055 1056
f 1021 1020 1056
f 1021 1056 1057
f 1022 1021 1057
f 1022 1057 1058
f 1023 1022 1058
f 1023 1058 1059
f 1024 1023 1059
f 1024 1059 1060
f 1025 1024 1060
f 1025 1060 1061
f 1026 1025 1061
f 1026 1061 1062
f 1027 1026 1062
f 1027 1062 1063
f 1028 1027 1063
f 1028 1063 1064
f 1029 1028 1064
f 1029 1064 1065
f 1030 1029 1065
f 1030 1065 1066
f 1031 1030 1066
f 1031 1066 1067
f 1076 1075 1095
f 1076 1095 1096
f 1077 1076 1096
f 1077 1096 1097
f 1078 1077 1097
f 1078 1097 1098
f 1079 1078 1098
f 1079 1098 1099
f 1080 1079 1099
f 1080 1099 1100
f 1081 1080 1100
f 1081 1100 1101
f 1082 1081 1101
f 1082 1101 1102
f 1083 1082 1102
f 1083 1102 1103
f 1084 1083 1103
f 1084 1103 1104
f 1085 1084 1104
f 1085 1104 1105
f 1086 1085 1105
f 1086 1105 1106
f 1087 1086 1106
f 1087 1106 1107
f 1088 1087 1107
f 1088 1107 1108
f 1089 1088 1108
f 1089 1108 1109
f 1090 1089 1109
f 1090 1109 1110
f 1091 1090 1110
f 1091 1110 1111
f 1092 1091 1111
f 1092 1111 1112
f 1093 1092 1112
f 1093 1112 1113
f 1394 1093 1113
f 1394 1113 1395
f 1075 1074 1094
f 1075 1094 1095
f 1098 1097 1117
f 1098 1117 1118
f 1099 1098 1118
f 1099 1118 1119
f 1100 1099 1119
f 1100 1119 1120
f 1101 1100 1120
f 1101 1120 1121
f 1102 1101 1121
f 1102 1121 1122
f 1103 1102 1122
f 1103 1122 1123
f 1104 1103 1123
f 1104 1123 1124
f 1105 1104 1124
f 1105 1124 1125
f 1106 1105 1125
f 1106 1125 1126
f 1107 1106 1126
f 1107 1126 1127
f 1108 1107 1127
f 1108 1127 1128
f 1109 1108 1128
f 1109 1128 1129
f 1110 1109 1129
f 1110 1129 1130
f 1111 1110 1130
f 1111 1130 1131
f 1112 1111 1131
f 1112 1131 1132
f 1113 1112 1132
f 1113 1132 1133
f 1395 1113 1133
f 1395 1133 1396
f 1095 1094 1114
f 1095 1114 1115
f 1096 1095 1115
f 1096 1115 1116
f 1097 1096 1116
f 1097 1116 1117
f 1120 1119 1139
f 1120 1139 1140
f 1121 1120 1140
f 1121 1140 1141
f 1122 1121 1141
f 1122 1141 1142
f 1123 1122 1142
f 1123 1142 1143
f 1124 1123 1143
f 1124 1143 1144
f 1125 1124 1144
f 1125 1144 1145
f 1126 1125 1145
f 1126 1145 1146
f 1127 1126 1146
f 1127 1146 1147
f 1128 1127 1147
f 1128 1147 1148
f 1129 1128 1148
f 1129 1148 1149
f 1130 1129 1149
f 1130 1149 1150
f 1131 1130 1150
f 1131 1150 1151
f 1132 1131 1151
f 1132 1151 1152
f 1133 1132 1152
f 1133 1152 1153
f 1396 1133 1153
f 1396 1153 1397
f 1115 1114 1134
f 1115 1134 1135
f 1116 1115 1135
f 1116 1135 1136
f 1117 1116 1136
f 1117 1136 1137
f 1118 1117 1137
f 1118 1137 1138
f 1119 1118 1138
f 1119 1138 1139
f 1142 1141 1161
f 1142 1161 1162
f 1143 1142 1162
f 1143 1162 1163
f 1144 1143 1163
f 1144 1163 1164
f 1145 1144 1164
f 1145 1164 1165
f 1146 1145 1165
f 1146 1165 1166
f 1147 1146 1166
f 1147 1166 1167
f 1148 1147 1167
f 1148 1167 1168
f 1149 1148 1168
f 1149 1168 1169
f 1150 1149 1169
f 1150 1169 1170
f 1151 1150 1170
f 1151 1170 1171
f 1152 1151 1171
f 1152 1171 1172
f 1153 1152 1172
f 1153 1172 1173
f 1397 1153 1173
f 1397 1173 1398
f 1135 1134 1154
f 1135 1154 1155
f 1136 1135 1155
f 1136 1155 1156
f 1137 1136 1156
f 1137 1156 1157
f 1138 1137 1157
f 1138 1157 1158
f 1139 1138 1158
f 1139 1158 1159
f 1140 1139 1159
f 1140 1159 1160
f 1141 1140 1160
f 1141 1160 1161
f 1164 1163 1183
f 1164 1183 1184
f 1165 1164 1184
f 1165 1184 1185
f 1166 1165 1185
f 1166 1185 1186
f 1167 1166 1186
f 1167 1186 1187
f 1168 1167 1187
f 1168 1187 1188
f 1169 1168 1188
f 1169 1188 1189
f 1170 1169 1189
f 1170 1189 1190
f 1171 1170 1190
f 1171 1190 1191
f 1172 1171 1191
f 1172 1191 1192
f 1173 1172 1192
f 1173 1192 1193
f 1398 1173 1193
f 1398 1193 1399
f 1155 1154 1174
f 1155 1174 1175
f 1156 1155 1175
f 1156 1175 1176
f 1157 1156 1176
f 1157 1176 1177
f 1158 1157 1177
f 1158 1177 1178
f 1159 1158 1178
f 1159 1178 1179
f 1160 1159 1179
f 1160 1179 1180
f 1161 1160 1180
f 1161 1180 1181
f 1162 1161 1181
f 1162 1181 1182
f 1163 1162 1182
f 1163 1182 1183
f 1186 1185 1205
f 1186 1205 1206
f 1187 1186 1206
f 1187 1206 1207
f 1188 1187 1207
f 1188 1207 1208
f 1189 1188 1208
f 1189 1208 1209
f 1190 1189 1209
f 1190 1209 1210
f 1191 1190 1210
f 1191 1210 1211
f 1192 1191 1211
f 1192 1211 1212
f 1193 1192 1212
f 1193 1212 1213
f 1399 1193 1213
f 1399 1213 1400
f 1175 1174 1194
f 1175 1194 1195
f 1176 1175 1195
f 1176 1195 1196
f 1177 1176 1196
f 1177 1196 1197
f 1178 1177 1197
f 1178 1197 1198
f 1179 1178 1198
f 1179 1198 1199
f 1180 1179 1199
f 1180 1199 1200
f 1181 1180 1200
f 1181 1200 1201
f 1182 1181 1201
f 1182 1201 1202
f 1183 1182 1202
f 1183 1202 1203
f 1184 1183 1203
f 1184 1203 1204
f 1185 1184 1204
f 1185 1204 1205
f 1208 1207 1227
f 1208 1227 1228
f 1209 1208 1228
f 1209 1228 1229
f 1210 1209 1229
f 1210 1229 1230
f 1211 1210 1230
f 1211 1230 1231
f 1212 1211 1231
f 1212 1231 1232
f 1213 1212 1232
f 1213 1232 1233
f 1400 1213 1233
f 1400 1233 1401
f 1195 1194 1214
f 1195 1214 1215
f 1196 1195 1215
f 1196 1215 1216
f 1197 1196 1216
f 1197 1216 1217
f 1198 1197 1217
f 1198 1217 1218
f 1199 1198 1218
f 1199 1218 1219
f 1200 1199 1219
f 1200 1219 1220
f 1201 1200 1220
f 1201 1220 1221
f 1202 1201 1221
f 1202 1221 1222
f 1203 1202 1222
f 1203 1222 1223
f 1204 1203 1223
f 1204 1223 1224
f 1205 1204 1224
f 1205 1224 1225
f 1206 1205 1225
f 1206 1225 1226
f 1207 1206 1226
f 1207 1226 1227
f 1215 1214 1234
f 1215 1234 1235
f 1216 1215 1235
f 1216 1235 1236
f 1217 1216 1236
f 1217 1236 1237
f 1218 1217 1237
f 1218 1237 1238
f 1219 1218 1238
f 1219 1238 1239
f 1220 1219 1239
f 1220 1239 1240
f 1221 1220 1240
f 1221 1240 1241
f 1222 1221 1241
f 1222 1241 1242
f 1223 1222 1242
f 1223 1242 1243
f 1224 1223 1243
f 1224 1243 1244
f 1225 1224 1244
f 1225 1244 1245
f 1226 1225 1245
f 1226 1245 1246
f 1227 1226 1246
f 1227 1246 1247
f 1228 1227 1247
f 1228 1247 1248
f 1229 1228 1248
f 1229 1248 1249
f 1230 1229 1249
f 1230 1249 1250
f 1231 1230 1250
f 1231 1250 1251
f 1232 1231 1251
f 1232 1251 1252
f 1233 1232 1252
f 1233 1252 1253
f 1401 1233 1253
f 1401 1253 1402
f 1235 1234 1254
f 1235 1254 1255
f 1236 1235 1255
f 1236 1255 1256
f 1237 1236 1256
f 1237 1256 1257
f 1238 1237 1257
f 1238 1257 1258
f 1239 1238 1258
f 1239 1258 1259
f 1240 1239 1259
f 1240 1259 1260
f 1241 1240 1260
f 1241 1260 1261
f 1242 1241 1261
f 1242 1261 1262
f 1243 1242 1262
f 1243 1262 1263
f 1244 1243 1263
f 1244 1263 1264
f 1245 1244 1264
f 1245 1264 1265
f 1246 1245 1265
f 1246 1265 1266
f 1247 1246 1266
f 1247 1266 1267
f 1248 1247 1267
f 1248 1267 1268
f 1249 1248 1268
f 1249 1268 1269
f 1250 1249 1269
f 1250 1269 1270
f 1251 1250 1270
f 1251 1270 1271
f 1252 1251 1271
f 1252 1271 1272
f 1253 1252 1272
f 1253 1272 1273
f 1402 1253 1273
f 1402 1273 1403
f 1257 1256 1276
f 1257 1276 1277
f 1258 1257 1277
f 1258 1277 1278
f 1259 1258 1278
f 1259 1278 1279
f 1260 1259 1279
f 1260 1279 1280
f 1261 1260 1280
f 1261 1280 1281
f 1262 1261 1281
f 1262 1281 1282
f 1263 1262 1282
f 1263 1282 1283
f 1264 1263 1283
f 1264 1283 1284
f 1265 1264 1284
f 1265 1284 1285
f 1266 1265 1285
f 1266 1285 1286
f 1267 1266 1286
f 1267 1286 1287
f 1268 1267 1287
f 1268 1287 1288
f 1269 1268 1288
f 1269 1288 1289
f 1270 1269 1289
f 1270 1289 1290
f 1271 1270 1290
f 1271 1290 1291
f 1272 1271 1291
f 1272 1291 1292
f 1273 1272 1292
f 1273 1292 1293
f 1403 1273 1293
f 1403 1293 1404
f 1255 1254 1274
f 1255 1274 1275
f 1256 1255 1275
f 1256 1275 1276
f 1279 1278 1298
f 1279 1298 1299
f 1280 1279 1299
f 1280 1299 1300
f 1281 1280 1300
f 1281 1300 1301
f 1282 1281 1301
f 1282 1301 1302
f 1283 1282 1302
f 1283 1302 1303
f 1284 1283 1303
f 1284 1303 1304
f 1285 1284 1304
f 1285 1304 1305
f 1286 1285 1305
f 1286 1305 1306
f 1287 1286 1306
f 1287 1306 1307
f 1288 1287 1307
f 1288 1307 1308
f 1289 1288 1308
f 1289 1308 1309
f 1290 1289 1309
f 1290 1309 1310
f 1291 1290 1310
f 1291 1310 1311
f 1292 1291 1311
f 1292 1311 1312
f 1293 1292 1312
f 1293 1312 1313
f 1404 1293 1313
f 1404 1313 1405
f 1275 1274 1294
f 1275 1294 1295
f 1276 1275 1295
f 1276 1295 1296
f 1277 1276 1296
f 1277 1296 1297
f 1278 1277 1297
f 1278 1297 1298
f 1301 1300 1320
f 1301 1320 1321
f 1302 1301 1321
f 1302 1321 1322
f 1303 1302 1322
f 1303 1322 1323
f 1304 1303 1323
f 1304 1323 1324
f 1305 1304 1324
f 1305 1324 1325
f 1306 1305 1325
f 1306 1325 1326
f 1307 1306 1326
f 1307 1326 1327
f 1308 1307 1327
f 1308 1327 1328
f 1309 1308 1328
f 1309 1328 1329
f 1310 1309 1329
f 1310 1329 1330
f 1311 1310 1330
f 1311 1330 1331
f 1312 1311 1331
f 1312 1331 1332
f 1313 1312 1332
f 1313 1332 1333
f 1405 1313 1333
f 1405 1333 1406
f 1295 1294 1314
f 1295 1314 1315
f 1296 1295 1315
f 1296 1315 1316
f 1297 1296 1316
f 1297 1316 1317
f 1298 1297 1317
f 1298 1317 1318
f 1299 1298 1318
f 1299 1318 1319
f 1300 1299 1319
f 1300 1319 1320
f 1323 1322 1342
f 1323 1342 1343
f 1324 1323 1343
f 1324 1343 1344
f 1325 1324 1344
f 1325 1344 1345
f 1326 1325 1345
f 1326 1345 1346
f 1327 1326 1346
f 1327 1346 1347
f 1328 1327 1347
f 1328 1347 1348
f 1329 1328 1348
f 1329 1348 1349
f 1330 1329 1349
f 1330 1349 1350
f 1331 1330 1350
f 1331 1350 1351
f 1332 1331 1351
f 1332 1351 1352
f 1333 1332 1352
f 1333 1352 1353
f 1406 1333 1353
f 1406 1353 1407
f 1315 1314 1334
f 1315 1334 1335
f 1316 1315 1335
f 1316 1335 1336
f 1317 1316 1336
f 1317 1336 1337
f 1318 1317 1337
f 1318 1337 1338
f 1319 1318 1338
f 1319 1338 1339
f 1320 1319 1339
f 1320 1339 1340
f 1321 1320 1340
f 1321 1340 1341
f 1322 1321 1341
f 1322 1341 1342
f 1345 1344 1364
f 1345 1364 1365
f 1346 1345 1365
f 1346 1365 1366
f 1347 1346 1366
f 1347 1366 1367
f 1348 1347 1367
f 1348 1367 1368
f 1349 1348 1368
f 1349 1368 1369
f 1350 1349 1369
f 1350 1369 1370
f 1351 1350 1370
f 1351 1370 1371
f 1352 1351 1371
f 1352 1371 1372
f 1353 1352 1372
f 1353 1372 1373
f 1407 1353 1373
f 1407 1373 1408
f 1335 1334 1354
f 1335 1354 1355
f 1336 1335 1355
f 1336 1355 1356
f 1337 1336 1356
f 1337 1356 1357
f 1338 1337 1357
f 1338 1357 1358
f 1339 1338 1358
f 1339 1358 1359
f 1340 1339 1359
f 1340 1359 1360
f 1341 1340 1360
f 1341 1360 1361
f 1342 1341 1361
f 1342 1361 1362
f 1343 1342 1362
f 1343 1362 1363
f 1344 1343 1363
f 1344 1363 1364
f 1367 1366 1386
f 1367 1386 1387
f 1368 1367 1387
f 1368 1387 1388
f 1369 1368 1388
f 1369 1388 1389
f 1370 1369 1389
f 1370 1389 1390
f 1371 1370 1390
f 1371 1390 1391
f 1372 1371 1391
f 1372 1391 1392
f 1373 1372 1392
f 1373 1392 1393
f 1408 1373 1393
f 1408 1393 1409
f 1355 1354 1374
f 1355 1374 1375
f 1356 1355 1375
f 1356 1375 1376
f 1357 1356 1376
f 1357 1376 1377
f 1358 1357 1377
f 1358 1377 1378
f 1359 1358 1378
f 1359 1378 1379
f 1360 1359 1379
f 1360 1379 1380
f 1361 1360 1380
f 1361 1380 1381
f 1362 1361 1381
f 1362 1381 1382
f 1363 1362 1382
f 1363 1382 1383
f 1364 1363 1383
f 1364 1383 1384
f 1365 1364 1384
f 1365 1384 1385
f 1366 1365 1385
f 1366 1385 1386
f 1389 1388 1424
f 1389 1424 1425
f 1390 1389 1425
f 1390 1425 1426
f 1391 1390 1426
f 1391 1426 1427
f 1392 1391 1427
f 1392 1427 1428
f 1393 1392 1428
f 1393 1428 1429
f 1409 1393 1429
f 1409 1429 1430
f 1375 1374 1410
f 1375 1410 1411
f 1376 1375 1411
f 1376 1411 1412
f 1377 1376 1412
f 1377 1412 1413
f 1378 1377 1413
f 1378 1413 1414
f 1379 1378 1414
f 1379 1414 1415
f 1380 1379 1415
f 1380 1415 1416
f 1381 1380 1416
f 1381 1416 1417
f 1382 1381 1417
f 1382 1417 1418
f 1383 1382 1418
f 1383 1418 1419
f 1384 1383 1419
f 1384 1419 1420
f 1385 1384 1420
f 1385 1420 1421
f 1386 1385 1421
f 1386 1421 1422
f 1387 1386 1422
f 1387 1422 1423
f 1388 1387 1423
f 1388 1423 1424
l 1 1
l 1 1
l 1 1
l 1 1
l 1 1
l 1 1
l 1 1
l 1 1
l 1 1
l 1 1
l 1 1
l 1 1
l 1 1
l 1 1
l 1 2
l 1 1
l 1 1
l 1 1
l 1 1
l 1 1
l 1 1
l 1 1
l 1 1
l 1 359
l 1 1
l 1 1
l 1 1
l 1 1
l 1 1
l 359 360
l 1 1
l 1 1
l 1 1
l 1 1
l 1 1
l 1 1
l 1 1
l 1 1
l 1 1
l 1 1
l 1 717
l 1 1
l 1 1
l 1 1
l 1 1
l 1 1
l 1 1
# 2560 faces, 0 coords texture

# End of File
