####
#
# OBJ File Generated by Meshlab
#
####
# Object box-lighting-hole.obj
#
# Vertices: 1232
# Faces: 2240
#
####
v 0.0849880 0.0000000 1.7299640
v 0.1697710 0.0000000 1.7237099
v 0.2541450 0.0000000 1.7133040
v 0.3379060 0.0000000 1.6987700
v 0.4208540 0.0000000 1.6801430
v 0.5027880 0.0000000 1.6574690
v 0.5835100 0.0000000 1.6308020
v 0.6628270 0.0000000 1.6002060
v 0.7405470 0.0000000 1.5657550
v 0.8164830 0.0000000 1.5275320
v 0.8904520 0.0000000 1.4856290
v 0.9622760 0.0000000 1.4401480
v 1.0317810 0.0000000 1.3911960
v 1.0988010 0.0000000 1.3388931
v 1.1631740 0.0000000 1.2833650
v 1.2247450 0.0000000 1.2247450
v 1.2833650 0.0000000 1.1631740
v 1.3388931 0.0000000 1.0988010
v 0.0845780 -0.0083300 1.7299640
v 0.1689530 -0.0166400 1.7237099
v 0.2529210 -0.0249110 1.7133040
v 0.3362790 -0.0331210 1.6987700
v 0.4188270 -0.0412510 1.6801430
v 0.5003670 -0.0492820 1.6574690
v 0.5807000 -0.0571940 1.6308020
v 0.6596350 -0.0649680 1.6002060
v 0.7369810 -0.0725860 1.5657550
v 0.8125510 -0.0800290 1.5275320
v 0.8861640 -0.0872790 1.4856290
v 0.9576420 -0.0943190 1.4401480
v 1.0268130 -0.1011320 1.3911960
v 1.0935100 -0.1077010 1.3388931
v 1.1575730 -0.1140110 1.2833650
v 1.2188470 -0.1200460 1.2247450
v 1.2771850 -0.1257920 1.1631740
v 1.3324460 -0.1312350 1.0988010
v 0.0833550 -0.0165800 1.7299640
v 0.1665090 -0.0331210 1.7237099
v 0.2492610 -0.0495810 1.7133040
v 0.3314130 -0.0659220 1.6987700
v 0.4127670 -0.0821050 1.6801430
v 0.4931270 -0.0980890 1.6574690
v 0.5722980 -0.1138370 1.6308020
v 0.6500910 -0.1293110 1.6002060
v 0.7263180 -0.1444730 1.5657550
v 0.8007940 -0.1592880 1.5275320
v 0.8733420 -0.1737180 1.4856290
v 0.9437860 -0.1877310 1.4401480
v 1.0119560 -0.2012910 1.3911960
v 1.0776880 -0.2143660 1.3388931
v 1.1408240 -0.2269240 1.2833650
v 1.2012110 -0.2389360 1.2247450
v 1.2587050 -0.2503720 1.1631740
v 1.3131660 -0.2612050 1.0988010
v 0.0813280 -0.0246710 1.7299640
v 0.1624600 -0.0492820 1.7237099
v 0.2432010 -0.0737740 1.7133040
v 0.3233560 -0.0980890 1.6987700
v 0.4027320 -0.1221670 1.6801430
v 0.4811380 -0.1459520 1.6574690
v 0.5583840 -0.1693840 1.6308020
v 0.6342860 -0.1924090 1.6002060
v 0.7086590 -0.2149690 1.5657550
v 0.7813250 -0.2370120 1.5275320
v 0.8521090 -0.2584840 1.4856290
v 0.9208400 -0.2793340 1.4401480
v 0.9873530 -0.2995100 1.3911960
v 1.0514870 -0.3189650 1.3388931
v 1.1130880 -0.3376520 1.2833650
v 1.1720070 -0.3555250 1.2247450
v 1.2281040 -0.3725410 1.1631740
v 1.2812400 -0.3886600 1.0988010
v 0.0785180 -0.0325230 1.7299640
v 0.1568480 -0.0649680 1.7237099
v 0.2347990 -0.0972570 1.7133040
v 0.3121850 -0.1293110 1.6987700
v 0.3888180 -0.1610540 1.6801430
v 0.4645150 -0.1924090 1.6574690
v 0.5390930 -0.2233000 1.6308020
v 0.6123720 -0.2536530 1.6002060
v 0.6841760 -0.2833950 1.5657550
v 0.7543310 -0.3124540 1.5275320
v 0.8226700 -0.3407610 1.4856290
v 0.8890270 -0.3682470 1.4401480
v 0.9532420 -0.3948460 1.3911960
v 1.0151600 -0.4204930 1.3388931
v 1.0746320 -0.4451280 1.2833650
v 1.1315160 -0.4686890 1.2247450
v 1.1856750 -0.4911220 1.1631740
v 1.2369760 -0.5123720 1.0988010
v 0.0749520 -0.0400630 1.7299640
v 0.1497240 -0.0800290 1.7237099
v 0.2241350 -0.1198030 1.7133040
v 0.2980070 -0.1592880 1.6987700
v 0.3711600 -0.1983890 1.6801430
v 0.4434190 -0.2370130 1.6574690
v 0.5146100 -0.2750650 1.6308020
v 0.5845610 -0.3124550 1.6002060
v 0.6531040 -0.3490910 1.5657550
v 0.7200730 -0.3848870 1.5275320
v 0.7853080 -0.4197560 1.4856290
v 0.8486510 -0.4536140 1.4401480
v 0.9099500 -0.4863780 1.3911960
v 0.9690560 -0.5179710 1.3388931
v 1.0258280 -0.5483160 1.2833650
v 1.0801280 -0.5773410 1.2247450
v 1.1318270 -0.6049740 1.1631740
v 1.1807981 -0.6311500 1.0988010
v 0.0706650 -0.0472170 1.7299640
v 0.1411590 -0.0943200 1.7237099
v 0.2113130 -0.1411950 1.7133040
v 0.2809590 -0.1877310 1.6987700
v 0.3499270 -0.2338140 1.6801430
v 0.4180530 -0.2793340 1.6574690
v 0.4851710 -0.3241810 1.6308020
v 0.5511200 -0.3682470 1.6002060
v 0.6157420 -0.4114260 1.5657550
v 0.6788800 -0.4536130 1.5275320
v 0.7403840 -0.4947080 1.4856290
v 0.8001030 -0.5346120 1.4401480
v 0.8578950 -0.5732270 1.3911960
v 0.9136200 -0.6104610 1.3388931
v 0.9671440 -0.6462250 1.2833650
v 1.0183380 -0.6804320 1.2247450
v 1.0670789 -0.7129990 1.1631740
v 1.1132480 -0.7438490 1.0988010
v 0.0656960 -0.0539160 1.7299640
v 0.1312340 -0.1077010 1.7237099
v 0.1964560 -0.1612280 1.7133040
v 0.2612050 -0.2143650 1.6987700
v 0.3253240 -0.2669870 1.6801430
v 0.3886600 -0.3189650 1.6574690
v 0.4510590 -0.3701750 1.6308020
v 0.5123720 -0.4204930 1.6002060
v 0.5724510 -0.4697980 1.5657550
v 0.6311490 -0.5179710 1.5275320
v 0.6883290 -0.5648970 1.4856290
v 0.7438490 -0.6104610 1.4401480
v 0.7975780 -0.6545550 1.3911960
v 0.8493850 -0.6970720 1.3388931
v 0.8991450 -0.7379100 1.2833650
v 0.9467410 -0.7769700 1.2247450
v 0.9920550 -0.8141580 1.1631740
v 1.0349780 -0.8493850 1.0988010
v 0.0600950 -0.0600950 1.7299640
v 0.1200460 -0.1200460 1.7237099
v 0.1797070 -0.1797070 1.7133040
v 0.2389360 -0.2389360 1.6987700
v 0.2975890 -0.2975890 1.6801430
v 0.3555250 -0.3555250 1.6574690
v 0.4126040 -0.4126040 1.6308020
v 0.4686890 -0.4686890 1.6002060
v 0.5236460 -0.5236460 1.5657550
v 0.5773400 -0.5773400 1.5275320
v 0.6296450 -0.6296440 1.4856290
v 0.6804320 -0.6804320 1.4401480
v 0.7295800 -0.7295800 1.3911960
v 0.7769700 -0.7769700 1.3388931
v 0.8224880 -0.8224880 1.2833650
v 0.8660250 -0.8660250 1.2247450
v 0.9074760 -0.9074760 1.1631740
v 0.9467400 -0.9467400 1.0988010
v 0.0539160 -0.0656960 1.7299640
v 0.1077010 -0.1312340 1.7237099
v 0.1612280 -0.1964560 1.7133040
v 0.2143650 -0.2612050 1.6987700
v 0.2669870 -0.3253240 1.6801430
v 0.3189650 -0.3886600 1.6574690
v 0.3701750 -0.4510590 1.6308020
v 0.4204930 -0.5123720 1.6002060
v 0.4697980 -0.5724510 1.5657550
v 0.5179710 -0.6311500 1.5275320
v 0.5648970 -0.6883290 1.4856290
v 0.6104610 -0.7438490 1.4401480
v 0.6545550 -0.7975780 1.3911960
v 0.6970720 -0.8493850 1.3388931
v 0.7379090 -0.8991460 1.2833650
v 0.7769700 -0.9467400 1.2247450
v 0.8141580 -0.9920550 1.1631740
v 0.8493840 -1.0349780 1.0988010
v 0.0472170 -0.0706650 1.7299640
v 0.0943190 -0.1411590 1.7237099
v 0.1411950 -0.2113130 1.7133040
v 0.1877310 -0.2809590 1.6987700
v 0.2338140 -0.3499270 1.6801430
v 0.2793340 -0.4180530 1.6574690
v 0.3241810 -0.4851710 1.6308020
v 0.3682470 -0.5511210 1.6002060
v 0.4114260 -0.6157420 1.5657550
v 0.4536130 -0.6788800 1.5275320
v 0.4947090 -0.7403840 1.4856290
v 0.5346120 -0.8001030 1.4401480
v 0.5732270 -0.8578950 1.3911960
v 0.6104610 -0.9136200 1.3388931
v 0.6462250 -0.9671440 1.2833650
v 0.6804320 -1.0183380 1.2247450
v 0.7129990 -1.0670789 1.1631740
v 0.7438490 -1.1132489 1.0988010
v 0.0400630 -0.0749520 1.7299640
v 0.0800290 -0.1497240 1.7237099
v 0.1198030 -0.2241350 1.7133040
v 0.1592880 -0.2980070 1.6987700
v 0.1983890 -0.3711600 1.6801430
v 0.2370130 -0.4434190 1.6574690
v 0.2750650 -0.5146100 1.6308020
v 0.3124540 -0.5845610 1.6002060
v 0.3490910 -0.6531040 1.5657550
v 0.3848870 -0.7200730 1.5275320
v 0.4197560 -0.7853080 1.4856290
v 0.4536140 -0.8486510 1.4401480
v 0.4863780 -0.9099500 1.3911960
v 0.5179710 -0.9690560 1.3388931
v 0.5483160 -1.0258280 1.2833650
v 0.5773410 -1.0801280 1.2247450
v 0.6049740 -1.1318270 1.1631740
v 0.6311490 -1.1807981 1.0988010
v 0.0325230 -0.0785180 1.7299640
v 0.0649680 -0.1568480 1.7237099
v 0.0972570 -0.2347990 1.7133040
v 0.1293110 -0.3121840 1.6987700
v 0.1610540 -0.3888180 1.6801430
v 0.1924090 -0.4645150 1.6574690
v 0.2233000 -0.5390930 1.6308020
v 0.2536530 -0.6123720 1.6002060
v 0.2833950 -0.6841760 1.5657550
v 0.3124540 -0.7543310 1.5275320
v 0.3407610 -0.8226700 1.4856290
v 0.3682470 -0.8890270 1.4401480
v 0.3948450 -0.9532420 1.3911960
v 0.4204930 -1.0151600 1.3388931
v 0.4451270 -1.0746330 1.2833650
v 0.4686890 -1.1315171 1.2247450
v 0.4911230 -1.1856750 1.1631740
v 0.5123720 -1.2369760 1.0988010
v 0.0246710 -0.0813280 1.7299640
v 0.0492820 -0.1624600 1.7237099
v 0.0737740 -0.2432010 1.7133040
v 0.0980890 -0.3233560 1.6987700
v 0.1221670 -0.4027320 1.6801430
v 0.1459520 -0.4811380 1.6574690
v 0.1693840 -0.5583840 1.6308020
v 0.1924080 -0.6342860 1.6002060
v 0.2149690 -0.7086590 1.5657550
v 0.2370120 -0.7813250 1.5275320
v 0.2584850 -0.8521090 1.4856290
v 0.2793340 -0.9208400 1.4401480
v 0.2995100 -0.9873530 1.3911960
v 0.3189650 -1.0514870 1.3388931
v 0.3376510 -1.1130880 1.2833650
v 0.3555250 -1.1720080 1.2247450
v 0.3725410 -1.2281040 1.1631740
v 0.3886600 -1.2812400 1.0988010
v 0.0165800 -0.0833550 1.7299640
v 0.0331210 -0.1665080 1.7237099
v 0.0495810 -0.2492610 1.7133040
v 0.0659220 -0.3314130 1.6987700
v 0.0821040 -0.4127670 1.6801430
v 0.0980890 -0.4931270 1.6574690
v 0.1138370 -0.5722980 1.6308020
v 0.1293110 -0.6500910 1.6002060
v 0.1444740 -0.7263180 1.5657550
v 0.1592880 -0.8007940 1.5275320
v 0.1737190 -0.8733420 1.4856290
v 0.1877310 -0.9437860 1.4401480
v 0.2012900 -1.0119560 1.3911960
v 0.2143650 -1.0776880 1.3388931
v 0.2269240 -1.1408240 1.2833650
v 0.2389360 -1.2012120 1.2247450
v 0.2503720 -1.2587060 1.1631740
v 0.2612050 -1.3131660 1.0988010
v 0.0083300 -0.0845780 1.7299640
v 0.0166400 -0.1689530 1.7237099
v 0.0249110 -0.2529210 1.7133040
v 0.0331210 -0.3362790 1.6987700
v 0.0412510 -0.4188270 1.6801430
v 0.0492820 -0.5003670 1.6574690
v 0.0571940 -0.5807000 1.6308020
v 0.0649680 -0.6596350 1.6002060
v 0.0725860 -0.7369810 1.5657550
v 0.0800290 -0.8125510 1.5275320
v 0.0872800 -0.8861640 1.4856290
v 0.0943190 -0.9576420 1.4401480
v 0.1011320 -1.0268130 1.3911960
v 0.1077010 -1.0935100 1.3388931
v 0.1140110 -1.1575730 1.2833650
v 0.1200460 -1.2188470 1.2247450
v 0.1257920 -1.2771850 1.1631740
v 0.1312340 -1.3324460 1.0988010
v 0.0000000 0.0000000 1.7320510
v 0.0000000 -0.0849880 1.7299640
v 0.0000000 -0.1697710 1.7237099
v 0.0000000 -0.2541450 1.7133040
v 0.0000000 -0.3379060 1.6987700
v 0.0000000 -0.4208540 1.6801430
v 0.0000000 -0.5027880 1.6574690
v 0.0000000 -0.5835100 1.6308020
v 0.0000000 -0.6628270 1.6002060
v 0.0000000 -0.7405470 1.5657550
v 0.0000000 -0.8164820 1.5275320
v 0.0000000 -0.8904520 1.4856290
v 0.0000000 -0.9622760 1.4401480
v 0.0000000 -1.0317810 1.3911960
v 0.0000000 -1.0988010 1.3388931
v 0.0000000 -1.1631740 1.2833650
v 0.0000000 -1.2247450 1.2247450
v 0.0000000 -1.2833650 1.1631740
v 0.0000000 -1.3388931 1.0988010
v 0.0000000 0.0000000 1.7320510
v -0.0000000 0.0849880 1.7299640
v -0.0000000 0.1697710 1.7237099
v -0.0000000 0.2541450 1.7133040
v -0.0000000 0.3379060 1.6987700
v -0.0000000 0.4208540 1.6801430
v -0.0000000 0.5027880 1.6574690
v -0.0000000 0.5835100 1.6308020
v -0.0000000 0.6628270 1.6002060
v -0.0000000 0.7405470 1.5657550
v -0.0000000 0.8164830 1.5275320
v -0.0000000 0.8904520 1.4856290
v -0.0000000 0.9622760 1.4401480
v -0.0000000 1.0317810 1.3911960
v -0.0000000 1.0988010 1.3388931
v -0.0000000 1.1631740 1.2833650
v -0.0000000 1.2247450 1.2247450
v -0.0000000 1.2833650 1.1631740
v -0.0000000 1.3388931 1.0988010
v 0.0083300 0.0845780 1.7299640
v 0.0166400 0.1689530 1.7237099
v 0.0249110 0.2529210 1.7133040
v 0.0331210 0.3362790 1.6987700
v 0.0412510 0.4188270 1.6801430
v 0.0492820 0.5003670 1.6574690
v 0.0571940 0.5807000 1.6308020
v 0.0649680 0.6596350 1.6002060
v 0.0725860 0.7369810 1.5657550
v 0.0800290 0.8125510 1.5275320
v 0.0872790 0.8861640 1.4856290
v 0.0943190 0.9576420 1.4401480
v 0.1011320 1.0268130 1.3911960
v 0.1077010 1.0935100 1.3388931
v 0.1140110 1.1575730 1.2833650
v 0.1200460 1.2188470 1.2247450
v 0.1257920 1.2771850 1.1631740
v 0.1312350 1.3324460 1.0988010
v 0.0165800 0.0833550 1.7299640
v 0.0331210 0.1665090 1.7237099
v 0.0495810 0.2492610 1.7133040
v 0.0659220 0.3314130 1.6987700
v 0.0821050 0.4127670 1.6801430
v 0.0980890 0.4931270 1.6574690
v 0.1138370 0.5722980 1.6308020
v 0.1293110 0.6500910 1.6002060
v 0.1444730 0.7263180 1.5657550
v 0.1592880 0.8007940 1.5275320
v 0.1737180 0.8733420 1.4856290
v 0.1877310 0.9437860 1.4401480
v 0.2012910 1.0119560 1.3911960
v 0.2143660 1.0776880 1.3388931
v 0.2269240 1.1408240 1.2833650
v 0.2389360 1.2012110 1.2247450
v 0.2503720 1.2587050 1.1631740
v 0.2612050 1.3131660 1.0988010
v 0.0246710 0.0813280 1.7299640
v 0.0492820 0.1624600 1.7237099
v 0.0737740 0.2432010 1.7133040
v 0.0980890 0.3233560 1.6987700
v 0.1221670 0.4027320 1.6801430
v 0.1459520 0.4811380 1.6574690
v 0.1693840 0.5583840 1.6308020
v 0.1924090 0.6342860 1.6002060
v 0.2149690 0.7086590 1.5657550
v 0.2370120 0.7813250 1.5275320
v 0.2584840 0.8521090 1.4856290
v 0.2793340 0.9208400 1.4401480
v 0.2995100 0.9873530 1.3911960
v 0.3189650 1.0514870 1.3388931
v 0.3376520 1.1130880 1.2833650
v 0.3555250 1.1720070 1.2247450
v 0.3725410 1.2281040 1.1631740
v 0.3886600 1.2812400 1.0988010
v 0.0325230 0.0785180 1.7299640
v 0.0649680 0.1568480 1.7237099
v 0.0972570 0.2347990 1.7133040
v 0.1293110 0.3121850 1.6987700
v 0.1610540 0.3888180 1.6801430
v 0.1924090 0.4645150 1.6574690
v 0.2233000 0.5390930 1.6308020
v 0.2536530 0.6123720 1.6002060
v 0.2833950 0.6841760 1.5657550
v 0.3124540 0.7543310 1.5275320
v 0.3407610 0.8226700 1.4856290
v 0.3682470 0.8890270 1.4401480
v 0.3948460 0.9532420 1.3911960
v 0.4204930 1.0151600 1.3388931
v 0.4451280 1.0746320 1.2833650
v 0.4686890 1.1315160 1.2247450
v 0.4911220 1.1856750 1.1631740
v 0.5123720 1.2369760 1.0988010
v 0.0400630 0.0749520 1.7299640
v 0.0800290 0.1497240 1.7237099
v 0.1198030 0.2241350 1.7133040
v 0.1592880 0.2980070 1.6987700
v 0.1983890 0.3711600 1.6801430
v 0.2370130 0.4434190 1.6574690
v 0.2750650 0.5146100 1.6308020
v 0.3124550 0.5845610 1.6002060
v 0.3490910 0.6531040 1.5657550
v 0.3848870 0.7200730 1.5275320
v 0.4197560 0.7853080 1.4856290
v 0.4536140 0.8486510 1.4401480
v 0.4863780 0.9099500 1.3911960
v 0.5179710 0.9690560 1.3388931
v 0.5483160 1.0258280 1.2833650
v 0.5773410 1.0801280 1.2247450
v 0.6049740 1.1318270 1.1631740
v 0.6311500 1.1807981 1.0988010
v 0.0472170 0.0706650 1.7299640
v 0.0943200 0.1411590 1.7237099
v 0.1411950 0.2113130 1.7133040
v 0.1877310 0.2809590 1.6987700
v 0.2338140 0.3499270 1.6801430
v 0.2793340 0.4180530 1.6574690
v 0.3241810 0.4851710 1.6308020
v 0.3682470 0.5511200 1.6002060
v 0.4114260 0.6157420 1.5657550
v 0.4536130 0.6788800 1.5275320
v 0.4947080 0.7403840 1.4856290
v 0.5346120 0.8001030 1.4401480
v 0.5732270 0.8578950 1.3911960
v 0.6104610 0.9136200 1.3388931
v 0.6462250 0.9671440 1.2833650
v 0.6804320 1.0183380 1.2247450
v 0.7129990 1.0670789 1.1631740
v 0.7438490 1.1132480 1.0988010
v 0.0539160 0.0656960 1.7299640
v 0.1077010 0.1312340 1.7237099
v 0.1612280 0.1964560 1.7133040
v 0.2143650 0.2612050 1.6987700
v 0.2669870 0.3253240 1.6801430
v 0.3189650 0.3886600 1.6574690
v 0.3701750 0.4510590 1.6308020
v 0.4204930 0.5123720 1.6002060
v 0.4697980 0.5724510 1.5657550
v 0.5179710 0.6311490 1.5275320
v 0.5648970 0.6883290 1.4856290
v 0.6104610 0.7438490 1.4401480
v 0.6545550 0.7975780 1.3911960
v 0.6970720 0.8493850 1.3388931
v 0.7379100 0.8991450 1.2833650
v 0.7769700 0.9467410 1.2247450
v 0.8141580 0.9920550 1.1631740
v 0.8493850 1.0349780 1.0988010
v 0.0600950 0.0600950 1.7299640
v 0.1200460 0.1200460 1.7237099
v 0.1797070 0.1797070 1.7133040
v 0.2389360 0.2389360 1.6987700
v 0.2975890 0.2975890 1.6801430
v 0.3555250 0.3555250 1.6574690
v 0.4126040 0.4126040 1.6308020
v 0.4686890 0.4686890 1.6002060
v 0.5236460 0.5236460 1.5657550
v 0.5773400 0.5773400 1.5275320
v 0.6296440 0.6296450 1.4856290
v 0.6804320 0.6804320 1.4401480
v 0.7295800 0.7295800 1.3911960
v 0.7769700 0.7769700 1.3388931
v 0.8224880 0.8224880 1.2833650
v 0.8660250 0.8660250 1.2247450
v 0.9074760 0.9074760 1.1631740
v 0.9467400 0.9467400 1.0988010
v 0.0656960 0.0539160 1.7299640
v 0.1312340 0.1077010 1.7237099
v 0.1964560 0.1612280 1.7133040
v 0.2612050 0.2143650 1.6987700
v 0.3253240 0.2669870 1.6801430
v 0.3886600 0.3189650 1.6574690
v 0.4510590 0.3701750 1.6308020
v 0.5123720 0.4204930 1.6002060
v 0.5724510 0.4697980 1.5657550
v 0.6311500 0.5179710 1.5275320
v 0.6883290 0.5648970 1.4856290
v 0.7438490 0.6104610 1.4401480
v 0.7975780 0.6545550 1.3911960
v 0.8493850 0.6970720 1.3388931
v 0.8991460 0.7379090 1.2833650
v 0.9467400 0.7769700 1.2247450
v 0.9920550 0.8141580 1.1631740
v 1.0349780 0.8493840 1.0988010
v 0.0706650 0.0472170 1.7299640
v 0.1411590 0.0943190 1.7237099
v 0.2113130 0.1411950 1.7133040
v 0.2809590 0.1877310 1.6987700
v 0.3499270 0.2338140 1.6801430
v 0.4180530 0.2793340 1.6574690
v 0.4851710 0.3241810 1.6308020
v 0.5511210 0.3682470 1.6002060
v 0.6157420 0.4114260 1.5657550
v 0.6788800 0.4536130 1.5275320
v 0.7403840 0.4947090 1.4856290
v 0.8001030 0.5346120 1.4401480
v 0.8578950 0.5732270 1.3911960
v 0.9136200 0.6104610 1.3388931
v 0.9671440 0.6462250 1.2833650
v 1.0183380 0.6804320 1.2247450
v 1.0670789 0.7129990 1.1631740
v 1.1132489 0.7438490 1.0988010
v 0.0749520 0.0400630 1.7299640
v 0.1497240 0.0800290 1.7237099
v 0.2241350 0.1198030 1.7133040
v 0.2980070 0.1592880 1.6987700
v 0.3711600 0.1983890 1.6801430
v 0.4434190 0.2370130 1.6574690
v 0.5146100 0.2750650 1.6308020
v 0.5845610 0.3124540 1.6002060
v 0.6531040 0.3490910 1.5657550
v 0.7200730 0.3848870 1.5275320
v 0.7853080 0.4197560 1.4856290
v 0.8486510 0.4536140 1.4401480
v 0.9099500 0.4863780 1.3911960
v 0.9690560 0.5179710 1.3388931
v 1.0258280 0.5483160 1.2833650
v 1.0801280 0.5773410 1.2247450
v 1.1318270 0.6049740 1.1631740
v 1.1807981 0.6311490 1.0988010
v 0.0785180 0.0325230 1.7299640
v 0.1568480 0.0649680 1.7237099
v 0.2347990 0.0972570 1.7133040
v 0.3121840 0.1293110 1.6987700
v 0.3888180 0.1610540 1.6801430
v 0.4645150 0.1924090 1.6574690
v 0.5390930 0.2233000 1.6308020
v 0.6123720 0.2536530 1.6002060
v 0.6841760 0.2833950 1.5657550
v 0.7543310 0.3124540 1.5275320
v 0.8226700 0.3407610 1.4856290
v 0.8890270 0.3682470 1.4401480
v 0.9532420 0.3948450 1.3911960
v 1.0151600 0.4204930 1.3388931
v 1.0746330 0.4451270 1.2833650
v 1.1315171 0.4686890 1.2247450
v 1.1856750 0.4911230 1.1631740
v 1.2369760 0.5123720 1.0988010
v 0.0813280 0.0246710 1.7299640
v 0.1624600 0.0492820 1.7237099
v 0.2432010 0.0737740 1.7133040
v 0.3233560 0.0980890 1.6987700
v 0.4027320 0.1221670 1.6801430
v 0.4811380 0.1459520 1.6574690
v 0.5583840 0.1693840 1.6308020
v 0.6342860 0.1924080 1.6002060
v 0.7086590 0.2149690 1.5657550
v 0.7813250 0.2370120 1.5275320
v 0.8521090 0.2584850 1.4856290
v 0.9208400 0.2793340 1.4401480
v 0.9873530 0.2995100 1.3911960
v 1.0514870 0.3189650 1.3388931
v 1.1130880 0.3376510 1.2833650
v 1.1720080 0.3555250 1.2247450
v 1.2281040 0.3725410 1.1631740
v 1.2812400 0.3886600 1.0988010
v 0.0833550 0.0165800 1.7299640
v 0.1665080 0.0331210 1.7237099
v 0.2492610 0.0495810 1.7133040
v 0.3314130 0.0659220 1.6987700
v 0.4127670 0.0821040 1.6801430
v 0.4931270 0.0980890 1.6574690
v 0.5722980 0.1138370 1.6308020
v 0.6500910 0.1293110 1.6002060
v 0.7263180 0.1444740 1.5657550
v 0.8007940 0.1592880 1.5275320
v 0.8733420 0.1737190 1.4856290
v 0.9437860 0.1877310 1.4401480
v 1.0119560 0.2012900 1.3911960
v 1.0776880 0.2143650 1.3388931
v 1.1408240 0.2269240 1.2833650
v 1.2012120 0.2389360 1.2247450
v 1.2587060 0.2503720 1.1631740
v 1.3131660 0.2612050 1.0988010
v 0.0845780 0.0083300 1.7299640
v 0.1689530 0.0166400 1.7237099
v 0.2529210 0.0249110 1.7133040
v 0.3362790 0.0331210 1.6987700
v 0.4188270 0.0412510 1.6801430
v 0.5003670 0.0492820 1.6574690
v 0.5807000 0.0571940 1.6308020
v 0.6596350 0.0649680 1.6002060
v 0.7369810 0.0725860 1.5657550
v 0.8125510 0.0800290 1.5275320
v 0.8861640 0.0872800 1.4856290
v 0.9576420 0.0943190 1.4401480
v 1.0268130 0.1011320 1.3911960
v 1.0935100 0.1077010 1.3388931
v 1.1575730 0.1140110 1.2833650
v 1.2188470 0.1200460 1.2247450
v 1.2771850 0.1257920 1.1631740
v 1.3324460 0.1312340 1.0988010
v 0.0000000 0.0000000 1.7320510
v 0.0849880 0.0000000 1.7299640
v 0.1697710 0.0000000 1.7237099
v 0.2541450 0.0000000 1.7133040
v 0.3379060 0.0000000 1.6987700
v 0.4208540 0.0000000 1.6801430
v 0.5027880 0.0000000 1.6574690
v 0.5835100 0.0000000 1.6308020
v 0.6628270 0.0000000 1.6002060
v 0.7405470 0.0000000 1.5657550
v 0.8164820 0.0000000 1.5275320
v 0.8904520 0.0000000 1.4856290
v 0.9622760 0.0000000 1.4401480
v 1.0317810 0.0000000 1.3911960
v 1.0988010 0.0000000 1.3388931
v 1.1631740 0.0000000 1.2833650
v 1.2247450 0.0000000 1.2247450
v 1.2833650 0.0000000 1.1631740
v 1.3388931 0.0000000 1.0988010
v 0.0000000 0.0000000 1.7320510
v -0.0849880 0.0000000 1.7299640
v -0.1697710 0.0000000 1.7237099
v -0.2541450 0.0000000 1.7133040
v -0.3379060 0.0000000 1.6987700
v -0.4208540 0.0000000 1.6801430
v -0.5027880 0.0000000 1.6574690
v -0.5835100 0.0000000 1.6308020
v -0.6628270 0.0000000 1.6002060
v -0.7405470 0.0000000 1.5657550
v -0.8164830 0.0000000 1.5275320
v -0.8904520 0.0000000 1.4856290
v -0.9622760 0.0000000 1.4401480
v -1.0317810 0.0000000 1.3911960
v -1.0988010 0.0000000 1.3388931
v -1.1631740 0.0000000 1.2833650
v -1.2247450 0.0000000 1.2247450
v -1.2833650 0.0000000 1.1631740
v -1.3388931 0.0000000 1.0988010
v -0.0845780 0.0083300 1.7299640
v -0.1689530 0.0166400 1.7237099
v -0.2529210 0.0249110 1.7133040
v -0.3362790 0.0331210 1.6987700
v -0.4188270 0.0412510 1.6801430
v -0.5003670 0.0492820 1.6574690
v -0.5807000 0.0571940 1.6308020
v -0.6596350 0.0649680 1.6002060
v -0.7369810 0.0725860 1.5657550
v -0.8125510 0.0800290 1.5275320
v -0.8861640 0.0872790 1.4856290
v -0.9576420 0.0943190 1.4401480
v -1.0268130 0.1011320 1.3911960
v -1.0935100 0.1077010 1.3388931
v -1.1575730 0.1140110 1.2833650
v -1.2188470 0.1200460 1.2247450
v -1.2771850 0.1257920 1.1631740
v -1.3324460 0.1312350 1.0988010
v -0.0833550 0.0165800 1.7299640
v -0.1665090 0.0331210 1.7237099
v -0.2492610 0.0495810 1.7133040
v -0.3314130 0.0659220 1.6987700
v -0.4127670 0.0821050 1.6801430
v -0.4931270 0.0980890 1.6574690
v -0.5722980 0.1138370 1.6308020
v -0.6500910 0.1293110 1.6002060
v -0.7263180 0.1444730 1.5657550
v -0.8007940 0.1592880 1.5275320
v -0.8733420 0.1737180 1.4856290
v -0.9437860 0.1877310 1.4401480
v -1.0119560 0.2012910 1.3911960
v -1.0776880 0.2143660 1.3388931
v -1.1408240 0.2269240 1.2833650
v -1.2012110 0.2389360 1.2247450
v -1.2587050 0.2503720 1.1631740
v -1.3131660 0.2612050 1.0988010
v -0.0813280 0.0246710 1.7299640
v -0.1624600 0.0492820 1.7237099
v -0.2432010 0.0737740 1.7133040
v -0.3233560 0.0980890 1.6987700
v -0.4027320 0.1221670 1.6801430
v -0.4811380 0.1459520 1.6574690
v -0.5583840 0.1693840 1.6308020
v -0.6342860 0.1924090 1.6002060
v -0.7086590 0.2149690 1.5657550
v -0.7813250 0.2370120 1.5275320
v -0.8521090 0.2584840 1.4856290
v -0.9208400 0.2793340 1.4401480
v -0.9873530 0.2995100 1.3911960
v -1.0514870 0.3189650 1.3388931
v -1.1130880 0.3376520 1.2833650
v -1.1720070 0.3555250 1.2247450
v -1.2281040 0.3725410 1.1631740
v -1.2812400 0.3886600 1.0988010
v -0.0785180 0.0325230 1.7299640
v -0.1568480 0.0649680 1.7237099
v -0.2347990 0.0972570 1.7133040
v -0.3121850 0.1293110 1.6987700
v -0.3888180 0.1610540 1.6801430
v -0.4645150 0.1924090 1.6574690
v -0.5390930 0.2233000 1.6308020
v -0.6123720 0.2536530 1.6002060
v -0.6841760 0.2833950 1.5657550
v -0.7543310 0.3124540 1.5275320
v -0.8226700 0.3407610 1.4856290
v -0.8890270 0.3682470 1.4401480
v -0.9532420 0.3948460 1.3911960
v -1.0151600 0.4204930 1.3388931
v -1.0746320 0.4451280 1.2833650
v -1.1315160 0.4686890 1.2247450
v -1.1856750 0.4911220 1.1631740
v -1.2369760 0.5123720 1.0988010
v -0.0749520 0.0400630 1.7299640
v -0.1497240 0.0800290 1.7237099
v -0.2241350 0.1198030 1.7133040
v -0.2980070 0.1592880 1.6987700
v -0.3711600 0.1983890 1.6801430
v -0.4434190 0.2370130 1.6574690
v -0.5146100 0.2750650 1.6308020
v -0.5845610 0.3124550 1.6002060
v -0.6531040 0.3490910 1.5657550
v -0.7200730 0.3848870 1.5275320
v -0.7853080 0.4197560 1.4856290
v -0.8486510 0.4536140 1.4401480
v -0.9099500 0.4863780 1.3911960
v -0.9690560 0.5179710 1.3388931
v -1.0258280 0.5483160 1.2833650
v -1.0801280 0.5773410 1.2247450
v -1.1318270 0.6049740 1.1631740
v -1.1807981 0.6311500 1.0988010
v -0.0706650 0.0472170 1.7299640
v -0.1411590 0.0943200 1.7237099
v -0.2113130 0.1411950 1.7133040
v -0.2809590 0.1877310 1.6987700
v -0.3499270 0.2338140 1.6801430
v -0.4180530 0.2793340 1.6574690
v -0.4851710 0.3241810 1.6308020
v -0.5511200 0.3682470 1.6002060
v -0.6157420 0.4114260 1.5657550
v -0.6788800 0.4536130 1.5275320
v -0.7403840 0.4947080 1.4856290
v -0.8001030 0.5346120 1.4401480
v -0.8578950 0.5732270 1.3911960
v -0.9136200 0.6104610 1.3388931
v -0.9671440 0.6462250 1.2833650
v -1.0183380 0.6804320 1.2247450
v -1.0670789 0.7129990 1.1631740
v -1.1132480 0.7438490 1.0988010
v -0.0656960 0.0539160 1.7299640
v -0.1312340 0.1077010 1.7237099
v -0.1964560 0.1612280 1.7133040
v -0.2612050 0.2143650 1.6987700
v -0.3253240 0.2669870 1.6801430
v -0.3886600 0.3189650 1.6574690
v -0.4510590 0.3701750 1.6308020
v -0.5123720 0.4204930 1.6002060
v -0.5724510 0.4697980 1.5657550
v -0.6311490 0.5179710 1.5275320
v -0.6883290 0.5648970 1.4856290
v -0.7438490 0.6104610 1.4401480
v -0.7975780 0.6545550 1.3911960
v -0.8493850 0.6970720 1.3388931
v -0.8991450 0.7379100 1.2833650
v -0.9467410 0.7769700 1.2247450
v -0.9920550 0.8141580 1.1631740
v -1.0349780 0.8493850 1.0988010
v -0.0600950 0.0600950 1.7299640
v -0.1200460 0.1200460 1.7237099
v -0.1797070 0.1797070 1.7133040
v -0.2389360 0.2389360 1.6987700
v -0.2975890 0.2975890 1.6801430
v -0.3555250 0.3555250 1.6574690
v -0.4126040 0.4126040 1.6308020
v -0.4686890 0.4686890 1.6002060
v -0.5236460 0.5236460 1.5657550
v -0.5773400 0.5773400 1.5275320
v -0.6296450 0.6296440 1.4856290
v -0.6804320 0.6804320 1.4401480
v -0.7295800 0.7295800 1.3911960
v -0.7769700 0.7769700 1.3388931
v -0.8224880 0.8224880 1.2833650
v -0.8660250 0.8660250 1.2247450
v -0.9074760 0.9074760 1.1631740
v -0.9467400 0.9467400 1.0988010
v -0.0539160 0.0656960 1.7299640
v -0.1077010 0.1312340 1.7237099
v -0.1612280 0.1964560 1.7133040
v -0.2143650 0.2612050 1.6987700
v -0.2669870 0.3253240 1.6801430
v -0.3189650 0.3886600 1.6574690
v -0.3701750 0.4510590 1.6308020
v -0.4204930 0.5123720 1.6002060
v -0.4697980 0.5724510 1.5657550
v -0.5179710 0.6311500 1.5275320
v -0.5648970 0.6883290 1.4856290
v -0.6104610 0.7438490 1.4401480
v -0.6545550 0.7975780 1.3911960
v -0.6970720 0.8493850 1.3388931
v -0.7379090 0.8991460 1.2833650
v -0.7769700 0.9467400 1.2247450
v -0.8141580 0.9920550 1.1631740
v -0.8493840 1.0349780 1.0988010
v -0.0472170 0.0706650 1.7299640
v -0.0943190 0.1411590 1.7237099
v -0.1411950 0.2113130 1.7133040
v -0.1877310 0.2809590 1.6987700
v -0.2338140 0.3499270 1.6801430
v -0.2793340 0.4180530 1.6574690
v -0.3241810 0.4851710 1.6308020
v -0.3682470 0.5511210 1.6002060
v -0.4114260 0.6157420 1.5657550
v -0.4536130 0.6788800 1.5275320
v -0.4947090 0.7403840 1.4856290
v -0.5346120 0.8001030 1.4401480
v -0.5732270 0.8578950 1.3911960
v -0.6104610 0.9136200 1.3388931
v -0.6462250 0.9671440 1.2833650
v -0.6804320 1.0183380 1.2247450
v -0.7129990 1.0670789 1.1631740
v -0.7438490 1.1132489 1.0988010
v -0.0400630 0.0749520 1.7299640
v -0.0800290 0.1497240 1.7237099
v -0.1198030 0.2241350 1.7133040
v -0.1592880 0.2980070 1.6987700
v -0.1983890 0.3711600 1.6801430
v -0.2370130 0.4434190 1.6574690
v -0.2750650 0.5146100 1.6308020
v -0.3124540 0.5845610 1.6002060
v -0.3490910 0.6531040 1.5657550
v -0.3848870 0.7200730 1.5275320
v -0.4197560 0.7853080 1.4856290
v -0.4536140 0.8486510 1.4401480
v -0.4863780 0.9099500 1.3911960
v -0.5179710 0.9690560 1.3388931
v -0.5483160 1.0258280 1.2833650
v -0.5773410 1.0801280 1.2247450
v -0.6049740 1.1318270 1.1631740
v -0.6311490 1.1807981 1.0988010
v -0.0325230 0.0785180 1.7299640
v -0.0649680 0.1568480 1.7237099
v -0.0972570 0.2347990 1.7133040
v -0.1293110 0.3121840 1.6987700
v -0.1610540 0.3888180 1.6801430
v -0.1924090 0.4645150 1.6574690
v -0.2233000 0.5390930 1.6308020
v -0.2536530 0.6123720 1.6002060
v -0.2833950 0.6841760 1.5657550
v -0.3124540 0.7543310 1.5275320
v -0.3407610 0.8226700 1.4856290
v -0.3682470 0.8890270 1.4401480
v -0.3948450 0.9532420 1.3911960
v -0.4204930 1.0151600 1.3388931
v -0.4451270 1.0746330 1.2833650
v -0.4686890 1.1315171 1.2247450
v -0.4911230 1.1856750 1.1631740
v -0.5123720 1.2369760 1.0988010
v -0.0246710 0.0813280 1.7299640
v -0.0492820 0.1624600 1.7237099
v -0.0737740 0.2432010 1.7133040
v -0.0980890 0.3233560 1.6987700
v -0.1221670 0.4027320 1.6801430
v -0.1459520 0.4811380 1.6574690
v -0.1693840 0.5583840 1.6308020
v -0.1924080 0.6342860 1.6002060
v -0.2149690 0.7086590 1.5657550
v -0.2370120 0.7813250 1.5275320
v -0.2584850 0.8521090 1.4856290
v -0.2793340 0.9208400 1.4401480
v -0.2995100 0.9873530 1.3911960
v -0.3189650 1.0514870 1.3388931
v -0.3376510 1.1130880 1.2833650
v -0.3555250 1.1720080 1.2247450
v -0.3725410 1.2281040 1.1631740
v -0.3886600 1.2812400 1.0988010
v -0.0165800 0.0833550 1.7299640
v -0.0331210 0.1665080 1.7237099
v -0.0495810 0.2492610 1.7133040
v -0.0659220 0.3314130 1.6987700
v -0.0821040 0.4127670 1.6801430
v -0.0980890 0.4931270 1.6574690
v -0.1138370 0.5722980 1.6308020
v -0.1293110 0.6500910 1.6002060
v -0.1444740 0.7263180 1.5657550
v -0.1592880 0.8007940 1.5275320
v -0.1737190 0.8733420 1.4856290
v -0.1877310 0.9437860 1.4401480
v -0.2012900 1.0119560 1.3911960
v -0.2143650 1.0776880 1.3388931
v -0.2269240 1.1408240 1.2833650
v -0.2389360 1.2012120 1.2247450
v -0.2503720 1.2587060 1.1631740
v -0.2612050 1.3131660 1.0988010
v -0.0083300 0.0845780 1.7299640
v -0.0166400 0.1689530 1.7237099
v -0.0249110 0.2529210 1.7133040
v -0.0331210 0.3362790 1.6987700
v -0.0412510 0.4188270 1.6801430
v -0.0492820 0.5003670 1.6574690
v -0.0571940 0.5807000 1.6308020
v -0.0649680 0.6596350 1.6002060
v -0.0725860 0.7369810 1.5657550
v -0.0800290 0.8125510 1.5275320
v -0.0872800 0.8861640 1.4856290
v -0.0943190 0.9576420 1.4401480
v -0.1011320 1.0268130 1.3911960
v -0.1077010 1.0935100 1.3388931
v -0.1140110 1.1575730 1.2833650
v -0.1200460 1.2188470 1.2247450
v -0.1257920 1.2771850 1.1631740
v -0.1312340 1.3324460 1.0988010
v 0.0000000 0.0000000 1.7320510
v 0.0000000 0.0849880 1.7299640
v 0.0000000 0.1697710 1.7237099
v 0.0000000 0.2541450 1.7133040
v 0.0000000 0.3379060 1.6987700
v 0.0000000 0.4208540 1.6801430
v 0.0000000 0.5027880 1.6574690
v 0.0000000 0.5835100 1.6308020
v 0.0000000 0.6628270 1.6002060
v 0.0000000 0.7405470 1.5657550
v 0.0000000 0.8164820 1.5275320
v 0.0000000 0.8904520 1.4856290
v 0.0000000 0.9622760 1.4401480
v 0.0000000 1.0317810 1.3911960
v 0.0000000 1.0988010 1.3388931
v 0.0000000 1.1631740 1.2833650
v 0.0000000 1.2247450 1.2247450
v 0.0000000 1.2833650 1.1631740
v 0.0000000 1.3388931 1.0988010
v 0.0000000 0.0000000 1.7320510
v 0.0000000 -0.0849880 1.7299640
v 0.0000000 -0.1697710 1.7237099
v 0.0000000 -0.2541450 1.7133040
v 0.0000000 -0.3379060 1.6987700
v 0.0000000 -0.4208540 1.6801430
v 0.0000000 -0.5027880 1.6574690
v 0.0000000 -0.5835100 1.6308020
v 0.0000000 -0.6628270 1.6002060
v 0.0000000 -0.7405470 1.5657550
v 0.0000000 -0.8164830 1.5275320
v 0.0000000 -0.8904520 1.4856290
v 0.0000000 -0.9622760 1.4401480
v 0.0000000 -1.0317810 1.3911960
v 0.0000000 -1.0988010 1.3388931
v 0.0000000 -1.1631740 1.2833650
v 0.0000000 -1.2247450 1.2247450
v 0.0000000 -1.2833650 1.1631740
v 0.0000000 -1.3388931 1.0988010
v -0.0083300 -0.0845780 1.7299640
v -0.0166400 -0.1689530 1.7237099
v -0.0249110 -0.2529210 1.7133040
v -0.0331210 -0.3362790 1.6987700
v -0.0412510 -0.4188270 1.6801430
v -0.0492820 -0.5003670 1.6574690
v -0.0571940 -0.5807000 1.6308020
v -0.0649680 -0.6596350 1.6002060
v -0.0725860 -0.7369810 1.5657550
v -0.0800290 -0.8125510 1.5275320
v -0.0872790 -0.8861640 1.4856290
v -0.0943190 -0.9576420 1.4401480
v -0.1011320 -1.0268130 1.3911960
v -0.1077010 -1.0935100 1.3388931
v -0.1140110 -1.1575730 1.2833650
v -0.1200460 -1.2188470 1.2247450
v -0.1257920 -1.2771850 1.1631740
v -0.1312350 -1.3324460 1.0988010
v -0.0165800 -0.0833550 1.7299640
v -0.0331210 -0.1665090 1.7237099
v -0.0495810 -0.2492610 1.7133040
v -0.0659220 -0.3314130 1.6987700
v -0.0821050 -0.4127670 1.6801430
v -0.0980890 -0.4931270 1.6574690
v -0.1138370 -0.5722980 1.6308020
v -0.1293110 -0.6500910 1.6002060
v -0.1444730 -0.7263180 1.5657550
v -0.1592880 -0.8007940 1.5275320
v -0.1737180 -0.8733420 1.4856290
v -0.1877310 -0.9437860 1.4401480
v -0.2012910 -1.0119560 1.3911960
v -0.2143660 -1.0776880 1.3388931
v -0.2269240 -1.1408240 1.2833650
v -0.2389360 -1.2012110 1.2247450
v -0.2503720 -1.2587050 1.1631740
v -0.2612050 -1.3131660 1.0988010
v -0.0246710 -0.0813280 1.7299640
v -0.0492820 -0.1624600 1.7237099
v -0.0737740 -0.2432010 1.7133040
v -0.0980890 -0.3233560 1.6987700
v -0.1221670 -0.4027320 1.6801430
v -0.1459520 -0.4811380 1.6574690
v -0.1693840 -0.5583840 1.6308020
v -0.1924090 -0.6342860 1.6002060
v -0.2149690 -0.7086590 1.5657550
v -0.2370120 -0.7813250 1.5275320
v -0.2584840 -0.8521090 1.4856290
v -0.2793340 -0.9208400 1.4401480
v -0.2995100 -0.9873530 1.3911960
v -0.3189650 -1.0514870 1.3388931
v -0.3376520 -1.1130880 1.2833650
v -0.3555250 -1.1720070 1.2247450
v -0.3725410 -1.2281040 1.1631740
v -0.3886600 -1.2812400 1.0988010
v -0.0325230 -0.0785180 1.7299640
v -0.0649680 -0.1568480 1.7237099
v -0.0972570 -0.2347990 1.7133040
v -0.1293110 -0.3121850 1.6987700
v -0.1610540 -0.3888180 1.6801430
v -0.1924090 -0.4645150 1.6574690
v -0.2233000 -0.5390930 1.6308020
v -0.2536530 -0.6123720 1.6002060
v -0.2833950 -0.6841760 1.5657550
v -0.3124540 -0.7543310 1.5275320
v -0.3407610 -0.8226700 1.4856290
v -0.3682470 -0.8890270 1.4401480
v -0.3948460 -0.9532420 1.3911960
v -0.4204930 -1.0151600 1.3388931
v -0.4451280 -1.0746320 1.2833650
v -0.4686890 -1.1315160 1.2247450
v -0.4911220 -1.1856750 1.1631740
v -0.5123720 -1.2369760 1.0988010
v -0.0400630 -0.0749520 1.7299640
v -0.0800290 -0.1497240 1.7237099
v -0.1198030 -0.2241350 1.7133040
v -0.1592880 -0.2980070 1.6987700
v -0.1983890 -0.3711600 1.6801430
v -0.2370130 -0.4434190 1.6574690
v -0.2750650 -0.5146100 1.6308020
v -0.3124550 -0.5845610 1.6002060
v -0.3490910 -0.6531040 1.5657550
v -0.3848870 -0.7200730 1.5275320
v -0.4197560 -0.7853080 1.4856290
v -0.4536140 -0.8486510 1.4401480
v -0.4863780 -0.9099500 1.3911960
v -0.5179710 -0.9690560 1.3388931
v -0.5483160 -1.0258280 1.2833650
v -0.5773410 -1.0801280 1.2247450
v -0.6049740 -1.1318270 1.1631740
v -0.6311500 -1.1807981 1.0988010
v -0.0472170 -0.0706650 1.7299640
v -0.0943200 -0.1411590 1.7237099
v -0.1411950 -0.2113130 1.7133040
v -0.1877310 -0.2809590 1.6987700
v -0.2338140 -0.3499270 1.6801430
v -0.2793340 -0.4180530 1.6574690
v -0.3241810 -0.4851710 1.6308020
v -0.3682470 -0.5511200 1.6002060
v -0.4114260 -0.6157420 1.5657550
v -0.4536130 -0.6788800 1.5275320
v -0.4947080 -0.7403840 1.4856290
v -0.5346120 -0.8001030 1.4401480
v -0.5732270 -0.8578950 1.3911960
v -0.6104610 -0.9136200 1.3388931
v -0.6462250 -0.9671440 1.2833650
v -0.6804320 -1.0183380 1.2247450
v -0.7129990 -1.0670789 1.1631740
v -0.7438490 -1.1132480 1.0988010
v -0.0539160 -0.0656960 1.7299640
v -0.1077010 -0.1312340 1.7237099
v -0.1612280 -0.1964560 1.7133040
v -0.2143650 -0.2612050 1.6987700
v -0.2669870 -0.3253240 1.6801430
v -0.3189650 -0.3886600 1.6574690
v -0.3701750 -0.4510590 1.6308020
v -0.4204930 -0.5123720 1.6002060
v -0.4697980 -0.5724510 1.5657550
v -0.5179710 -0.6311490 1.5275320
v -0.5648970 -0.6883290 1.4856290
v -0.6104610 -0.7438490 1.4401480
v -0.6545550 -0.7975780 1.3911960
v -0.6970720 -0.8493850 1.3388931
v -0.7379100 -0.8991450 1.2833650
v -0.7769700 -0.9467410 1.2247450
v -0.8141580 -0.9920550 1.1631740
v -0.8493850 -1.0349780 1.0988010
v -0.0600950 -0.0600950 1.7299640
v -0.1200460 -0.1200460 1.7237099
v -0.1797070 -0.1797070 1.7133040
v -0.2389360 -0.2389360 1.6987700
v -0.2975890 -0.2975890 1.6801430
v -0.3555250 -0.3555250 1.6574690
v -0.4126040 -0.4126040 1.6308020
v -0.4686890 -0.4686890 1.6002060
v -0.5236460 -0.5236460 1.5657550
v -0.5773400 -0.5773400 1.5275320
v -0.6296440 -0.6296450 1.4856290
v -0.6804320 -0.6804320 1.4401480
v -0.7295800 -0.7295800 1.3911960
v -0.7769700 -0.7769700 1.3388931
v -0.8224880 -0.8224880 1.2833650
v -0.8660250 -0.8660250 1.2247450
v -0.9074760 -0.9074760 1.1631740
v -0.9467400 -0.9467400 1.0988010
v -0.0656960 -0.0539160 1.7299640
v -0.1312340 -0.1077010 1.7237099
v -0.1964560 -0.1612280 1.7133040
v -0.2612050 -0.2143650 1.6987700
v -0.3253240 -0.2669870 1.6801430
v -0.3886600 -0.3189650 1.6574690
v -0.4510590 -0.3701750 1.6308020
v -0.5123720 -0.4204930 1.6002060
v -0.5724510 -0.4697980 1.5657550
v -0.6311500 -0.5179710 1.5275320
v -0.6883290 -0.5648970 1.4856290
v -0.7438490 -0.6104610 1.4401480
v -0.7975780 -0.6545550 1.3911960
v -0.8493850 -0.6970720 1.3388931
v -0.8991460 -0.7379090 1.2833650
v -0.9467400 -0.7769700 1.2247450
v -0.9920550 -0.8141580 1.1631740
v -1.0349780 -0.8493840 1.0988010
v -0.0706650 -0.0472170 1.7299640
v -0.1411590 -0.0943190 1.7237099
v -0.2113130 -0.1411950 1.7133040
v -0.2809590 -0.1877310 1.6987700
v -0.3499270 -0.2338140 1.6801430
v -0.4180530 -0.2793340 1.6574690
v -0.4851710 -0.3241810 1.6308020
v -0.5511210 -0.3682470 1.6002060
v -0.6157420 -0.4114260 1.5657550
v -0.6788800 -0.4536130 1.5275320
v -0.7403840 -0.4947090 1.4856290
v -0.8001030 -0.5346120 1.4401480
v -0.8578950 -0.5732270 1.3911960
v -0.9136200 -0.6104610 1.3388931
v -0.9671440 -0.6462250 1.2833650
v -1.0183380 -0.6804320 1.2247450
v -1.0670789 -0.7129990 1.1631740
v -1.1132489 -0.7438490 1.0988010
v -0.0749520 -0.0400630 1.7299640
v -0.1497240 -0.0800290 1.7237099
v -0.2241350 -0.1198030 1.7133040
v -0.2980070 -0.1592880 1.6987700
v -0.3711600 -0.1983890 1.6801430
v -0.4434190 -0.2370130 1.6574690
v -0.5146100 -0.2750650 1.6308020
v -0.5845610 -0.3124540 1.6002060
v -0.6531040 -0.3490910 1.5657550
v -0.7200730 -0.3848870 1.5275320
v -0.7853080 -0.4197560 1.4856290
v -0.8486510 -0.4536140 1.4401480
v -0.9099500 -0.4863780 1.3911960
v -0.9690560 -0.5179710 1.3388931
v -1.0258280 -0.5483160 1.2833650
v -1.0801280 -0.5773410 1.2247450
v -1.1318270 -0.6049740 1.1631740
v -1.1807981 -0.6311490 1.0988010
v -0.0785180 -0.0325230 1.7299640
v -0.1568480 -0.0649680 1.7237099
v -0.2347990 -0.0972570 1.7133040
v -0.3121840 -0.1293110 1.6987700
v -0.3888180 -0.1610540 1.6801430
v -0.4645150 -0.1924090 1.6574690
v -0.5390930 -0.2233000 1.6308020
v -0.6123720 -0.2536530 1.6002060
v -0.6841760 -0.2833950 1.5657550
v -0.7543310 -0.3124540 1.5275320
v -0.8226700 -0.3407610 1.4856290
v -0.8890270 -0.3682470 1.4401480
v -0.9532420 -0.3948450 1.3911960
v -1.0151600 -0.4204930 1.3388931
v -1.0746330 -0.4451270 1.2833650
v -1.1315171 -0.4686890 1.2247450
v -1.1856750 -0.4911230 1.1631740
v -1.2369760 -0.5123720 1.0988010
v -0.0813280 -0.0246710 1.7299640
v -0.1624600 -0.0492820 1.7237099
v -0.2432010 -0.0737740 1.7133040
v -0.3233560 -0.0980890 1.6987700
v -0.4027320 -0.1221670 1.6801430
v -0.4811380 -0.1459520 1.6574690
v -0.5583840 -0.1693840 1.6308020
v -0.6342860 -0.1924080 1.6002060
v -0.7086590 -0.2149690 1.5657550
v -0.7813250 -0.2370120 1.5275320
v -0.8521090 -0.2584850 1.4856290
v -0.9208400 -0.2793340 1.4401480
v -0.9873530 -0.2995100 1.3911960
v -1.0514870 -0.3189650 1.3388931
v -1.1130880 -0.3376510 1.2833650
v -1.1720080 -0.3555250 1.2247450
v -1.2281040 -0.3725410 1.1631740
v -1.2812400 -0.3886600 1.0988010
v -0.0833550 -0.0165800 1.7299640
v -0.1665080 -0.0331210 1.7237099
v -0.2492610 -0.0495810 1.7133040
v -0.3314130 -0.0659220 1.6987700
v -0.4127670 -0.0821040 1.6801430
v -0.4931270 -0.0980890 1.6574690
v -0.5722980 -0.1138370 1.6308020
v -0.6500910 -0.1293110 1.6002060
v -0.7263180 -0.1444740 1.5657550
v -0.8007940 -0.1592880 1.5275320
v -0.8733420 -0.1737190 1.4856290
v -0.9437860 -0.1877310 1.4401480
v -1.0119560 -0.2012900 1.3911960
v -1.0776880 -0.2143650 1.3388931
v -1.1408240 -0.2269240 1.2833650
v -1.2012120 -0.2389360 1.2247450
v -1.2587060 -0.2503720 1.1631740
v -1.3131660 -0.2612050 1.0988010
v -0.0845780 -0.0083300 1.7299640
v -0.1689530 -0.0166400 1.7237099
v -0.2529210 -0.0249110 1.7133040
v -0.3362790 -0.0331210 1.6987700
v -0.4188270 -0.0412510 1.6801430
v -0.5003670 -0.0492820 1.6574690
v -0.5807000 -0.0571940 1.6308020
v -0.6596350 -0.0649680 1.6002060
v -0.7369810 -0.0725860 1.5657550
v -0.8125510 -0.0800290 1.5275320
v -0.8861640 -0.0872800 1.4856290
v -0.9576420 -0.0943190 1.4401480
v -1.0268130 -0.1011320 1.3911960
v -1.0935100 -0.1077010 1.3388931
v -1.1575730 -0.1140110 1.2833650
v -1.2188470 -0.1200460 1.2247450
v -1.2771850 -0.1257920 1.1631740
v -1.3324460 -0.1312340 1.0988010
v 0.0000000 0.0000000 1.7320510
v -0.0849880 -0.0000000 1.7299640
v -0.1697710 -0.0000000 1.7237099
v -0.2541450 -0.0000000 1.7133040
v -0.3379060 -0.0000000 1.6987700
v -0.4208540 -0.0000000 1.6801430
v -0.5027880 -0.0000000 1.6574690
v -0.5835100 -0.0000000 1.6308020
v -0.6628270 -0.0000000 1.6002060
v -0.7405470 -0.0000000 1.5657550
v -0.8164820 -0.0000000 1.5275320
v -0.8904520 -0.0000000 1.4856290
v -0.9622760 -0.0000000 1.4401480
v -1.0317810 -0.0000000 1.3911960
v -1.0988010 -0.0000000 1.3388931
v -1.1631740 -0.0000000 1.2833650
v -1.2247450 -0.0000000 1.2247450
v -1.2833650 -0.0000000 1.1631740
v -1.3388931 -0.0000000 1.0988010
v 0.0000000 0.0000000 1.7320510
# 1232 vertices, 0 vertices normals

f 14 13 31
f 14 31 32
f 15 14 32
f 15 32 33
f 16 15 33
f 16 33 34
f 17 16 34
f 17 34 35
f 18 17 35
f 18 35 36
f 1 308 19
f 2 1 19
f 2 19 20
f 3 2 20
f 3 20 21
f 4 3 21
f 4 21 22
f 5 4 22
f 5 22 23
f 6 5 23
f 6 23 24
f 7 6 24
f 7 24 25
f 8 7 25
f 8 25 26
f 9 8 26
f 9 26 27
f 10 9 27
f 10 27 28
f 11 10 28
f 11 28 29
f 12 11 29
f 12 29 30
f 13 12 30
f 13 30 31
f 34 33 51
f 34 51 52
f 35 34 52
f 35 52 53
f 36 35 53
f 36 53 54
f 19 308 37
f 20 19 37
f 20 37 38
f 21 20 38
f 21 38 39
f 22 21 39
f 22 39 40
f 23 22 40
f 23 40 41
f 24 23 41
f 24 41 42
f 25 24 42
f 25 42 43
f 26 25 43
f 26 43 44
f 27 26 44
f 27 44 45
f 28 27 45
f 28 45 46
f 29 28 46
f 29 46 47
f 30 29 47
f 30 47 48
f 31 30 48
f 31 48 49
f 32 31 49
f 32 49 50
f 33 32 50
f 33 50 51
f 54 53 71
f 54 71 72
f 37 308 55
f 38 37 55
f 38 55 56
f 39 38 56
f 39 56 57
f 40 39 57
f 40 57 58
f 41 40 58
f 41 58 59
f 42 41 59
f 42 59 60
f 43 42 60
f 43 60 61
f 44 43 61
f 44 61 62
f 45 44 62
f 45 62 63
f 46 45 63
f 46 63 64
f 47 46 64
f 47 64 65
f 48 47 65
f 48 65 66
f 49 48 66
f 49 66 67
f 50 49 67
f 50 67 68
f 51 50 68
f 51 68 69
f 52 51 69
f 52 69 70
f 53 52 70
f 53 70 71
f 55 308 73
f 56 55 73
f 56 73 74
f 57 56 74
f 57 74 75
f 58 57 75
f 58 75 76
f 59 58 76
f 59 76 77
f 60 59 77
f 60 77 78
f 61 60 78
f 61 78 79
f 62 61 79
f 62 79 80
f 63 62 80
f 63 80 81
f 64 63 81
f 64 81 82
f 65 64 82
f 65 82 83
f 66 65 83
f 66 83 84
f 67 66 84
f 67 84 85
f 68 67 85
f 68 85 86
f 69 68 86
f 69 86 87
f 70 69 87
f 70 87 88
f 71 70 88
f 71 88 89
f 72 71 89
f 72 89 90
f 73 308 91
f 74 73 91
f 74 91 92
f 75 74 92
f 75 92 93
f 76 75 93
f 76 93 94
f 77 76 94
f 77 94 95
f 78 77 95
f 78 95 96
f 79 78 96
f 79 96 97
f 80 79 97
f 80 97 98
f 81 80 98
f 81 98 99
f 82 81 99
f 82 99 100
f 83 82 100
f 83 100 101
f 84 83 101
f 84 101 102
f 85 84 102
f 85 102 103
f 86 85 103
f 86 103 104
f 87 86 104
f 87 104 105
f 88 87 105
f 88 105 106
f 89 88 106
f 89 106 107
f 90 89 107
f 90 107 108
f 91 308 109
f 92 91 109
f 92 109 110
f 93 92 110
f 93 110 111
f 94 93 111
f 94 111 112
f 95 94 112
f 95 112 113
f 96 95 113
f 96 113 114
f 97 96 114
f 97 114 115
f 98 97 115
f 98 115 116
f 99 98 116
f 99 116 117
f 100 99 117
f 100 117 118
f 101 100 118
f 101 118 119
f 102 101 119
f 102 119 120
f 103 102 120
f 103 120 121
f 104 103 121
f 104 121 122
f 105 104 122
f 105 122 123
f 106 105 123
f 106 123 124
f 107 106 124
f 107 124 125
f 108 107 125
f 108 125 126
f 109 308 127
f 110 109 127
f 110 127 128
f 111 110 128
f 111 128 129
f 112 111 129
f 112 129 130
f 113 112 130
f 113 130 131
f 114 113 131
f 114 131 132
f 115 114 132
f 115 132 133
f 116 115 133
f 116 133 134
f 117 116 134
f 117 134 135
f 118 117 135
f 118 135 136
f 119 118 136
f 119 136 137
f 120 119 137
f 120 137 138
f 121 120 138
f 121 138 139
f 122 121 139
f 122 139 140
f 123 122 140
f 123 140 141
f 124 123 141
f 124 141 142
f 125 124 142
f 125 142 143
f 126 125 143
f 126 143 144
f 137 136 154
f 137 154 155
f 138 137 155
f 138 155 156
f 139 138 156
f 139 156 157
f 140 139 157
f 140 157 158
f 141 140 158
f 141 158 159
f 142 141 159
f 142 159 160
f 143 142 160
f 143 160 161
f 144 143 161
f 144 161 162
f 127 308 145
f 128 127 145
f 128 145 146
f 129 128 146
f 129 146 147
f 130 129 147
f 130 147 148
f 131 130 148
f 131 148 149
f 132 131 149
f 132 149 150
f 133 132 150
f 133 150 151
f 134 133 151
f 134 151 152
f 135 134 152
f 135 152 153
f 136 135 153
f 136 153 154
f 157 156 174
f 157 174 175
f 158 157 175
f 158 175 176
f 159 158 176
f 159 176 177
f 160 159 177
f 160 177 178
f 161 160 178
f 161 178 179
f 162 161 179
f 162 179 180
f 145 308 163
f 146 145 163
f 146 163 164
f 147 146 164
f 147 164 165
f 148 147 165
f 148 165 166
f 149 148 166
f 149 166 167
f 150 149 167
f 150 167 168
f 151 150 168
f 151 168 169
f 152 151 169
f 152 169 170
f 153 152 170
f 153 170 171
f 154 153 171
f 154 171 172
f 155 154 172
f 155 172 173
f 156 155 173
f 156 173 174
f 177 176 194
f 177 194 195
f 178 177 195
f 178 195 196
f 179 178 196
f 179 196 197
f 180 179 197
f 180 197 198
f 163 308 181
f 164 163 181
f 164 181 182
f 165 164 182
f 165 182 183
f 166 165 183
f 166 183 184
f 167 166 184
f 167 184 185
f 168 167 185
f 168 185 186
f 169 168 186
f 169 186 187
f 170 169 187
f 170 187 188
f 171 170 188
f 171 188 189
f 172 171 189
f 172 189 190
f 173 172 190
f 173 190 191
f 174 173 191
f 174 191 192
f 175 174 192
f 175 192 193
f 176 175 193
f 176 193 194
f 197 196 214
f 197 214 215
f 198 197 215
f 198 215 216
f 181 308 199
f 182 181 199
f 182 199 200
f 183 182 200
f 183 200 201
f 184 183 201
f 184 201 202
f 185 184 202
f 185 202 203
f 186 185 203
f 186 203 204
f 187 186 204
f 187 204 205
f 188 187 205
f 188 205 206
f 189 188 206
f 189 206 207
f 190 189 207
f 190 207 208
f 191 190 208
f 191 208 209
f 192 191 209
f 192 209 210
f 193 192 210
f 193 210 211
f 194 193 211
f 194 211 212
f 195 194 212
f 195 212 213
f 196 195 213
f 196 213 214
f 199 308 217
f 200 199 217
f 200 217 218
f 201 200 218
f 201 218 219
f 202 201 219
f 202 219 220
f 203 202 220
f 203 220 221
f 204 203 221
f 204 221 222
f 205 204 222
f 205 222 223
f 206 205 223
f 206 223 224
f 207 206 224
f 207 224 225
f 208 207 225
f 208 225 226
f 209 208 226
f 209 226 227
f 210 209 227
f 210 227 228
f 211 210 228
f 211 228 229
f 212 211 229
f 212 229 230
f 213 212 230
f 213 230 231
f 214 213 231
f 214 231 232
f 215 214 232
f 215 232 233
f 216 215 233
f 216 233 234
f 217 308 235
f 218 217 235
f 218 235 236
f 219 218 236
f 219 236 237
f 220 219 237
f 220 237 238
f 221 220 238
f 221 238 239
f 222 221 239
f 222 239 240
f 223 222 240
f 223 240 241
f 224 223 241
f 224 241 242
f 225 224 242
f 225 242 243
f 226 225 243
f 226 243 244
f 227 226 244
f 227 244 245
f 228 227 245
f 228 245 246
f 229 228 246
f 229 246 247
f 230 229 247
f 230 247 248
f 231 230 248
f 231 248 249
f 232 231 249
f 232 249 250
f 233 232 250
f 233 250 251
f 234 233 251
f 234 251 252
f 235 308 253
f 236 235 253
f 236 253 254
f 237 236 254
f 237 254 255
f 238 237 255
f 238 255 256
f 239 238 256
f 239 256 257
f 240 239 257
f 240 257 258
f 241 240 258
f 241 258 259
f 242 241 259
f 242 259 260
f 243 242 260
f 243 260 261
f 244 243 261
f 244 261 262
f 245 244 262
f 245 262 263
f 246 245 263
f 246 263 264
f 247 246 264
f 247 264 265
f 248 247 265
f 248 265 266
f 249 248 266
f 249 266 267
f 250 249 267
f 250 267 268
f 251 250 268
f 251 268 269
f 252 251 269
f 252 269 270
f 253 289 271
f 254 253 271
f 254 271 272
f 255 254 272
f 255 272 273
f 256 255 273
f 256 273 274
f 257 256 274
f 257 274 275
f 258 257 275
f 258 275 276
f 259 258 276
f 259 276 277
f 260 259 277
f 260 277 278
f 261 260 278
f 261 278 279
f 262 261 279
f 262 279 280
f 263 262 280
f 263 280 281
f 264 263 281
f 264 281 282
f 265 264 282
f 265 282 283
f 266 265 283
f 266 283 284
f 267 266 284
f 267 284 285
f 268 267 285
f 268 285 286
f 269 268 286
f 269 286 287
f 270 269 287
f 270 287 288
f 271 289 290
f 272 271 290
f 272 290 291
f 273 272 291
f 273 291 292
f 274 273 292
f 274 292 293
f 275 274 293
f 275 293 294
f 276 275 294
f 276 294 295
f 277 276 295
f 277 295 296
f 278 277 296
f 278 296 297
f 279 278 297
f 279 297 298
f 280 279 298
f 280 298 299
f 281 280 299
f 281 299 300
f 282 281 300
f 282 300 301
f 283 282 301
f 283 301 302
f 284 283 302
f 284 302 303
f 285 284 303
f 285 303 304
f 286 285 304
f 286 304 305
f 287 286 305
f 287 305 306
f 288 287 306
f 288 306 307
f 322 321 339
f 322 339 340
f 323 322 340
f 323 340 341
f 324 323 341
f 324 341 342
f 325 324 342
f 325 342 343
f 326 325 343
f 326 343 344
f 309 616 327
f 310 309 327
f 310 327 328
f 311 310 328
f 311 328 329
f 312 311 329
f 312 329 330
f 313 312 330
f 313 330 331
f 314 313 331
f 314 331 332
f 315 314 332
f 315 332 333
f 316 315 333
f 316 333 334
f 317 316 334
f 317 334 335
f 318 317 335
f 318 335 336
f 319 318 336
f 319 336 337
f 320 319 337
f 320 337 338
f 321 320 338
f 321 338 339
f 342 341 359
f 342 359 360
f 343 342 360
f 343 360 361
f 344 343 361
f 344 361 362
f 327 616 345
f 328 327 345
f 328 345 346
f 329 328 346
f 329 346 347
f 330 329 347
f 330 347 348
f 331 330 348
f 331 348 349
f 332 331 349
f 332 349 350
f 333 332 350
f 333 350 351
f 334 333 351
f 334 351 352
f 335 334 352
f 335 352 353
f 336 335 353
f 336 353 354
f 337 336 354
f 337 354 355
f 338 337 355
f 338 355 356
f 339 338 356
f 339 356 357
f 340 339 357
f 340 357 358
f 341 340 358
f 341 358 359
f 362 361 379
f 362 379 380
f 345 616 363
f 346 345 363
f 346 363 364
f 347 346 364
f 347 364 365
f 348 347 365
f 348 365 366
f 349 348 366
f 349 366 367
f 350 349 367
f 350 367 368
f 351 350 368
f 351 368 369
f 352 351 369
f 352 369 370
f 353 352 370
f 353 370 371
f 354 353 371
f 354 371 372
f 355 354 372
f 355 372 373
f 356 355 373
f 356 373 374
f 357 356 374
f 357 374 375
f 358 357 375
f 358 375 376
f 359 358 376
f 359 376 377
f 360 359 377
f 360 377 378
f 361 360 378
f 361 378 379
f 363 616 381
f 364 363 381
f 364 381 382
f 365 364 382
f 365 382 383
f 366 365 383
f 366 383 384
f 367 366 384
f 367 384 385
f 368 367 385
f 368 385 386
f 369 368 386
f 369 386 387
f 370 369 387
f 370 387 388
f 371 370 388
f 371 388 389
f 372 371 389
f 372 389 390
f 373 372 390
f 373 390 391
f 374 373 391
f 374 391 392
f 375 374 392
f 375 392 393
f 376 375 393
f 376 393 394
f 377 376 394
f 377 394 395
f 378 377 395
f 378 395 396
f 379 378 396
f 379 396 397
f 380 379 397
f 380 397 398
f 381 616 399
f 382 381 399
f 382 399 400
f 383 382 400
f 383 400 401
f 384 383 401
f 384 401 402
f 385 384 402
f 385 402 403
f 386 385 403
f 386 403 404
f 387 386 404
f 387 404 405
f 388 387 405
f 388 405 406
f 389 388 406
f 389 406 407
f 390 389 407
f 390 407 408
f 391 390 408
f 391 408 409
f 392 391 409
f 392 409 410
f 393 392 410
f 393 410 411
f 394 393 411
f 394 411 412
f 395 394 412
f 395 412 413
f 396 395 413
f 396 413 414
f 397 396 414
f 397 414 415
f 398 397 415
f 398 415 416
f 399 616 417
f 400 399 417
f 400 417 418
f 401 400 418
f 401 418 419
f 402 401 419
f 402 419 420
f 403 402 420
f 403 420 421
f 404 403 421
f 404 421 422
f 405 404 422
f 405 422 423
f 406 405 423
f 406 423 424
f 407 406 424
f 407 424 425
f 408 407 425
f 408 425 426
f 409 408 426
f 409 426 427
f 410 409 427
f 410 427 428
f 411 410 428
f 411 428 429
f 412 411 429
f 412 429 430
f 413 412 430
f 413 430 431
f 414 413 431
f 414 431 432
f 415 414 432
f 415 432 433
f 416 415 433
f 416 433 434
f 417 616 435
f 418 417 435
f 418 435 436
f 419 418 436
f 419 436 437
f 420 419 437
f 420 437 438
f 421 420 438
f 421 438 439
f 422 421 439
f 422 439 440
f 423 422 440
f 423 440 441
f 424 423 441
f 424 441 442
f 425 424 442
f 425 442 443
f 426 425 443
f 426 443 444
f 427 426 444
f 427 444 445
f 428 427 445
f 428 445 446
f 429 428 446
f 429 446 447
f 430 429 447
f 430 447 448
f 431 430 448
f 431 448 449
f 432 431 449
f 432 449 450
f 433 432 450
f 433 450 451
f 434 433 451
f 434 451 452
f 445 444 462
f 445 462 463
f 446 445 463
f 446 463 464
f 447 446 464
f 447 464 465
f 448 447 465
f 448 465 466
f 449 448 466
f 449 466 467
f 450 449 467
f 450 467 468
f 451 450 468
f 451 468 469
f 452 451 469
f 452 469 470
f 435 616 453
f 436 435 453
f 436 453 454
f 437 436 454
f 437 454 455
f 438 437 455
f 438 455 456
f 439 438 456
f 439 456 457
f 440 439 457
f 440 457 458
f 441 440 458
f 441 458 459
f 442 441 459
f 442 459 460
f 443 442 460
f 443 460 461
f 444 443 461
f 444 461 462
f 465 464 482
f 465 482 483
f 466 465 483
f 466 483 484
f 467 466 484
f 467 484 485
f 468 467 485
f 468 485 486
f 469 468 486
f 469 486 487
f 470 469 487
f 470 487 488
f 453 616 471
f 454 453 471
f 454 471 472
f 455 454 472
f 455 472 473
f 456 455 473
f 456 473 474
f 457 456 474
f 457 474 475
f 458 457 475
f 458 475 476
f 459 458 476
f 459 476 477
f 460 459 477
f 460 477 478
f 461 460 478
f 461 478 479
f 462 461 479
f 462 479 480
f 463 462 480
f 463 480 481
f 464 463 481
f 464 481 482
f 485 484 502
f 485 502 503
f 486 485 503
f 486 503 504
f 487 486 504
f 487 504 505
f 488 487 505
f 488 505 506
f 471 616 489
f 472 471 489
f 472 489 490
f 473 472 490
f 473 490 491
f 474 473 491
f 474 491 492
f 475 474 492
f 475 492 493
f 476 475 493
f 476 493 494
f 477 476 494
f 477 494 495
f 478 477 495
f 478 495 496
f 479 478 496
f 479 496 497
f 480 479 497
f 480 497 498
f 481 480 498
f 481 498 499
f 482 481 499
f 482 499 500
f 483 482 500
f 483 500 501
f 484 483 501
f 484 501 502
f 505 504 522
f 505 522 523
f 506 505 523
f 506 523 524
f 489 616 507
f 490 489 507
f 490 507 508
f 491 490 508
f 491 508 509
f 492 491 509
f 492 509 510
f 493 492 510
f 493 510 511
f 494 493 511
f 494 511 512
f 495 494 512
f 495 512 513
f 496 495 513
f 496 513 514
f 497 496 514
f 497 514 515
f 498 497 515
f 498 515 516
f 499 498 516
f 499 516 517
f 500 499 517
f 500 517 518
f 501 500 518
f 501 518 519
f 502 501 519
f 502 519 520
f 503 502 520
f 503 520 521
f 504 503 521
f 504 521 522
f 507 616 525
f 508 507 525
f 508 525 526
f 509 508 526
f 509 526 527
f 510 509 527
f 510 527 528
f 511 510 528
f 511 528 529
f 512 511 529
f 512 529 530
f 513 512 530
f 513 530 531
f 514 513 531
f 514 531 532
f 515 514 532
f 515 532 533
f 516 515 533
f 516 533 534
f 517 516 534
f 517 534 535
f 518 517 535
f 518 535 536
f 519 518 536
f 519 536 537
f 520 519 537
f 520 537 538
f 521 520 538
f 521 538 539
f 522 521 539
f 522 539 540
f 523 522 540
f 523 540 541
f 524 523 541
f 524 541 542
f 525 616 543
f 526 525 543
f 526 543 544
f 527 526 544
f 527 544 545
f 528 527 545
f 528 545 546
f 529 528 546
f 529 546 547
f 530 529 547
f 530 547 548
f 531 530 548
f 531 548 549
f 532 531 549
f 532 549 550
f 533 532 550
f 533 550 551
f 534 533 551
f 534 551 552
f 535 534 552
f 535 552 553
f 536 535 553
f 536 553 554
f 537 536 554
f 537 554 555
f 538 537 555
f 538 555 556
f 539 538 556
f 539 556 557
f 540 539 557
f 540 557 558
f 541 540 558
f 541 558 559
f 542 541 559
f 542 559 560
f 543 616 561
f 544 543 561
f 544 561 562
f 545 544 562
f 545 562 563
f 546 545 563
f 546 563 564
f 547 546 564
f 547 564 565
f 548 547 565
f 548 565 566
f 549 548 566
f 549 566 567
f 550 549 567
f 550 567 568
f 551 550 568
f 551 568 569
f 552 551 569
f 552 569 570
f 553 552 570
f 553 570 571
f 554 553 571
f 554 571 572
f 555 554 572
f 555 572 573
f 556 555 573
f 556 573 574
f 557 556 574
f 557 574 575
f 558 557 575
f 558 575 576
f 559 558 576
f 559 576 577
f 560 559 577
f 560 577 578
f 561 597 579
f 562 561 579
f 562 579 580
f 563 562 580
f 563 580 581
f 564 563 581
f 564 581 582
f 565 564 582
f 565 582 583
f 566 565 583
f 566 583 584
f 567 566 584
f 567 584 585
f 568 567 585
f 568 585 586
f 569 568 586
f 569 586 587
f 570 569 587
f 570 587 588
f 571 570 588
f 571 588 589
f 572 571 589
f 572 589 590
f 573 572 590
f 573 590 591
f 574 573 591
f 574 591 592
f 575 574 592
f 575 592 593
f 576 575 593
f 576 593 594
f 577 576 594
f 577 594 595
f 578 577 595
f 578 595 596
f 579 597 598
f 580 579 598
f 580 598 599
f 581 580 599
f 581 599 600
f 582 581 600
f 582 600 601
f 583 582 601
f 583 601 602
f 584 583 602
f 584 602 603
f 585 584 603
f 585 603 604
f 586 585 604
f 586 604 605
f 587 586 605
f 587 605 606
f 588 587 606
f 588 606 607
f 589 588 607
f 589 607 608
f 590 589 608
f 590 608 609
f 591 590 609
f 591 609 610
f 592 591 610
f 592 610 611
f 593 592 611
f 593 611 612
f 594 593 612
f 594 612 613
f 595 594 613
f 595 613 614
f 596 595 614
f 596 614 615
f 630 629 647
f 630 647 648
f 631 630 648
f 631 648 649
f 632 631 649
f 632 649 650
f 633 632 650
f 633 650 651
f 634 633 651
f 634 651 652
f 617 924 635
f 618 617 635
f 618 635 636
f 619 618 636
f 619 636 637
f 620 619 637
f 620 637 638
f 621 620 638
f 621 638 639
f 622 621 639
f 622 639 640
f 623 622 640
f 623 640 641
f 624 623 641
f 624 641 642
f 625 624 642
f 625 642 643
f 626 625 643
f 626 643 644
f 627 626 644
f 627 644 645
f 628 627 645
f 628 645 646
f 629 628 646
f 629 646 647
f 650 649 667
f 650 667 668
f 651 650 668
f 651 668 669
f 652 651 669
f 652 669 670
f 635 924 653
f 636 635 653
f 636 653 654
f 637 636 654
f 637 654 655
f 638 637 655
f 638 655 656
f 639 638 656
f 639 656 657
f 640 639 657
f 640 657 658
f 641 640 658
f 641 658 659
f 642 641 659
f 642 659 660
f 643 642 660
f 643 660 661
f 644 643 661
f 644 661 662
f 645 644 662
f 645 662 663
f 646 645 663
f 646 663 664
f 647 646 664
f 647 664 665
f 648 647 665
f 648 665 666
f 649 648 666
f 649 666 667
f 670 669 687
f 670 687 688
f 653 924 671
f 654 653 671
f 654 671 672
f 655 654 672
f 655 672 673
f 656 655 673
f 656 673 674
f 657 656 674
f 657 674 675
f 658 657 675
f 658 675 676
f 659 658 676
f 659 676 677
f 660 659 677
f 660 677 678
f 661 660 678
f 661 678 679
f 662 661 679
f 662 679 680
f 663 662 680
f 663 680 681
f 664 663 681
f 664 681 682
f 665 664 682
f 665 682 683
f 666 665 683
f 666 683 684
f 667 666 684
f 667 684 685
f 668 667 685
f 668 685 686
f 669 668 686
f 669 686 687
f 671 924 689
f 672 671 689
f 672 689 690
f 673 672 690
f 673 690 691
f 674 673 691
f 674 691 692
f 675 674 692
f 675 692 693
f 676 675 693
f 676 693 694
f 677 676 694
f 677 694 695
f 678 677 695
f 678 695 696
f 679 678 696
f 679 696 697
f 680 679 697
f 680 697 698
f 681 680 698
f 681 698 699
f 682 681 699
f 682 699 700
f 683 682 700
f 683 700 701
f 684 683 701
f 684 701 702
f 685 684 702
f 685 702 703
f 686 685 703
f 686 703 704
f 687 686 704
f 687 704 705
f 688 687 705
f 688 705 706
f 689 924 707
f 690 689 707
f 690 707 708
f 691 690 708
f 691 708 709
f 692 691 709
f 692 709 710
f 693 692 710
f 693 710 711
f 694 693 711
f 694 711 712
f 695 694 712
f 695 712 713
f 696 695 713
f 696 713 714
f 697 696 714
f 697 714 715
f 698 697 715
f 698 715 716
f 699 698 716
f 699 716 717
f 700 699 717
f 700 717 718
f 701 700 718
f 701 718 719
f 702 701 719
f 702 719 720
f 703 702 720
f 703 720 721
f 704 703 721
f 704 721 722
f 705 704 722
f 705 722 723
f 706 705 723
f 706 723 724
f 707 924 725
f 708 707 725
f 708 725 726
f 709 708 726
f 709 726 727
f 710 709 727
f 710 727 728
f 711 710 728
f 711 728 729
f 712 711 729
f 712 729 730
f 713 712 730
f 713 730 731
f 714 713 731
f 714 731 732
f 715 714 732
f 715 732 733
f 716 715 733
f 716 733 734
f 717 716 734
f 717 734 735
f 718 717 735
f 718 735 736
f 719 718 736
f 719 736 737
f 720 719 737
f 720 737 738
f 721 720 738
f 721 738 739
f 722 721 739
f 722 739 740
f 723 722 740
f 723 740 741
f 724 723 741
f 724 741 742
f 725 924 743
f 726 725 743
f 726 743 744
f 727 726 744
f 727 744 745
f 728 727 745
f 728 745 746
f 729 728 746
f 729 746 747
f 730 729 747
f 730 747 748
f 731 730 748
f 731 748 749
f 732 731 749
f 732 749 750
f 733 732 750
f 733 750 751
f 734 733 751
f 734 751 752
f 735 734 752
f 735 752 753
f 736 735 753
f 736 753 754
f 737 736 754
f 737 754 755
f 738 737 755
f 738 755 756
f 739 738 756
f 739 756 757
f 740 739 757
f 740 757 758
f 741 740 758
f 741 758 759
f 742 741 759
f 742 759 760
f 753 752 770
f 753 770 771
f 754 753 771
f 754 771 772
f 755 754 772
f 755 772 773
f 756 755 773
f 756 773 774
f 757 756 774
f 757 774 775
f 758 757 775
f 758 775 776
f 759 758 776
f 759 776 777
f 760 759 777
f 760 777 778
f 743 924 761
f 744 743 761
f 744 761 762
f 745 744 762
f 745 762 763
f 746 745 763
f 746 763 764
f 747 746 764
f 747 764 765
f 748 747 765
f 748 765 766
f 749 748 766
f 749 766 767
f 750 749 767
f 750 767 768
f 751 750 768
f 751 768 769
f 752 751 769
f 752 769 770
f 773 772 790
f 773 790 791
f 774 773 791
f 774 791 792
f 775 774 792
f 775 792 793
f 776 775 793
f 776 793 794
f 777 776 794
f 777 794 795
f 778 777 795
f 778 795 796
f 761 924 779
f 762 761 779
f 762 779 780
f 763 762 780
f 763 780 781
f 764 763 781
f 764 781 782
f 765 764 782
f 765 782 783
f 766 765 783
f 766 783 784
f 767 766 784
f 767 784 785
f 768 767 785
f 768 785 786
f 769 768 786
f 769 786 787
f 770 769 787
f 770 787 788
f 771 770 788
f 771 788 789
f 772 771 789
f 772 789 790
f 793 792 810
f 793 810 811
f 794 793 811
f 794 811 812
f 795 794 812
f 795 812 813
f 796 795 813
f 796 813 814
f 779 924 797
f 780 779 797
f 780 797 798
f 781 780 798
f 781 798 799
f 782 781 799
f 782 799 800
f 783 782 800
f 783 800 801
f 784 783 801
f 784 801 802
f 785 784 802
f 785 802 803
f 786 785 803
f 786 803 804
f 787 786 804
f 787 804 805
f 788 787 805
f 788 805 806
f 789 788 806
f 789 806 807
f 790 789 807
f 790 807 808
f 791 790 808
f 791 808 809
f 792 791 809
f 792 809 810
f 813 812 830
f 813 830 831
f 814 813 831
f 814 831 832
f 797 924 815
f 798 797 815
f 798 815 816
f 799 798 816
f 799 816 817
f 800 799 817
f 800 817 818
f 801 800 818
f 801 818 819
f 802 801 819
f 802 819 820
f 803 802 820
f 803 820 821
f 804 803 821
f 804 821 822
f 805 804 822
f 805 822 823
f 806 805 823
f 806 823 824
f 807 806 824
f 807 824 825
f 808 807 825
f 808 825 826
f 809 808 826
f 809 826 827
f 810 809 827
f 810 827 828
f 811 810 828
f 811 828 829
f 812 811 829
f 812 829 830
f 815 924 833
f 816 815 833
f 816 833 834
f 817 816 834
f 817 834 835
f 818 817 835
f 818 835 836
f 819 818 836
f 819 836 837
f 820 819 837
f 820 837 838
f 821 820 838
f 821 838 839
f 822 821 839
f 822 839 840
f 823 822 840
f 823 840 841
f 824 823 841
f 824 841 842
f 825 824 842
f 825 842 843
f 826 825 843
f 826 843 844
f 827 826 844
f 827 844 845
f 828 827 845
f 828 845 846
f 829 828 846
f 829 846 847
f 830 829 847
f 830 847 848
f 831 830 848
f 831 848 849
f 832 831 849
f 832 849 850
f 833 924 851
f 834 833 851
f 834 851 852
f 835 834 852
f 835 852 853
f 836 835 853
f 836 853 854
f 837 836 854
f 837 854 855
f 838 837 855
f 838 855 856
f 839 838 856
f 839 856 857
f 840 839 857
f 840 857 858
f 841 840 858
f 841 858 859
f 842 841 859
f 842 859 860
f 843 842 860
f 843 860 861
f 844 843 861
f 844 861 862
f 845 844 862
f 845 862 863
f 846 845 863
f 846 863 864
f 847 846 864
f 847 864 865
f 848 847 865
f 848 865 866
f 849 848 866
f 849 866 867
f 850 849 867
f 850 867 868
f 851 924 869
f 852 851 869
f 852 869 870
f 853 852 870
f 853 870 871
f 854 853 871
f 854 871 872
f 855 854 872
f 855 872 873
f 856 855 873
f 856 873 874
f 857 856 874
f 857 874 875
f 858 857 875
f 858 875 876
f 859 858 876
f 859 876 877
f 860 859 877
f 860 877 878
f 861 860 878
f 861 878 879
f 862 861 879
f 862 879 880
f 863 862 880
f 863 880 881
f 864 863 881
f 864 881 882
f 865 864 882
f 865 882 883
f 866 865 883
f 866 883 884
f 867 866 884
f 867 884 885
f 868 867 885
f 868 885 886
f 869 905 887
f 870 869 887
f 870 887 888
f 871 870 888
f 871 888 889
f 872 871 889
f 872 889 890
f 873 872 890
f 873 890 891
f 874 873 891
f 874 891 892
f 875 874 892
f 875 892 893
f 876 875 893
f 876 893 894
f 877 876 894
f 877 894 895
f 878 877 895
f 878 895 896
f 879 878 896
f 879 896 897
f 880 879 897
f 880 897 898
f 881 880 898
f 881 898 899
f 882 881 899
f 882 899 900
f 883 882 900
f 883 900 901
f 884 883 901
f 884 901 902
f 885 884 902
f 885 902 903
f 886 885 903
f 886 903 904
f 887 905 906
f 888 887 906
f 888 906 907
f 889 888 907
f 889 907 908
f 890 889 908
f 890 908 909
f 891 890 909
f 891 909 910
f 892 891 910
f 892 910 911
f 893 892 911
f 893 911 912
f 894 893 912
f 894 912 913
f 895 894 913
f 895 913 914
f 896 895 914
f 896 914 915
f 897 896 915
f 897 915 916
f 898 897 916
f 898 916 917
f 899 898 917
f 899 917 918
f 900 899 918
f 900 918 919
f 901 900 919
f 901 919 920
f 902 901 920
f 902 920 921
f 903 902 921
f 903 921 922
f 904 903 922
f 904 922 923
f 938 937 955
f 938 955 956
f 939 938 956
f 939 956 957
f 940 939 957
f 940 957 958
f 941 940 958
f 941 958 959
f 942 941 959
f 942 959 960
f 925 1232 943
f 926 925 943
f 926 943 944
f 927 926 944
f 927 944 945
f 928 927 945
f 928 945 946
f 929 928 946
f 929 946 947
f 930 929 947
f 930 947 948
f 931 930 948
f 931 948 949
f 932 931 949
f 932 949 950
f 933 932 950
f 933 950 951
f 934 933 951
f 934 951 952
f 935 934 952
f 935 952 953
f 936 935 953
f 936 953 954
f 937 936 954
f 937 954 955
f 958 957 975
f 958 975 976
f 959 958 976
f 959 976 977
f 960 959 977
f 960 977 978
f 943 1232 961
f 944 943 961
f 944 961 962
f 945 944 962
f 945 962 963
f 946 945 963
f 946 963 964
f 947 946 964
f 947 964 965
f 948 947 965
f 948 965 966
f 949 948 966
f 949 966 967
f 950 949 967
f 950 967 968
f 951 950 968
f 951 968 969
f 952 951 969
f 952 969 970
f 953 952 970
f 953 970 971
f 954 953 971
f 954 971 972
f 955 954 972
f 955 972 973
f 956 955 973
f 956 973 974
f 957 956 974
f 957 974 975
f 978 977 995
f 978 995 996
f 961 1232 979
f 962 961 979
f 962 979 980
f 963 962 980
f 963 980 981
f 964 963 981
f 964 981 982
f 965 964 982
f 965 982 983
f 966 965 983
f 966 983 984
f 967 966 984
f 967 984 985
f 968 967 985
f 968 985 986
f 969 968 986
f 969 986 987
f 970 969 987
f 970 987 988
f 971 970 988
f 971 988 989
f 972 971 989
f 972 989 990
f 973 972 990
f 973 990 991
f 974 973 991
f 974 991 992
f 975 974 992
f 975 992 993
f 976 975 993
f 976 993 994
f 977 976 994
f 977 994 995
f 979 1232 997
f 980 979 997
f 980 997 998
f 981 980 998
f 981 998 999
f 982 981 999
f 982 999 1000
f 983 982 1000
f 983 1000 1001
f 984 983 1001
f 984 1001 1002
f 985 984 1002
f 985 1002 1003
f 986 985 1003
f 986 1003 1004
f 987 986 1004
f 987 1004 1005
f 988 987 1005
f 988 1005 1006
f 989 988 1006
f 989 1006 1007
f 990 989 1007
f 990 1007 1008
f 991 990 1008
f 991 1008 1009
f 992 991 1009
f 992 1009 1010
f 993 992 1010
f 993 1010 1011
f 994 993 1011
f 994 1011 1012
f 995 994 1012
f 995 1012 1013
f 996 995 1013
f 996 1013 1014
f 997 1232 1015
f 998 997 1015
f 998 1015 1016
f 999 998 1016
f 999 1016 1017
f 1000 999 1017
f 1000 1017 1018
f 1001 1000 1018
f 1001 1018 1019
f 1002 1001 1019
f 1002 1019 1020
f 1003 1002 1020
f 1003 1020 1021
f 1004 1003 1021
f 1004 1021 1022
f 1005 1004 1022
f 1005 1022 1023
f 1006 1005 1023
f 1006 1023 1024
f 1007 1006 1024
f 1007 1024 1025
f 1008 1007 1025
f 1008 1025 1026
f 1009 1008 1026
f 1009 1026 1027
f 1010 1009 1027
f 1010 1027 1028
f 1011 1010 1028
f 1011 1028 1029
f 1012 1011 1029
f 1012 1029 1030
f 1013 1012 1030
f 1013 1030 1031
f 1014 1013 1031
f 1014 1031 1032
f 1015 1232 1033
f 1016 1015 1033
f 1016 1033 1034
f 1017 1016 1034
f 1017 1034 1035
f 1018 1017 1035
f 1018 1035 1036
f 1019 1018 1036
f 1019 1036 1037
f 1020 1019 1037
f 1020 1037 1038
f 1021 1020 1038
f 1021 1038 1039
f 1022 1021 1039
f 1022 1039 1040
f 1023 1022 1040
f 1023 1040 1041
f 1024 1023 1041
f 1024 1041 1042
f 1025 1024 1042
f 1025 1042 1043
f 1026 1025 1043
f 1026 1043 1044
f 1027 1026 1044
f 1027 1044 1045
f 1028 1027 1045
f 1028 1045 1046
f 1029 1028 1046
f 1029 1046 1047
f 1030 1029 1047
f 1030 1047 1048
f 1031 1030 1048
f 1031 1048 1049
f 1032 1031 1049
f 1032 1049 1050
f 1033 1232 1051
f 1034 1033 1051
f 1034 1051 1052
f 1035 1034 1052
f 1035 1052 1053
f 1036 1035 1053
f 1036 1053 1054
f 1037 1036 1054
f 1037 1054 1055
f 1038 1037 1055
f 1038 1055 1056
f 1039 1038 1056
f 1039 1056 1057
f 1040 1039 1057
f 1040 1057 1058
f 1041 1040 1058
f 1041 1058 1059
f 1042 1041 1059
f 1042 1059 1060
f 1043 1042 1060
f 1043 1060 1061
f 1044 1043 1061
f 1044 1061 1062
f 1045 1044 1062
f 1045 1062 1063
f 1046 1045 1063
f 1046 1063 1064
f 1047 1046 1064
f 1047 1064 1065
f 1048 1047 1065
f 1048 1065 1066
f 1049 1048 1066
f 1049 1066 1067
f 1050 1049 1067
f 1050 1067 1068
f 1061 1060 1078
f 1061 1078 1079
f 1062 1061 1079
f 1062 1079 1080
f 1063 1062 1080
f 1063 1080 1081
f 1064 1063 1081
f 1064 1081 1082
f 1065 1064 1082
f 1065 1082 1083
f 1066 1065 1083
f 1066 1083 1084
f 1067 1066 1084
f 1067 1084 1085
f 1068 1067 1085
f 1068 1085 1086
f 1051 1232 1069
f 1052 1051 1069
f 1052 1069 1070
f 1053 1052 1070
f 1053 1070 1071
f 1054 1053 1071
f 1054 1071 1072
f 1055 1054 1072
f 1055 1072 1073
f 1056 1055 1073
f 1056 1073 1074
f 1057 1056 1074
f 1057 1074 1075
f 1058 1057 1075
f 1058 1075 1076
f 1059 1058 1076
f 1059 1076 1077
f 1060 1059 1077
f 1060 1077 1078
f 1081 1080 1098
f 1081 1098 1099
f 1082 1081 1099
f 1082 1099 1100
f 1083 1082 1100
f 1083 1100 1101
f 1084 1083 1101
f 1084 1101 1102
f 1085 1084 1102
f 1085 1102 1103
f 1086 1085 1103
f 1086 1103 1104
f 1069 1232 1087
f 1070 1069 1087
f 1070 1087 1088
f 1071 1070 1088
f 1071 1088 1089
f 1072 1071 1089
f 1072 1089 1090
f 1073 1072 1090
f 1073 1090 1091
f 1074 1073 1091
f 1074 1091 1092
f 1075 1074 1092
f 1075 1092 1093
f 1076 1075 1093
f 1076 1093 1094
f 1077 1076 1094
f 1077 1094 1095
f 1078 1077 1095
f 1078 1095 1096
f 1079 1078 1096
f 1079 1096 1097
f 1080 1079 1097
f 1080 1097 1098
f 1101 1100 1118
f 1101 1118 1119
f 1102 1101 1119
f 1102 1119 1120
f 1103 1102 1120
f 1103 1120 1121
f 1104 1103 1121
f 1104 1121 1122
f 1087 1232 1105
f 1088 1087 1105
f 1088 1105 1106
f 1089 1088 1106
f 1089 1106 1107
f 1090 1089 1107
f 1090 1107 1108
f 1091 1090 1108
f 1091 1108 1109
f 1092 1091 1109
f 1092 1109 1110
f 1093 1092 1110
f 1093 1110 1111
f 1094 1093 1111
f 1094 1111 1112
f 1095 1094 1112
f 1095 1112 1113
f 1096 1095 1113
f 1096 1113 1114
f 1097 1096 1114
f 1097 1114 1115
f 1098 1097 1115
f 1098 1115 1116
f 1099 1098 1116
f 1099 1116 1117
f 1100 1099 1117
f 1100 1117 1118
f 1121 1120 1138
f 1121 1138 1139
f 1122 1121 1139
f 1122 1139 1140
f 1105 1232 1123
f 1106 1105 1123
f 1106 1123 1124
f 1107 1106 1124
f 1107 1124 1125
f 1108 1107 1125
f 1108 1125 1126
f 1109 1108 1126
f 1109 1126 1127
f 1110 1109 1127
f 1110 1127 1128
f 1111 1110 1128
f 1111 1128 1129
f 1112 1111 1129
f 1112 1129 1130
f 1113 1112 1130
f 1113 1130 1131
f 1114 1113 1131
f 1114 1131 1132
f 1115 1114 1132
f 1115 1132 1133
f 1116 1115 1133
f 1116 1133 1134
f 1117 1116 1134
f 1117 1134 1135
f 1118 1117 1135
f 1118 1135 1136
f 1119 1118 1136
f 1119 1136 1137
f 1120 1119 1137
f 1120 1137 1138
f 1123 1232 1141
f 1124 1123 1141
f 1124 1141 1142
f 1125 1124 1142
f 1125 1142 1143
f 1126 1125 1143
f 1126 1143 1144
f 1127 1126 1144
f 1127 1144 1145
f 1128 1127 1145
f 1128 1145 1146
f 1129 1128 1146
f 1129 1146 1147
f 1130 1129 1147
f 1130 1147 1148
f 1131 1130 1148
f 1131 1148 1149
f 1132 1131 1149
f 1132 1149 1150
f 1133 1132 1150
f 1133 1150 1151
f 1134 1133 1151
f 1134 1151 1152
f 1135 1134 1152
f 1135 1152 1153
f 1136 1135 1153
f 1136 1153 1154
f 1137 1136 1154
f 1137 1154 1155
f 1138 1137 1155
f 1138 1155 1156
f 1139 1138 1156
f 1139 1156 1157
f 1140 1139 1157
f 1140 1157 1158
f 1141 1232 1159
f 1142 1141 1159
f 1142 1159 1160
f 1143 1142 1160
f 1143 1160 1161
f 1144 1143 1161
f 1144 1161 1162
f 1145 1144 1162
f 1145 1162 1163
f 1146 1145 1163
f 1146 1163 1164
f 1147 1146 1164
f 1147 1164 1165
f 1148 1147 1165
f 1148 1165 1166
f 1149 1148 1166
f 1149 1166 1167
f 1150 1149 1167
f 1150 1167 1168
f 1151 1150 1168
f 1151 1168 1169
f 1152 1151 1169
f 1152 1169 1170
f 1153 1152 1170
f 1153 1170 1171
f 1154 1153 1171
f 1154 1171 1172
f 1155 1154 1172
f 1155 1172 1173
f 1156 1155 1173
f 1156 1173 1174
f 1157 1156 1174
f 1157 1174 1175
f 1158 1157 1175
f 1158 1175 1176
f 1159 1232 1177
f 1160 1159 1177
f 1160 1177 1178
f 1161 1160 1178
f 1161 1178 1179
f 1162 1161 1179
f 1162 1179 1180
f 1163 1162 1180
f 1163 1180 1181
f 1164 1163 1181
f 1164 1181 1182
f 1165 1164 1182
f 1165 1182 1183
f 1166 1165 1183
f 1166 1183 1184
f 1167 1166 1184
f 1167 1184 1185
f 1168 1167 1185
f 1168 1185 1186
f 1169 1168 1186
f 1169 1186 1187
f 1170 1169 1187
f 1170 1187 1188
f 1171 1170 1188
f 1171 1188 1189
f 1172 1171 1189
f 1172 1189 1190
f 1173 1172 1190
f 1173 1190 1191
f 1174 1173 1191
f 1174 1191 1192
f 1175 1174 1192
f 1175 1192 1193
f 1176 1175 1193
f 1176 1193 1194
f 1177 1213 1195
f 1178 1177 1195
f 1178 1195 1196
f 1179 1178 1196
f 1179 1196 1197
f 1180 1179 1197
f 1180 1197 1198
f 1181 1180 1198
f 1181 1198 1199
f 1182 1181 1199
f 1182 1199 1200
f 1183 1182 1200
f 1183 1200 1201
f 1184 1183 1201
f 1184 1201 1202
f 1185 1184 1202
f 1185 1202 1203
f 1186 1185 1203
f 1186 1203 1204
f 1187 1186 1204
f 1187 1204 1205
f 1188 1187 1205
f 1188 1205 1206
f 1189 1188 1206
f 1189 1206 1207
f 1190 1189 1207
f 1190 1207 1208
f 1191 1190 1208
f 1191 1208 1209
f 1192 1191 1209
f 1192 1209 1210
f 1193 1192 1210
f 1193 1210 1211
f 1194 1193 1211
f 1194 1211 1212
f 1195 1213 1214
f 1196 1195 1214
f 1196 1214 1215
f 1197 1196 1215
f 1197 1215 1216
f 1198 1197 1216
f 1198 1216 1217
f 1199 1198 1217
f 1199 1217 1218
f 1200 1199 1218
f 1200 1218 1219
f 1201 1200 1219
f 1201 1219 1220
f 1202 1201 1220
f 1202 1220 1221
f 1203 1202 1221
f 1203 1221 1222
f 1204 1203 1222
f 1204 1222 1223
f 1205 1204 1223
f 1205 1223 1224
f 1206 1205 1224
f 1206 1224 1225
f 1207 1206 1225
f 1207 1225 1226
f 1208 1207 1226
f 1208 1226 1227
f 1209 1208 1227
f 1209 1227 1228
f 1210 1209 1228
f 1210 1228 1229
f 1211 1210 1229
f 1211 1229 1230
f 1212 1211 1230
f 1212 1230 1231
l 1 1
l 1 1
l 1 1
l 1 1
# 2240 faces, 0 coords texture

# End of File
