####
#
# OBJ File Generated by Meshlab
#
####
# Object box-lighting.obj
#
# Vertices: 1436
# Faces: 2624
#
####
v 0.0849880 0.0000000 1.7299640
v 0.1697710 0.0000000 1.7237099
v 0.2541450 0.0000000 1.7133040
v 0.3379060 0.0000000 1.6987700
v 0.4208540 0.0000000 1.6801430
v 0.5027880 0.0000000 1.6574690
v 0.5835100 0.0000000 1.6308020
v 0.6628270 0.0000000 1.6002060
v 0.7405470 0.0000000 1.5657550
v 0.8164830 0.0000000 1.5275320
v 0.8904520 0.0000000 1.4856290
v 0.9622760 0.0000000 1.4401480
v 1.0317810 0.0000000 1.3911960
v 1.0988010 0.0000000 1.3388931
v 1.1631740 0.0000000 1.2833650
v 1.2247450 0.0000000 1.2247450
v 1.2833650 0.0000000 1.1631740
v 1.3388931 0.0000000 1.0988010
v 1.3911951 0.0000000 1.0317810
v 1.4401470 0.0000000 0.9622760
v 1.4856290 0.0000000 0.8904520
v 0.0845780 -0.0083300 1.7299640
v 0.1689530 -0.0166400 1.7237099
v 0.2529210 -0.0249110 1.7133040
v 0.3362790 -0.0331210 1.6987700
v 0.4188270 -0.0412510 1.6801430
v 0.5003670 -0.0492820 1.6574690
v 0.5807000 -0.0571940 1.6308020
v 0.6596350 -0.0649680 1.6002060
v 0.7369810 -0.0725860 1.5657550
v 0.8125510 -0.0800290 1.5275320
v 0.8861640 -0.0872790 1.4856290
v 0.9576420 -0.0943190 1.4401480
v 1.0268130 -0.1011320 1.3911960
v 1.0935100 -0.1077010 1.3388931
v 1.1575730 -0.1140110 1.2833650
v 1.2188470 -0.1200460 1.2247450
v 1.2771850 -0.1257920 1.1631740
v 1.3324460 -0.1312350 1.0988010
v 1.3844960 -0.1363610 1.0317810
v 1.4332120 -0.1411590 0.9622760
v 1.4784750 -0.1456170 0.8904520
v 0.0833550 -0.0165800 1.7299640
v 0.1665090 -0.0331210 1.7237099
v 0.2492610 -0.0495810 1.7133040
v 0.3314130 -0.0659220 1.6987700
v 0.4127670 -0.0821050 1.6801430
v 0.4931270 -0.0980890 1.6574690
v 0.5722980 -0.1138370 1.6308020
v 0.6500910 -0.1293110 1.6002060
v 0.7263180 -0.1444730 1.5657550
v 0.8007940 -0.1592880 1.5275320
v 0.8733420 -0.1737180 1.4856290
v 0.9437860 -0.1877310 1.4401480
v 1.0119560 -0.2012910 1.3911960
v 1.0776880 -0.2143660 1.3388931
v 1.1408240 -0.2269240 1.2833650
v 1.2012110 -0.2389360 1.2247450
v 1.2587050 -0.2503720 1.1631740
v 1.3131660 -0.2612050 1.0988010
v 1.3644640 -0.2714090 1.0317810
v 1.4124750 -0.2809590 0.9622760
v 1.4570830 -0.2898320 0.8904520
v 0.0813280 -0.0246710 1.7299640
v 0.1624600 -0.0492820 1.7237099
v 0.2432010 -0.0737740 1.7133040
v 0.3233560 -0.0980890 1.6987700
v 0.4027320 -0.1221670 1.6801430
v 0.4811380 -0.1459520 1.6574690
v 0.5583840 -0.1693840 1.6308020
v 0.6342860 -0.1924090 1.6002060
v 0.7086590 -0.2149690 1.5657550
v 0.7813250 -0.2370120 1.5275320
v 0.8521090 -0.2584840 1.4856290
v 0.9208400 -0.2793340 1.4401480
v 0.9873530 -0.2995100 1.3911960
v 1.0514870 -0.3189650 1.3388931
v 1.1130880 -0.3376520 1.2833650
v 1.1720070 -0.3555250 1.2247450
v 1.2281040 -0.3725410 1.1631740
v 1.2812400 -0.3886600 1.0988010
v 1.3312910 -0.4038430 1.0317810
v 1.3781350 -0.4180520 0.9622760
v 1.4216580 -0.4312550 0.8904520
v 0.0785180 -0.0325230 1.7299640
v 0.1568480 -0.0649680 1.7237099
v 0.2347990 -0.0972570 1.7133040
v 0.3121850 -0.1293110 1.6987700
v 0.3888180 -0.1610540 1.6801430
v 0.4645150 -0.1924090 1.6574690
v 0.5390930 -0.2233000 1.6308020
v 0.6123720 -0.2536530 1.6002060
v 0.6841760 -0.2833950 1.5657550
v 0.7543310 -0.3124540 1.5275320
v 0.8226700 -0.3407610 1.4856290
v 0.8890270 -0.3682470 1.4401480
v 0.9532420 -0.3948460 1.3911960
v 1.0151600 -0.4204930 1.3388931
v 1.0746320 -0.4451280 1.2833650
v 1.1315160 -0.4686890 1.2247450
v 1.1856750 -0.4911220 1.1631740
v 1.2369760 -0.5123720 1.0988010
v 1.2852970 -0.5323870 1.0317810
v 1.3305219 -0.5511200 0.9622760
v 1.3725420 -0.5685250 0.8904520
v 0.0749520 -0.0400630 1.7299640
v 0.1497240 -0.0800290 1.7237099
v 0.2241350 -0.1198030 1.7133040
v 0.2980070 -0.1592880 1.6987700
v 0.3711600 -0.1983890 1.6801430
v 0.4434190 -0.2370130 1.6574690
v 0.5146100 -0.2750650 1.6308020
v 0.5845610 -0.3124550 1.6002060
v 0.6531040 -0.3490910 1.5657550
v 0.7200730 -0.3848870 1.5275320
v 0.7853080 -0.4197560 1.4856290
v 0.8486510 -0.4536140 1.4401480
v 0.9099500 -0.4863780 1.3911960
v 0.9690560 -0.5179710 1.3388931
v 1.0258280 -0.5483160 1.2833650
v 1.0801280 -0.5773410 1.2247450
v 1.1318270 -0.6049740 1.1631740
v 1.1807981 -0.6311500 1.0988010
v 1.2269250 -0.6558050 1.0317810
v 1.2700959 -0.6788800 0.9622760
v 1.3102070 -0.7003200 0.8904520
v 0.0706650 -0.0472170 1.7299640
v 0.1411590 -0.0943200 1.7237099
v 0.2113130 -0.1411950 1.7133040
v 0.2809590 -0.1877310 1.6987700
v 0.3499270 -0.2338140 1.6801430
v 0.4180530 -0.2793340 1.6574690
v 0.4851710 -0.3241810 1.6308020
v 0.5511200 -0.3682470 1.6002060
v 0.6157420 -0.4114260 1.5657550
v 0.6788800 -0.4536130 1.5275320
v 0.7403840 -0.4947080 1.4856290
v 0.8001030 -0.5346120 1.4401480
v 0.8578950 -0.5732270 1.3911960
v 0.9136200 -0.6104610 1.3388931
v 0.9671440 -0.6462250 1.2833650
v 1.0183380 -0.6804320 1.2247450
v 1.0670789 -0.7129990 1.1631740
v 1.1132480 -0.7438490 1.0988010
v 1.1567360 -0.7729070 1.0317810
v 1.1974380 -0.8001020 0.9622760
v 1.2352550 -0.8253710 0.8904520
v 0.0656960 -0.0539160 1.7299640
v 0.1312340 -0.1077010 1.7237099
v 0.1964560 -0.1612280 1.7133040
v 0.2612050 -0.2143650 1.6987700
v 0.3253240 -0.2669870 1.6801430
v 0.3886600 -0.3189650 1.6574690
v 0.4510590 -0.3701750 1.6308020
v 0.5123720 -0.4204930 1.6002060
v 0.5724510 -0.4697980 1.5657550
v 0.6311490 -0.5179710 1.5275320
v 0.6883290 -0.5648970 1.4856290
v 0.7438490 -0.6104610 1.4401480
v 0.7975780 -0.6545550 1.3911960
v 0.8493850 -0.6970720 1.3388931
v 0.8991450 -0.7379100 1.2833650
v 0.9467410 -0.7769700 1.2247450
v 0.9920550 -0.8141580 1.1631740
v 1.0349780 -0.8493850 1.0988010
v 1.0754080 -0.8825650 1.0317810
v 1.1132489 -0.9136190 0.9622760
v 1.1484060 -0.9424730 0.8904520
v 0.0600950 -0.0600950 1.7299640
v 0.1200460 -0.1200460 1.7237099
v 0.1797070 -0.1797070 1.7133040
v 0.2389360 -0.2389360 1.6987700
v 0.2975890 -0.2975890 1.6801430
v 0.3555250 -0.3555250 1.6574690
v 0.4126040 -0.4126040 1.6308020
v 0.4686890 -0.4686890 1.6002060
v 0.5236460 -0.5236460 1.5657550
v 0.5773400 -0.5773400 1.5275320
v 0.6296450 -0.6296440 1.4856290
v 0.6804320 -0.6804320 1.4401480
v 0.7295800 -0.7295800 1.3911960
v 0.7769700 -0.7769700 1.3388931
v 0.8224880 -0.8224880 1.2833650
v 0.8660250 -0.8660250 1.2247450
v 0.9074760 -0.9074760 1.1631740
v 0.9467400 -0.9467400 1.0988010
v 0.9837230 -0.9837240 1.0317810
v 1.0183380 -1.0183370 0.9622760
v 1.0504980 -1.0504980 0.8904520
v 0.0539160 -0.0656960 1.7299640
v 0.1077010 -0.1312340 1.7237099
v 0.1612280 -0.1964560 1.7133040
v 0.2143650 -0.2612050 1.6987700
v 0.2669870 -0.3253240 1.6801430
v 0.3189650 -0.3886600 1.6574690
v 0.3701750 -0.4510590 1.6308020
v 0.4204930 -0.5123720 1.6002060
v 0.4697980 -0.5724510 1.5657550
v 0.5179710 -0.6311500 1.5275320
v 0.5648970 -0.6883290 1.4856290
v 0.6104610 -0.7438490 1.4401480
v 0.6545550 -0.7975780 1.3911960
v 0.6970720 -0.8493850 1.3388931
v 0.7379090 -0.8991460 1.2833650
v 0.7769700 -0.9467400 1.2247450
v 0.8141580 -0.9920550 1.1631740
v 0.8493840 -1.0349780 1.0988010
v 0.8825650 -1.0754080 1.0317810
v 0.9136200 -1.1132480 0.9622760
v 0.9424730 -1.1484060 0.8904520
v 0.0472170 -0.0706650 1.7299640
v 0.0943190 -0.1411590 1.7237099
v 0.1411950 -0.2113130 1.7133040
v 0.1877310 -0.2809590 1.6987700
v 0.2338140 -0.3499270 1.6801430
v 0.2793340 -0.4180530 1.6574690
v 0.3241810 -0.4851710 1.6308020
v 0.3682470 -0.5511210 1.6002060
v 0.4114260 -0.6157420 1.5657550
v 0.4536130 -0.6788800 1.5275320
v 0.4947090 -0.7403840 1.4856290
v 0.5346120 -0.8001030 1.4401480
v 0.5732270 -0.8578950 1.3911960
v 0.6104610 -0.9136200 1.3388931
v 0.6462250 -0.9671440 1.2833650
v 0.6804320 -1.0183380 1.2247450
v 0.7129990 -1.0670789 1.1631740
v 0.7438490 -1.1132489 1.0988010
v 0.7729060 -1.1567360 1.0317810
v 0.8001030 -1.1974380 0.9622760
v 0.8253710 -1.2352550 0.8904520
v 0.0400630 -0.0749520 1.7299640
v 0.0800290 -0.1497240 1.7237099
v 0.1198030 -0.2241350 1.7133040
v 0.1592880 -0.2980070 1.6987700
v 0.1983890 -0.3711600 1.6801430
v 0.2370130 -0.4434190 1.6574690
v 0.2750650 -0.5146100 1.6308020
v 0.3124540 -0.5845610 1.6002060
v 0.3490910 -0.6531040 1.5657550
v 0.3848870 -0.7200730 1.5275320
v 0.4197560 -0.7853080 1.4856290
v 0.4536140 -0.8486510 1.4401480
v 0.4863780 -0.9099500 1.3911960
v 0.5179710 -0.9690560 1.3388931
v 0.5483160 -1.0258280 1.2833650
v 0.5773410 -1.0801280 1.2247450
v 0.6049740 -1.1318270 1.1631740
v 0.6311490 -1.1807981 1.0988010
v 0.6558050 -1.2269250 1.0317810
v 0.6788810 -1.2700959 0.9622760
v 0.7003210 -1.3102070 0.8904520
v 0.0325230 -0.0785180 1.7299640
v 0.0649680 -0.1568480 1.7237099
v 0.0972570 -0.2347990 1.7133040
v 0.1293110 -0.3121840 1.6987700
v 0.1610540 -0.3888180 1.6801430
v 0.1924090 -0.4645150 1.6574690
v 0.2233000 -0.5390930 1.6308020
v 0.2536530 -0.6123720 1.6002060
v 0.2833950 -0.6841760 1.5657550
v 0.3124540 -0.7543310 1.5275320
v 0.3407610 -0.8226700 1.4856290
v 0.3682470 -0.8890270 1.4401480
v 0.3948450 -0.9532420 1.3911960
v 0.4204930 -1.0151600 1.3388931
v 0.4451270 -1.0746330 1.2833650
v 0.4686890 -1.1315171 1.2247450
v 0.4911230 -1.1856750 1.1631740
v 0.5123720 -1.2369760 1.0988010
v 0.5323870 -1.2852970 1.0317810
v 0.5511200 -1.3305219 0.9622760
v 0.5685250 -1.3725420 0.8904520
v 0.0246710 -0.0813280 1.7299640
v 0.0492820 -0.1624600 1.7237099
v 0.0737740 -0.2432010 1.7133040
v 0.0980890 -0.3233560 1.6987700
v 0.1221670 -0.4027320 1.6801430
v 0.1459520 -0.4811380 1.6574690
v 0.1693840 -0.5583840 1.6308020
v 0.1924080 -0.6342860 1.6002060
v 0.2149690 -0.7086590 1.5657550
v 0.2370120 -0.7813250 1.5275320
v 0.2584850 -0.8521090 1.4856290
v 0.2793340 -0.9208400 1.4401480
v 0.2995100 -0.9873530 1.3911960
v 0.3189650 -1.0514870 1.3388931
v 0.3376510 -1.1130880 1.2833650
v 0.3555250 -1.1720080 1.2247450
v 0.3725410 -1.2281040 1.1631740
v 0.3886600 -1.2812400 1.0988010
v 0.4038420 -1.3312900 1.0317810
v 0.4180530 -1.3781340 0.9622760
v 0.4312550 -1.4216580 0.8904520
v 0.0165800 -0.0833550 1.7299640
v 0.0331210 -0.1665080 1.7237099
v 0.0495810 -0.2492610 1.7133040
v 0.0659220 -0.3314130 1.6987700
v 0.0821040 -0.4127670 1.6801430
v 0.0980890 -0.4931270 1.6574690
v 0.1138370 -0.5722980 1.6308020
v 0.1293110 -0.6500910 1.6002060
v 0.1444740 -0.7263180 1.5657550
v 0.1592880 -0.8007940 1.5275320
v 0.1737190 -0.8733420 1.4856290
v 0.1877310 -0.9437860 1.4401480
v 0.2012900 -1.0119560 1.3911960
v 0.2143650 -1.0776880 1.3388931
v 0.2269240 -1.1408240 1.2833650
v 0.2389360 -1.2012120 1.2247450
v 0.2503720 -1.2587060 1.1631740
v 0.2612050 -1.3131660 1.0988010
v 0.2714080 -1.3644630 1.0317810
v 0.2809590 -1.4124740 0.9622760
v 0.2898320 -1.4570830 0.8904520
v 0.0083300 -0.0845780 1.7299640
v 0.0166400 -0.1689530 1.7237099
v 0.0249110 -0.2529210 1.7133040
v 0.0331210 -0.3362790 1.6987700
v 0.0412510 -0.4188270 1.6801430
v 0.0492820 -0.5003670 1.6574690
v 0.0571940 -0.5807000 1.6308020
v 0.0649680 -0.6596350 1.6002060
v 0.0725860 -0.7369810 1.5657550
v 0.0800290 -0.8125510 1.5275320
v 0.0872800 -0.8861640 1.4856290
v 0.0943190 -0.9576420 1.4401480
v 0.1011320 -1.0268130 1.3911960
v 0.1077010 -1.0935100 1.3388931
v 0.1140110 -1.1575730 1.2833650
v 0.1200460 -1.2188470 1.2247450
v 0.1257920 -1.2771850 1.1631740
v 0.1312340 -1.3324460 1.0988010
v 0.1363610 -1.3844960 1.0317810
v 0.1411590 -1.4332120 0.9622760
v 0.1456170 -1.4784750 0.8904520
v 0.0000000 0.0000000 1.7320510
v 0.0000000 -0.0849880 1.7299640
v 0.0000000 -0.1697710 1.7237099
v 0.0000000 -0.2541450 1.7133040
v 0.0000000 -0.3379060 1.6987700
v 0.0000000 -0.4208540 1.6801430
v 0.0000000 -0.5027880 1.6574690
v 0.0000000 -0.5835100 1.6308020
v 0.0000000 -0.6628270 1.6002060
v 0.0000000 -0.7405470 1.5657550
v 0.0000000 -0.8164820 1.5275320
v 0.0000000 -0.8904520 1.4856290
v 0.0000000 -0.9622760 1.4401480
v 0.0000000 -1.0317810 1.3911960
v 0.0000000 -1.0988010 1.3388931
v 0.0000000 -1.1631740 1.2833650
v 0.0000000 -1.2247450 1.2247450
v 0.0000000 -1.2833650 1.1631740
v 0.0000000 -1.3388931 1.0988010
v 0.0000000 -1.3911951 1.0317810
v 0.0000000 -1.4401460 0.9622760
v 0.0000000 -1.4856280 0.8904520
v 0.0000000 0.0000000 1.7320510
v -0.0000000 0.0849880 1.7299640
v -0.0000000 0.1697710 1.7237099
v -0.0000000 0.2541450 1.7133040
v -0.0000000 0.3379060 1.6987700
v -0.0000000 0.4208540 1.6801430
v -0.0000000 0.5027880 1.6574690
v -0.0000000 0.5835100 1.6308020
v -0.0000000 0.6628270 1.6002060
v -0.0000000 0.7405470 1.5657550
v -0.0000000 0.8164830 1.5275320
v -0.0000000 0.8904520 1.4856290
v -0.0000000 0.9622760 1.4401480
v -0.0000000 1.0317810 1.3911960
v -0.0000000 1.0988010 1.3388931
v -0.0000000 1.1631740 1.2833650
v -0.0000000 1.2247450 1.2247450
v -0.0000000 1.2833650 1.1631740
v -0.0000000 1.3388931 1.0988010
v -0.0000000 1.3911951 1.0317810
v -0.0000000 1.4401470 0.9622760
v -0.0000000 1.4856290 0.8904520
v 0.0083300 0.0845780 1.7299640
v 0.0166400 0.1689530 1.7237099
v 0.0249110 0.2529210 1.7133040
v 0.0331210 0.3362790 1.6987700
v 0.0412510 0.4188270 1.6801430
v 0.0492820 0.5003670 1.6574690
v 0.0571940 0.5807000 1.6308020
v 0.0649680 0.6596350 1.6002060
v 0.0725860 0.7369810 1.5657550
v 0.0800290 0.8125510 1.5275320
v 0.0872790 0.8861640 1.4856290
v 0.0943190 0.9576420 1.4401480
v 0.1011320 1.0268130 1.3911960
v 0.1077010 1.0935100 1.3388931
v 0.1140110 1.1575730 1.2833650
v 0.1200460 1.2188470 1.2247450
v 0.1257920 1.2771850 1.1631740
v 0.1312350 1.3324460 1.0988010
v 0.1363610 1.3844960 1.0317810
v 0.1411590 1.4332120 0.9622760
v 0.1456170 1.4784750 0.8904520
v 0.0165800 0.0833550 1.7299640
v 0.0331210 0.1665090 1.7237099
v 0.0495810 0.2492610 1.7133040
v 0.0659220 0.3314130 1.6987700
v 0.0821050 0.4127670 1.6801430
v 0.0980890 0.4931270 1.6574690
v 0.1138370 0.5722980 1.6308020
v 0.1293110 0.6500910 1.6002060
v 0.1444730 0.7263180 1.5657550
v 0.1592880 0.8007940 1.5275320
v 0.1737180 0.8733420 1.4856290
v 0.1877310 0.9437860 1.4401480
v 0.2012910 1.0119560 1.3911960
v 0.2143660 1.0776880 1.3388931
v 0.2269240 1.1408240 1.2833650
v 0.2389360 1.2012110 1.2247450
v 0.2503720 1.2587050 1.1631740
v 0.2612050 1.3131660 1.0988010
v 0.2714090 1.3644640 1.0317810
v 0.2809590 1.4124750 0.9622760
v 0.2898320 1.4570830 0.8904520
v 0.0246710 0.0813280 1.7299640
v 0.0492820 0.1624600 1.7237099
v 0.0737740 0.2432010 1.7133040
v 0.0980890 0.3233560 1.6987700
v 0.1221670 0.4027320 1.6801430
v 0.1459520 0.4811380 1.6574690
v 0.1693840 0.5583840 1.6308020
v 0.1924090 0.6342860 1.6002060
v 0.2149690 0.7086590 1.5657550
v 0.2370120 0.7813250 1.5275320
v 0.2584840 0.8521090 1.4856290
v 0.2793340 0.9208400 1.4401480
v 0.2995100 0.9873530 1.3911960
v 0.3189650 1.0514870 1.3388931
v 0.3376520 1.1130880 1.2833650
v 0.3555250 1.1720070 1.2247450
v 0.3725410 1.2281040 1.1631740
v 0.3886600 1.2812400 1.0988010
v 0.4038430 1.3312910 1.0317810
v 0.4180520 1.3781350 0.9622760
v 0.4312550 1.4216580 0.8904520
v 0.0325230 0.0785180 1.7299640
v 0.0649680 0.1568480 1.7237099
v 0.0972570 0.2347990 1.7133040
v 0.1293110 0.3121850 1.6987700
v 0.1610540 0.3888180 1.6801430
v 0.1924090 0.4645150 1.6574690
v 0.2233000 0.5390930 1.6308020
v 0.2536530 0.6123720 1.6002060
v 0.2833950 0.6841760 1.5657550
v 0.3124540 0.7543310 1.5275320
v 0.3407610 0.8226700 1.4856290
v 0.3682470 0.8890270 1.4401480
v 0.3948460 0.9532420 1.3911960
v 0.4204930 1.0151600 1.3388931
v 0.4451280 1.0746320 1.2833650
v 0.4686890 1.1315160 1.2247450
v 0.4911220 1.1856750 1.1631740
v 0.5123720 1.2369760 1.0988010
v 0.5323870 1.2852970 1.0317810
v 0.5511200 1.3305219 0.9622760
v 0.5685250 1.3725420 0.8904520
v 0.0400630 0.0749520 1.7299640
v 0.0800290 0.1497240 1.7237099
v 0.1198030 0.2241350 1.7133040
v 0.1592880 0.2980070 1.6987700
v 0.1983890 0.3711600 1.6801430
v 0.2370130 0.4434190 1.6574690
v 0.2750650 0.5146100 1.6308020
v 0.3124550 0.5845610 1.6002060
v 0.3490910 0.6531040 1.5657550
v 0.3848870 0.7200730 1.5275320
v 0.4197560 0.7853080 1.4856290
v 0.4536140 0.8486510 1.4401480
v 0.4863780 0.9099500 1.3911960
v 0.5179710 0.9690560 1.3388931
v 0.5483160 1.0258280 1.2833650
v 0.5773410 1.0801280 1.2247450
v 0.6049740 1.1318270 1.1631740
v 0.6311500 1.1807981 1.0988010
v 0.6558050 1.2269250 1.0317810
v 0.6788800 1.2700959 0.9622760
v 0.7003200 1.3102070 0.8904520
v 0.0472170 0.0706650 1.7299640
v 0.0943200 0.1411590 1.7237099
v 0.1411950 0.2113130 1.7133040
v 0.1877310 0.2809590 1.6987700
v 0.2338140 0.3499270 1.6801430
v 0.2793340 0.4180530 1.6574690
v 0.3241810 0.4851710 1.6308020
v 0.3682470 0.5511200 1.6002060
v 0.4114260 0.6157420 1.5657550
v 0.4536130 0.6788800 1.5275320
v 0.4947080 0.7403840 1.4856290
v 0.5346120 0.8001030 1.4401480
v 0.5732270 0.8578950 1.3911960
v 0.6104610 0.9136200 1.3388931
v 0.6462250 0.9671440 1.2833650
v 0.6804320 1.0183380 1.2247450
v 0.7129990 1.0670789 1.1631740
v 0.7438490 1.1132480 1.0988010
v 0.7729070 1.1567360 1.0317810
v 0.8001020 1.1974380 0.9622760
v 0.8253710 1.2352550 0.8904520
v 0.0539160 0.0656960 1.7299640
v 0.1077010 0.1312340 1.7237099
v 0.1612280 0.1964560 1.7133040
v 0.2143650 0.2612050 1.6987700
v 0.2669870 0.3253240 1.6801430
v 0.3189650 0.3886600 1.6574690
v 0.3701750 0.4510590 1.6308020
v 0.4204930 0.5123720 1.6002060
v 0.4697980 0.5724510 1.5657550
v 0.5179710 0.6311490 1.5275320
v 0.5648970 0.6883290 1.4856290
v 0.6104610 0.7438490 1.4401480
v 0.6545550 0.7975780 1.3911960
v 0.6970720 0.8493850 1.3388931
v 0.7379100 0.8991450 1.2833650
v 0.7769700 0.9467410 1.2247450
v 0.8141580 0.9920550 1.1631740
v 0.8493850 1.0349780 1.0988010
v 0.8825650 1.0754080 1.0317810
v 0.9136190 1.1132489 0.9622760
v 0.9424730 1.1484060 0.8904520
v 0.0600950 0.0600950 1.7299640
v 0.1200460 0.1200460 1.7237099
v 0.1797070 0.1797070 1.7133040
v 0.2389360 0.2389360 1.6987700
v 0.2975890 0.2975890 1.6801430
v 0.3555250 0.3555250 1.6574690
v 0.4126040 0.4126040 1.6308020
v 0.4686890 0.4686890 1.6002060
v 0.5236460 0.5236460 1.5657550
v 0.5773400 0.5773400 1.5275320
v 0.6296440 0.6296450 1.4856290
v 0.6804320 0.6804320 1.4401480
v 0.7295800 0.7295800 1.3911960
v 0.7769700 0.7769700 1.3388931
v 0.8224880 0.8224880 1.2833650
v 0.8660250 0.8660250 1.2247450
v 0.9074760 0.9074760 1.1631740
v 0.9467400 0.9467400 1.0988010
v 0.9837240 0.9837230 1.0317810
v 1.0183370 1.0183380 0.9622760
v 1.0504980 1.0504980 0.8904520
v 0.0656960 0.0539160 1.7299640
v 0.1312340 0.1077010 1.7237099
v 0.1964560 0.1612280 1.7133040
v 0.2612050 0.2143650 1.6987700
v 0.3253240 0.2669870 1.6801430
v 0.3886600 0.3189650 1.6574690
v 0.4510590 0.3701750 1.6308020
v 0.5123720 0.4204930 1.6002060
v 0.5724510 0.4697980 1.5657550
v 0.6311500 0.5179710 1.5275320
v 0.6883290 0.5648970 1.4856290
v 0.7438490 0.6104610 1.4401480
v 0.7975780 0.6545550 1.3911960
v 0.8493850 0.6970720 1.3388931
v 0.8991460 0.7379090 1.2833650
v 0.9467400 0.7769700 1.2247450
v 0.9920550 0.8141580 1.1631740
v 1.0349780 0.8493840 1.0988010
v 1.0754080 0.8825650 1.0317810
v 1.1132480 0.9136200 0.9622760
v 1.1484060 0.9424730 0.8904520
v 0.0706650 0.0472170 1.7299640
v 0.1411590 0.0943190 1.7237099
v 0.2113130 0.1411950 1.7133040
v 0.2809590 0.1877310 1.6987700
v 0.3499270 0.2338140 1.6801430
v 0.4180530 0.2793340 1.6574690
v 0.4851710 0.3241810 1.6308020
v 0.5511210 0.3682470 1.6002060
v 0.6157420 0.4114260 1.5657550
v 0.6788800 0.4536130 1.5275320
v 0.7403840 0.4947090 1.4856290
v 0.8001030 0.5346120 1.4401480
v 0.8578950 0.5732270 1.3911960
v 0.9136200 0.6104610 1.3388931
v 0.9671440 0.6462250 1.2833650
v 1.0183380 0.6804320 1.2247450
v 1.0670789 0.7129990 1.1631740
v 1.1132489 0.7438490 1.0988010
v 1.1567360 0.7729060 1.0317810
v 1.1974380 0.8001030 0.9622760
v 1.2352550 0.8253710 0.8904520
v 0.0749520 0.0400630 1.7299640
v 0.1497240 0.0800290 1.7237099
v 0.2241350 0.1198030 1.7133040
v 0.2980070 0.1592880 1.6987700
v 0.3711600 0.1983890 1.6801430
v 0.4434190 0.2370130 1.6574690
v 0.5146100 0.2750650 1.6308020
v 0.5845610 0.3124540 1.6002060
v 0.6531040 0.3490910 1.5657550
v 0.7200730 0.3848870 1.5275320
v 0.7853080 0.4197560 1.4856290
v 0.8486510 0.4536140 1.4401480
v 0.9099500 0.4863780 1.3911960
v 0.9690560 0.5179710 1.3388931
v 1.0258280 0.5483160 1.2833650
v 1.0801280 0.5773410 1.2247450
v 1.1318270 0.6049740 1.1631740
v 1.1807981 0.6311490 1.0988010
v 1.2269250 0.6558050 1.0317810
v 1.2700959 0.6788810 0.9622760
v 1.3102070 0.7003210 0.8904520
v 0.0785180 0.0325230 1.7299640
v 0.1568480 0.0649680 1.7237099
v 0.2347990 0.0972570 1.7133040
v 0.3121840 0.1293110 1.6987700
v 0.3888180 0.1610540 1.6801430
v 0.4645150 0.1924090 1.6574690
v 0.5390930 0.2233000 1.6308020
v 0.6123720 0.2536530 1.6002060
v 0.6841760 0.2833950 1.5657550
v 0.7543310 0.3124540 1.5275320
v 0.8226700 0.3407610 1.4856290
v 0.8890270 0.3682470 1.4401480
v 0.9532420 0.3948450 1.3911960
v 1.0151600 0.4204930 1.3388931
v 1.0746330 0.4451270 1.2833650
v 1.1315171 0.4686890 1.2247450
v 1.1856750 0.4911230 1.1631740
v 1.2369760 0.5123720 1.0988010
v 1.2852970 0.5323870 1.0317810
v 1.3305219 0.5511200 0.9622760
v 1.3725420 0.5685250 0.8904520
v 0.0813280 0.0246710 1.7299640
v 0.1624600 0.0492820 1.7237099
v 0.2432010 0.0737740 1.7133040
v 0.3233560 0.0980890 1.6987700
v 0.4027320 0.1221670 1.6801430
v 0.4811380 0.1459520 1.6574690
v 0.5583840 0.1693840 1.6308020
v 0.6342860 0.1924080 1.6002060
v 0.7086590 0.2149690 1.5657550
v 0.7813250 0.2370120 1.5275320
v 0.8521090 0.2584850 1.4856290
v 0.9208400 0.2793340 1.4401480
v 0.9873530 0.2995100 1.3911960
v 1.0514870 0.3189650 1.3388931
v 1.1130880 0.3376510 1.2833650
v 1.1720080 0.3555250 1.2247450
v 1.2281040 0.3725410 1.1631740
v 1.2812400 0.3886600 1.0988010
v 1.3312900 0.4038420 1.0317810
v 1.3781340 0.4180530 0.9622760
v 1.4216580 0.4312550 0.8904520
v 0.0833550 0.0165800 1.7299640
v 0.1665080 0.0331210 1.7237099
v 0.2492610 0.0495810 1.7133040
v 0.3314130 0.0659220 1.6987700
v 0.4127670 0.0821040 1.6801430
v 0.4931270 0.0980890 1.6574690
v 0.5722980 0.1138370 1.6308020
v 0.6500910 0.1293110 1.6002060
v 0.7263180 0.1444740 1.5657550
v 0.8007940 0.1592880 1.5275320
v 0.8733420 0.1737190 1.4856290
v 0.9437860 0.1877310 1.4401480
v 1.0119560 0.2012900 1.3911960
v 1.0776880 0.2143650 1.3388931
v 1.1408240 0.2269240 1.2833650
v 1.2012120 0.2389360 1.2247450
v 1.2587060 0.2503720 1.1631740
v 1.3131660 0.2612050 1.0988010
v 1.3644630 0.2714080 1.0317810
v 1.4124740 0.2809590 0.9622760
v 1.4570830 0.2898320 0.8904520
v 0.0845780 0.0083300 1.7299640
v 0.1689530 0.0166400 1.7237099
v 0.2529210 0.0249110 1.7133040
v 0.3362790 0.0331210 1.6987700
v 0.4188270 0.0412510 1.6801430
v 0.5003670 0.0492820 1.6574690
v 0.5807000 0.0571940 1.6308020
v 0.6596350 0.0649680 1.6002060
v 0.7369810 0.0725860 1.5657550
v 0.8125510 0.0800290 1.5275320
v 0.8861640 0.0872800 1.4856290
v 0.9576420 0.0943190 1.4401480
v 1.0268130 0.1011320 1.3911960
v 1.0935100 0.1077010 1.3388931
v 1.1575730 0.1140110 1.2833650
v 1.2188470 0.1200460 1.2247450
v 1.2771850 0.1257920 1.1631740
v 1.3324460 0.1312340 1.0988010
v 1.3844960 0.1363610 1.0317810
v 1.4332120 0.1411590 0.9622760
v 1.4784750 0.1456170 0.8904520
v 0.0000000 0.0000000 1.7320510
v 0.0849880 0.0000000 1.7299640
v 0.1697710 0.0000000 1.7237099
v 0.2541450 0.0000000 1.7133040
v 0.3379060 0.0000000 1.6987700
v 0.4208540 0.0000000 1.6801430
v 0.5027880 0.0000000 1.6574690
v 0.5835100 0.0000000 1.6308020
v 0.6628270 0.0000000 1.6002060
v 0.7405470 0.0000000 1.5657550
v 0.8164820 0.0000000 1.5275320
v 0.8904520 0.0000000 1.4856290
v 0.9622760 0.0000000 1.4401480
v 1.0317810 0.0000000 1.3911960
v 1.0988010 0.0000000 1.3388931
v 1.1631740 0.0000000 1.2833650
v 1.2247450 0.0000000 1.2247450
v 1.2833650 0.0000000 1.1631740
v 1.3388931 0.0000000 1.0988010
v 1.3911951 0.0000000 1.0317810
v 1.4401460 0.0000000 0.9622760
v 1.4856280 0.0000000 0.8904520
v 0.0000000 0.0000000 1.7320510
v -0.0849880 0.0000000 1.7299640
v -0.1697710 0.0000000 1.7237099
v -0.2541450 0.0000000 1.7133040
v -0.3379060 0.0000000 1.6987700
v -0.4208540 0.0000000 1.6801430
v -0.5027880 0.0000000 1.6574690
v -0.5835100 0.0000000 1.6308020
v -0.6628270 0.0000000 1.6002060
v -0.7405470 0.0000000 1.5657550
v -0.8164830 0.0000000 1.5275320
v -0.8904520 0.0000000 1.4856290
v -0.9622760 0.0000000 1.4401480
v -1.0317810 0.0000000 1.3911960
v -1.0988010 0.0000000 1.3388931
v -1.1631740 0.0000000 1.2833650
v -1.2247450 0.0000000 1.2247450
v -1.2833650 0.0000000 1.1631740
v -1.3388931 0.0000000 1.0988010
v -1.3911951 0.0000000 1.0317810
v -1.4401470 0.0000000 0.9622760
v -1.4856290 0.0000000 0.8904520
v -0.0845780 0.0083300 1.7299640
v -0.1689530 0.0166400 1.7237099
v -0.2529210 0.0249110 1.7133040
v -0.3362790 0.0331210 1.6987700
v -0.4188270 0.0412510 1.6801430
v -0.5003670 0.0492820 1.6574690
v -0.5807000 0.0571940 1.6308020
v -0.6596350 0.0649680 1.6002060
v -0.7369810 0.0725860 1.5657550
v -0.8125510 0.0800290 1.5275320
v -0.8861640 0.0872790 1.4856290
v -0.9576420 0.0943190 1.4401480
v -1.0268130 0.1011320 1.3911960
v -1.0935100 0.1077010 1.3388931
v -1.1575730 0.1140110 1.2833650
v -1.2188470 0.1200460 1.2247450
v -1.2771850 0.1257920 1.1631740
v -1.3324460 0.1312350 1.0988010
v -1.3844960 0.1363610 1.0317810
v -1.4332120 0.1411590 0.9622760
v -1.4784750 0.1456170 0.8904520
v -0.0833550 0.0165800 1.7299640
v -0.1665090 0.0331210 1.7237099
v -0.2492610 0.0495810 1.7133040
v -0.3314130 0.0659220 1.6987700
v -0.4127670 0.0821050 1.6801430
v -0.4931270 0.0980890 1.6574690
v -0.5722980 0.1138370 1.6308020
v -0.6500910 0.1293110 1.6002060
v -0.7263180 0.1444730 1.5657550
v -0.8007940 0.1592880 1.5275320
v -0.8733420 0.1737180 1.4856290
v -0.9437860 0.1877310 1.4401480
v -1.0119560 0.2012910 1.3911960
v -1.0776880 0.2143660 1.3388931
v -1.1408240 0.2269240 1.2833650
v -1.2012110 0.2389360 1.2247450
v -1.2587050 0.2503720 1.1631740
v -1.3131660 0.2612050 1.0988010
v -1.3644640 0.2714090 1.0317810
v -1.4124750 0.2809590 0.9622760
v -1.4570830 0.2898320 0.8904520
v -0.0813280 0.0246710 1.7299640
v -0.1624600 0.0492820 1.7237099
v -0.2432010 0.0737740 1.7133040
v -0.3233560 0.0980890 1.6987700
v -0.4027320 0.1221670 1.6801430
v -0.4811380 0.1459520 1.6574690
v -0.5583840 0.1693840 1.6308020
v -0.6342860 0.1924090 1.6002060
v -0.7086590 0.2149690 1.5657550
v -0.7813250 0.2370120 1.5275320
v -0.8521090 0.2584840 1.4856290
v -0.9208400 0.2793340 1.4401480
v -0.9873530 0.2995100 1.3911960
v -1.0514870 0.3189650 1.3388931
v -1.1130880 0.3376520 1.2833650
v -1.1720070 0.3555250 1.2247450
v -1.2281040 0.3725410 1.1631740
v -1.2812400 0.3886600 1.0988010
v -1.3312910 0.4038430 1.0317810
v -1.3781350 0.4180520 0.9622760
v -1.4216580 0.4312550 0.8904520
v -0.0785180 0.0325230 1.7299640
v -0.1568480 0.0649680 1.7237099
v -0.2347990 0.0972570 1.7133040
v -0.3121850 0.1293110 1.6987700
v -0.3888180 0.1610540 1.6801430
v -0.4645150 0.1924090 1.6574690
v -0.5390930 0.2233000 1.6308020
v -0.6123720 0.2536530 1.6002060
v -0.6841760 0.2833950 1.5657550
v -0.7543310 0.3124540 1.5275320
v -0.8226700 0.3407610 1.4856290
v -0.8890270 0.3682470 1.4401480
v -0.9532420 0.3948460 1.3911960
v -1.0151600 0.4204930 1.3388931
v -1.0746320 0.4451280 1.2833650
v -1.1315160 0.4686890 1.2247450
v -1.1856750 0.4911220 1.1631740
v -1.2369760 0.5123720 1.0988010
v -1.2852970 0.5323870 1.0317810
v -1.3305219 0.5511200 0.9622760
v -1.3725420 0.5685250 0.8904520
v -0.0749520 0.0400630 1.7299640
v -0.1497240 0.0800290 1.7237099
v -0.2241350 0.1198030 1.7133040
v -0.2980070 0.1592880 1.6987700
v -0.3711600 0.1983890 1.6801430
v -0.4434190 0.2370130 1.6574690
v -0.5146100 0.2750650 1.6308020
v -0.5845610 0.3124550 1.6002060
v -0.6531040 0.3490910 1.5657550
v -0.7200730 0.3848870 1.5275320
v -0.7853080 0.4197560 1.4856290
v -0.8486510 0.4536140 1.4401480
v -0.9099500 0.4863780 1.3911960
v -0.9690560 0.5179710 1.3388931
v -1.0258280 0.5483160 1.2833650
v -1.0801280 0.5773410 1.2247450
v -1.1318270 0.6049740 1.1631740
v -1.1807981 0.6311500 1.0988010
v -1.2269250 0.6558050 1.0317810
v -1.2700959 0.6788800 0.9622760
v -1.3102070 0.7003200 0.8904520
v -0.0706650 0.0472170 1.7299640
v -0.1411590 0.0943200 1.7237099
v -0.2113130 0.1411950 1.7133040
v -0.2809590 0.1877310 1.6987700
v -0.3499270 0.2338140 1.6801430
v -0.4180530 0.2793340 1.6574690
v -0.4851710 0.3241810 1.6308020
v -0.5511200 0.3682470 1.6002060
v -0.6157420 0.4114260 1.5657550
v -0.6788800 0.4536130 1.5275320
v -0.7403840 0.4947080 1.4856290
v -0.8001030 0.5346120 1.4401480
v -0.8578950 0.5732270 1.3911960
v -0.9136200 0.6104610 1.3388931
v -0.9671440 0.6462250 1.2833650
v -1.0183380 0.6804320 1.2247450
v -1.0670789 0.7129990 1.1631740
v -1.1132480 0.7438490 1.0988010
v -1.1567360 0.7729070 1.0317810
v -1.1974380 0.8001020 0.9622760
v -1.2352550 0.8253710 0.8904520
v -0.0656960 0.0539160 1.7299640
v -0.1312340 0.1077010 1.7237099
v -0.1964560 0.1612280 1.7133040
v -0.2612050 0.2143650 1.6987700
v -0.3253240 0.2669870 1.6801430
v -0.3886600 0.3189650 1.6574690
v -0.4510590 0.3701750 1.6308020
v -0.5123720 0.4204930 1.6002060
v -0.5724510 0.4697980 1.5657550
v -0.6311490 0.5179710 1.5275320
v -0.6883290 0.5648970 1.4856290
v -0.7438490 0.6104610 1.4401480
v -0.7975780 0.6545550 1.3911960
v -0.8493850 0.6970720 1.3388931
v -0.8991450 0.7379100 1.2833650
v -0.9467410 0.7769700 1.2247450
v -0.9920550 0.8141580 1.1631740
v -1.0349780 0.8493850 1.0988010
v -1.0754080 0.8825650 1.0317810
v -1.1132489 0.9136190 0.9622760
v -1.1484060 0.9424730 0.8904520
v -0.0600950 0.0600950 1.7299640
v -0.1200460 0.1200460 1.7237099
v -0.1797070 0.1797070 1.7133040
v -0.2389360 0.2389360 1.6987700
v -0.2975890 0.2975890 1.6801430
v -0.3555250 0.3555250 1.6574690
v -0.4126040 0.4126040 1.6308020
v -0.4686890 0.4686890 1.6002060
v -0.5236460 0.5236460 1.5657550
v -0.5773400 0.5773400 1.5275320
v -0.6296450 0.6296440 1.4856290
v -0.6804320 0.6804320 1.4401480
v -0.7295800 0.7295800 1.3911960
v -0.7769700 0.7769700 1.3388931
v -0.8224880 0.8224880 1.2833650
v -0.8660250 0.8660250 1.2247450
v -0.9074760 0.9074760 1.1631740
v -0.9467400 0.9467400 1.0988010
v -0.9837230 0.9837240 1.0317810
v -1.0183380 1.0183370 0.9622760
v -1.0504980 1.0504980 0.8904520
v -0.0539160 0.0656960 1.7299640
v -0.1077010 0.1312340 1.7237099
v -0.1612280 0.1964560 1.7133040
v -0.2143650 0.2612050 1.6987700
v -0.2669870 0.3253240 1.6801430
v -0.3189650 0.3886600 1.6574690
v -0.3701750 0.4510590 1.6308020
v -0.4204930 0.5123720 1.6002060
v -0.4697980 0.5724510 1.5657550
v -0.5179710 0.6311500 1.5275320
v -0.5648970 0.6883290 1.4856290
v -0.6104610 0.7438490 1.4401480
v -0.6545550 0.7975780 1.3911960
v -0.6970720 0.8493850 1.3388931
v -0.7379090 0.8991460 1.2833650
v -0.7769700 0.9467400 1.2247450
v -0.8141580 0.9920550 1.1631740
v -0.8493840 1.0349780 1.0988010
v -0.8825650 1.0754080 1.0317810
v -0.9136200 1.1132480 0.9622760
v -0.9424730 1.1484060 0.8904520
v -0.0472170 0.0706650 1.7299640
v -0.0943190 0.1411590 1.7237099
v -0.1411950 0.2113130 1.7133040
v -0.1877310 0.2809590 1.6987700
v -0.2338140 0.3499270 1.6801430
v -0.2793340 0.4180530 1.6574690
v -0.3241810 0.4851710 1.6308020
v -0.3682470 0.5511210 1.6002060
v -0.4114260 0.6157420 1.5657550
v -0.4536130 0.6788800 1.5275320
v -0.4947090 0.7403840 1.4856290
v -0.5346120 0.8001030 1.4401480
v -0.5732270 0.8578950 1.3911960
v -0.6104610 0.9136200 1.3388931
v -0.6462250 0.9671440 1.2833650
v -0.6804320 1.0183380 1.2247450
v -0.7129990 1.0670789 1.1631740
v -0.7438490 1.1132489 1.0988010
v -0.7729060 1.1567360 1.0317810
v -0.8001030 1.1974380 0.9622760
v -0.8253710 1.2352550 0.8904520
v -0.0400630 0.0749520 1.7299640
v -0.0800290 0.1497240 1.7237099
v -0.1198030 0.2241350 1.7133040
v -0.1592880 0.2980070 1.6987700
v -0.1983890 0.3711600 1.6801430
v -0.2370130 0.4434190 1.6574690
v -0.2750650 0.5146100 1.6308020
v -0.3124540 0.5845610 1.6002060
v -0.3490910 0.6531040 1.5657550
v -0.3848870 0.7200730 1.5275320
v -0.4197560 0.7853080 1.4856290
v -0.4536140 0.8486510 1.4401480
v -0.4863780 0.9099500 1.3911960
v -0.5179710 0.9690560 1.3388931
v -0.5483160 1.0258280 1.2833650
v -0.5773410 1.0801280 1.2247450
v -0.6049740 1.1318270 1.1631740
v -0.6311490 1.1807981 1.0988010
v -0.6558050 1.2269250 1.0317810
v -0.6788810 1.2700959 0.9622760
v -0.7003210 1.3102070 0.8904520
v -0.0325230 0.0785180 1.7299640
v -0.0649680 0.1568480 1.7237099
v -0.0972570 0.2347990 1.7133040
v -0.1293110 0.3121840 1.6987700
v -0.1610540 0.3888180 1.6801430
v -0.1924090 0.4645150 1.6574690
v -0.2233000 0.5390930 1.6308020
v -0.2536530 0.6123720 1.6002060
v -0.2833950 0.6841760 1.5657550
v -0.3124540 0.7543310 1.5275320
v -0.3407610 0.8226700 1.4856290
v -0.3682470 0.8890270 1.4401480
v -0.3948450 0.9532420 1.3911960
v -0.4204930 1.0151600 1.3388931
v -0.4451270 1.0746330 1.2833650
v -0.4686890 1.1315171 1.2247450
v -0.4911230 1.1856750 1.1631740
v -0.5123720 1.2369760 1.0988010
v -0.5323870 1.2852970 1.0317810
v -0.5511200 1.3305219 0.9622760
v -0.5685250 1.3725420 0.8904520
v -0.0246710 0.0813280 1.7299640
v -0.0492820 0.1624600 1.7237099
v -0.0737740 0.2432010 1.7133040
v -0.0980890 0.3233560 1.6987700
v -0.1221670 0.4027320 1.6801430
v -0.1459520 0.4811380 1.6574690
v -0.1693840 0.5583840 1.6308020
v -0.1924080 0.6342860 1.6002060
v -0.2149690 0.7086590 1.5657550
v -0.2370120 0.7813250 1.5275320
v -0.2584850 0.8521090 1.4856290
v -0.2793340 0.9208400 1.4401480
v -0.2995100 0.9873530 1.3911960
v -0.3189650 1.0514870 1.3388931
v -0.3376510 1.1130880 1.2833650
v -0.3555250 1.1720080 1.2247450
v -0.3725410 1.2281040 1.1631740
v -0.3886600 1.2812400 1.0988010
v -0.4038420 1.3312900 1.0317810
v -0.4180530 1.3781340 0.9622760
v -0.4312550 1.4216580 0.8904520
v -0.0165800 0.0833550 1.7299640
v -0.0331210 0.1665080 1.7237099
v -0.0495810 0.2492610 1.7133040
v -0.0659220 0.3314130 1.6987700
v -0.0821040 0.4127670 1.6801430
v -0.0980890 0.4931270 1.6574690
v -0.1138370 0.5722980 1.6308020
v -0.1293110 0.6500910 1.6002060
v -0.1444740 0.7263180 1.5657550
v -0.1592880 0.8007940 1.5275320
v -0.1737190 0.8733420 1.4856290
v -0.1877310 0.9437860 1.4401480
v -0.2012900 1.0119560 1.3911960
v -0.2143650 1.0776880 1.3388931
v -0.2269240 1.1408240 1.2833650
v -0.2389360 1.2012120 1.2247450
v -0.2503720 1.2587060 1.1631740
v -0.2612050 1.3131660 1.0988010
v -0.2714080 1.3644630 1.0317810
v -0.2809590 1.4124740 0.9622760
v -0.2898320 1.4570830 0.8904520
v -0.0083300 0.0845780 1.7299640
v -0.0166400 0.1689530 1.7237099
v -0.0249110 0.2529210 1.7133040
v -0.0331210 0.3362790 1.6987700
v -0.0412510 0.4188270 1.6801430
v -0.0492820 0.5003670 1.6574690
v -0.0571940 0.5807000 1.6308020
v -0.0649680 0.6596350 1.6002060
v -0.0725860 0.7369810 1.5657550
v -0.0800290 0.8125510 1.5275320
v -0.0872800 0.8861640 1.4856290
v -0.0943190 0.9576420 1.4401480
v -0.1011320 1.0268130 1.3911960
v -0.1077010 1.0935100 1.3388931
v -0.1140110 1.1575730 1.2833650
v -0.1200460 1.2188470 1.2247450
v -0.1257920 1.2771850 1.1631740
v -0.1312340 1.3324460 1.0988010
v -0.1363610 1.3844960 1.0317810
v -0.1411590 1.4332120 0.9622760
v -0.1456170 1.4784750 0.8904520
v 0.0000000 0.0000000 1.7320510
v 0.0000000 0.0849880 1.7299640
v 0.0000000 0.1697710 1.7237099
v 0.0000000 0.2541450 1.7133040
v 0.0000000 0.3379060 1.6987700
v 0.0000000 0.4208540 1.6801430
v 0.0000000 0.5027880 1.6574690
v 0.0000000 0.5835100 1.6308020
v 0.0000000 0.6628270 1.6002060
v 0.0000000 0.7405470 1.5657550
v 0.0000000 0.8164820 1.5275320
v 0.0000000 0.8904520 1.4856290
v 0.0000000 0.9622760 1.4401480
v 0.0000000 1.0317810 1.3911960
v 0.0000000 1.0988010 1.3388931
v 0.0000000 1.1631740 1.2833650
v 0.0000000 1.2247450 1.2247450
v 0.0000000 1.2833650 1.1631740
v 0.0000000 1.3388931 1.0988010
v 0.0000000 1.3911951 1.0317810
v 0.0000000 1.4401460 0.9622760
v 0.0000000 1.4856280 0.8904520
v 0.0000000 0.0000000 1.7320510
v 0.0000000 -0.0849880 1.7299640
v 0.0000000 -0.1697710 1.7237099
v 0.0000000 -0.2541450 1.7133040
v 0.0000000 -0.3379060 1.6987700
v 0.0000000 -0.4208540 1.6801430
v 0.0000000 -0.5027880 1.6574690
v 0.0000000 -0.5835100 1.6308020
v 0.0000000 -0.6628270 1.6002060
v 0.0000000 -0.7405470 1.5657550
v 0.0000000 -0.8164830 1.5275320
v 0.0000000 -0.8904520 1.4856290
v 0.0000000 -0.9622760 1.4401480
v 0.0000000 -1.0317810 1.3911960
v 0.0000000 -1.0988010 1.3388931
v 0.0000000 -1.1631740 1.2833650
v 0.0000000 -1.2247450 1.2247450
v 0.0000000 -1.2833650 1.1631740
v 0.0000000 -1.3388931 1.0988010
v 0.0000000 -1.3911951 1.0317810
v 0.0000000 -1.4401470 0.9622760
v 0.0000000 -1.4856290 0.8904520
v -0.0083300 -0.0845780 1.7299640
v -0.0166400 -0.1689530 1.7237099
v -0.0249110 -0.2529210 1.7133040
v -0.0331210 -0.3362790 1.6987700
v -0.0412510 -0.4188270 1.6801430
v -0.0492820 -0.5003670 1.6574690
v -0.0571940 -0.5807000 1.6308020
v -0.0649680 -0.6596350 1.6002060
v -0.0725860 -0.7369810 1.5657550
v -0.0800290 -0.8125510 1.5275320
v -0.0872790 -0.8861640 1.4856290
v -0.0943190 -0.9576420 1.4401480
v -0.1011320 -1.0268130 1.3911960
v -0.1077010 -1.0935100 1.3388931
v -0.1140110 -1.1575730 1.2833650
v -0.1200460 -1.2188470 1.2247450
v -0.1257920 -1.2771850 1.1631740
v -0.1312350 -1.3324460 1.0988010
v -0.1363610 -1.3844960 1.0317810
v -0.1411590 -1.4332120 0.9622760
v -0.1456170 -1.4784750 0.8904520
v -0.0165800 -0.0833550 1.7299640
v -0.0331210 -0.1665090 1.7237099
v -0.0495810 -0.2492610 1.7133040
v -0.0659220 -0.3314130 1.6987700
v -0.0821050 -0.4127670 1.6801430
v -0.0980890 -0.4931270 1.6574690
v -0.1138370 -0.5722980 1.6308020
v -0.1293110 -0.6500910 1.6002060
v -0.1444730 -0.7263180 1.5657550
v -0.1592880 -0.8007940 1.5275320
v -0.1737180 -0.8733420 1.4856290
v -0.1877310 -0.9437860 1.4401480
v -0.2012910 -1.0119560 1.3911960
v -0.2143660 -1.0776880 1.3388931
v -0.2269240 -1.1408240 1.2833650
v -0.2389360 -1.2012110 1.2247450
v -0.2503720 -1.2587050 1.1631740
v -0.2612050 -1.3131660 1.0988010
v -0.2714090 -1.3644640 1.0317810
v -0.2809590 -1.4124750 0.9622760
v -0.2898320 -1.4570830 0.8904520
v -0.0246710 -0.0813280 1.7299640
v -0.0492820 -0.1624600 1.7237099
v -0.0737740 -0.2432010 1.7133040
v -0.0980890 -0.3233560 1.6987700
v -0.1221670 -0.4027320 1.6801430
v -0.1459520 -0.4811380 1.6574690
v -0.1693840 -0.5583840 1.6308020
v -0.1924090 -0.6342860 1.6002060
v -0.2149690 -0.7086590 1.5657550
v -0.2370120 -0.7813250 1.5275320
v -0.2584840 -0.8521090 1.4856290
v -0.2793340 -0.9208400 1.4401480
v -0.2995100 -0.9873530 1.3911960
v -0.3189650 -1.0514870 1.3388931
v -0.3376520 -1.1130880 1.2833650
v -0.3555250 -1.1720070 1.2247450
v -0.3725410 -1.2281040 1.1631740
v -0.3886600 -1.2812400 1.0988010
v -0.4038430 -1.3312910 1.0317810
v -0.4180520 -1.3781350 0.9622760
v -0.4312550 -1.4216580 0.8904520
v -0.0325230 -0.0785180 1.7299640
v -0.0649680 -0.1568480 1.7237099
v -0.0972570 -0.2347990 1.7133040
v -0.1293110 -0.3121850 1.6987700
v -0.1610540 -0.3888180 1.6801430
v -0.1924090 -0.4645150 1.6574690
v -0.2233000 -0.5390930 1.6308020
v -0.2536530 -0.6123720 1.6002060
v -0.2833950 -0.6841760 1.5657550
v -0.3124540 -0.7543310 1.5275320
v -0.3407610 -0.8226700 1.4856290
v -0.3682470 -0.8890270 1.4401480
v -0.3948460 -0.9532420 1.3911960
v -0.4204930 -1.0151600 1.3388931
v -0.4451280 -1.0746320 1.2833650
v -0.4686890 -1.1315160 1.2247450
v -0.4911220 -1.1856750 1.1631740
v -0.5123720 -1.2369760 1.0988010
v -0.5323870 -1.2852970 1.0317810
v -0.5511200 -1.3305219 0.9622760
v -0.5685250 -1.3725420 0.8904520
v -0.0400630 -0.0749520 1.7299640
v -0.0800290 -0.1497240 1.7237099
v -0.1198030 -0.2241350 1.7133040
v -0.1592880 -0.2980070 1.6987700
v -0.1983890 -0.3711600 1.6801430
v -0.2370130 -0.4434190 1.6574690
v -0.2750650 -0.5146100 1.6308020
v -0.3124550 -0.5845610 1.6002060
v -0.3490910 -0.6531040 1.5657550
v -0.3848870 -0.7200730 1.5275320
v -0.4197560 -0.7853080 1.4856290
v -0.4536140 -0.8486510 1.4401480
v -0.4863780 -0.9099500 1.3911960
v -0.5179710 -0.9690560 1.3388931
v -0.5483160 -1.0258280 1.2833650
v -0.5773410 -1.0801280 1.2247450
v -0.6049740 -1.1318270 1.1631740
v -0.6311500 -1.1807981 1.0988010
v -0.6558050 -1.2269250 1.0317810
v -0.6788800 -1.2700959 0.9622760
v -0.7003200 -1.3102070 0.8904520
v -0.0472170 -0.0706650 1.7299640
v -0.0943200 -0.1411590 1.7237099
v -0.1411950 -0.2113130 1.7133040
v -0.1877310 -0.2809590 1.6987700
v -0.2338140 -0.3499270 1.6801430
v -0.2793340 -0.4180530 1.6574690
v -0.3241810 -0.4851710 1.6308020
v -0.3682470 -0.5511200 1.6002060
v -0.4114260 -0.6157420 1.5657550
v -0.4536130 -0.6788800 1.5275320
v -0.4947080 -0.7403840 1.4856290
v -0.5346120 -0.8001030 1.4401480
v -0.5732270 -0.8578950 1.3911960
v -0.6104610 -0.9136200 1.3388931
v -0.6462250 -0.9671440 1.2833650
v -0.6804320 -1.0183380 1.2247450
v -0.7129990 -1.0670789 1.1631740
v -0.7438490 -1.1132480 1.0988010
v -0.7729070 -1.1567360 1.0317810
v -0.8001020 -1.1974380 0.9622760
v -0.8253710 -1.2352550 0.8904520
v -0.0539160 -0.0656960 1.7299640
v -0.1077010 -0.1312340 1.7237099
v -0.1612280 -0.1964560 1.7133040
v -0.2143650 -0.2612050 1.6987700
v -0.2669870 -0.3253240 1.6801430
v -0.3189650 -0.3886600 1.6574690
v -0.3701750 -0.4510590 1.6308020
v -0.4204930 -0.5123720 1.6002060
v -0.4697980 -0.5724510 1.5657550
v -0.5179710 -0.6311490 1.5275320
v -0.5648970 -0.6883290 1.4856290
v -0.6104610 -0.7438490 1.4401480
v -0.6545550 -0.7975780 1.3911960
v -0.6970720 -0.8493850 1.3388931
v -0.7379100 -0.8991450 1.2833650
v -0.7769700 -0.9467410 1.2247450
v -0.8141580 -0.9920550 1.1631740
v -0.8493850 -1.0349780 1.0988010
v -0.8825650 -1.0754080 1.0317810
v -0.9136190 -1.1132489 0.9622760
v -0.9424730 -1.1484060 0.8904520
v -0.0600950 -0.0600950 1.7299640
v -0.1200460 -0.1200460 1.7237099
v -0.1797070 -0.1797070 1.7133040
v -0.2389360 -0.2389360 1.6987700
v -0.2975890 -0.2975890 1.6801430
v -0.3555250 -0.3555250 1.6574690
v -0.4126040 -0.4126040 1.6308020
v -0.4686890 -0.4686890 1.6002060
v -0.5236460 -0.5236460 1.5657550
v -0.5773400 -0.5773400 1.5275320
v -0.6296440 -0.6296450 1.4856290
v -0.6804320 -0.6804320 1.4401480
v -0.7295800 -0.7295800 1.3911960
v -0.7769700 -0.7769700 1.3388931
v -0.8224880 -0.8224880 1.2833650
v -0.8660250 -0.8660250 1.2247450
v -0.9074760 -0.9074760 1.1631740
v -0.9467400 -0.9467400 1.0988010
v -0.9837240 -0.9837230 1.0317810
v -1.0183370 -1.0183380 0.9622760
v -1.0504980 -1.0504980 0.8904520
v -0.0656960 -0.0539160 1.7299640
v -0.1312340 -0.1077010 1.7237099
v -0.1964560 -0.1612280 1.7133040
v -0.2612050 -0.2143650 1.6987700
v -0.3253240 -0.2669870 1.6801430
v -0.3886600 -0.3189650 1.6574690
v -0.4510590 -0.3701750 1.6308020
v -0.5123720 -0.4204930 1.6002060
v -0.5724510 -0.4697980 1.5657550
v -0.6311500 -0.5179710 1.5275320
v -0.6883290 -0.5648970 1.4856290
v -0.7438490 -0.6104610 1.4401480
v -0.7975780 -0.6545550 1.3911960
v -0.8493850 -0.6970720 1.3388931
v -0.8991460 -0.7379090 1.2833650
v -0.9467400 -0.7769700 1.2247450
v -0.9920550 -0.8141580 1.1631740
v -1.0349780 -0.8493840 1.0988010
v -1.0754080 -0.8825650 1.0317810
v -1.1132480 -0.9136200 0.9622760
v -1.1484060 -0.9424730 0.8904520
v -0.0706650 -0.0472170 1.7299640
v -0.1411590 -0.0943190 1.7237099
v -0.2113130 -0.1411950 1.7133040
v -0.2809590 -0.1877310 1.6987700
v -0.3499270 -0.2338140 1.6801430
v -0.4180530 -0.2793340 1.6574690
v -0.4851710 -0.3241810 1.6308020
v -0.5511210 -0.3682470 1.6002060
v -0.6157420 -0.4114260 1.5657550
v -0.6788800 -0.4536130 1.5275320
v -0.7403840 -0.4947090 1.4856290
v -0.8001030 -0.5346120 1.4401480
v -0.8578950 -0.5732270 1.3911960
v -0.9136200 -0.6104610 1.3388931
v -0.9671440 -0.6462250 1.2833650
v -1.0183380 -0.6804320 1.2247450
v -1.0670789 -0.7129990 1.1631740
v -1.1132489 -0.7438490 1.0988010
v -1.1567360 -0.7729060 1.0317810
v -1.1974380 -0.8001030 0.9622760
v -1.2352550 -0.8253710 0.8904520
v -0.0749520 -0.0400630 1.7299640
v -0.1497240 -0.0800290 1.7237099
v -0.2241350 -0.1198030 1.7133040
v -0.2980070 -0.1592880 1.6987700
v -0.3711600 -0.1983890 1.6801430
v -0.4434190 -0.2370130 1.6574690
v -0.5146100 -0.2750650 1.6308020
v -0.5845610 -0.3124540 1.6002060
v -0.6531040 -0.3490910 1.5657550
v -0.7200730 -0.3848870 1.5275320
v -0.7853080 -0.4197560 1.4856290
v -0.8486510 -0.4536140 1.4401480
v -0.9099500 -0.4863780 1.3911960
v -0.9690560 -0.5179710 1.3388931
v -1.0258280 -0.5483160 1.2833650
v -1.0801280 -0.5773410 1.2247450
v -1.1318270 -0.6049740 1.1631740
v -1.1807981 -0.6311490 1.0988010
v -1.2269250 -0.6558050 1.0317810
v -1.2700959 -0.6788810 0.9622760
v -1.3102070 -0.7003210 0.8904520
v -0.0785180 -0.0325230 1.7299640
v -0.1568480 -0.0649680 1.7237099
v -0.2347990 -0.0972570 1.7133040
v -0.3121840 -0.1293110 1.6987700
v -0.3888180 -0.1610540 1.6801430
v -0.4645150 -0.1924090 1.6574690
v -0.5390930 -0.2233000 1.6308020
v -0.6123720 -0.2536530 1.6002060
v -0.6841760 -0.2833950 1.5657550
v -0.7543310 -0.3124540 1.5275320
v -0.8226700 -0.3407610 1.4856290
v -0.8890270 -0.3682470 1.4401480
v -0.9532420 -0.3948450 1.3911960
v -1.0151600 -0.4204930 1.3388931
v -1.0746330 -0.4451270 1.2833650
v -1.1315171 -0.4686890 1.2247450
v -1.1856750 -0.4911230 1.1631740
v -1.2369760 -0.5123720 1.0988010
v -1.2852970 -0.5323870 1.0317810
v -1.3305219 -0.5511200 0.9622760
v -1.3725420 -0.5685250 0.8904520
v -0.0813280 -0.0246710 1.7299640
v -0.1624600 -0.0492820 1.7237099
v -0.2432010 -0.0737740 1.7133040
v -0.3233560 -0.0980890 1.6987700
v -0.4027320 -0.1221670 1.6801430
v -0.4811380 -0.1459520 1.6574690
v -0.5583840 -0.1693840 1.6308020
v -0.6342860 -0.1924080 1.6002060
v -0.7086590 -0.2149690 1.5657550
v -0.7813250 -0.2370120 1.5275320
v -0.8521090 -0.2584850 1.4856290
v -0.9208400 -0.2793340 1.4401480
v -0.9873530 -0.2995100 1.3911960
v -1.0514870 -0.3189650 1.3388931
v -1.1130880 -0.3376510 1.2833650
v -1.1720080 -0.3555250 1.2247450
v -1.2281040 -0.3725410 1.1631740
v -1.2812400 -0.3886600 1.0988010
v -1.3312900 -0.4038420 1.0317810
v -1.3781340 -0.4180530 0.9622760
v -1.4216580 -0.4312550 0.8904520
v -0.0833550 -0.0165800 1.7299640
v -0.1665080 -0.0331210 1.7237099
v -0.2492610 -0.0495810 1.7133040
v -0.3314130 -0.0659220 1.6987700
v -0.4127670 -0.0821040 1.6801430
v -0.4931270 -0.0980890 1.6574690
v -0.5722980 -0.1138370 1.6308020
v -0.6500910 -0.1293110 1.6002060
v -0.7263180 -0.1444740 1.5657550
v -0.8007940 -0.1592880 1.5275320
v -0.8733420 -0.1737190 1.4856290
v -0.9437860 -0.1877310 1.4401480
v -1.0119560 -0.2012900 1.3911960
v -1.0776880 -0.2143650 1.3388931
v -1.1408240 -0.2269240 1.2833650
v -1.2012120 -0.2389360 1.2247450
v -1.2587060 -0.2503720 1.1631740
v -1.3131660 -0.2612050 1.0988010
v -1.3644630 -0.2714080 1.0317810
v -1.4124740 -0.2809590 0.9622760
v -1.4570830 -0.2898320 0.8904520
v -0.0845780 -0.0083300 1.7299640
v -0.1689530 -0.0166400 1.7237099
v -0.2529210 -0.0249110 1.7133040
v -0.3362790 -0.0331210 1.6987700
v -0.4188270 -0.0412510 1.6801430
v -0.5003670 -0.0492820 1.6574690
v -0.5807000 -0.0571940 1.6308020
v -0.6596350 -0.0649680 1.6002060
v -0.7369810 -0.0725860 1.5657550
v -0.8125510 -0.0800290 1.5275320
v -0.8861640 -0.0872800 1.4856290
v -0.9576420 -0.0943190 1.4401480
v -1.0268130 -0.1011320 1.3911960
v -1.0935100 -0.1077010 1.3388931
v -1.1575730 -0.1140110 1.2833650
v -1.2188470 -0.1200460 1.2247450
v -1.2771850 -0.1257920 1.1631740
v -1.3324460 -0.1312340 1.0988010
v -1.3844960 -0.1363610 1.0317810
v -1.4332120 -0.1411590 0.9622760
v -1.4784750 -0.1456170 0.8904520
v 0.0000000 0.0000000 1.7320510
v -0.0849880 -0.0000000 1.7299640
v -0.1697710 -0.0000000 1.7237099
v -0.2541450 -0.0000000 1.7133040
v -0.3379060 -0.0000000 1.6987700
v -0.4208540 -0.0000000 1.6801430
v -0.5027880 -0.0000000 1.6574690
v -0.5835100 -0.0000000 1.6308020
v -0.6628270 -0.0000000 1.6002060
v -0.7405470 -0.0000000 1.5657550
v -0.8164820 -0.0000000 1.5275320
v -0.8904520 -0.0000000 1.4856290
v -0.9622760 -0.0000000 1.4401480
v -1.0317810 -0.0000000 1.3911960
v -1.0988010 -0.0000000 1.3388931
v -1.1631740 -0.0000000 1.2833650
v -1.2247450 -0.0000000 1.2247450
v -1.2833650 -0.0000000 1.1631740
v -1.3388931 -0.0000000 1.0988010
v -1.3911951 -0.0000000 1.0317810
v -1.4401460 -0.0000000 0.9622760
v -1.4856280 -0.0000000 0.8904520
v 0.0000000 0.0000000 1.7320510
# 1436 vertices, 0 vertices normals

f 14 13 34
f 14 34 35
f 15 14 35
f 15 35 36
f 16 15 36
f 16 36 37
f 17 16 37
f 17 37 38
f 18 17 38
f 18 38 39
f 19 18 39
f 19 39 40
f 20 19 40
f 20 40 41
f 21 20 41
f 21 41 42
f 1 359 22
f 2 1 22
f 2 22 23
f 3 2 23
f 3 23 24
f 4 3 24
f 4 24 25
f 5 4 25
f 5 25 26
f 6 5 26
f 6 26 27
f 7 6 27
f 7 27 28
f 8 7 28
f 8 28 29
f 9 8 29
f 9 29 30
f 10 9 30
f 10 30 31
f 11 10 31
f 11 31 32
f 12 11 32
f 12 32 33
f 13 12 33
f 13 33 34
f 37 36 57
f 37 57 58
f 38 37 58
f 38 58 59
f 39 38 59
f 39 59 60
f 40 39 60
f 40 60 61
f 41 40 61
f 41 61 62
f 42 41 62
f 42 62 63
f 22 359 43
f 23 22 43
f 23 43 44
f 24 23 44
f 24 44 45
f 25 24 45
f 25 45 46
f 26 25 46
f 26 46 47
f 27 26 47
f 27 47 48
f 28 27 48
f 28 48 49
f 29 28 49
f 29 49 50
f 30 29 50
f 30 50 51
f 31 30 51
f 31 51 52
f 32 31 52
f 32 52 53
f 33 32 53
f 33 53 54
f 34 33 54
f 34 54 55
f 35 34 55
f 35 55 56
f 36 35 56
f 36 56 57
f 60 59 80
f 60 80 81
f 61 60 81
f 61 81 82
f 62 61 82
f 62 82 83
f 63 62 83
f 63 83 84
f 43 359 64
f 44 43 64
f 44 64 65
f 45 44 65
f 45 65 66
f 46 45 66
f 46 66 67
f 47 46 67
f 47 67 68
f 48 47 68
f 48 68 69
f 49 48 69
f 49 69 70
f 50 49 70
f 50 70 71
f 51 50 71
f 51 71 72
f 52 51 72
f 52 72 73
f 53 52 73
f 53 73 74
f 54 53 74
f 54 74 75
f 55 54 75
f 55 75 76
f 56 55 76
f 56 76 77
f 57 56 77
f 57 77 78
f 58 57 78
f 58 78 79
f 59 58 79
f 59 79 80
f 83 82 103
f 83 103 104
f 84 83 104
f 84 104 105
f 64 359 85
f 65 64 85
f 65 85 86
f 66 65 86
f 66 86 87
f 67 66 87
f 67 87 88
f 68 67 88
f 68 88 89
f 69 68 89
f 69 89 90
f 70 69 90
f 70 90 91
f 71 70 91
f 71 91 92
f 72 71 92
f 72 92 93
f 73 72 93
f 73 93 94
f 74 73 94
f 74 94 95
f 75 74 95
f 75 95 96
f 76 75 96
f 76 96 97
f 77 76 97
f 77 97 98
f 78 77 98
f 78 98 99
f 79 78 99
f 79 99 100
f 80 79 100
f 80 100 101
f 81 80 101
f 81 101 102
f 82 81 102
f 82 102 103
f 85 359 106
f 86 85 106
f 86 106 107
f 87 86 107
f 87 107 108
f 88 87 108
f 88 108 109
f 89 88 109
f 89 109 110
f 90 89 110
f 90 110 111
f 91 90 111
f 91 111 112
f 92 91 112
f 92 112 113
f 93 92 113
f 93 113 114
f 94 93 114
f 94 114 115
f 95 94 115
f 95 115 116
f 96 95 116
f 96 116 117
f 97 96 117
f 97 117 118
f 98 97 118
f 98 118 119
f 99 98 119
f 99 119 120
f 100 99 120
f 100 120 121
f 101 100 121
f 101 121 122
f 102 101 122
f 102 122 123
f 103 102 123
f 103 123 124
f 104 103 124
f 104 124 125
f 105 104 125
f 105 125 126
f 106 359 127
f 107 106 127
f 107 127 128
f 108 107 128
f 108 128 129
f 109 108 129
f 109 129 130
f 110 109 130
f 110 130 131
f 111 110 131
f 111 131 132
f 112 111 132
f 112 132 133
f 113 112 133
f 113 133 134
f 114 113 134
f 114 134 135
f 115 114 135
f 115 135 136
f 116 115 136
f 116 136 137
f 117 116 137
f 117 137 138
f 118 117 138
f 118 138 139
f 119 118 139
f 119 139 140
f 120 119 140
f 120 140 141
f 121 120 141
f 121 141 142
f 122 121 142
f 122 142 143
f 123 122 143
f 123 143 144
f 124 123 144
f 124 144 145
f 125 124 145
f 125 145 146
f 126 125 146
f 126 146 147
f 127 359 148
f 128 127 148
f 128 148 149
f 129 128 149
f 129 149 150
f 130 129 150
f 130 150 151
f 131 130 151
f 131 151 152
f 132 131 152
f 132 152 153
f 133 132 153
f 133 153 154
f 134 133 154
f 134 154 155
f 135 134 155
f 135 155 156
f 136 135 156
f 136 156 157
f 137 136 157
f 137 157 158
f 138 137 158
f 138 158 159
f 139 138 159
f 139 159 160
f 140 139 160
f 140 160 161
f 141 140 161
f 141 161 162
f 142 141 162
f 142 162 163
f 143 142 163
f 143 163 164
f 144 143 164
f 144 164 165
f 145 144 165
f 145 165 166
f 146 145 166
f 146 166 167
f 147 146 167
f 147 167 168
f 158 157 178
f 158 178 179
f 159 158 179
f 159 179 180
f 160 159 180
f 160 180 181
f 161 160 181
f 161 181 182
f 162 161 182
f 162 182 183
f 163 162 183
f 163 183 184
f 164 163 184
f 164 184 185
f 165 164 185
f 165 185 186
f 166 165 186
f 166 186 187
f 167 166 187
f 167 187 188
f 168 167 188
f 168 188 189
f 148 359 169
f 149 148 169
f 149 169 170
f 150 149 170
f 150 170 171
f 151 150 171
f 151 171 172
f 152 151 172
f 152 172 173
f 153 152 173
f 153 173 174
f 154 153 174
f 154 174 175
f 155 154 175
f 155 175 176
f 156 155 176
f 156 176 177
f 157 156 177
f 157 177 178
f 181 180 201
f 181 201 202
f 182 181 202
f 182 202 203
f 183 182 203
f 183 203 204
f 184 183 204
f 184 204 205
f 185 184 205
f 185 205 206
f 186 185 206
f 186 206 207
f 187 186 207
f 187 207 208
f 188 187 208
f 188 208 209
f 189 188 209
f 189 209 210
f 169 359 190
f 170 169 190
f 170 190 191
f 171 170 191
f 171 191 192
f 172 171 192
f 172 192 193
f 173 172 193
f 173 193 194
f 174 173 194
f 174 194 195
f 175 174 195
f 175 195 196
f 176 175 196
f 176 196 197
f 177 176 197
f 177 197 198
f 178 177 198
f 178 198 199
f 179 178 199
f 179 199 200
f 180 179 200
f 180 200 201
f 204 203 224
f 204 224 225
f 205 204 225
f 205 225 226
f 206 205 226
f 206 226 227
f 207 206 227
f 207 227 228
f 208 207 228
f 208 228 229
f 209 208 229
f 209 229 230
f 210 209 230
f 210 230 231
f 190 359 211
f 191 190 211
f 191 211 212
f 192 191 212
f 192 212 213
f 193 192 213
f 193 213 214
f 194 193 214
f 194 214 215
f 195 194 215
f 195 215 216
f 196 195 216
f 196 216 217
f 197 196 217
f 197 217 218
f 198 197 218
f 198 218 219
f 199 198 219
f 199 219 220
f 200 199 220
f 200 220 221
f 201 200 221
f 201 221 222
f 202 201 222
f 202 222 223
f 203 202 223
f 203 223 224
f 227 226 247
f 227 247 248
f 228 227 248
f 228 248 249
f 229 228 249
f 229 249 250
f 230 229 250
f 230 250 251
f 231 230 251
f 231 251 252
f 211 359 232
f 212 211 232
f 212 232 233
f 213 212 233
f 213 233 234
f 214 213 234
f 214 234 235
f 215 214 235
f 215 235 236
f 216 215 236
f 216 236 237
f 217 216 237
f 217 237 238
f 218 217 238
f 218 238 239
f 219 218 239
f 219 239 240
f 220 219 240
f 220 240 241
f 221 220 241
f 221 241 242
f 222 221 242
f 222 242 243
f 223 222 243
f 223 243 244
f 224 223 244
f 224 244 245
f 225 224 245
f 225 245 246
f 226 225 246
f 226 246 247
f 250 249 270
f 250 270 271
f 251 250 271
f 251 271 272
f 252 251 272
f 252 272 273
f 232 359 253
f 233 232 253
f 233 253 254
f 234 233 254
f 234 254 255
f 235 234 255
f 235 255 256
f 236 235 256
f 236 256 257
f 237 236 257
f 237 257 258
f 238 237 258
f 238 258 259
f 239 238 259
f 239 259 260
f 240 239 260
f 240 260 261
f 241 240 261
f 241 261 262
f 242 241 262
f 242 262 263
f 243 242 263
f 243 263 264
f 244 243 264
f 244 264 265
f 245 244 265
f 245 265 266
f 246 245 266
f 246 266 267
f 247 246 267
f 247 267 268
f 248 247 268
f 248 268 269
f 249 248 269
f 249 269 270
f 273 272 293
f 273 293 294
f 253 359 274
f 254 253 274
f 254 274 275
f 255 254 275
f 255 275 276
f 256 255 276
f 256 276 277
f 257 256 277
f 257 277 278
f 258 257 278
f 258 278 279
f 259 258 279
f 259 279 280
f 260 259 280
f 260 280 281
f 261 260 281
f 261 281 282
f 262 261 282
f 262 282 283
f 263 262 283
f 263 283 284
f 264 263 284
f 264 284 285
f 265 264 285
f 265 285 286
f 266 265 286
f 266 286 287
f 267 266 287
f 267 287 288
f 268 267 288
f 268 288 289
f 269 268 289
f 269 289 290
f 270 269 290
f 270 290 291
f 271 270 291
f 271 291 292
f 272 271 292
f 272 292 293
f 274 359 295
f 275 274 295
f 275 295 296
f 276 275 296
f 276 296 297
f 277 276 297
f 277 297 298
f 278 277 298
f 278 298 299
f 279 278 299
f 279 299 300
f 280 279 300
f 280 300 301
f 281 280 301
f 281 301 302
f 282 281 302
f 282 302 303
f 283 282 303
f 283 303 304
f 284 283 304
f 284 304 305
f 285 284 305
f 285 305 306
f 286 285 306
f 286 306 307
f 287 286 307
f 287 307 308
f 288 287 308
f 288 308 309
f 289 288 309
f 289 309 310
f 290 289 310
f 290 310 311
f 291 290 311
f 291 311 312
f 292 291 312
f 292 312 313
f 293 292 313
f 293 313 314
f 294 293 314
f 294 314 315
f 295 337 316
f 296 295 316
f 296 316 317
f 297 296 317
f 297 317 318
f 298 297 318
f 298 318 319
f 299 298 319
f 299 319 320
f 300 299 320
f 300 320 321
f 301 300 321
f 301 321 322
f 302 301 322
f 302 322 323
f 303 302 323
f 303 323 324
f 304 303 324
f 304 324 325
f 305 304 325
f 305 325 326
f 306 305 326
f 306 326 327
f 307 306 327
f 307 327 328
f 308 307 328
f 308 328 329
f 309 308 329
f 309 329 330
f 310 309 330
f 310 330 331
f 311 310 331
f 311 331 332
f 312 311 332
f 312 332 333
f 313 312 333
f 313 333 334
f 314 313 334
f 314 334 335
f 315 314 335
f 315 335 336
f 316 337 338
f 317 316 338
f 317 338 339
f 318 317 339
f 318 339 340
f 319 318 340
f 319 340 341
f 320 319 341
f 320 341 342
f 321 320 342
f 321 342 343
f 322 321 343
f 322 343 344
f 323 322 344
f 323 344 345
f 324 323 345
f 324 345 346
f 325 324 346
f 325 346 347
f 326 325 347
f 326 347 348
f 327 326 348
f 327 348 349
f 328 327 349
f 328 349 350
f 329 328 350
f 329 350 351
f 330 329 351
f 330 351 352
f 331 330 352
f 331 352 353
f 332 331 353
f 332 353 354
f 333 332 354
f 333 354 355
f 334 333 355
f 334 355 356
f 335 334 356
f 335 356 357
f 336 335 357
f 336 357 358
f 373 372 393
f 373 393 394
f 374 373 394
f 374 394 395
f 375 374 395
f 375 395 396
f 376 375 396
f 376 396 397
f 377 376 397
f 377 397 398
f 378 377 398
f 378 398 399
f 379 378 399
f 379 399 400
f 380 379 400
f 380 400 401
f 360 718 381
f 361 360 381
f 361 381 382
f 362 361 382
f 362 382 383
f 363 362 383
f 363 383 384
f 364 363 384
f 364 384 385
f 365 364 385
f 365 385 386
f 366 365 386
f 366 386 387
f 367 366 387
f 367 387 388
f 368 367 388
f 368 388 389
f 369 368 389
f 369 389 390
f 370 369 390
f 370 390 391
f 371 370 391
f 371 391 392
f 372 371 392
f 372 392 393
f 396 395 416
f 396 416 417
f 397 396 417
f 397 417 418
f 398 397 418
f 398 418 419
f 399 398 419
f 399 419 420
f 400 399 420
f 400 420 421
f 401 400 421
f 401 421 422
f 381 718 402
f 382 381 402
f 382 402 403
f 383 382 403
f 383 403 404
f 384 383 404
f 384 404 405
f 385 384 405
f 385 405 406
f 386 385 406
f 386 406 407
f 387 386 407
f 387 407 408
f 388 387 408
f 388 408 409
f 389 388 409
f 389 409 410
f 390 389 410
f 390 410 411
f 391 390 411
f 391 411 412
f 392 391 412
f 392 412 413
f 393 392 413
f 393 413 414
f 394 393 414
f 394 414 415
f 395 394 415
f 395 415 416
f 419 418 439
f 419 439 440
f 420 419 440
f 420 440 441
f 421 420 441
f 421 441 442
f 422 421 442
f 422 442 443
f 402 718 423
f 403 402 423
f 403 423 424
f 404 403 424
f 404 424 425
f 405 404 425
f 405 425 426
f 406 405 426
f 406 426 427
f 407 406 427
f 407 427 428
f 408 407 428
f 408 428 429
f 409 408 429
f 409 429 430
f 410 409 430
f 410 430 431
f 411 410 431
f 411 431 432
f 412 411 432
f 412 432 433
f 413 412 433
f 413 433 434
f 414 413 434
f 414 434 435
f 415 414 435
f 415 435 436
f 416 415 436
f 416 436 437
f 417 416 437
f 417 437 438
f 418 417 438
f 418 438 439
f 442 441 462
f 442 462 463
f 443 442 463
f 443 463 464
f 423 718 444
f 424 423 444
f 424 444 445
f 425 424 445
f 425 445 446
f 426 425 446
f 426 446 447
f 427 426 447
f 427 447 448
f 428 427 448
f 428 448 449
f 429 428 449
f 429 449 450
f 430 429 450
f 430 450 451
f 431 430 451
f 431 451 452
f 432 431 452
f 432 452 453
f 433 432 453
f 433 453 454
f 434 433 454
f 434 454 455
f 435 434 455
f 435 455 456
f 436 435 456
f 436 456 457
f 437 436 457
f 437 457 458
f 438 437 458
f 438 458 459
f 439 438 459
f 439 459 460
f 440 439 460
f 440 460 461
f 441 440 461
f 441 461 462
f 444 718 465
f 445 444 465
f 445 465 466
f 446 445 466
f 446 466 467
f 447 446 467
f 447 467 468
f 448 447 468
f 448 468 469
f 449 448 469
f 449 469 470
f 450 449 470
f 450 470 471
f 451 450 471
f 451 471 472
f 452 451 472
f 452 472 473
f 453 452 473
f 453 473 474
f 454 453 474
f 454 474 475
f 455 454 475
f 455 475 476
f 456 455 476
f 456 476 477
f 457 456 477
f 457 477 478
f 458 457 478
f 458 478 479
f 459 458 479
f 459 479 480
f 460 459 480
f 460 480 481
f 461 460 481
f 461 481 482
f 462 461 482
f 462 482 483
f 463 462 483
f 463 483 484
f 464 463 484
f 464 484 485
f 465 718 486
f 466 465 486
f 466 486 487
f 467 466 487
f 467 487 488
f 468 467 488
f 468 488 489
f 469 468 489
f 469 489 490
f 470 469 490
f 470 490 491
f 471 470 491
f 471 491 492
f 472 471 492
f 472 492 493
f 473 472 493
f 473 493 494
f 474 473 494
f 474 494 495
f 475 474 495
f 475 495 496
f 476 475 496
f 476 496 497
f 477 476 497
f 477 497 498
f 478 477 498
f 478 498 499
f 479 478 499
f 479 499 500
f 480 479 500
f 480 500 501
f 481 480 501
f 481 501 502
f 482 481 502
f 482 502 503
f 483 482 503
f 483 503 504
f 484 483 504
f 484 504 505
f 485 484 505
f 485 505 506
f 486 718 507
f 487 486 507
f 487 507 508
f 488 487 508
f 488 508 509
f 489 488 509
f 489 509 510
f 490 489 510
f 490 510 511
f 491 490 511
f 491 511 512
f 492 491 512
f 492 512 513
f 493 492 513
f 493 513 514
f 494 493 514
f 494 514 515
f 495 494 515
f 495 515 516
f 496 495 516
f 496 516 517
f 497 496 517
f 497 517 518
f 498 497 518
f 498 518 519
f 499 498 519
f 499 519 520
f 500 499 520
f 500 520 521
f 501 500 521
f 501 521 522
f 502 501 522
f 502 522 523
f 503 502 523
f 503 523 524
f 504 503 524
f 504 524 525
f 505 504 525
f 505 525 526
f 506 505 526
f 506 526 527
f 517 516 537
f 517 537 538
f 518 517 538
f 518 538 539
f 519 518 539
f 519 539 540
f 520 519 540
f 520 540 541
f 521 520 541
f 521 541 542
f 522 521 542
f 522 542 543
f 523 522 543
f 523 543 544
f 524 523 544
f 524 544 545
f 525 524 545
f 525 545 546
f 526 525 546
f 526 546 547
f 527 526 547
f 527 547 548
f 507 718 528
f 508 507 528
f 508 528 529
f 509 508 529
f 509 529 530
f 510 509 530
f 510 530 531
f 511 510 531
f 511 531 532
f 512 511 532
f 512 532 533
f 513 512 533
f 513 533 534
f 514 513 534
f 514 534 535
f 515 514 535
f 515 535 536
f 516 515 536
f 516 536 537
f 540 539 560
f 540 560 561
f 541 540 561
f 541 561 562
f 542 541 562
f 542 562 563
f 543 542 563
f 543 563 564
f 544 543 564
f 544 564 565
f 545 544 565
f 545 565 566
f 546 545 566
f 546 566 567
f 547 546 567
f 547 567 568
f 548 547 568
f 548 568 569
f 528 718 549
f 529 528 549
f 529 549 550
f 530 529 550
f 530 550 551
f 531 530 551
f 531 551 552
f 532 531 552
f 532 552 553
f 533 532 553
f 533 553 554
f 534 533 554
f 534 554 555
f 535 534 555
f 535 555 556
f 536 535 556
f 536 556 557
f 537 536 557
f 537 557 558
f 538 537 558
f 538 558 559
f 539 538 559
f 539 559 560
f 563 562 583
f 563 583 584
f 564 563 584
f 564 584 585
f 565 564 585
f 565 585 586
f 566 565 586
f 566 586 587
f 567 566 587
f 567 587 588
f 568 567 588
f 568 588 589
f 569 568 589
f 569 589 590
f 549 718 570
f 550 549 570
f 550 570 571
f 551 550 571
f 551 571 572
f 552 551 572
f 552 572 573
f 553 552 573
f 553 573 574
f 554 553 574
f 554 574 575
f 555 554 575
f 555 575 576
f 556 555 576
f 556 576 577
f 557 556 577
f 557 577 578
f 558 557 578
f 558 578 579
f 559 558 579
f 559 579 580
f 560 559 580
f 560 580 581
f 561 560 581
f 561 581 582
f 562 561 582
f 562 582 583
f 586 585 606
f 586 606 607
f 587 586 607
f 587 607 608
f 588 587 608
f 588 608 609
f 589 588 609
f 589 609 610
f 590 589 610
f 590 610 611
f 570 718 591
f 571 570 591
f 571 591 592
f 572 571 592
f 572 592 593
f 573 572 593
f 573 593 594
f 574 573 594
f 574 594 595
f 575 574 595
f 575 595 596
f 576 575 596
f 576 596 597
f 577 576 597
f 577 597 598
f 578 577 598
f 578 598 599
f 579 578 599
f 579 599 600
f 580 579 600
f 580 600 601
f 581 580 601
f 581 601 602
f 582 581 602
f 582 602 603
f 583 582 603
f 583 603 604
f 584 583 604
f 584 604 605
f 585 584 605
f 585 605 606
f 609 608 629
f 609 629 630
f 610 609 630
f 610 630 631
f 611 610 631
f 611 631 632
f 591 718 612
f 592 591 612
f 592 612 613
f 593 592 613
f 593 613 614
f 594 593 614
f 594 614 615
f 595 594 615
f 595 615 616
f 596 595 616
f 596 616 617
f 597 596 617
f 597 617 618
f 598 597 618
f 598 618 619
f 599 598 619
f 599 619 620
f 600 599 620
f 600 620 621
f 601 600 621
f 601 621 622
f 602 601 622
f 602 622 623
f 603 602 623
f 603 623 624
f 604 603 624
f 604 624 625
f 605 604 625
f 605 625 626
f 606 605 626
f 606 626 627
f 607 606 627
f 607 627 628
f 608 607 628
f 608 628 629
f 632 631 652
f 632 652 653
f 612 718 633
f 613 612 633
f 613 633 634
f 614 613 634
f 614 634 635
f 615 614 635
f 615 635 636
f 616 615 636
f 616 636 637
f 617 616 637
f 617 637 638
f 618 617 638
f 618 638 639
f 619 618 639
f 619 639 640
f 620 619 640
f 620 640 641
f 621 620 641
f 621 641 642
f 622 621 642
f 622 642 643
f 623 622 643
f 623 643 644
f 624 623 644
f 624 644 645
f 625 624 645
f 625 645 646
f 626 625 646
f 626 646 647
f 627 626 647
f 627 647 648
f 628 627 648
f 628 648 649
f 629 628 649
f 629 649 650
f 630 629 650
f 630 650 651
f 631 630 651
f 631 651 652
f 633 718 654
f 634 633 654
f 634 654 655
f 635 634 655
f 635 655 656
f 636 635 656
f 636 656 657
f 637 636 657
f 637 657 658
f 638 637 658
f 638 658 659
f 639 638 659
f 639 659 660
f 640 639 660
f 640 660 661
f 641 640 661
f 641 661 662
f 642 641 662
f 642 662 663
f 643 642 663
f 643 663 664
f 644 643 664
f 644 664 665
f 645 644 665
f 645 665 666
f 646 645 666
f 646 666 667
f 647 646 667
f 647 667 668
f 648 647 668
f 648 668 669
f 649 648 669
f 649 669 670
f 650 649 670
f 650 670 671
f 651 650 671
f 651 671 672
f 652 651 672
f 652 672 673
f 653 652 673
f 653 673 674
f 654 696 675
f 655 654 675
f 655 675 676
f 656 655 676
f 656 676 677
f 657 656 677
f 657 677 678
f 658 657 678
f 658 678 679
f 659 658 679
f 659 679 680
f 660 659 680
f 660 680 681
f 661 660 681
f 661 681 682
f 662 661 682
f 662 682 683
f 663 662 683
f 663 683 684
f 664 663 684
f 664 684 685
f 665 664 685
f 665 685 686
f 666 665 686
f 666 686 687
f 667 666 687
f 667 687 688
f 668 667 688
f 668 688 689
f 669 668 689
f 669 689 690
f 670 669 690
f 670 690 691
f 671 670 691
f 671 691 692
f 672 671 692
f 672 692 693
f 673 672 693
f 673 693 694
f 674 673 694
f 674 694 695
f 675 696 697
f 676 675 697
f 676 697 698
f 677 676 698
f 677 698 699
f 678 677 699
f 678 699 700
f 679 678 700
f 679 700 701
f 680 679 701
f 680 701 702
f 681 680 702
f 681 702 703
f 682 681 703
f 682 703 704
f 683 682 704
f 683 704 705
f 684 683 705
f 684 705 706
f 685 684 706
f 685 706 707
f 686 685 707
f 686 707 708
f 687 686 708
f 687 708 709
f 688 687 709
f 688 709 710
f 689 688 710
f 689 710 711
f 690 689 711
f 690 711 712
f 691 690 712
f 691 712 713
f 692 691 713
f 692 713 714
f 693 692 714
f 693 714 715
f 694 693 715
f 694 715 716
f 695 694 716
f 695 716 717
f 732 731 752
f 732 752 753
f 733 732 753
f 733 753 754
f 734 733 754
f 734 754 755
f 735 734 755
f 735 755 756
f 736 735 756
f 736 756 757
f 737 736 757
f 737 757 758
f 738 737 758
f 738 758 759
f 739 738 759
f 739 759 760
f 719 1077 740
f 720 719 740
f 720 740 741
f 721 720 741
f 721 741 742
f 722 721 742
f 722 742 743
f 723 722 743
f 723 743 744
f 724 723 744
f 724 744 745
f 725 724 745
f 725 745 746
f 726 725 746
f 726 746 747
f 727 726 747
f 727 747 748
f 728 727 748
f 728 748 749
f 729 728 749
f 729 749 750
f 730 729 750
f 730 750 751
f 731 730 751
f 731 751 752
f 755 754 775
f 755 775 776
f 756 755 776
f 756 776 777
f 757 756 777
f 757 777 778
f 758 757 778
f 758 778 779
f 759 758 779
f 759 779 780
f 760 759 780
f 760 780 781
f 740 1077 761
f 741 740 761
f 741 761 762
f 742 741 762
f 742 762 763
f 743 742 763
f 743 763 764
f 744 743 764
f 744 764 765
f 745 744 765
f 745 765 766
f 746 745 766
f 746 766 767
f 747 746 767
f 747 767 768
f 748 747 768
f 748 768 769
f 749 748 769
f 749 769 770
f 750 749 770
f 750 770 771
f 751 750 771
f 751 771 772
f 752 751 772
f 752 772 773
f 753 752 773
f 753 773 774
f 754 753 774
f 754 774 775
f 778 777 798
f 778 798 799
f 779 778 799
f 779 799 800
f 780 779 800
f 780 800 801
f 781 780 801
f 781 801 802
f 761 1077 782
f 762 761 782
f 762 782 783
f 763 762 783
f 763 783 784
f 764 763 784
f 764 784 785
f 765 764 785
f 765 785 786
f 766 765 786
f 766 786 787
f 767 766 787
f 767 787 788
f 768 767 788
f 768 788 789
f 769 768 789
f 769 789 790
f 770 769 790
f 770 790 791
f 771 770 791
f 771 791 792
f 772 771 792
f 772 792 793
f 773 772 793
f 773 793 794
f 774 773 794
f 774 794 795
f 775 774 795
f 775 795 796
f 776 775 796
f 776 796 797
f 777 776 797
f 777 797 798
f 801 800 821
f 801 821 822
f 802 801 822
f 802 822 823
f 782 1077 803
f 783 782 803
f 783 803 804
f 784 783 804
f 784 804 805
f 785 784 805
f 785 805 806
f 786 785 806
f 786 806 807
f 787 786 807
f 787 807 808
f 788 787 808
f 788 808 809
f 789 788 809
f 789 809 810
f 790 789 810
f 790 810 811
f 791 790 811
f 791 811 812
f 792 791 812
f 792 812 813
f 793 792 813
f 793 813 814
f 794 793 814
f 794 814 815
f 795 794 815
f 795 815 816
f 796 795 816
f 796 816 817
f 797 796 817
f 797 817 818
f 798 797 818
f 798 818 819
f 799 798 819
f 799 819 820
f 800 799 820
f 800 820 821
f 803 1077 824
f 804 803 824
f 804 824 825
f 805 804 825
f 805 825 826
f 806 805 826
f 806 826 827
f 807 806 827
f 807 827 828
f 808 807 828
f 808 828 829
f 809 808 829
f 809 829 830
f 810 809 830
f 810 830 831
f 811 810 831
f 811 831 832
f 812 811 832
f 812 832 833
f 813 812 833
f 813 833 834
f 814 813 834
f 814 834 835
f 815 814 835
f 815 835 836
f 816 815 836
f 816 836 837
f 817 816 837
f 817 837 838
f 818 817 838
f 818 838 839
f 819 818 839
f 819 839 840
f 820 819 840
f 820 840 841
f 821 820 841
f 821 841 842
f 822 821 842
f 822 842 843
f 823 822 843
f 823 843 844
f 824 1077 845
f 825 824 845
f 825 845 846
f 826 825 846
f 826 846 847
f 827 826 847
f 827 847 848
f 828 827 848
f 828 848 849
f 829 828 849
f 829 849 850
f 830 829 850
f 830 850 851
f 831 830 851
f 831 851 852
f 832 831 852
f 832 852 853
f 833 832 853
f 833 853 854
f 834 833 854
f 834 854 855
f 835 834 855
f 835 855 856
f 836 835 856
f 836 856 857
f 837 836 857
f 837 857 858
f 838 837 858
f 838 858 859
f 839 838 859
f 839 859 860
f 840 839 860
f 840 860 861
f 841 840 861
f 841 861 862
f 842 841 862
f 842 862 863
f 843 842 863
f 843 863 864
f 844 843 864
f 844 864 865
f 845 1077 866
f 846 845 866
f 846 866 867
f 847 846 867
f 847 867 868
f 848 847 868
f 848 868 869
f 849 848 869
f 849 869 870
f 850 849 870
f 850 870 871
f 851 850 871
f 851 871 872
f 852 851 872
f 852 872 873
f 853 852 873
f 853 873 874
f 854 853 874
f 854 874 875
f 855 854 875
f 855 875 876
f 856 855 876
f 856 876 877
f 857 856 877
f 857 877 878
f 858 857 878
f 858 878 879
f 859 858 879
f 859 879 880
f 860 859 880
f 860 880 881
f 861 860 881
f 861 881 882
f 862 861 882
f 862 882 883
f 863 862 883
f 863 883 884
f 864 863 884
f 864 884 885
f 865 864 885
f 865 885 886
f 876 875 896
f 876 896 897
f 877 876 897
f 877 897 898
f 878 877 898
f 878 898 899
f 879 878 899
f 879 899 900
f 880 879 900
f 880 900 901
f 881 880 901
f 881 901 902
f 882 881 902
f 882 902 903
f 883 882 903
f 883 903 904
f 884 883 904
f 884 904 905
f 885 884 905
f 885 905 906
f 886 885 906
f 886 906 907
f 866 1077 887
f 867 866 887
f 867 887 888
f 868 867 888
f 868 888 889
f 869 868 889
f 869 889 890
f 870 869 890
f 870 890 891
f 871 870 891
f 871 891 892
f 872 871 892
f 872 892 893
f 873 872 893
f 873 893 894
f 874 873 894
f 874 894 895
f 875 874 895
f 875 895 896
f 899 898 919
f 899 919 920
f 900 899 920
f 900 920 921
f 901 900 921
f 901 921 922
f 902 901 922
f 902 922 923
f 903 902 923
f 903 923 924
f 904 903 924
f 904 924 925
f 905 904 925
f 905 925 926
f 906 905 926
f 906 926 927
f 907 906 927
f 907 927 928
f 887 1077 908
f 888 887 908
f 888 908 909
f 889 888 909
f 889 909 910
f 890 889 910
f 890 910 911
f 891 890 911
f 891 911 912
f 892 891 912
f 892 912 913
f 893 892 913
f 893 913 914
f 894 893 914
f 894 914 915
f 895 894 915
f 895 915 916
f 896 895 916
f 896 916 917
f 897 896 917
f 897 917 918
f 898 897 918
f 898 918 919
f 922 921 942
f 922 942 943
f 923 922 943
f 923 943 944
f 924 923 944
f 924 944 945
f 925 924 945
f 925 945 946
f 926 925 946
f 926 946 947
f 927 926 947
f 927 947 948
f 928 927 948
f 928 948 949
f 908 1077 929
f 909 908 929
f 909 929 930
f 910 909 930
f 910 930 931
f 911 910 931
f 911 931 932
f 912 911 932
f 912 932 933
f 913 912 933
f 913 933 934
f 914 913 934
f 914 934 935
f 915 914 935
f 915 935 936
f 916 915 936
f 916 936 937
f 917 916 937
f 917 937 938
f 918 917 938
f 918 938 939
f 919 918 939
f 919 939 940
f 920 919 940
f 920 940 941
f 921 920 941
f 921 941 942
f 945 944 965
f 945 965 966
f 946 945 966
f 946 966 967
f 947 946 967
f 947 967 968
f 948 947 968
f 948 968 969
f 949 948 969
f 949 969 970
f 929 1077 950
f 930 929 950
f 930 950 951
f 931 930 951
f 931 951 952
f 932 931 952
f 932 952 953
f 933 932 953
f 933 953 954
f 934 933 954
f 934 954 955
f 935 934 955
f 935 955 956
f 936 935 956
f 936 956 957
f 937 936 957
f 937 957 958
f 938 937 958
f 938 958 959
f 939 938 959
f 939 959 960
f 940 939 960
f 940 960 961
f 941 940 961
f 941 961 962
f 942 941 962
f 942 962 963
f 943 942 963
f 943 963 964
f 944 943 964
f 944 964 965
f 968 967 988
f 968 988 989
f 969 968 989
f 969 989 990
f 970 969 990
f 970 990 991
f 950 1077 971
f 951 950 971
f 951 971 972
f 952 951 972
f 952 972 973
f 953 952 973
f 953 973 974
f 954 953 974
f 954 974 975
f 955 954 975
f 955 975 976
f 956 955 976
f 956 976 977
f 957 956 977
f 957 977 978
f 958 957 978
f 958 978 979
f 959 958 979
f 959 979 980
f 960 959 980
f 960 980 981
f 961 960 981
f 961 981 982
f 962 961 982
f 962 982 983
f 963 962 983
f 963 983 984
f 964 963 984
f 964 984 985
f 965 964 985
f 965 985 986
f 966 965 986
f 966 986 987
f 967 966 987
f 967 987 988
f 991 990 1011
f 991 1011 1012
f 971 1077 992
f 972 971 992
f 972 992 993
f 973 972 993
f 973 993 994
f 974 973 994
f 974 994 995
f 975 974 995
f 975 995 996
f 976 975 996
f 976 996 997
f 977 976 997
f 977 997 998
f 978 977 998
f 978 998 999
f 979 978 999
f 979 999 1000
f 980 979 1000
f 980 1000 1001
f 981 980 1001
f 981 1001 1002
f 982 981 1002
f 982 1002 1003
f 983 982 1003
f 983 1003 1004
f 984 983 1004
f 984 1004 1005
f 985 984 1005
f 985 1005 1006
f 986 985 1006
f 986 1006 1007
f 987 986 1007
f 987 1007 1008
f 988 987 1008
f 988 1008 1009
f 989 988 1009
f 989 1009 1010
f 990 989 1010
f 990 1010 1011
f 992 1077 1013
f 993 992 1013
f 993 1013 1014
f 994 993 1014
f 994 1014 1015
f 995 994 1015
f 995 1015 1016
f 996 995 1016
f 996 1016 1017
f 997 996 1017
f 997 1017 1018
f 998 997 1018
f 998 1018 1019
f 999 998 1019
f 999 1019 1020
f 1000 999 1020
f 1000 1020 1021
f 1001 1000 1021
f 1001 1021 1022
f 1002 1001 1022
f 1002 1022 1023
f 1003 1002 1023
f 1003 1023 1024
f 1004 1003 1024
f 1004 1024 1025
f 1005 1004 1025
f 1005 1025 1026
f 1006 1005 1026
f 1006 1026 1027
f 1007 1006 1027
f 1007 1027 1028
f 1008 1007 1028
f 1008 1028 1029
f 1009 1008 1029
f 1009 1029 1030
f 1010 1009 1030
f 1010 1030 1031
f 1011 1010 1031
f 1011 1031 1032
f 1012 1011 1032
f 1012 1032 1033
f 1013 1055 1034
f 1014 1013 1034
f 1014 1034 1035
f 1015 1014 1035
f 1015 1035 1036
f 1016 1015 1036
f 1016 1036 1037
f 1017 1016 1037
f 1017 1037 1038
f 1018 1017 1038
f 1018 1038 1039
f 1019 1018 1039
f 1019 1039 1040
f 1020 1019 1040
f 1020 1040 1041
f 1021 1020 1041
f 1021 1041 1042
f 1022 1021 1042
f 1022 1042 1043
f 1023 1022 1043
f 1023 1043 1044
f 1024 1023 1044
f 1024 1044 1045
f 1025 1024 1045
f 1025 1045 1046
f 1026 1025 1046
f 1026 1046 1047
f 1027 1026 1047
f 1027 1047 1048
f 1028 1027 1048
f 1028 1048 1049
f 1029 1028 1049
f 1029 1049 1050
f 1030 1029 1050
f 1030 1050 1051
f 1031 1030 1051
f 1031 1051 1052
f 1032 1031 1052
f 1032 1052 1053
f 1033 1032 1053
f 1033 1053 1054
f 1034 1055 1056
f 1035 1034 1056
f 1035 1056 1057
f 1036 1035 1057
f 1036 1057 1058
f 1037 1036 1058
f 1037 1058 1059
f 1038 1037 1059
f 1038 1059 1060
f 1039 1038 1060
f 1039 1060 1061
f 1040 1039 1061
f 1040 1061 1062
f 1041 1040 1062
f 1041 1062 1063
f 1042 1041 1063
f 1042 1063 1064
f 1043 1042 1064
f 1043 1064 1065
f 1044 1043 1065
f 1044 1065 1066
f 1045 1044 1066
f 1045 1066 1067
f 1046 1045 1067
f 1046 1067 1068
f 1047 1046 1068
f 1047 1068 1069
f 1048 1047 1069
f 1048 1069 1070
f 1049 1048 1070
f 1049 1070 1071
f 1050 1049 1071
f 1050 1071 1072
f 1051 1050 1072
f 1051 1072 1073
f 1052 1051 1073
f 1052 1073 1074
f 1053 1052 1074
f 1053 1074 1075
f 1054 1053 1075
f 1054 1075 1076
f 1091 1090 1111
f 1091 1111 1112
f 1092 1091 1112
f 1092 1112 1113
f 1093 1092 1113
f 1093 1113 1114
f 1094 1093 1114
f 1094 1114 1115
f 1095 1094 1115
f 1095 1115 1116
f 1096 1095 1116
f 1096 1116 1117
f 1097 1096 1117
f 1097 1117 1118
f 1098 1097 1118
f 1098 1118 1119
f 1078 1436 1099
f 1079 1078 1099
f 1079 1099 1100
f 1080 1079 1100
f 1080 1100 1101
f 1081 1080 1101
f 1081 1101 1102
f 1082 1081 1102
f 1082 1102 1103
f 1083 1082 1103
f 1083 1103 1104
f 1084 1083 1104
f 1084 1104 1105
f 1085 1084 1105
f 1085 1105 1106
f 1086 1085 1106
f 1086 1106 1107
f 1087 1086 1107
f 1087 1107 1108
f 1088 1087 1108
f 1088 1108 1109
f 1089 1088 1109
f 1089 1109 1110
f 1090 1089 1110
f 1090 1110 1111
f 1114 1113 1134
f 1114 1134 1135
f 1115 1114 1135
f 1115 1135 1136
f 1116 1115 1136
f 1116 1136 1137
f 1117 1116 1137
f 1117 1137 1138
f 1118 1117 1138
f 1118 1138 1139
f 1119 1118 1139
f 1119 1139 1140
f 1099 1436 1120
f 1100 1099 1120
f 1100 1120 1121
f 1101 1100 1121
f 1101 1121 1122
f 1102 1101 1122
f 1102 1122 1123
f 1103 1102 1123
f 1103 1123 1124
f 1104 1103 1124
f 1104 1124 1125
f 1105 1104 1125
f 1105 1125 1126
f 1106 1105 1126
f 1106 1126 1127
f 1107 1106 1127
f 1107 1127 1128
f 1108 1107 1128
f 1108 1128 1129
f 1109 1108 1129
f 1109 1129 1130
f 1110 1109 1130
f 1110 1130 1131
f 1111 1110 1131
f 1111 1131 1132
f 1112 1111 1132
f 1112 1132 1133
f 1113 1112 1133
f 1113 1133 1134
f 1137 1136 1157
f 1137 1157 1158
f 1138 1137 1158
f 1138 1158 1159
f 1139 1138 1159
f 1139 1159 1160
f 1140 1139 1160
f 1140 1160 1161
f 1120 1436 1141
f 1121 1120 1141
f 1121 1141 1142
f 1122 1121 1142
f 1122 1142 1143
f 1123 1122 1143
f 1123 1143 1144
f 1124 1123 1144
f 1124 1144 1145
f 1125 1124 1145
f 1125 1145 1146
f 1126 1125 1146
f 1126 1146 1147
f 1127 1126 1147
f 1127 1147 1148
f 1128 1127 1148
f 1128 1148 1149
f 1129 1128 1149
f 1129 1149 1150
f 1130 1129 1150
f 1130 1150 1151
f 1131 1130 1151
f 1131 1151 1152
f 1132 1131 1152
f 1132 1152 1153
f 1133 1132 1153
f 1133 1153 1154
f 1134 1133 1154
f 1134 1154 1155
f 1135 1134 1155
f 1135 1155 1156
f 1136 1135 1156
f 1136 1156 1157
f 1160 1159 1180
f 1160 1180 1181
f 1161 1160 1181
f 1161 1181 1182
f 1141 1436 1162
f 1142 1141 1162
f 1142 1162 1163
f 1143 1142 1163
f 1143 1163 1164
f 1144 1143 1164
f 1144 1164 1165
f 1145 1144 1165
f 1145 1165 1166
f 1146 1145 1166
f 1146 1166 1167
f 1147 1146 1167
f 1147 1167 1168
f 1148 1147 1168
f 1148 1168 1169
f 1149 1148 1169
f 1149 1169 1170
f 1150 1149 1170
f 1150 1170 1171
f 1151 1150 1171
f 1151 1171 1172
f 1152 1151 1172
f 1152 1172 1173
f 1153 1152 1173
f 1153 1173 1174
f 1154 1153 1174
f 1154 1174 1175
f 1155 1154 1175
f 1155 1175 1176
f 1156 1155 1176
f 1156 1176 1177
f 1157 1156 1177
f 1157 1177 1178
f 1158 1157 1178
f 1158 1178 1179
f 1159 1158 1179
f 1159 1179 1180
f 1162 1436 1183
f 1163 1162 1183
f 1163 1183 1184
f 1164 1163 1184
f 1164 1184 1185
f 1165 1164 1185
f 1165 1185 1186
f 1166 1165 1186
f 1166 1186 1187
f 1167 1166 1187
f 1167 1187 1188
f 1168 1167 1188
f 1168 1188 1189
f 1169 1168 1189
f 1169 1189 1190
f 1170 1169 1190
f 1170 1190 1191
f 1171 1170 1191
f 1171 1191 1192
f 1172 1171 1192
f 1172 1192 1193
f 1173 1172 1193
f 1173 1193 1194
f 1174 1173 1194
f 1174 1194 1195
f 1175 1174 1195
f 1175 1195 1196
f 1176 1175 1196
f 1176 1196 1197
f 1177 1176 1197
f 1177 1197 1198
f 1178 1177 1198
f 1178 1198 1199
f 1179 1178 1199
f 1179 1199 1200
f 1180 1179 1200
f 1180 1200 1201
f 1181 1180 1201
f 1181 1201 1202
f 1182 1181 1202
f 1182 1202 1203
f 1183 1436 1204
f 1184 1183 1204
f 1184 1204 1205
f 1185 1184 1205
f 1185 1205 1206
f 1186 1185 1206
f 1186 1206 1207
f 1187 1186 1207
f 1187 1207 1208
f 1188 1187 1208
f 1188 1208 1209
f 1189 1188 1209
f 1189 1209 1210
f 1190 1189 1210
f 1190 1210 1211
f 1191 1190 1211
f 1191 1211 1212
f 1192 1191 1212
f 1192 1212 1213
f 1193 1192 1213
f 1193 1213 1214
f 1194 1193 1214
f 1194 1214 1215
f 1195 1194 1215
f 1195 1215 1216
f 1196 1195 1216
f 1196 1216 1217
f 1197 1196 1217
f 1197 1217 1218
f 1198 1197 1218
f 1198 1218 1219
f 1199 1198 1219
f 1199 1219 1220
f 1200 1199 1220
f 1200 1220 1221
f 1201 1200 1221
f 1201 1221 1222
f 1202 1201 1222
f 1202 1222 1223
f 1203 1202 1223
f 1203 1223 1224
f 1204 1436 1225
f 1205 1204 1225
f 1205 1225 1226
f 1206 1205 1226
f 1206 1226 1227
f 1207 1206 1227
f 1207 1227 1228
f 1208 1207 1228
f 1208 1228 1229
f 1209 1208 1229
f 1209 1229 1230
f 1210 1209 1230
f 1210 1230 1231
f 1211 1210 1231
f 1211 1231 1232
f 1212 1211 1232
f 1212 1232 1233
f 1213 1212 1233
f 1213 1233 1234
f 1214 1213 1234
f 1214 1234 1235
f 1215 1214 1235
f 1215 1235 1236
f 1216 1215 1236
f 1216 1236 1237
f 1217 1216 1237
f 1217 1237 1238
f 1218 1217 1238
f 1218 1238 1239
f 1219 1218 1239
f 1219 1239 1240
f 1220 1219 1240
f 1220 1240 1241
f 1221 1220 1241
f 1221 1241 1242
f 1222 1221 1242
f 1222 1242 1243
f 1223 1222 1243
f 1223 1243 1244
f 1224 1223 1244
f 1224 1244 1245
f 1235 1234 1255
f 1235 1255 1256
f 1236 1235 1256
f 1236 1256 1257
f 1237 1236 1257
f 1237 1257 1258
f 1238 1237 1258
f 1238 1258 1259
f 1239 1238 1259
f 1239 1259 1260
f 1240 1239 1260
f 1240 1260 1261
f 1241 1240 1261
f 1241 1261 1262
f 1242 1241 1262
f 1242 1262 1263
f 1243 1242 1263
f 1243 1263 1264
f 1244 1243 1264
f 1244 1264 1265
f 1245 1244 1265
f 1245 1265 1266
f 1225 1436 1246
f 1226 1225 1246
f 1226 1246 1247
f 1227 1226 1247
f 1227 1247 1248
f 1228 1227 1248
f 1228 1248 1249
f 1229 1228 1249
f 1229 1249 1250
f 1230 1229 1250
f 1230 1250 1251
f 1231 1230 1251
f 1231 1251 1252
f 1232 1231 1252
f 1232 1252 1253
f 1233 1232 1253
f 1233 1253 1254
f 1234 1233 1254
f 1234 1254 1255
f 1258 1257 1278
f 1258 1278 1279
f 1259 1258 1279
f 1259 1279 1280
f 1260 1259 1280
f 1260 1280 1281
f 1261 1260 1281
f 1261 1281 1282
f 1262 1261 1282
f 1262 1282 1283
f 1263 1262 1283
f 1263 1283 1284
f 1264 1263 1284
f 1264 1284 1285
f 1265 1264 1285
f 1265 1285 1286
f 1266 1265 1286
f 1266 1286 1287
f 1246 1436 1267
f 1247 1246 1267
f 1247 1267 1268
f 1248 1247 1268
f 1248 1268 1269
f 1249 1248 1269
f 1249 1269 1270
f 1250 1249 1270
f 1250 1270 1271
f 1251 1250 1271
f 1251 1271 1272
f 1252 1251 1272
f 1252 1272 1273
f 1253 1252 1273
f 1253 1273 1274
f 1254 1253 1274
f 1254 1274 1275
f 1255 1254 1275
f 1255 1275 1276
f 1256 1255 1276
f 1256 1276 1277
f 1257 1256 1277
f 1257 1277 1278
f 1281 1280 1301
f 1281 1301 1302
f 1282 1281 1302
f 1282 1302 1303
f 1283 1282 1303
f 1283 1303 1304
f 1284 1283 1304
f 1284 1304 1305
f 1285 1284 1305
f 1285 1305 1306
f 1286 1285 1306
f 1286 1306 1307
f 1287 1286 1307
f 1287 1307 1308
f 1267 1436 1288
f 1268 1267 1288
f 1268 1288 1289
f 1269 1268 1289
f 1269 1289 1290
f 1270 1269 1290
f 1270 1290 1291
f 1271 1270 1291
f 1271 1291 1292
f 1272 1271 1292
f 1272 1292 1293
f 1273 1272 1293
f 1273 1293 1294
f 1274 1273 1294
f 1274 1294 1295
f 1275 1274 1295
f 1275 1295 1296
f 1276 1275 1296
f 1276 1296 1297
f 1277 1276 1297
f 1277 1297 1298
f 1278 1277 1298
f 1278 1298 1299
f 1279 1278 1299
f 1279 1299 1300
f 1280 1279 1300
f 1280 1300 1301
f 1304 1303 1324
f 1304 1324 1325
f 1305 1304 1325
f 1305 1325 1326
f 1306 1305 1326
f 1306 1326 1327
f 1307 1306 1327
f 1307 1327 1328
f 1308 1307 1328
f 1308 1328 1329
f 1288 1436 1309
f 1289 1288 1309
f 1289 1309 1310
f 1290 1289 1310
f 1290 1310 1311
f 1291 1290 1311
f 1291 1311 1312
f 1292 1291 1312
f 1292 1312 1313
f 1293 1292 1313
f 1293 1313 1314
f 1294 1293 1314
f 1294 1314 1315
f 1295 1294 1315
f 1295 1315 1316
f 1296 1295 1316
f 1296 1316 1317
f 1297 1296 1317
f 1297 1317 1318
f 1298 1297 1318
f 1298 1318 1319
f 1299 1298 1319
f 1299 1319 1320
f 1300 1299 1320
f 1300 1320 1321
f 1301 1300 1321
f 1301 1321 1322
f 1302 1301 1322
f 1302 1322 1323
f 1303 1302 1323
f 1303 1323 1324
f 1327 1326 1347
f 1327 1347 1348
f 1328 1327 1348
f 1328 1348 1349
f 1329 1328 1349
f 1329 1349 1350
f 1309 1436 1330
f 1310 1309 1330
f 1310 1330 1331
f 1311 1310 1331
f 1311 1331 1332
f 1312 1311 1332
f 1312 1332 1333
f 1313 1312 1333
f 1313 1333 1334
f 1314 1313 1334
f 1314 1334 1335
f 1315 1314 1335
f 1315 1335 1336
f 1316 1315 1336
f 1316 1336 1337
f 1317 1316 1337
f 1317 1337 1338
f 1318 1317 1338
f 1318 1338 1339
f 1319 1318 1339
f 1319 1339 1340
f 1320 1319 1340
f 1320 1340 1341
f 1321 1320 1341
f 1321 1341 1342
f 1322 1321 1342
f 1322 1342 1343
f 1323 1322 1343
f 1323 1343 1344
f 1324 1323 1344
f 1324 1344 1345
f 1325 1324 1345
f 1325 1345 1346
f 1326 1325 1346
f 1326 1346 1347
f 1350 1349 1370
f 1350 1370 1371
f 1330 1436 1351
f 1331 1330 1351
f 1331 1351 1352
f 1332 1331 1352
f 1332 1352 1353
f 1333 1332 1353
f 1333 1353 1354
f 1334 1333 1354
f 1334 1354 1355
f 1335 1334 1355
f 1335 1355 1356
f 1336 1335 1356
f 1336 1356 1357
f 1337 1336 1357
f 1337 1357 1358
f 1338 1337 1358
f 1338 1358 1359
f 1339 1338 1359
f 1339 1359 1360
f 1340 1339 1360
f 1340 1360 1361
f 1341 1340 1361
f 1341 1361 1362
f 1342 1341 1362
f 1342 1362 1363
f 1343 1342 1363
f 1343 1363 1364
f 1344 1343 1364
f 1344 1364 1365
f 1345 1344 1365
f 1345 1365 1366
f 1346 1345 1366
f 1346 1366 1367
f 1347 1346 1367
f 1347 1367 1368
f 1348 1347 1368
f 1348 1368 1369
f 1349 1348 1369
f 1349 1369 1370
f 1351 1436 1372
f 1352 1351 1372
f 1352 1372 1373
f 1353 1352 1373
f 1353 1373 1374
f 1354 1353 1374
f 1354 1374 1375
f 1355 1354 1375
f 1355 1375 1376
f 1356 1355 1376
f 1356 1376 1377
f 1357 1356 1377
f 1357 1377 1378
f 1358 1357 1378
f 1358 1378 1379
f 1359 1358 1379
f 1359 1379 1380
f 1360 1359 1380
f 1360 1380 1381
f 1361 1360 1381
f 1361 1381 1382
f 1362 1361 1382
f 1362 1382 1383
f 1363 1362 1383
f 1363 1383 1384
f 1364 1363 1384
f 1364 1384 1385
f 1365 1364 1385
f 1365 1385 1386
f 1366 1365 1386
f 1366 1386 1387
f 1367 1366 1387
f 1367 1387 1388
f 1368 1367 1388
f 1368 1388 1389
f 1369 1368 1389
f 1369 1389 1390
f 1370 1369 1390
f 1370 1390 1391
f 1371 1370 1391
f 1371 1391 1392
f 1372 1414 1393
f 1373 1372 1393
f 1373 1393 1394
f 1374 1373 1394
f 1374 1394 1395
f 1375 1374 1395
f 1375 1395 1396
f 1376 1375 1396
f 1376 1396 1397
f 1377 1376 1397
f 1377 1397 1398
f 1378 1377 1398
f 1378 1398 1399
f 1379 1378 1399
f 1379 1399 1400
f 1380 1379 1400
f 1380 1400 1401
f 1381 1380 1401
f 1381 1401 1402
f 1382 1381 1402
f 1382 1402 1403
f 1383 1382 1403
f 1383 1403 1404
f 1384 1383 1404
f 1384 1404 1405
f 1385 1384 1405
f 1385 1405 1406
f 1386 1385 1406
f 1386 1406 1407
f 1387 1386 1407
f 1387 1407 1408
f 1388 1387 1408
f 1388 1408 1409
f 1389 1388 1409
f 1389 1409 1410
f 1390 1389 1410
f 1390 1410 1411
f 1391 1390 1411
f 1391 1411 1412
f 1392 1391 1412
f 1392 1412 1413
f 1393 1414 1415
f 1394 1393 1415
f 1394 1415 1416
f 1395 1394 1416
f 1395 1416 1417
f 1396 1395 1417
f 1396 1417 1418
f 1397 1396 1418
f 1397 1418 1419
f 1398 1397 1419
f 1398 1419 1420
f 1399 1398 1420
f 1399 1420 1421
f 1400 1399 1421
f 1400 1421 1422
f 1401 1400 1422
f 1401 1422 1423
f 1402 1401 1423
f 1402 1423 1424
f 1403 1402 1424
f 1403 1424 1425
f 1404 1403 1425
f 1404 1425 1426
f 1405 1404 1426
f 1405 1426 1427
f 1406 1405 1427
f 1406 1427 1428
f 1407 1406 1428
f 1407 1428 1429
f 1408 1407 1429
f 1408 1429 1430
f 1409 1408 1430
f 1409 1430 1431
f 1410 1409 1431
f 1410 1431 1432
f 1411 1410 1432
f 1411 1432 1433
f 1412 1411 1433
f 1412 1433 1434
f 1413 1412 1434
f 1413 1434 1435
l 1 1
l 1 1
l 1 1
l 1 1
# 2624 faces, 0 coords texture

# End of File
