####
#
# OBJ File Generated by Meshlab
#
####
# Object corner-lighting.obj
#
# Vertices: 1092
# Faces: 2016
#
####
v 0.0600960 -0.0600960 1.7299640
v 0.1200460 -0.1200460 1.7237099
v 0.1797080 -0.1797080 1.7133040
v 0.2389360 -0.2389360 1.6987700
v 0.2975890 -0.2975890 1.6801430
v 0.3555250 -0.3555250 1.6574690
v 0.4126040 -0.4126040 1.6308020
v 0.4686890 -0.4686890 1.6002060
v 0.5236460 -0.5236460 1.5657550
v 0.5773410 -0.5773410 1.5275320
v 0.6296450 -0.6296450 1.4856290
v 0.6804320 -0.6804320 1.4401480
v 0.7295790 -0.7295790 1.3911960
v 0.7769700 -0.7769700 1.3388931
v 0.8224880 -0.8224880 1.2833650
v 0.8660260 -0.8660260 1.2247450
v 0.9074760 -0.9074760 1.1631740
v 0.9467400 -0.9467400 1.0988010
v 0.9837230 -0.9837230 1.0317810
v 1.0183380 -1.0183380 0.9622760
v 1.0504980 -1.0504980 0.8904520
v 1.0801280 -1.0801280 0.8164830
v 1.1071560 -1.1071560 0.7405470
v 1.1315160 -1.1315160 0.6628270
v 1.1531510 -1.1531510 0.5835100
v 1.1720080 -1.1720080 0.5027880
v 1.1880400 -1.1880400 0.4208540
v 1.2012110 -1.2012110 0.3379060
v 1.2114890 -1.2114890 0.2541450
v 1.2188470 -1.2188470 0.1697710
v 1.2232690 -1.2232690 0.0849880
v 0.0539150 -0.0656960 1.7299640
v 0.1077020 -0.1312340 1.7237099
v 0.1612270 -0.1964570 1.7133040
v 0.2143650 -0.2612050 1.6987700
v 0.2669870 -0.3253240 1.6801430
v 0.3189650 -0.3886610 1.6574690
v 0.3701750 -0.4510590 1.6308020
v 0.4204930 -0.5123720 1.6002060
v 0.4697980 -0.5724500 1.5657550
v 0.5179710 -0.6311490 1.5275320
v 0.5648970 -0.6883280 1.4856290
v 0.6104620 -0.7438490 1.4401480
v 0.6545550 -0.7975780 1.3911960
v 0.6970720 -0.8493840 1.3388931
v 0.7379100 -0.8991460 1.2833650
v 0.7769700 -0.9467400 1.2247450
v 0.8141580 -0.9920550 1.1631740
v 0.8493840 -1.0349790 1.0988010
v 0.8825650 -1.0754080 1.0317810
v 0.9136190 -1.1132480 0.9622760
v 0.9424730 -1.1484070 0.8904520
v 0.9690560 -1.1807981 0.8164830
v 0.9933050 -1.2103460 0.7405470
v 1.0151590 -1.2369760 0.6628270
v 1.0345690 -1.2606270 0.5835100
v 1.0514870 -1.2812400 0.5027880
v 1.0658710 -1.2987680 0.4208540
v 1.0776880 -1.3131660 0.3379060
v 1.0869091 -1.3244020 0.2541450
v 1.0935100 -1.3324460 0.1697710
v 1.0974780 -1.3372800 0.0849880
v 0.0472170 -0.0706650 1.7299640
v 0.0943200 -0.1411600 1.7237099
v 0.1411950 -0.2113130 1.7133040
v 0.1877300 -0.2809580 1.6987700
v 0.2338130 -0.3499270 1.6801430
v 0.2793340 -0.4180530 1.6574690
v 0.3241810 -0.4851710 1.6308020
v 0.3682470 -0.5511200 1.6002060
v 0.4114270 -0.6157420 1.5657550
v 0.4536130 -0.6788810 1.5275320
v 0.4947090 -0.7403830 1.4856290
v 0.5346120 -0.8001030 1.4401480
v 0.5732270 -0.8578950 1.3911960
v 0.6104610 -0.9136200 1.3388931
v 0.6462250 -0.9671440 1.2833650
v 0.6804310 -1.0183380 1.2247450
v 0.7129990 -1.0670789 1.1631740
v 0.7438490 -1.1132480 1.0988010
v 0.7729070 -1.1567370 1.0317810
v 0.8001030 -1.1974390 0.9622760
v 0.8253710 -1.2352550 0.8904520
v 0.8486510 -1.2700970 0.8164830
v 0.8698880 -1.3018780 0.7405470
v 0.8890260 -1.3305230 0.6628270
v 0.9060240 -1.3559620 0.5835100
v 0.9208400 -1.3781350 0.5027880
v 0.9334370 -1.3969880 0.4208540
v 0.9437850 -1.4124740 0.3379060
v 0.9518600 -1.4245600 0.2541450
v 0.9576420 -1.4332120 0.1697710
v 0.9611160 -1.4384120 0.0849880
v 0.0400630 -0.0749530 1.7299640
v 0.0800290 -0.1497240 1.7237099
v 0.1198030 -0.2241350 1.7133040
v 0.1592880 -0.2980070 1.6987700
v 0.1983890 -0.3711600 1.6801430
v 0.2370120 -0.4434200 1.6574690
v 0.2750650 -0.5146100 1.6308020
v 0.3124540 -0.5845620 1.6002060
v 0.3490920 -0.6531040 1.5657550
v 0.3848870 -0.7200730 1.5275320
v 0.4197560 -0.7853080 1.4856290
v 0.4536130 -0.8486510 1.4401480
v 0.4863780 -0.9099500 1.3911960
v 0.5179710 -0.9690560 1.3388931
v 0.5483160 -1.0258280 1.2833650
v 0.5773400 -1.0801280 1.2247450
v 0.6049740 -1.1318270 1.1631740
v 0.6311490 -1.1807981 1.0988010
v 0.6558050 -1.2269250 1.0317810
v 0.6788810 -1.2700959 0.9622760
v 0.7003210 -1.3102070 0.8904520
v 0.7200740 -1.3471630 0.8164830
v 0.7380910 -1.3808730 0.7405470
v 0.7543320 -1.4112550 0.6628270
v 0.7687540 -1.4382390 0.5835100
v 0.7813250 -1.4617569 0.5027880
v 0.7920130 -1.4817530 0.4208540
v 0.8007930 -1.4981800 0.3379060
v 0.8076450 -1.5109990 0.2541450
v 0.8125510 -1.5201770 0.1697710
v 0.8154990 -1.5256920 0.0849880
v 0.0325230 -0.0785180 1.7299640
v 0.0649690 -0.1568480 1.7237099
v 0.0972570 -0.2347990 1.7133040
v 0.1293110 -0.3121850 1.6987700
v 0.1610530 -0.3888180 1.6801430
v 0.1924080 -0.4645150 1.6574690
v 0.2232990 -0.5390930 1.6308020
v 0.2536530 -0.6123720 1.6002060
v 0.2833950 -0.6841760 1.5657550
v 0.3124540 -0.7543310 1.5275320
v 0.3407610 -0.8226700 1.4856290
v 0.3682470 -0.8890270 1.4401480
v 0.3948460 -0.9532420 1.3911960
v 0.4204930 -1.0151600 1.3388931
v 0.4451270 -1.0746330 1.2833650
v 0.4686890 -1.1315160 1.2247450
v 0.4911230 -1.1856750 1.1631740
v 0.5123720 -1.2369760 1.0988010
v 0.5323880 -1.2852970 1.0317810
v 0.5511200 -1.3305219 0.9622760
v 0.5685260 -1.3725420 0.8904520
v 0.5845610 -1.4112550 0.8164830
v 0.5991890 -1.4465690 0.7405470
v 0.6123720 -1.4783970 0.6628270
v 0.6240800 -1.5066640 0.5835100
v 0.6342850 -1.5313010 0.5027880
v 0.6429620 -1.5522490 0.4208540
v 0.6500910 -1.5694580 0.3379060
v 0.6556530 -1.5828860 0.2541450
v 0.6596350 -1.5925000 0.1697710
v 0.6620280 -1.5982780 0.0849880
v 0.0246700 -0.0813280 1.7299640
v 0.0492820 -0.1624600 1.7237099
v 0.0737740 -0.2432010 1.7133040
v 0.0980890 -0.3233560 1.6987700
v 0.1221680 -0.4027320 1.6801430
v 0.1459510 -0.4811380 1.6574690
v 0.1693840 -0.5583850 1.6308020
v 0.1924080 -0.6342860 1.6002060
v 0.2149700 -0.7086590 1.5657550
v 0.2370120 -0.7813250 1.5275320
v 0.2584840 -0.8521090 1.4856290
v 0.2793330 -0.9208400 1.4401480
v 0.2995110 -0.9873530 1.3911960
v 0.3189650 -1.0514870 1.3388931
v 0.3376520 -1.1130880 1.2833650
v 0.3555240 -1.1720080 1.2247450
v 0.3725410 -1.2281040 1.1631740
v 0.3886600 -1.2812411 1.0988010
v 0.4038430 -1.3312910 1.0317810
v 0.4180530 -1.3781340 0.9622760
v 0.4312550 -1.4216570 0.8904520
v 0.4434200 -1.4617560 0.8164830
v 0.4545150 -1.4983341 0.7405470
v 0.4645150 -1.5313010 0.6628270
v 0.4733970 -1.5605800 0.5835100
v 0.4811380 -1.5860980 0.5027880
v 0.4877190 -1.6077960 0.4208540
v 0.4931260 -1.6256200 0.3379060
v 0.4973460 -1.6395290 0.2541450
v 0.5003660 -1.6494870 0.1697710
v 0.5021820 -1.6554730 0.0849880
v 0.0165800 -0.0833550 1.7299640
v 0.0331200 -0.1665090 1.7237099
v 0.0495810 -0.2492610 1.7133040
v 0.0659220 -0.3314140 1.6987700
v 0.0821040 -0.4127670 1.6801430
v 0.0980890 -0.4931270 1.6574690
v 0.1138370 -0.5722980 1.6308020
v 0.1293110 -0.6500910 1.6002060
v 0.1444730 -0.7263170 1.5657550
v 0.1592880 -0.8007930 1.5275320
v 0.1737190 -0.8733420 1.4856290
v 0.1877300 -0.9437860 1.4401480
v 0.2012910 -1.0119560 1.3911960
v 0.2143660 -1.0776880 1.3388931
v 0.2269240 -1.1408240 1.2833650
v 0.2389360 -1.2012120 1.2247450
v 0.2503720 -1.2587050 1.1631740
v 0.2612050 -1.3131660 1.0988010
v 0.2714080 -1.3644640 1.0317810
v 0.2809590 -1.4124740 0.9622760
v 0.2898320 -1.4570830 0.8904520
v 0.2980070 -1.4981800 0.8164830
v 0.3054640 -1.5356700 0.7405470
v 0.3121850 -1.5694571 0.6628270
v 0.3181540 -1.5994660 0.5835100
v 0.3233560 -1.6256210 0.5027880
v 0.3277790 -1.6478590 0.4208540
v 0.3314140 -1.6661270 0.3379060
v 0.3342490 -1.6803830 0.2541450
v 0.3362790 -1.6905890 0.1697710
v 0.3374990 -1.6967241 0.0849880
v 0.0083300 -0.0845780 1.7299640
v 0.0166400 -0.1689530 1.7237099
v 0.0249100 -0.2529210 1.7133040
v 0.0331210 -0.3362790 1.6987700
v 0.0412500 -0.4188270 1.6801430
v 0.0492820 -0.5003660 1.6574690
v 0.0571940 -0.5807000 1.6308020
v 0.0649680 -0.6596350 1.6002060
v 0.0725870 -0.7369810 1.5657550
v 0.0800290 -0.8125510 1.5275320
v 0.0872800 -0.8861650 1.4856290
v 0.0943200 -0.9576420 1.4401480
v 0.1011320 -1.0268130 1.3911960
v 0.1077020 -1.0935100 1.3388931
v 0.1140100 -1.1575730 1.2833650
v 0.1200460 -1.2188480 1.2247450
v 0.1257920 -1.2771850 1.1631740
v 0.1312340 -1.3324460 1.0988010
v 0.1363610 -1.3844960 1.0317810
v 0.1411600 -1.4332120 0.9622760
v 0.1456170 -1.4784750 0.8904520
v 0.1497240 -1.5201761 0.8164830
v 0.1534710 -1.5582150 0.7405470
v 0.1568480 -1.5924990 0.6628270
v 0.1598460 -1.6229490 0.5835100
v 0.1624600 -1.6494870 0.5027880
v 0.1646820 -1.6720510 0.4208540
v 0.1665080 -1.6905890 0.3379060
v 0.1679330 -1.7050530 0.2541450
v 0.1689530 -1.7154100 0.1697710
v 0.1695660 -1.7216340 0.0849880
v 0.0000000 -0.0849870 1.7299640
v 0.0000000 -0.1697710 1.7237099
v 0.0000000 -0.2541440 1.7133040
v 0.0000000 -0.3379070 1.6987700
v 0.0000000 -0.4208540 1.6801430
v 0.0000000 -0.5027880 1.6574690
v 0.0000000 -0.5835100 1.6308020
v 0.0000000 -0.6628260 1.6002060
v 0.0000000 -0.7405470 1.5657550
v 0.0000000 -0.8164820 1.5275320
v 0.0000010 -0.8904520 1.4856290
v 0.0000000 -0.9622760 1.4401480
v 0.0000000 -1.0317820 1.3911960
v 0.0000000 -1.0988010 1.3388931
v 0.0000000 -1.1631740 1.2833650
v 0.0000000 -1.2247440 1.2247450
v 0.0000000 -1.2833650 1.1631740
v 0.0000000 -1.3388920 1.0988010
v -0.0000010 -1.3911951 1.0317810
v 0.0000010 -1.4401470 0.9622760
v 0.0000000 -1.4856280 0.8904520
v 0.0000000 -1.5275320 0.8164830
v 0.0000000 -1.5657550 0.7405470
v 0.0000000 -1.6002049 0.6628270
v 0.0000000 -1.6308020 0.5835100
v 0.0000000 -1.6574680 0.5027880
v 0.0000000 -1.6801420 0.4208540
v 0.0000000 -1.6987690 0.3379060
v -0.0000010 -1.7133030 0.2541450
v 0.0000000 -1.7237099 0.1697710
v 0.0000000 -1.7299640 0.0849880
v -0.0083300 -0.0845780 1.7299640
v -0.0166400 -0.1689530 1.7237099
v -0.0249100 -0.2529210 1.7133040
v -0.0331210 -0.3362790 1.6987700
v -0.0412500 -0.4188270 1.6801430
v -0.0492820 -0.5003660 1.6574690
v -0.0571940 -0.5807000 1.6308020
v -0.0649680 -0.6596350 1.6002060
v -0.0725870 -0.7369810 1.5657550
v -0.0800300 -0.8125510 1.5275320
v -0.0872800 -0.8861650 1.4856290
v -0.0943200 -0.9576420 1.4401480
v -0.1011320 -1.0268130 1.3911960
v -0.1077020 -1.0935100 1.3388931
v -0.1140120 -1.1575730 1.2833650
v -0.1200450 -1.2188470 1.2247450
v -0.1257920 -1.2771850 1.1631740
v -0.1312350 -1.3324450 1.0988010
v -0.1363610 -1.3844960 1.0317810
v -0.1411580 -1.4332120 0.9622760
v -0.1456170 -1.4784750 0.8904520
v -0.1497240 -1.5201761 0.8164830
v -0.1534700 -1.5582160 0.7405470
v -0.1568480 -1.5924990 0.6628270
v -0.1598460 -1.6229490 0.5835100
v -0.1624610 -1.6494880 0.5027880
v -0.1646830 -1.6720520 0.4208540
v -0.1665080 -1.6905890 0.3379060
v -0.1679340 -1.7050540 0.2541450
v -0.1689530 -1.7154100 0.1697710
v -0.1695660 -1.7216330 0.0849880
v -0.0165800 -0.0833550 1.7299640
v -0.0331210 -0.1665080 1.7237099
v -0.0495810 -0.2492610 1.7133040
v -0.0659220 -0.3314140 1.6987700
v -0.0821040 -0.4127670 1.6801430
v -0.0980890 -0.4931270 1.6574690
v -0.1138370 -0.5722980 1.6308020
v -0.1293110 -0.6500910 1.6002060
v -0.1444730 -0.7263170 1.5657550
v -0.1592880 -0.8007930 1.5275320
v -0.1737180 -0.8733430 1.4856290
v -0.1877300 -0.9437860 1.4401480
v -0.2012910 -1.0119560 1.3911960
v -0.2143660 -1.0776880 1.3388931
v -0.2269240 -1.1408240 1.2833650
v -0.2389360 -1.2012120 1.2247450
v -0.2503720 -1.2587050 1.1631740
v -0.2612050 -1.3131660 1.0988010
v -0.2714090 -1.3644630 1.0317810
v -0.2809580 -1.4124750 0.9622760
v -0.2898320 -1.4570830 0.8904520
v -0.2980070 -1.4981800 0.8164830
v -0.3054640 -1.5356700 0.7405470
v -0.3121850 -1.5694571 0.6628270
v -0.3181540 -1.5994660 0.5835100
v -0.3233560 -1.6256210 0.5027880
v -0.3277790 -1.6478590 0.4208540
v -0.3314140 -1.6661270 0.3379060
v -0.3342490 -1.6803830 0.2541450
v -0.3362800 -1.6905900 0.1697710
v -0.3375000 -1.6967230 0.0849880
v -0.0246700 -0.0813280 1.7299640
v -0.0492820 -0.1624600 1.7237099
v -0.0737740 -0.2432010 1.7133040
v -0.0980890 -0.3233560 1.6987700
v -0.1221680 -0.4027320 1.6801430
v -0.1459510 -0.4811380 1.6574690
v -0.1693840 -0.5583850 1.6308020
v -0.1924090 -0.6342850 1.6002060
v -0.2149700 -0.7086590 1.5657550
v -0.2370120 -0.7813250 1.5275320
v -0.2584840 -0.8521090 1.4856290
v -0.2793330 -0.9208400 1.4401480
v -0.2995110 -0.9873530 1.3911960
v -0.3189650 -1.0514870 1.3388931
v -0.3376520 -1.1130880 1.2833650
v -0.3555240 -1.1720080 1.2247450
v -0.3725410 -1.2281040 1.1631740
v -0.3886610 -1.2812400 1.0988010
v -0.4038430 -1.3312910 1.0317810
v -0.4180520 -1.3781350 0.9622760
v -0.4312550 -1.4216580 0.8904520
v -0.4434180 -1.4617569 0.8164830
v -0.4545150 -1.4983341 0.7405470
v -0.4645150 -1.5313010 0.6628270
v -0.4733970 -1.5605800 0.5835100
v -0.4811380 -1.5860980 0.5027880
v -0.4877200 -1.6077950 0.4208540
v -0.4931260 -1.6256200 0.3379060
v -0.4973460 -1.6395290 0.2541450
v -0.5003670 -1.6494880 0.1697710
v -0.5021820 -1.6554720 0.0849880
v -0.0325230 -0.0785180 1.7299640
v -0.0649690 -0.1568480 1.7237099
v -0.0972570 -0.2347990 1.7133040
v -0.1293110 -0.3121840 1.6987700
v -0.1610530 -0.3888180 1.6801430
v -0.1924080 -0.4645150 1.6574690
v -0.2232990 -0.5390930 1.6308020
v -0.2536530 -0.6123720 1.6002060
v -0.2833950 -0.6841760 1.5657550
v -0.3124540 -0.7543310 1.5275320
v -0.3407610 -0.8226700 1.4856290
v -0.3682470 -0.8890270 1.4401480
v -0.3948460 -0.9532410 1.3911960
v -0.4204930 -1.0151600 1.3388931
v -0.4451280 -1.0746330 1.2833650
v -0.4686900 -1.1315160 1.2247450
v -0.4911220 -1.1856750 1.1631740
v -0.5123720 -1.2369760 1.0988010
v -0.5323880 -1.2852970 1.0317810
v -0.5511200 -1.3305219 0.9622760
v -0.5685260 -1.3725420 0.8904520
v -0.5845610 -1.4112550 0.8164830
v -0.5991880 -1.4465690 0.7405470
v -0.6123720 -1.4783970 0.6628270
v -0.6240800 -1.5066640 0.5835100
v -0.6342850 -1.5313010 0.5027880
v -0.6429630 -1.5522480 0.4208540
v -0.6500910 -1.5694580 0.3379060
v -0.6556530 -1.5828860 0.2541450
v -0.6596360 -1.5925010 0.1697710
v -0.6620290 -1.5982780 0.0849880
v -0.0400630 -0.0749530 1.7299640
v -0.0800290 -0.1497240 1.7237099
v -0.1198030 -0.2241350 1.7133040
v -0.1592880 -0.2980070 1.6987700
v -0.1983890 -0.3711600 1.6801430
v -0.2370120 -0.4434200 1.6574690
v -0.2750650 -0.5146100 1.6308020
v -0.3124550 -0.5845610 1.6002060
v -0.3490920 -0.6531040 1.5657550
v -0.3848870 -0.7200730 1.5275320
v -0.4197560 -0.7853080 1.4856290
v -0.4536130 -0.8486510 1.4401480
v -0.4863780 -0.9099500 1.3911960
v -0.5179710 -0.9690560 1.3388931
v -0.5483170 -1.0258271 1.2833650
v -0.5773410 -1.0801290 1.2247450
v -0.6049740 -1.1318270 1.1631740
v -0.6311490 -1.1807981 1.0988010
v -0.6558050 -1.2269239 1.0317810
v -0.6788800 -1.2700959 0.9622760
v -0.7003210 -1.3102070 0.8904520
v -0.7200730 -1.3471620 0.8164830
v -0.7380910 -1.3808730 0.7405470
v -0.7543320 -1.4112550 0.6628270
v -0.7687540 -1.4382390 0.5835100
v -0.7813250 -1.4617569 0.5027880
v -0.7920140 -1.4817530 0.4208540
v -0.8007930 -1.4981800 0.3379060
v -0.8076450 -1.5109990 0.2541450
v -0.8125510 -1.5201770 0.1697710
v -0.8154990 -1.5256920 0.0849880
v -0.0472170 -0.0706650 1.7299640
v -0.0943190 -0.1411590 1.7237099
v -0.1411950 -0.2113130 1.7133040
v -0.1877300 -0.2809580 1.6987700
v -0.2338140 -0.3499270 1.6801430
v -0.2793340 -0.4180530 1.6574690
v -0.3241810 -0.4851710 1.6308020
v -0.3682470 -0.5511200 1.6002060
v -0.4114260 -0.6157430 1.5657550
v -0.4536130 -0.6788810 1.5275320
v -0.4947080 -0.7403840 1.4856290
v -0.5346120 -0.8001030 1.4401480
v -0.5732270 -0.8578940 1.3911960
v -0.6104610 -0.9136190 1.3388931
v -0.6462250 -0.9671440 1.2833650
v -0.6804320 -1.0183380 1.2247450
v -0.7130000 -1.0670789 1.1631740
v -0.7438490 -1.1132480 1.0988010
v -0.7729070 -1.1567349 1.0317810
v -0.8001020 -1.1974380 0.9622760
v -0.8253710 -1.2352550 0.8904520
v -0.8486500 -1.2700959 0.8164830
v -0.8698860 -1.3018780 0.7405470
v -0.8890260 -1.3305210 0.6628270
v -0.9060240 -1.3559620 0.5835100
v -0.9208400 -1.3781350 0.5027880
v -0.9334380 -1.3969870 0.4208540
v -0.9437850 -1.4124740 0.3379060
v -0.9518600 -1.4245600 0.2541450
v -0.9576420 -1.4332120 0.1697710
v -0.9611160 -1.4384120 0.0849880
v -0.0539150 -0.0656960 1.7299640
v -0.1077020 -0.1312340 1.7237099
v -0.1612270 -0.1964570 1.7133040
v -0.2143650 -0.2612050 1.6987700
v -0.2669870 -0.3253240 1.6801430
v -0.3189650 -0.3886610 1.6574690
v -0.3701750 -0.4510590 1.6308020
v -0.4204930 -0.5123720 1.6002060
v -0.4697980 -0.5724500 1.5657550
v -0.5179710 -0.6311490 1.5275320
v -0.5648960 -0.6883290 1.4856290
v -0.6104620 -0.7438490 1.4401480
v -0.6545550 -0.7975780 1.3911960
v -0.6970720 -0.8493840 1.3388931
v -0.7379100 -0.8991460 1.2833650
v -0.7769700 -0.9467400 1.2247450
v -0.8141580 -0.9920550 1.1631740
v -0.8493850 -1.0349780 1.0988010
v -0.8825650 -1.0754080 1.0317810
v -0.9136190 -1.1132480 0.9622760
v -0.9424730 -1.1484070 0.8904520
v -0.9690560 -1.1807981 0.8164830
v -0.9933040 -1.2103450 0.7405470
v -1.0151590 -1.2369740 0.6628270
v -1.0345700 -1.2606260 0.5835100
v -1.0514870 -1.2812400 0.5027880
v -1.0658710 -1.2987680 0.4208540
v -1.0776870 -1.3131649 0.3379060
v -1.0869091 -1.3244020 0.2541450
v -1.0935100 -1.3324460 0.1697710
v -1.0974780 -1.3372800 0.0849880
v 0.0000000 0.0000000 1.7320510
v 1.2247440 -1.2247440 0.0000000
v 1.0988010 -1.3388920 0.0000000
v 0.9622760 -1.4401470 0.0000000
v 0.8164830 -1.5275310 0.0000000
v 0.6628260 -1.6002049 0.0000000
v 0.5027880 -1.6574670 0.0000000
v 0.3379070 -1.6987690 0.0000000
v 0.1697700 -1.7237090 0.0000000
v 0.0000000 -1.7320490 0.0000000
v -0.1697700 -1.7237090 0.0000000
v -0.3379070 -1.6987690 0.0000000
v -0.5027870 -1.6574680 0.0000000
v -0.6628260 -1.6002049 0.0000000
v -0.8164830 -1.5275310 0.0000000
v -0.9622760 -1.4401470 0.0000000
v -1.0987999 -1.3388931 0.0000000
v -0.0600960 -0.0600960 1.7299640
v -0.1200460 -0.1200460 1.7237099
v -0.1797080 -0.1797080 1.7133040
v -0.2389360 -0.2389360 1.6987700
v -0.2975890 -0.2975890 1.6801430
v -0.3555250 -0.3555250 1.6574690
v -0.4126040 -0.4126040 1.6308020
v -0.4686890 -0.4686890 1.6002060
v -0.5236460 -0.5236460 1.5657550
v -0.5773400 -0.5773400 1.5275320
v -0.6296450 -0.6296450 1.4856290
v -0.6804320 -0.6804320 1.4401480
v -0.7295790 -0.7295790 1.3911960
v -0.7769700 -0.7769700 1.3388931
v -0.8224880 -0.8224880 1.2833650
v -0.8660260 -0.8660260 1.2247450
v -0.9074760 -0.9074760 1.1631740
v -0.9467400 -0.9467400 1.0988010
v -0.9837230 -0.9837230 1.0317810
v -1.0183370 -1.0183370 0.9622760
v -1.0504980 -1.0504980 0.8904520
v -1.0801270 -1.0801270 0.8164830
v -1.1071560 -1.1071560 0.7405470
v -1.1315160 -1.1315160 0.6628270
v -1.1531510 -1.1531510 0.5835100
v -1.1720070 -1.1720070 0.5027880
v -1.1880400 -1.1880400 0.4208540
v -1.2012100 -1.2012100 0.3379060
v -1.2114890 -1.2114890 0.2541450
v -1.2188470 -1.2188470 0.1697710
v -1.2232690 -1.2232690 0.0849880
v -1.2247440 -1.2247440 0.0000000
v 0.0000000 0.0000000 1.7320510
v -0.0600960 -0.0600960 1.7299640
v -0.1200460 -0.1200460 1.7237099
v -0.1797080 -0.1797080 1.7133040
v -0.2389360 -0.2389360 1.6987700
v -0.2975890 -0.2975890 1.6801430
v -0.3555250 -0.3555250 1.6574690
v -0.4126040 -0.4126040 1.6308020
v -0.4686890 -0.4686890 1.6002060
v -0.5236460 -0.5236460 1.5657550
v -0.5773410 -0.5773410 1.5275320
v -0.6296450 -0.6296450 1.4856290
v -0.6804320 -0.6804320 1.4401480
v -0.7295790 -0.7295790 1.3911960
v -0.7769700 -0.7769700 1.3388931
v -0.8224880 -0.8224880 1.2833650
v -0.8660260 -0.8660260 1.2247450
v -0.9074760 -0.9074760 1.1631740
v -0.9467400 -0.9467400 1.0988010
v -0.9837230 -0.9837230 1.0317810
v -1.0183380 -1.0183380 0.9622760
v -1.0504980 -1.0504980 0.8904520
v -1.0801280 -1.0801280 0.8164830
v -1.1071560 -1.1071560 0.7405470
v -1.1315160 -1.1315160 0.6628270
v -1.1531510 -1.1531510 0.5835100
v -1.1720080 -1.1720080 0.5027880
v -1.1880400 -1.1880400 0.4208540
v -1.2012110 -1.2012110 0.3379060
v -1.2114890 -1.2114890 0.2541450
v -1.2188470 -1.2188470 0.1697710
v -1.2232690 -1.2232690 0.0849880
v -0.0656960 -0.0539150 1.7299640
v -0.1312340 -0.1077020 1.7237099
v -0.1964570 -0.1612270 1.7133040
v -0.2612050 -0.2143650 1.6987700
v -0.3253240 -0.2669870 1.6801430
v -0.3886610 -0.3189650 1.6574690
v -0.4510590 -0.3701750 1.6308020
v -0.5123720 -0.4204930 1.6002060
v -0.5724500 -0.4697980 1.5657550
v -0.6311490 -0.5179710 1.5275320
v -0.6883280 -0.5648970 1.4856290
v -0.7438490 -0.6104620 1.4401480
v -0.7975780 -0.6545550 1.3911960
v -0.8493840 -0.6970720 1.3388931
v -0.8991460 -0.7379100 1.2833650
v -0.9467400 -0.7769700 1.2247450
v -0.9920550 -0.8141580 1.1631740
v -1.0349790 -0.8493840 1.0988010
v -1.0754080 -0.8825650 1.0317810
v -1.1132480 -0.9136190 0.9622760
v -1.1484070 -0.9424730 0.8904520
v -1.1807981 -0.9690560 0.8164830
v -1.2103460 -0.9933050 0.7405470
v -1.2369760 -1.0151590 0.6628270
v -1.2606270 -1.0345690 0.5835100
v -1.2812400 -1.0514870 0.5027880
v -1.2987680 -1.0658710 0.4208540
v -1.3131660 -1.0776880 0.3379060
v -1.3244020 -1.0869091 0.2541450
v -1.3324460 -1.0935100 0.1697710
v -1.3372800 -1.0974780 0.0849880
v -0.0706650 -0.0472170 1.7299640
v -0.1411600 -0.0943200 1.7237099
v -0.2113130 -0.1411950 1.7133040
v -0.2809580 -0.1877300 1.6987700
v -0.3499270 -0.2338130 1.6801430
v -0.4180530 -0.2793340 1.6574690
v -0.4851710 -0.3241810 1.6308020
v -0.5511200 -0.3682470 1.6002060
v -0.6157420 -0.4114270 1.5657550
v -0.6788810 -0.4536130 1.5275320
v -0.7403830 -0.4947090 1.4856290
v -0.8001030 -0.5346120 1.4401480
v -0.8578950 -0.5732270 1.3911960
v -0.9136200 -0.6104610 1.3388931
v -0.9671440 -0.6462250 1.2833650
v -1.0183380 -0.6804310 1.2247450
v -1.0670789 -0.7129990 1.1631740
v -1.1132480 -0.7438490 1.0988010
v -1.1567370 -0.7729070 1.0317810
v -1.1974390 -0.8001030 0.9622760
v -1.2352550 -0.8253710 0.8904520
v -1.2700970 -0.8486510 0.8164830
v -1.3018780 -0.8698880 0.7405470
v -1.3305230 -0.8890260 0.6628270
v -1.3559620 -0.9060240 0.5835100
v -1.3781350 -0.9208400 0.5027880
v -1.3969880 -0.9334370 0.4208540
v -1.4124740 -0.9437850 0.3379060
v -1.4245600 -0.9518600 0.2541450
v -1.4332120 -0.9576420 0.1697710
v -1.4384120 -0.9611160 0.0849880
v -0.0749530 -0.0400630 1.7299640
v -0.1497240 -0.0800290 1.7237099
v -0.2241350 -0.1198030 1.7133040
v -0.2980070 -0.1592880 1.6987700
v -0.3711600 -0.1983890 1.6801430
v -0.4434200 -0.2370120 1.6574690
v -0.5146100 -0.2750650 1.6308020
v -0.5845620 -0.3124540 1.6002060
v -0.6531040 -0.3490920 1.5657550
v -0.7200730 -0.3848870 1.5275320
v -0.7853080 -0.4197560 1.4856290
v -0.8486510 -0.4536130 1.4401480
v -0.9099500 -0.4863780 1.3911960
v -0.9690560 -0.5179710 1.3388931
v -1.0258280 -0.5483160 1.2833650
v -1.0801280 -0.5773400 1.2247450
v -1.1318270 -0.6049740 1.1631740
v -1.1807981 -0.6311490 1.0988010
v -1.2269250 -0.6558050 1.0317810
v -1.2700959 -0.6788810 0.9622760
v -1.3102070 -0.7003210 0.8904520
v -1.3471630 -0.7200740 0.8164830
v -1.3808730 -0.7380910 0.7405470
v -1.4112550 -0.7543320 0.6628270
v -1.4382390 -0.7687540 0.5835100
v -1.4617569 -0.7813250 0.5027880
v -1.4817530 -0.7920130 0.4208540
v -1.4981800 -0.8007930 0.3379060
v -1.5109990 -0.8076450 0.2541450
v -1.5201770 -0.8125510 0.1697710
v -1.5256920 -0.8154990 0.0849880
v -0.0785180 -0.0325230 1.7299640
v -0.1568480 -0.0649690 1.7237099
v -0.2347990 -0.0972570 1.7133040
v -0.3121850 -0.1293110 1.6987700
v -0.3888180 -0.1610530 1.6801430
v -0.4645150 -0.1924080 1.6574690
v -0.5390930 -0.2232990 1.6308020
v -0.6123720 -0.2536530 1.6002060
v -0.6841760 -0.2833950 1.5657550
v -0.7543310 -0.3124540 1.5275320
v -0.8226700 -0.3407610 1.4856290
v -0.8890270 -0.3682470 1.4401480
v -0.9532420 -0.3948460 1.3911960
v -1.0151600 -0.4204930 1.3388931
v -1.0746330 -0.4451270 1.2833650
v -1.1315160 -0.4686890 1.2247450
v -1.1856750 -0.4911230 1.1631740
v -1.2369760 -0.5123720 1.0988010
v -1.2852970 -0.5323880 1.0317810
v -1.3305219 -0.5511200 0.9622760
v -1.3725420 -0.5685260 0.8904520
v -1.4112550 -0.5845610 0.8164830
v -1.4465690 -0.5991890 0.7405470
v -1.4783970 -0.6123720 0.6628270
v -1.5066640 -0.6240800 0.5835100
v -1.5313010 -0.6342850 0.5027880
v -1.5522490 -0.6429620 0.4208540
v -1.5694580 -0.6500910 0.3379060
v -1.5828860 -0.6556530 0.2541450
v -1.5925000 -0.6596350 0.1697710
v -1.5982780 -0.6620280 0.0849880
v -0.0813280 -0.0246700 1.7299640
v -0.1624600 -0.0492820 1.7237099
v -0.2432010 -0.0737740 1.7133040
v -0.3233560 -0.0980890 1.6987700
v -0.4027320 -0.1221680 1.6801430
v -0.4811380 -0.1459510 1.6574690
v -0.5583850 -0.1693840 1.6308020
v -0.6342860 -0.1924080 1.6002060
v -0.7086590 -0.2149700 1.5657550
v -0.7813250 -0.2370120 1.5275320
v -0.8521090 -0.2584840 1.4856290
v -0.9208400 -0.2793330 1.4401480
v -0.9873530 -0.2995110 1.3911960
v -1.0514870 -0.3189650 1.3388931
v -1.1130880 -0.3376520 1.2833650
v -1.1720080 -0.3555240 1.2247450
v -1.2281040 -0.3725410 1.1631740
v -1.2812411 -0.3886600 1.0988010
v -1.3312910 -0.4038430 1.0317810
v -1.3781340 -0.4180530 0.9622760
v -1.4216570 -0.4312550 0.8904520
v -1.4617560 -0.4434200 0.8164830
v -1.4983341 -0.4545150 0.7405470
v -1.5313010 -0.4645150 0.6628270
v -1.5605800 -0.4733970 0.5835100
v -1.5860980 -0.4811380 0.5027880
v -1.6077960 -0.4877190 0.4208540
v -1.6256200 -0.4931260 0.3379060
v -1.6395290 -0.4973460 0.2541450
v -1.6494870 -0.5003660 0.1697710
v -1.6554730 -0.5021820 0.0849880
v -0.0833550 -0.0165800 1.7299640
v -0.1665090 -0.0331200 1.7237099
v -0.2492610 -0.0495810 1.7133040
v -0.3314140 -0.0659220 1.6987700
v -0.4127670 -0.0821040 1.6801430
v -0.4931270 -0.0980890 1.6574690
v -0.5722980 -0.1138370 1.6308020
v -0.6500910 -0.1293110 1.6002060
v -0.7263170 -0.1444730 1.5657550
v -0.8007930 -0.1592880 1.5275320
v -0.8733420 -0.1737190 1.4856290
v -0.9437860 -0.1877300 1.4401480
v -1.0119560 -0.2012910 1.3911960
v -1.0776880 -0.2143660 1.3388931
v -1.1408240 -0.2269240 1.2833650
v -1.2012120 -0.2389360 1.2247450
v -1.2587050 -0.2503720 1.1631740
v -1.3131660 -0.2612050 1.0988010
v -1.3644640 -0.2714080 1.0317810
v -1.4124740 -0.2809590 0.9622760
v -1.4570830 -0.2898320 0.8904520
v -1.4981800 -0.2980070 0.8164830
v -1.5356700 -0.3054640 0.7405470
v -1.5694571 -0.3121850 0.6628270
v -1.5994660 -0.3181540 0.5835100
v -1.6256210 -0.3233560 0.5027880
v -1.6478590 -0.3277790 0.4208540
v -1.6661270 -0.3314140 0.3379060
v -1.6803830 -0.3342490 0.2541450
v -1.6905890 -0.3362790 0.1697710
v -1.6967241 -0.3374990 0.0849880
v -0.0845780 -0.0083300 1.7299640
v -0.1689530 -0.0166400 1.7237099
v -0.2529210 -0.0249100 1.7133040
v -0.3362790 -0.0331210 1.6987700
v -0.4188270 -0.0412500 1.6801430
v -0.5003660 -0.0492820 1.6574690
v -0.5807000 -0.0571940 1.6308020
v -0.6596350 -0.0649680 1.6002060
v -0.7369810 -0.0725870 1.5657550
v -0.8125510 -0.0800290 1.5275320
v -0.8861650 -0.0872800 1.4856290
v -0.9576420 -0.0943200 1.4401480
v -1.0268130 -0.1011320 1.3911960
v -1.0935100 -0.1077020 1.3388931
v -1.1575730 -0.1140100 1.2833650
v -1.2188480 -0.1200460 1.2247450
v -1.2771850 -0.1257920 1.1631740
v -1.3324460 -0.1312340 1.0988010
v -1.3844960 -0.1363610 1.0317810
v -1.4332120 -0.1411600 0.9622760
v -1.4784750 -0.1456170 0.8904520
v -1.5201761 -0.1497240 0.8164830
v -1.5582150 -0.1534710 0.7405470
v -1.5924990 -0.1568480 0.6628270
v -1.6229490 -0.1598460 0.5835100
v -1.6494870 -0.1624600 0.5027880
v -1.6720510 -0.1646820 0.4208540
v -1.6905890 -0.1665080 0.3379060
v -1.7050530 -0.1679330 0.2541450
v -1.7154100 -0.1689530 0.1697710
v -1.7216340 -0.1695660 0.0849880
v -0.0849870 0.0000000 1.7299640
v -0.1697710 0.0000000 1.7237099
v -0.2541440 0.0000000 1.7133040
v -0.3379070 0.0000000 1.6987700
v -0.4208540 0.0000000 1.6801430
v -0.5027880 0.0000000 1.6574690
v -0.5835100 0.0000000 1.6308020
v -0.6628260 0.0000000 1.6002060
v -0.7405470 0.0000000 1.5657550
v -0.8164820 0.0000000 1.5275320
v -0.8904520 -0.0000010 1.4856290
v -0.9622760 0.0000000 1.4401480
v -1.0317820 0.0000000 1.3911960
v -1.0988010 0.0000000 1.3388931
v -1.1631740 0.0000000 1.2833650
v -1.2247440 0.0000000 1.2247450
v -1.2833650 0.0000000 1.1631740
v -1.3388920 0.0000000 1.0988010
v -1.3911951 0.0000010 1.0317810
v -1.4401470 -0.0000010 0.9622760
v -1.4856280 0.0000000 0.8904520
v -1.5275320 0.0000000 0.8164830
v -1.5657550 0.0000000 0.7405470
v -1.6002049 0.0000000 0.6628270
v -1.6308020 0.0000000 0.5835100
v -1.6574680 0.0000000 0.5027880
v -1.6801420 0.0000000 0.4208540
v -1.6987690 0.0000000 0.3379060
v -1.7133030 0.0000010 0.2541450
v -1.7237099 0.0000000 0.1697710
v -1.7299640 0.0000000 0.0849880
v -0.0845780 0.0083300 1.7299640
v -0.1689530 0.0166400 1.7237099
v -0.2529210 0.0249100 1.7133040
v -0.3362790 0.0331210 1.6987700
v -0.4188270 0.0412500 1.6801430
v -0.5003660 0.0492820 1.6574690
v -0.5807000 0.0571940 1.6308020
v -0.6596350 0.0649680 1.6002060
v -0.7369810 0.0725870 1.5657550
v -0.8125510 0.0800300 1.5275320
v -0.8861650 0.0872800 1.4856290
v -0.9576420 0.0943200 1.4401480
v -1.0268130 0.1011320 1.3911960
v -1.0935100 0.1077020 1.3388931
v -1.1575730 0.1140120 1.2833650
v -1.2188470 0.1200450 1.2247450
v -1.2771850 0.1257920 1.1631740
v -1.3324450 0.1312350 1.0988010
v -1.3844960 0.1363610 1.0317810
v -1.4332120 0.1411580 0.9622760
v -1.4784750 0.1456170 0.8904520
v -1.5201761 0.1497240 0.8164830
v -1.5582160 0.1534700 0.7405470
v -1.5924990 0.1568480 0.6628270
v -1.6229490 0.1598460 0.5835100
v -1.6494880 0.1624610 0.5027880
v -1.6720520 0.1646830 0.4208540
v -1.6905890 0.1665080 0.3379060
v -1.7050540 0.1679340 0.2541450
v -1.7154100 0.1689530 0.1697710
v -1.7216330 0.1695660 0.0849880
v -0.0833550 0.0165800 1.7299640
v -0.1665080 0.0331210 1.7237099
v -0.2492610 0.0495810 1.7133040
v -0.3314140 0.0659220 1.6987700
v -0.4127670 0.0821040 1.6801430
v -0.4931270 0.0980890 1.6574690
v -0.5722980 0.1138370 1.6308020
v -0.6500910 0.1293110 1.6002060
v -0.7263170 0.1444730 1.5657550
v -0.8007930 0.1592880 1.5275320
v -0.8733430 0.1737180 1.4856290
v -0.9437860 0.1877300 1.4401480
v -1.0119560 0.2012910 1.3911960
v -1.0776880 0.2143660 1.3388931
v -1.1408240 0.2269240 1.2833650
v -1.2012120 0.2389360 1.2247450
v -1.2587050 0.2503720 1.1631740
v -1.3131660 0.2612050 1.0988010
v -1.3644630 0.2714090 1.0317810
v -1.4124750 0.2809580 0.9622760
v -1.4570830 0.2898320 0.8904520
v -1.4981800 0.2980070 0.8164830
v -1.5356700 0.3054640 0.7405470
v -1.5694571 0.3121850 0.6628270
v -1.5994660 0.3181540 0.5835100
v -1.6256210 0.3233560 0.5027880
v -1.6478590 0.3277790 0.4208540
v -1.6661270 0.3314140 0.3379060
v -1.6803830 0.3342490 0.2541450
v -1.6905900 0.3362800 0.1697710
v -1.6967230 0.3375000 0.0849880
v -0.0813280 0.0246700 1.7299640
v -0.1624600 0.0492820 1.7237099
v -0.2432010 0.0737740 1.7133040
v -0.3233560 0.0980890 1.6987700
v -0.4027320 0.1221680 1.6801430
v -0.4811380 0.1459510 1.6574690
v -0.5583850 0.1693840 1.6308020
v -0.6342850 0.1924090 1.6002060
v -0.7086590 0.2149700 1.5657550
v -0.7813250 0.2370120 1.5275320
v -0.8521090 0.2584840 1.4856290
v -0.9208400 0.2793330 1.4401480
v -0.9873530 0.2995110 1.3911960
v -1.0514870 0.3189650 1.3388931
v -1.1130880 0.3376520 1.2833650
v -1.1720080 0.3555240 1.2247450
v -1.2281040 0.3725410 1.1631740
v -1.2812400 0.3886610 1.0988010
v -1.3312910 0.4038430 1.0317810
v -1.3781350 0.4180520 0.9622760
v -1.4216580 0.4312550 0.8904520
v -1.4617569 0.4434180 0.8164830
v -1.4983341 0.4545150 0.7405470
v -1.5313010 0.4645150 0.6628270
v -1.5605800 0.4733970 0.5835100
v -1.5860980 0.4811380 0.5027880
v -1.6077950 0.4877200 0.4208540
v -1.6256200 0.4931260 0.3379060
v -1.6395290 0.4973460 0.2541450
v -1.6494880 0.5003670 0.1697710
v -1.6554720 0.5021820 0.0849880
v -0.0785180 0.0325230 1.7299640
v -0.1568480 0.0649690 1.7237099
v -0.2347990 0.0972570 1.7133040
v -0.3121840 0.1293110 1.6987700
v -0.3888180 0.1610530 1.6801430
v -0.4645150 0.1924080 1.6574690
v -0.5390930 0.2232990 1.6308020
v -0.6123720 0.2536530 1.6002060
v -0.6841760 0.2833950 1.5657550
v -0.7543310 0.3124540 1.5275320
v -0.8226700 0.3407610 1.4856290
v -0.8890270 0.3682470 1.4401480
v -0.9532410 0.3948460 1.3911960
v -1.0151600 0.4204930 1.3388931
v -1.0746330 0.4451280 1.2833650
v -1.1315160 0.4686900 1.2247450
v -1.1856750 0.4911220 1.1631740
v -1.2369760 0.5123720 1.0988010
v -1.2852970 0.5323880 1.0317810
v -1.3305219 0.5511200 0.9622760
v -1.3725420 0.5685260 0.8904520
v -1.4112550 0.5845610 0.8164830
v -1.4465690 0.5991880 0.7405470
v -1.4783970 0.6123720 0.6628270
v -1.5066640 0.6240800 0.5835100
v -1.5313010 0.6342850 0.5027880
v -1.5522480 0.6429630 0.4208540
v -1.5694580 0.6500910 0.3379060
v -1.5828860 0.6556530 0.2541450
v -1.5925010 0.6596360 0.1697710
v -1.5982780 0.6620290 0.0849880
v -0.0749530 0.0400630 1.7299640
v -0.1497240 0.0800290 1.7237099
v -0.2241350 0.1198030 1.7133040
v -0.2980070 0.1592880 1.6987700
v -0.3711600 0.1983890 1.6801430
v -0.4434200 0.2370120 1.6574690
v -0.5146100 0.2750650 1.6308020
v -0.5845610 0.3124550 1.6002060
v -0.6531040 0.3490920 1.5657550
v -0.7200730 0.3848870 1.5275320
v -0.7853080 0.4197560 1.4856290
v -0.8486510 0.4536130 1.4401480
v -0.9099500 0.4863780 1.3911960
v -0.9690560 0.5179710 1.3388931
v -1.0258271 0.5483170 1.2833650
v -1.0801290 0.5773410 1.2247450
v -1.1318270 0.6049740 1.1631740
v -1.1807981 0.6311490 1.0988010
v -1.2269239 0.6558050 1.0317810
v -1.2700959 0.6788800 0.9622760
v -1.3102070 0.7003210 0.8904520
v -1.3471620 0.7200730 0.8164830
v -1.3808730 0.7380910 0.7405470
v -1.4112550 0.7543320 0.6628270
v -1.4382390 0.7687540 0.5835100
v -1.4617569 0.7813250 0.5027880
v -1.4817530 0.7920140 0.4208540
v -1.4981800 0.8007930 0.3379060
v -1.5109990 0.8076450 0.2541450
v -1.5201770 0.8125510 0.1697710
v -1.5256920 0.8154990 0.0849880
v -0.0706650 0.0472170 1.7299640
v -0.1411590 0.0943190 1.7237099
v -0.2113130 0.1411950 1.7133040
v -0.2809580 0.1877300 1.6987700
v -0.3499270 0.2338140 1.6801430
v -0.4180530 0.2793340 1.6574690
v -0.4851710 0.3241810 1.6308020
v -0.5511200 0.3682470 1.6002060
v -0.6157430 0.4114260 1.5657550
v -0.6788810 0.4536130 1.5275320
v -0.7403840 0.4947080 1.4856290
v -0.8001030 0.5346120 1.4401480
v -0.8578940 0.5732270 1.3911960
v -0.9136190 0.6104610 1.3388931
v -0.9671440 0.6462250 1.2833650
v -1.0183380 0.6804320 1.2247450
v -1.0670789 0.7130000 1.1631740
v -1.1132480 0.7438490 1.0988010
v -1.1567349 0.7729070 1.0317810
v -1.1974380 0.8001020 0.9622760
v -1.2352550 0.8253710 0.8904520
v -1.2700959 0.8486500 0.8164830
v -1.3018780 0.8698860 0.7405470
v -1.3305210 0.8890260 0.6628270
v -1.3559620 0.9060240 0.5835100
v -1.3781350 0.9208400 0.5027880
v -1.3969870 0.9334380 0.4208540
v -1.4124740 0.9437850 0.3379060
v -1.4245600 0.9518600 0.2541450
v -1.4332120 0.9576420 0.1697710
v -1.4384120 0.9611160 0.0849880
v -0.0656960 0.0539150 1.7299640
v -0.1312340 0.1077020 1.7237099
v -0.1964570 0.1612270 1.7133040
v -0.2612050 0.2143650 1.6987700
v -0.3253240 0.2669870 1.6801430
v -0.3886610 0.3189650 1.6574690
v -0.4510590 0.3701750 1.6308020
v -0.5123720 0.4204930 1.6002060
v -0.5724500 0.4697980 1.5657550
v -0.6311490 0.5179710 1.5275320
v -0.6883290 0.5648960 1.4856290
v -0.7438490 0.6104620 1.4401480
v -0.7975780 0.6545550 1.3911960
v -0.8493840 0.6970720 1.3388931
v -0.8991460 0.7379100 1.2833650
v -0.9467400 0.7769700 1.2247450
v -0.9920550 0.8141580 1.1631740
v -1.0349780 0.8493850 1.0988010
v -1.0754080 0.8825650 1.0317810
v -1.1132480 0.9136190 0.9622760
v -1.1484070 0.9424730 0.8904520
v -1.1807981 0.9690560 0.8164830
v -1.2103450 0.9933040 0.7405470
v -1.2369740 1.0151590 0.6628270
v -1.2606260 1.0345700 0.5835100
v -1.2812400 1.0514870 0.5027880
v -1.2987680 1.0658710 0.4208540
v -1.3131649 1.0776870 0.3379060
v -1.3244020 1.0869091 0.2541450
v -1.3324460 1.0935100 0.1697710
v -1.3372800 1.0974780 0.0849880
v 0.0000000 0.0000000 1.7320510
v -1.2247440 -1.2247440 0.0000000
v -1.3388920 -1.0988010 0.0000000
v -1.4401470 -0.9622760 0.0000000
v -1.5275310 -0.8164830 0.0000000
v -1.6002049 -0.6628260 0.0000000
v -1.6574670 -0.5027880 0.0000000
v -1.6987690 -0.3379070 0.0000000
v -1.7237090 -0.1697700 0.0000000
v -1.7320490 0.0000000 0.0000000
v -1.7237090 0.1697700 0.0000000
v -1.6987690 0.3379070 0.0000000
v -1.6574680 0.5027870 0.0000000
v -1.6002049 0.6628260 0.0000000
v -1.5275310 0.8164830 0.0000000
v -1.4401470 0.9622760 0.0000000
v -1.3388931 1.0987999 0.0000000
v -0.0600960 0.0600960 1.7299640
v -0.1200460 0.1200460 1.7237099
v -0.1797080 0.1797080 1.7133040
v -0.2389360 0.2389360 1.6987700
v -0.2975890 0.2975890 1.6801430
v -0.3555250 0.3555250 1.6574690
v -0.4126040 0.4126040 1.6308020
v -0.4686890 0.4686890 1.6002060
v -0.5236460 0.5236460 1.5657550
v -0.5773400 0.5773400 1.5275320
v -0.6296450 0.6296450 1.4856290
v -0.6804320 0.6804320 1.4401480
v -0.7295790 0.7295790 1.3911960
v -0.7769700 0.7769700 1.3388931
v -0.8224880 0.8224880 1.2833650
v -0.8660260 0.8660260 1.2247450
v -0.9074760 0.9074760 1.1631740
v -0.9467400 0.9467400 1.0988010
v -0.9837230 0.9837230 1.0317810
v -1.0183370 1.0183370 0.9622760
v -1.0504980 1.0504980 0.8904520
v -1.0801270 1.0801270 0.8164830
v -1.1071560 1.1071560 0.7405470
v -1.1315160 1.1315160 0.6628270
v -1.1531510 1.1531510 0.5835100
v -1.1720070 1.1720070 0.5027880
v -1.1880400 1.1880400 0.4208540
v -1.2012100 1.2012100 0.3379060
v -1.2114890 1.2114890 0.2541450
v -1.2188470 1.2188470 0.1697710
v -1.2232690 1.2232690 0.0849880
v -1.2247440 1.2247440 0.0000000
v 0.0000000 0.0000000 1.7320510
# 1092 vertices, 0 vertices normals

f 14 13 44
f 14 44 45
f 15 14 45
f 15 45 46
f 16 15 46
f 16 46 47
f 17 16 47
f 17 47 48
f 18 17 48
f 18 48 49
f 19 18 49
f 19 49 50
f 20 19 50
f 20 50 51
f 21 20 51
f 21 51 52
f 22 21 52
f 22 52 53
f 23 22 53
f 23 53 54
f 24 23 54
f 24 54 55
f 25 24 55
f 25 55 56
f 26 25 56
f 26 56 57
f 27 26 57
f 27 57 58
f 1 546 32
f 28 27 58
f 28 58 59
f 2 1 32
f 2 32 33
f 29 28 59
f 29 59 60
f 3 2 33
f 3 33 34
f 30 29 60
f 30 60 61
f 4 3 34
f 4 34 35
f 31 30 61
f 31 61 62
f 5 4 35
f 5 35 36
f 498 31 62
f 498 62 499
f 6 5 36
f 6 36 37
f 7 6 37
f 7 37 38
f 8 7 38
f 8 38 39
f 9 8 39
f 9 39 40
f 10 9 40
f 10 40 41
f 11 10 41
f 11 41 42
f 12 11 42
f 12 42 43
f 13 12 43
f 13 43 44
f 47 46 77
f 47 77 78
f 48 47 78
f 48 78 79
f 49 48 79
f 49 79 80
f 50 49 80
f 50 80 81
f 51 50 81
f 51 81 82
f 52 51 82
f 52 82 83
f 53 52 83
f 53 83 84
f 54 53 84
f 54 84 85
f 55 54 85
f 55 85 86
f 56 55 86
f 56 86 87
f 57 56 87
f 57 87 88
f 58 57 88
f 58 88 89
f 32 546 63
f 59 58 89
f 59 89 90
f 33 32 63
f 33 63 64
f 60 59 90
f 60 90 91
f 34 33 64
f 34 64 65
f 61 60 91
f 61 91 92
f 35 34 65
f 35 65 66
f 62 61 92
f 62 92 93
f 36 35 66
f 36 66 67
f 499 62 93
f 499 93 500
f 37 36 67
f 37 67 68
f 38 37 68
f 38 68 69
f 39 38 69
f 39 69 70
f 40 39 70
f 40 70 71
f 41 40 71
f 41 71 72
f 42 41 72
f 42 72 73
f 43 42 73
f 43 73 74
f 44 43 74
f 44 74 75
f 45 44 75
f 45 75 76
f 46 45 76
f 46 76 77
f 80 79 110
f 80 110 111
f 81 80 111
f 81 111 112
f 82 81 112
f 82 112 113
f 83 82 113
f 83 113 114
f 84 83 114
f 84 114 115
f 85 84 115
f 85 115 116
f 86 85 116
f 86 116 117
f 87 86 117
f 87 117 118
f 88 87 118
f 88 118 119
f 89 88 119
f 89 119 120
f 63 546 94
f 90 89 120
f 90 120 121
f 64 63 94
f 64 94 95
f 91 90 121
f 91 121 122
f 65 64 95
f 65 95 96
f 92 91 122
f 92 122 123
f 66 65 96
f 66 96 97
f 93 92 123
f 93 123 124
f 67 66 97
f 67 97 98
f 500 93 124
f 500 124 501
f 68 67 98
f 68 98 99
f 69 68 99
f 69 99 100
f 70 69 100
f 70 100 101
f 71 70 101
f 71 101 102
f 72 71 102
f 72 102 103
f 73 72 103
f 73 103 104
f 74 73 104
f 74 104 105
f 75 74 105
f 75 105 106
f 76 75 106
f 76 106 107
f 77 76 107
f 77 107 108
f 78 77 108
f 78 108 109
f 79 78 109
f 79 109 110
f 113 112 143
f 113 143 144
f 114 113 144
f 114 144 145
f 115 114 145
f 115 145 146
f 116 115 146
f 116 146 147
f 117 116 147
f 117 147 148
f 118 117 148
f 118 148 149
f 119 118 149
f 119 149 150
f 120 119 150
f 120 150 151
f 94 546 125
f 121 120 151
f 121 151 152
f 95 94 125
f 95 125 126
f 122 121 152
f 122 152 153
f 96 95 126
f 96 126 127
f 123 122 153
f 123 153 154
f 97 96 127
f 97 127 128
f 124 123 154
f 124 154 155
f 98 97 128
f 98 128 129
f 501 124 155
f 501 155 502
f 99 98 129
f 99 129 130
f 100 99 130
f 100 130 131
f 101 100 131
f 101 131 132
f 102 101 132
f 102 132 133
f 103 102 133
f 103 133 134
f 104 103 134
f 104 134 135
f 105 104 135
f 105 135 136
f 106 105 136
f 106 136 137
f 107 106 137
f 107 137 138
f 108 107 138
f 108 138 139
f 109 108 139
f 109 139 140
f 110 109 140
f 110 140 141
f 111 110 141
f 111 141 142
f 112 111 142
f 112 142 143
f 146 145 176
f 146 176 177
f 147 146 177
f 147 177 178
f 148 147 178
f 148 178 179
f 149 148 179
f 149 179 180
f 150 149 180
f 150 180 181
f 151 150 181
f 151 181 182
f 125 546 156
f 152 151 182
f 152 182 183
f 126 125 156
f 126 156 157
f 153 152 183
f 153 183 184
f 127 126 157
f 127 157 158
f 154 153 184
f 154 184 185
f 128 127 158
f 128 158 159
f 155 154 185
f 155 185 186
f 129 128 159
f 129 159 160
f 502 155 186
f 502 186 503
f 130 129 160
f 130 160 161
f 131 130 161
f 131 161 162
f 132 131 162
f 132 162 163
f 133 132 163
f 133 163 164
f 134 133 164
f 134 164 165
f 135 134 165
f 135 165 166
f 136 135 166
f 136 166 167
f 137 136 167
f 137 167 168
f 138 137 168
f 138 168 169
f 139 138 169
f 139 169 170
f 140 139 170
f 140 170 171
f 141 140 171
f 141 171 172
f 142 141 172
f 142 172 173
f 143 142 173
f 143 173 174
f 144 143 174
f 144 174 175
f 145 144 175
f 145 175 176
f 179 178 209
f 179 209 210
f 180 179 210
f 180 210 211
f 181 180 211
f 181 211 212
f 182 181 212
f 182 212 213
f 156 546 187
f 183 182 213
f 183 213 214
f 157 156 187
f 157 187 188
f 184 183 214
f 184 214 215
f 158 157 188
f 158 188 189
f 185 184 215
f 185 215 216
f 159 158 189
f 159 189 190
f 186 185 216
f 186 216 217
f 160 159 190
f 160 190 191
f 503 186 217
f 503 217 504
f 161 160 191
f 161 191 192
f 162 161 192
f 162 192 193
f 163 162 193
f 163 193 194
f 164 163 194
f 164 194 195
f 165 164 195
f 165 195 196
f 166 165 196
f 166 196 197
f 167 166 197
f 167 197 198
f 168 167 198
f 168 198 199
f 169 168 199
f 169 199 200
f 170 169 200
f 170 200 201
f 171 170 201
f 171 201 202
f 172 171 202
f 172 202 203
f 173 172 203
f 173 203 204
f 174 173 204
f 174 204 205
f 175 174 205
f 175 205 206
f 176 175 206
f 176 206 207
f 177 176 207
f 177 207 208
f 178 177 208
f 178 208 209
f 212 211 242
f 212 242 243
f 213 212 243
f 213 243 244
f 187 546 218
f 214 213 244
f 214 244 245
f 188 187 218
f 188 218 219
f 215 214 245
f 215 245 246
f 189 188 219
f 189 219 220
f 216 215 246
f 216 246 247
f 190 189 220
f 190 220 221
f 217 216 247
f 217 247 248
f 191 190 221
f 191 221 222
f 504 217 248
f 504 248 505
f 192 191 222
f 192 222 223
f 193 192 223
f 193 223 224
f 194 193 224
f 194 224 225
f 195 194 225
f 195 225 226
f 196 195 226
f 196 226 227
f 197 196 227
f 197 227 228
f 198 197 228
f 198 228 229
f 199 198 229
f 199 229 230
f 200 199 230
f 200 230 231
f 201 200 231
f 201 231 232
f 202 201 232
f 202 232 233
f 203 202 233
f 203 233 234
f 204 203 234
f 204 234 235
f 205 204 235
f 205 235 236
f 206 205 236
f 206 236 237
f 207 206 237
f 207 237 238
f 208 207 238
f 208 238 239
f 209 208 239
f 209 239 240
f 210 209 240
f 210 240 241
f 211 210 241
f 211 241 242
f 228 227 258
f 228 258 259
f 229 228 259
f 229 259 260
f 230 229 260
f 230 260 261
f 231 230 261
f 231 261 262
f 232 231 262
f 232 262 263
f 233 232 263
f 233 263 264
f 234 233 264
f 234 264 265
f 235 234 265
f 235 265 266
f 236 235 266
f 236 266 267
f 237 236 267
f 237 267 268
f 238 237 268
f 238 268 269
f 239 238 269
f 239 269 270
f 240 239 270
f 240 270 271
f 241 240 271
f 241 271 272
f 242 241 272
f 242 272 273
f 243 242 273
f 243 273 274
f 244 243 274
f 244 274 275
f 218 546 249
f 245 244 275
f 245 275 276
f 219 218 249
f 219 249 250
f 246 245 276
f 246 276 277
f 220 219 250
f 220 250 251
f 247 246 277
f 247 277 278
f 221 220 251
f 221 251 252
f 248 247 278
f 248 278 279
f 222 221 252
f 222 252 253
f 505 248 279
f 505 279 506
f 223 222 253
f 223 253 254
f 224 223 254
f 224 254 255
f 225 224 255
f 225 255 256
f 226 225 256
f 226 256 257
f 227 226 257
f 227 257 258
f 261 260 291
f 261 291 292
f 262 261 292
f 262 292 293
f 263 262 293
f 263 293 294
f 264 263 294
f 264 294 295
f 265 264 295
f 265 295 296
f 266 265 296
f 266 296 297
f 267 266 297
f 267 297 298
f 268 267 298
f 268 298 299
f 269 268 299
f 269 299 300
f 270 269 300
f 270 300 301
f 271 270 301
f 271 301 302
f 272 271 302
f 272 302 303
f 273 272 303
f 273 303 304
f 274 273 304
f 274 304 305
f 275 274 305
f 275 305 306
f 249 546 280
f 276 275 306
f 276 306 307
f 250 249 280
f 250 280 281
f 277 276 307
f 277 307 308
f 251 250 281
f 251 281 282
f 278 277 308
f 278 308 309
f 252 251 282
f 252 282 283
f 279 278 309
f 279 309 310
f 253 252 283
f 253 283 284
f 506 279 310
f 506 310 507
f 254 253 284
f 254 284 285
f 255 254 285
f 255 285 286
f 256 255 286
f 256 286 287
f 257 256 287
f 257 287 288
f 258 257 288
f 258 288 289
f 259 258 289
f 259 289 290
f 260 259 290
f 260 290 291
f 294 293 324
f 294 324 325
f 295 294 325
f 295 325 326
f 296 295 326
f 296 326 327
f 297 296 327
f 297 327 328
f 298 297 328
f 298 328 329
f 299 298 329
f 299 329 330
f 300 299 330
f 300 330 331
f 301 300 331
f 301 331 332
f 302 301 332
f 302 332 333
f 303 302 333
f 303 333 334
f 304 303 334
f 304 334 335
f 305 304 335
f 305 335 336
f 306 305 336
f 306 336 337
f 280 546 311
f 307 306 337
f 307 337 338
f 281 280 311
f 281 311 312
f 308 307 338
f 308 338 339
f 282 281 312
f 282 312 313
f 309 308 339
f 309 339 340
f 283 282 313
f 283 313 314
f 310 309 340
f 310 340 341
f 284 283 314
f 284 314 315
f 507 310 341
f 507 341 508
f 285 284 315
f 285 315 316
f 286 285 316
f 286 316 317
f 287 286 317
f 287 317 318
f 288 287 318
f 288 318 319
f 289 288 319
f 289 319 320
f 290 289 320
f 290 320 321
f 291 290 321
f 291 321 322
f 292 291 322
f 292 322 323
f 293 292 323
f 293 323 324
f 327 326 357
f 327 357 358
f 328 327 358
f 328 358 359
f 329 328 359
f 329 359 360
f 330 329 360
f 330 360 361
f 331 330 361
f 331 361 362
f 332 331 362
f 332 362 363
f 333 332 363
f 333 363 364
f 334 333 364
f 334 364 365
f 335 334 365
f 335 365 366
f 336 335 366
f 336 366 367
f 337 336 367
f 337 367 368
f 311 546 342
f 338 337 368
f 338 368 369
f 312 311 342
f 312 342 343
f 339 338 369
f 339 369 370
f 313 312 343
f 313 343 344
f 340 339 370
f 340 370 371
f 314 313 344
f 314 344 345
f 341 340 371
f 341 371 372
f 315 314 345
f 315 345 346
f 508 341 372
f 508 372 509
f 316 315 346
f 316 346 347
f 317 316 347
f 317 347 348
f 318 317 348
f 318 348 349
f 319 318 349
f 319 349 350
f 320 319 350
f 320 350 351
f 321 320 351
f 321 351 352
f 322 321 352
f 322 352 353
f 323 322 353
f 323 353 354
f 324 323 354
f 324 354 355
f 325 324 355
f 325 355 356
f 326 325 356
f 326 356 357
f 360 359 390
f 360 390 391
f 361 360 391
f 361 391 392
f 362 361 392
f 362 392 393
f 363 362 393
f 363 393 394
f 364 363 394
f 364 394 395
f 365 364 395
f 365 395 396
f 366 365 396
f 366 396 397
f 367 366 397
f 367 397 398
f 368 367 398
f 368 398 399
f 342 546 373
f 369 368 399
f 369 399 400
f 343 342 373
f 343 373 374
f 370 369 400
f 370 400 401
f 344 343 374
f 344 374 375
f 371 370 401
f 371 401 402
f 345 344 375
f 345 375 376
f 372 371 402
f 372 402 403
f 346 345 376
f 346 376 377
f 509 372 403
f 509 403 510
f 347 346 377
f 347 377 378
f 348 347 378
f 348 378 379
f 349 348 379
f 349 379 380
f 350 349 380
f 350 380 381
f 351 350 381
f 351 381 382
f 352 351 382
f 352 382 383
f 353 352 383
f 353 383 384
f 354 353 384
f 354 384 385
f 355 354 385
f 355 385 386
f 356 355 386
f 356 386 387
f 357 356 387
f 357 387 388
f 358 357 388
f 358 388 389
f 359 358 389
f 359 389 390
f 393 392 423
f 393 423 424
f 394 393 424
f 394 424 425
f 395 394 425
f 395 425 426
f 396 395 426
f 396 426 427
f 397 396 427
f 397 427 428
f 398 397 428
f 398 428 429
f 399 398 429
f 399 429 430
f 373 546 404
f 400 399 430
f 400 430 431
f 374 373 404
f 374 404 405
f 401 400 431
f 401 431 432
f 375 374 405
f 375 405 406
f 402 401 432
f 402 432 433
f 376 375 406
f 376 406 407
f 403 402 433
f 403 433 434
f 377 376 407
f 377 407 408
f 510 403 434
f 510 434 511
f 378 377 408
f 378 408 409
f 379 378 409
f 379 409 410
f 380 379 410
f 380 410 411
f 381 380 411
f 381 411 412
f 382 381 412
f 382 412 413
f 383 382 413
f 383 413 414
f 384 383 414
f 384 414 415
f 385 384 415
f 385 415 416
f 386 385 416
f 386 416 417
f 387 386 417
f 387 417 418
f 388 387 418
f 388 418 419
f 389 388 419
f 389 419 420
f 390 389 420
f 390 420 421
f 391 390 421
f 391 421 422
f 392 391 422
f 392 422 423
f 426 425 456
f 426 456 457
f 427 426 457
f 427 457 458
f 428 427 458
f 428 458 459
f 429 428 459
f 429 459 460
f 430 429 460
f 430 460 461
f 404 546 435
f 431 430 461
f 431 461 462
f 405 404 435
f 405 435 436
f 432 431 462
f 432 462 463
f 406 405 436
f 406 436 437
f 433 432 463
f 433 463 464
f 407 406 437
f 407 437 438
f 434 433 464
f 434 464 465
f 408 407 438
f 408 438 439
f 511 434 465
f 511 465 512
f 409 408 439
f 409 439 440
f 410 409 440
f 410 440 441
f 411 410 441
f 411 441 442
f 412 411 442
f 412 442 443
f 413 412 443
f 413 443 444
f 414 413 444
f 414 444 445
f 415 414 445
f 415 445 446
f 416 415 446
f 416 446 447
f 417 416 447
f 417 447 448
f 418 417 448
f 418 448 449
f 419 418 449
f 419 449 450
f 420 419 450
f 420 450 451
f 421 420 451
f 421 451 452
f 422 421 452
f 422 452 453
f 423 422 453
f 423 453 454
f 424 423 454
f 424 454 455
f 425 424 455
f 425 455 456
f 459 458 489
f 459 489 490
f 460 459 490
f 460 490 491
f 461 460 491
f 461 491 492
f 435 497 466
f 462 461 492
f 462 492 493
f 436 435 466
f 436 466 467
f 463 462 493
f 463 493 494
f 437 436 467
f 437 467 468
f 464 463 494
f 464 494 495
f 438 437 468
f 438 468 469
f 465 464 495
f 465 495 496
f 439 438 469
f 439 469 470
f 512 465 496
f 512 496 513
f 440 439 470
f 440 470 471
f 441 440 471
f 441 471 472
f 442 441 472
f 442 472 473
f 443 442 473
f 443 473 474
f 444 443 474
f 444 474 475
f 445 444 475
f 445 475 476
f 446 445 476
f 446 476 477
f 447 446 477
f 447 477 478
f 448 447 478
f 448 478 479
f 449 448 479
f 449 479 480
f 450 449 480
f 450 480 481
f 451 450 481
f 451 481 482
f 452 451 482
f 452 482 483
f 453 452 483
f 453 483 484
f 454 453 484
f 454 484 485
f 455 454 485
f 455 485 486
f 456 455 486
f 456 486 487
f 457 456 487
f 457 487 488
f 458 457 488
f 458 488 489
f 492 491 539
f 492 539 540
f 466 497 514
f 493 492 540
f 493 540 541
f 467 466 514
f 467 514 515
f 494 493 541
f 494 541 542
f 468 467 515
f 468 515 516
f 495 494 542
f 495 542 543
f 469 468 516
f 469 516 517
f 496 495 543
f 496 543 544
f 470 469 517
f 470 517 518
f 513 496 544
f 513 544 545
f 471 470 518
f 471 518 519
f 472 471 519
f 472 519 520
f 473 472 520
f 473 520 521
f 474 473 521
f 474 521 522
f 475 474 522
f 475 522 523
f 476 475 523
f 476 523 524
f 477 476 524
f 477 524 525
f 478 477 525
f 478 525 526
f 479 478 526
f 479 526 527
f 480 479 527
f 480 527 528
f 481 480 528
f 481 528 529
f 482 481 529
f 482 529 530
f 483 482 530
f 483 530 531
f 484 483 531
f 484 531 532
f 485 484 532
f 485 532 533
f 486 485 533
f 486 533 534
f 487 486 534
f 487 534 535
f 488 487 535
f 488 535 536
f 489 488 536
f 489 536 537
f 490 489 537
f 490 537 538
f 491 490 538
f 491 538 539
f 560 559 590
f 560 590 591
f 561 560 591
f 561 591 592
f 562 561 592
f 562 592 593
f 563 562 593
f 563 593 594
f 564 563 594
f 564 594 595
f 565 564 595
f 565 595 596
f 566 565 596
f 566 596 597
f 567 566 597
f 567 597 598
f 568 567 598
f 568 598 599
f 569 568 599
f 569 599 600
f 570 569 600
f 570 600 601
f 571 570 601
f 571 601 602
f 572 571 602
f 572 602 603
f 573 572 603
f 573 603 604
f 547 1092 578
f 574 573 604
f 574 604 605
f 548 547 578
f 548 578 579
f 575 574 605
f 575 605 606
f 549 548 579
f 549 579 580
f 576 575 606
f 576 606 607
f 550 549 580
f 550 580 581
f 577 576 607
f 577 607 608
f 551 550 581
f 551 581 582
f 1044 577 608
f 1044 608 1045
f 552 551 582
f 552 582 583
f 553 552 583
f 553 583 584
f 554 553 584
f 554 584 585
f 555 554 585
f 555 585 586
f 556 555 586
f 556 586 587
f 557 556 587
f 557 587 588
f 558 557 588
f 558 588 589
f 559 558 589
f 559 589 590
f 593 592 623
f 593 623 624
f 594 593 624
f 594 624 625
f 595 594 625
f 595 625 626
f 596 595 626
f 596 626 627
f 597 596 627
f 597 627 628
f 598 597 628
f 598 628 629
f 599 598 629
f 599 629 630
f 600 599 630
f 600 630 631
f 601 600 631
f 601 631 632
f 602 601 632
f 602 632 633
f 603 602 633
f 603 633 634
f 604 603 634
f 604 634 635
f 578 1092 609
f 605 604 635
f 605 635 636
f 579 578 609
f 579 609 610
f 606 605 636
f 606 636 637
f 580 579 610
f 580 610 611
f 607 606 637
f 607 637 638
f 581 580 611
f 581 611 612
f 608 607 638
f 608 638 639
f 582 581 612
f 582 612 613
f 1045 608 639
f 1045 639 1046
f 583 582 613
f 583 613 614
f 584 583 614
f 584 614 615
f 585 584 615
f 585 615 616
f 586 585 616
f 586 616 617
f 587 586 617
f 587 617 618
f 588 587 618
f 588 618 619
f 589 588 619
f 589 619 620
f 590 589 620
f 590 620 621
f 591 590 621
f 591 621 622
f 592 591 622
f 592 622 623
f 626 625 656
f 626 656 657
f 627 626 657
f 627 657 658
f 628 627 658
f 628 658 659
f 629 628 659
f 629 659 660
f 630 629 660
f 630 660 661
f 631 630 661
f 631 661 662
f 632 631 662
f 632 662 663
f 633 632 663
f 633 663 664
f 634 633 664
f 634 664 665
f 635 634 665
f 635 665 666
f 609 1092 640
f 636 635 666
f 636 666 667
f 610 609 640
f 610 640 641
f 637 636 667
f 637 667 668
f 611 610 641
f 611 641 642
f 638 637 668
f 638 668 669
f 612 611 642
f 612 642 643
f 639 638 669
f 639 669 670
f 613 612 643
f 613 643 644
f 1046 639 670
f 1046 670 1047
f 614 613 644
f 614 644 645
f 615 614 645
f 615 645 646
f 616 615 646
f 616 646 647
f 617 616 647
f 617 647 648
f 618 617 648
f 618 648 649
f 619 618 649
f 619 649 650
f 620 619 650
f 620 650 651
f 621 620 651
f 621 651 652
f 622 621 652
f 622 652 653
f 623 622 653
f 623 653 654
f 624 623 654
f 624 654 655
f 625 624 655
f 625 655 656
f 659 658 689
f 659 689 690
f 660 659 690
f 660 690 691
f 661 660 691
f 661 691 692
f 662 661 692
f 662 692 693
f 663 662 693
f 663 693 694
f 664 663 694
f 664 694 695
f 665 664 695
f 665 695 696
f 666 665 696
f 666 696 697
f 640 1092 671
f 667 666 697
f 667 697 698
f 641 640 671
f 641 671 672
f 668 667 698
f 668 698 699
f 642 641 672
f 642 672 673
f 669 668 699
f 669 699 700
f 643 642 673
f 643 673 674
f 670 669 700
f 670 700 701
f 644 643 674
f 644 674 675
f 1047 670 701
f 1047 701 1048
f 645 644 675
f 645 675 676
f 646 645 676
f 646 676 677
f 647 646 677
f 647 677 678
f 648 647 678
f 648 678 679
f 649 648 679
f 649 679 680
f 650 649 680
f 650 680 681
f 651 650 681
f 651 681 682
f 652 651 682
f 652 682 683
f 653 652 683
f 653 683 684
f 654 653 684
f 654 684 685
f 655 654 685
f 655 685 686
f 656 655 686
f 656 686 687
f 657 656 687
f 657 687 688
f 658 657 688
f 658 688 689
f 692 691 722
f 692 722 723
f 693 692 723
f 693 723 724
f 694 693 724
f 694 724 725
f 695 694 725
f 695 725 726
f 696 695 726
f 696 726 727
f 697 696 727
f 697 727 728
f 671 1092 702
f 698 697 728
f 698 728 729
f 672 671 702
f 672 702 703
f 699 698 729
f 699 729 730
f 673 672 703
f 673 703 704
f 700 699 730
f 700 730 731
f 674 673 704
f 674 704 705
f 701 700 731
f 701 731 732
f 675 674 705
f 675 705 706
f 1048 701 732
f 1048 732 1049
f 676 675 706
f 676 706 707
f 677 676 707
f 677 707 708
f 678 677 708
f 678 708 709
f 679 678 709
f 679 709 710
f 680 679 710
f 680 710 711
f 681 680 711
f 681 711 712
f 682 681 712
f 682 712 713
f 683 682 713
f 683 713 714
f 684 683 714
f 684 714 715
f 685 684 715
f 685 715 716
f 686 685 716
f 686 716 717
f 687 686 717
f 687 717 718
f 688 687 718
f 688 718 719
f 689 688 719
f 689 719 720
f 690 689 720
f 690 720 721
f 691 690 721
f 691 721 722
f 725 724 755
f 725 755 756
f 726 725 756
f 726 756 757
f 727 726 757
f 727 757 758
f 728 727 758
f 728 758 759
f 702 1092 733
f 729 728 759
f 729 759 760
f 703 702 733
f 703 733 734
f 730 729 760
f 730 760 761
f 704 703 734
f 704 734 735
f 731 730 761
f 731 761 762
f 705 704 735
f 705 735 736
f 732 731 762
f 732 762 763
f 706 705 736
f 706 736 737
f 1049 732 763
f 1049 763 1050
f 707 706 737
f 707 737 738
f 708 707 738
f 708 738 739
f 709 708 739
f 709 739 740
f 710 709 740
f 710 740 741
f 711 710 741
f 711 741 742
f 712 711 742
f 712 742 743
f 713 712 743
f 713 743 744
f 714 713 744
f 714 744 745
f 715 714 745
f 715 745 746
f 716 715 746
f 716 746 747
f 717 716 747
f 717 747 748
f 718 717 748
f 718 748 749
f 719 718 749
f 719 749 750
f 720 719 750
f 720 750 751
f 721 720 751
f 721 751 752
f 722 721 752
f 722 752 753
f 723 722 753
f 723 753 754
f 724 723 754
f 724 754 755
f 758 757 788
f 758 788 789
f 759 758 789
f 759 789 790
f 733 1092 764
f 760 759 790
f 760 790 791
f 734 733 764
f 734 764 765
f 761 760 791
f 761 791 792
f 735 734 765
f 735 765 766
f 762 761 792
f 762 792 793
f 736 735 766
f 736 766 767
f 763 762 793
f 763 793 794
f 737 736 767
f 737 767 768
f 1050 763 794
f 1050 794 1051
f 738 737 768
f 738 768 769
f 739 738 769
f 739 769 770
f 740 739 770
f 740 770 771
f 741 740 771
f 741 771 772
f 742 741 772
f 742 772 773
f 743 742 773
f 743 773 774
f 744 743 774
f 744 774 775
f 745 744 775
f 745 775 776
f 746 745 776
f 746 776 777
f 747 746 777
f 747 777 778
f 748 747 778
f 748 778 779
f 749 748 779
f 749 779 780
f 750 749 780
f 750 780 781
f 751 750 781
f 751 781 782
f 752 751 782
f 752 782 783
f 753 752 783
f 753 783 784
f 754 753 784
f 754 784 785
f 755 754 785
f 755 785 786
f 756 755 786
f 756 786 787
f 757 756 787
f 757 787 788
f 774 773 804
f 774 804 805
f 775 774 805
f 775 805 806
f 776 775 806
f 776 806 807
f 777 776 807
f 777 807 808
f 778 777 808
f 778 808 809
f 779 778 809
f 779 809 810
f 780 779 810
f 780 810 811
f 781 780 811
f 781 811 812
f 782 781 812
f 782 812 813
f 783 782 813
f 783 813 814
f 784 783 814
f 784 814 815
f 785 784 815
f 785 815 816
f 786 785 816
f 786 816 817
f 787 786 817
f 787 817 818
f 788 787 818
f 788 818 819
f 789 788 819
f 789 819 820
f 790 789 820
f 790 820 821
f 764 1092 795
f 791 790 821
f 791 821 822
f 765 764 795
f 765 795 796
f 792 791 822
f 792 822 823
f 766 765 796
f 766 796 797
f 793 792 823
f 793 823 824
f 767 766 797
f 767 797 798
f 794 793 824
f 794 824 825
f 768 767 798
f 768 798 799
f 1051 794 825
f 1051 825 1052
f 769 768 799
f 769 799 800
f 770 769 800
f 770 800 801
f 771 770 801
f 771 801 802
f 772 771 802
f 772 802 803
f 773 772 803
f 773 803 804
f 807 806 837
f 807 837 838
f 808 807 838
f 808 838 839
f 809 808 839
f 809 839 840
f 810 809 840
f 810 840 841
f 811 810 841
f 811 841 842
f 812 811 842
f 812 842 843
f 813 812 843
f 813 843 844
f 814 813 844
f 814 844 845
f 815 814 845
f 815 845 846
f 816 815 846
f 816 846 847
f 817 816 847
f 817 847 848
f 818 817 848
f 818 848 849
f 819 818 849
f 819 849 850
f 820 819 850
f 820 850 851
f 821 820 851
f 821 851 852
f 795 1092 826
f 822 821 852
f 822 852 853
f 796 795 826
f 796 826 827
f 823 822 853
f 823 853 854
f 797 796 827
f 797 827 828
f 824 823 854
f 824 854 855
f 798 797 828
f 798 828 829
f 825 824 855
f 825 855 856
f 799 798 829
f 799 829 830
f 1052 825 856
f 1052 856 1053
f 800 799 830
f 800 830 831
f 801 800 831
f 801 831 832
f 802 801 832
f 802 832 833
f 803 802 833
f 803 833 834
f 804 803 834
f 804 834 835
f 805 804 835
f 805 835 836
f 806 805 836
f 806 836 837
f 840 839 870
f 840 870 871
f 841 840 871
f 841 871 872
f 842 841 872
f 842 872 873
f 843 842 873
f 843 873 874
f 844 843 874
f 844 874 875
f 845 844 875
f 845 875 876
f 846 845 876
f 846 876 877
f 847 846 877
f 847 877 878
f 848 847 878
f 848 878 879
f 849 848 879
f 849 879 880
f 850 849 880
f 850 880 881
f 851 850 881
f 851 881 882
f 852 851 882
f 852 882 883
f 826 1092 857
f 853 852 883
f 853 883 884
f 827 826 857
f 827 857 858
f 854 853 884
f 854 884 885
f 828 827 858
f 828 858 859
f 855 854 885
f 855 885 886
f 829 828 859
f 829 859 860
f 856 855 886
f 856 886 887
f 830 829 860
f 830 860 861
f 1053 856 887
f 1053 887 1054
f 831 830 861
f 831 861 862
f 832 831 862
f 832 862 863
f 833 832 863
f 833 863 864
f 834 833 864
f 834 864 865
f 835 834 865
f 835 865 866
f 836 835 866
f 836 866 867
f 837 836 867
f 837 867 868
f 838 837 868
f 838 868 869
f 839 838 869
f 839 869 870
f 873 872 903
f 873 903 904
f 874 873 904
f 874 904 905
f 875 874 905
f 875 905 906
f 876 875 906
f 876 906 907
f 877 876 907
f 877 907 908
f 878 877 908
f 878 908 909
f 879 878 909
f 879 909 910
f 880 879 910
f 880 910 911
f 881 880 911
f 881 911 912
f 882 881 912
f 882 912 913
f 883 882 913
f 883 913 914
f 857 1092 888
f 884 883 914
f 884 914 915
f 858 857 888
f 858 888 889
f 885 884 915
f 885 915 916
f 859 858 889
f 859 889 890
f 886 885 916
f 886 916 917
f 860 859 890
f 860 890 891
f 887 886 917
f 887 917 918
f 861 860 891
f 861 891 892
f 1054 887 918
f 1054 918 1055
f 862 861 892
f 862 892 893
f 863 862 893
f 863 893 894
f 864 863 894
f 864 894 895
f 865 864 895
f 865 895 896
f 866 865 896
f 866 896 897
f 867 866 897
f 867 897 898
f 868 867 898
f 868 898 899
f 869 868 899
f 869 899 900
f 870 869 900
f 870 900 901
f 871 870 901
f 871 901 902
f 872 871 902
f 872 902 903
f 906 905 936
f 906 936 937
f 907 906 937
f 907 937 938
f 908 907 938
f 908 938 939
f 909 908 939
f 909 939 940
f 910 909 940
f 910 940 941
f 911 910 941
f 911 941 942
f 912 911 942
f 912 942 943
f 913 912 943
f 913 943 944
f 914 913 944
f 914 944 945
f 888 1092 919
f 915 914 945
f 915 945 946
f 889 888 919
f 889 919 920
f 916 915 946
f 916 946 947
f 890 889 920
f 890 920 921
f 917 916 947
f 917 947 948
f 891 890 921
f 891 921 922
f 918 917 948
f 918 948 949
f 892 891 922
f 892 922 923
f 1055 918 949
f 1055 949 1056
f 893 892 923
f 893 923 924
f 894 893 924
f 894 924 925
f 895 894 925
f 895 925 926
f 896 895 926
f 896 926 927
f 897 896 927
f 897 927 928
f 898 897 928
f 898 928 929
f 899 898 929
f 899 929 930
f 900 899 930
f 900 930 931
f 901 900 931
f 901 931 932
f 902 901 932
f 902 932 933
f 903 902 933
f 903 933 934
f 904 903 934
f 904 934 935
f 905 904 935
f 905 935 936
f 939 938 969
f 939 969 970
f 940 939 970
f 940 970 971
f 941 940 971
f 941 971 972
f 942 941 972
f 942 972 973
f 943 942 973
f 943 973 974
f 944 943 974
f 944 974 975
f 945 944 975
f 945 975 976
f 919 1092 950
f 946 945 976
f 946 976 977
f 920 919 950
f 920 950 951
f 947 946 977
f 947 977 978
f 921 920 951
f 921 951 952
f 948 947 978
f 948 978 979
f 922 921 952
f 922 952 953
f 949 948 979
f 949 979 980
f 923 922 953
f 923 953 954
f 1056 949 980
f 1056 980 1057
f 924 923 954
f 924 954 955
f 925 924 955
f 925 955 956
f 926 925 956
f 926 956 957
f 927 926 957
f 927 957 958
f 928 927 958
f 928 958 959
f 929 928 959
f 929 959 960
f 930 929 960
f 930 960 961
f 931 930 961
f 931 961 962
f 932 931 962
f 932 962 963
f 933 932 963
f 933 963 964
f 934 933 964
f 934 964 965
f 935 934 965
f 935 965 966
f 936 935 966
f 936 966 967
f 937 936 967
f 937 967 968
f 938 937 968
f 938 968 969
f 972 971 1002
f 972 1002 1003
f 973 972 1003
f 973 1003 1004
f 974 973 1004
f 974 1004 1005
f 975 974 1005
f 975 1005 1006
f 976 975 1006
f 976 1006 1007
f 950 1092 981
f 977 976 1007
f 977 1007 1008
f 951 950 981
f 951 981 982
f 978 977 1008
f 978 1008 1009
f 952 951 982
f 952 982 983
f 979 978 1009
f 979 1009 1010
f 953 952 983
f 953 983 984
f 980 979 1010
f 980 1010 1011
f 954 953 984
f 954 984 985
f 1057 980 1011
f 1057 1011 1058
f 955 954 985
f 955 985 986
f 956 955 986
f 956 986 987
f 957 956 987
f 957 987 988
f 958 957 988
f 958 988 989
f 959 958 989
f 959 989 990
f 960 959 990
f 960 990 991
f 961 960 991
f 961 991 992
f 962 961 992
f 962 992 993
f 963 962 993
f 963 993 994
f 964 963 994
f 964 994 995
f 965 964 995
f 965 995 996
f 966 965 996
f 966 996 997
f 967 966 997
f 967 997 998
f 968 967 998
f 968 998 999
f 969 968 999
f 969 999 1000
f 970 969 1000
f 970 1000 1001
f 971 970 1001
f 971 1001 1002
f 1005 1004 1035
f 1005 1035 1036
f 1006 1005 1036
f 1006 1036 1037
f 1007 1006 1037
f 1007 1037 1038
f 981 1043 1012
f 1008 1007 1038
f 1008 1038 1039
f 982 981 1012
f 982 1012 1013
f 1009 1008 1039
f 1009 1039 1040
f 983 982 1013
f 983 1013 1014
f 1010 1009 1040
f 1010 1040 1041
f 984 983 1014
f 984 1014 1015
f 1011 1010 1041
f 1011 1041 1042
f 985 984 1015
f 985 1015 1016
f 1058 1011 1042
f 1058 1042 1059
f 986 985 1016
f 986 1016 1017
f 987 986 1017
f 987 1017 1018
f 988 987 1018
f 988 1018 1019
f 989 988 1019
f 989 1019 1020
f 990 989 1020
f 990 1020 1021
f 991 990 1021
f 991 1021 1022
f 992 991 1022
f 992 1022 1023
f 993 992 1023
f 993 1023 1024
f 994 993 1024
f 994 1024 1025
f 995 994 1025
f 995 1025 1026
f 996 995 1026
f 996 1026 1027
f 997 996 1027
f 997 1027 1028
f 998 997 1028
f 998 1028 1029
f 999 998 1029
f 999 1029 1030
f 1000 999 1030
f 1000 1030 1031
f 1001 1000 1031
f 1001 1031 1032
f 1002 1001 1032
f 1002 1032 1033
f 1003 1002 1033
f 1003 1033 1034
f 1004 1003 1034
f 1004 1034 1035
f 1038 1037 1085
f 1038 1085 1086
f 1012 1043 1060
f 1039 1038 1086
f 1039 1086 1087
f 1013 1012 1060
f 1013 1060 1061
f 1040 1039 1087
f 1040 1087 1088
f 1014 1013 1061
f 1014 1061 1062
f 1041 1040 1088
f 1041 1088 1089
f 1015 1014 1062
f 1015 1062 1063
f 1042 1041 1089
f 1042 1089 1090
f 1016 1015 1063
f 1016 1063 1064
f 1059 1042 1090
f 1059 1090 1091
f 1017 1016 1064
f 1017 1064 1065
f 1018 1017 1065
f 1018 1065 1066
f 1019 1018 1066
f 1019 1066 1067
f 1020 1019 1067
f 1020 1067 1068
f 1021 1020 1068
f 1021 1068 1069
f 1022 1021 1069
f 1022 1069 1070
f 1023 1022 1070
f 1023 1070 1071
f 1024 1023 1071
f 1024 1071 1072
f 1025 1024 1072
f 1025 1072 1073
f 1026 1025 1073
f 1026 1073 1074
f 1027 1026 1074
f 1027 1074 1075
f 1028 1027 1075
f 1028 1075 1076
f 1029 1028 1076
f 1029 1076 1077
f 1030 1029 1077
f 1030 1077 1078
f 1031 1030 1078
f 1031 1078 1079
f 1032 1031 1079
f 1032 1079 1080
f 1033 1032 1080
f 1033 1080 1081
f 1034 1033 1081
f 1034 1081 1082
f 1035 1034 1082
f 1035 1082 1083
f 1036 1035 1083
f 1036 1083 1084
f 1037 1036 1084
f 1037 1084 1085
l 958412086 958412086
l 958412086 958412086
# 2016 faces, 0 coords texture

# End of File
