####
#
# OBJ File Generated by Meshlab
#
####
# Object cube.obj
#
# Vertices: 8
# Faces: 12
#
####
v -0.0250000 0.0250000 -0.0250000
v -0.0250000 0.0250000 0.0250000
v 0.0250000 0.0250000 -0.0250000
v 0.0250000 0.0250000 0.0250000
v -0.0250000 -0.0250000 -0.0250000
v -0.0250000 -0.0250000 0.0250000
v 0.0250000 -0.0250000 -0.0250000
v 0.0250000 -0.0250000 0.0250000
# 8 vertices, 0 vertices normals

f 1 2 4
f 1 4 3
f 3 4 8
f 3 8 7
f 7 8 6
f 7 6 5
f 5 6 2
f 5 2 1
f 3 7 5
f 3 5 1
f 8 4 2
f 8 2 6
# 12 faces, 0 coords texture

# End of File
