####
#
# OBJ File Generated by Meshlab
#
####
# Object tri_8x.obj
#
# Vertices: 15
# Faces: 16
#
####
v -0.0250000 0.0250000 0.0250000
v 0.0250000 -0.0250000 0.0250000
v 0.0250000 0.0250000 -0.0250000
v 0.0000000 0.0000000 0.0250000
v 0.0250000 0.0000000 0.0000000
v 0.0000000 0.0250000 0.0000000
v 0.0125000 0.0000000 0.0125000
v 0.0125000 0.0125000 0.0000000
v 0.0000000 0.0125000 0.0125000
v -0.0125000 0.0125000 0.0250000
v -0.0125000 0.0250000 0.0125000
v 0.0125000 -0.0125000 0.0250000
v 0.0250000 -0.0125000 0.0125000
v 0.0250000 0.0125000 -0.0125000
v 0.0125000 0.0250000 -0.0125000
# 15 vertices, 0 vertices normals

f 7 8 9
f 10 9 11
f 12 13 7
f 8 14 15
f 4 7 9
f 7 5 8
f 9 8 6
f 1 10 11
f 10 4 9
f 11 9 6
f 4 12 7
f 12 2 13
f 7 13 5
f 6 8 15
f 8 5 14
f 15 14 3
# 16 faces, 0 coords texture

# End of File
