# https://github.com/mikedh/trimesh
v -0.50000000 0.50000000 0.50000000 0.09803922 0.09803922 0.09803922
v -0.50000000 0.50000000 -0.50000000 0.09803922 0.09803922 0.09803922
v 0.50000000 0.50000000 0.50000000 0.09803922 0.09803922 0.09803922
v 0.50000000 0.50000000 -0.50000000 0.09803922 0.09803922 0.09803922
v -0.50000000 0.50000000 0.00000000 0.09803922 0.09803922 0.09803922
v 0.00000000 0.50000000 -0.50000000 0.09803922 0.09803922 0.09803922
v 0.00000000 0.50000000 0.00000000 0.09803922 0.09803922 0.09803922
v 0.50000000 0.50000000 0.00000000 0.09803922 0.09803922 0.09803922
v 0.00000000 0.50000000 0.50000000 0.09803922 0.09803922 0.09803922
v -0.25000000 0.50000000 -0.25000000 0.09803922 0.09803922 0.09803922
v 0.00000000 0.50000000 -0.25000000 0.09803922 0.09803922 0.09803922
v -0.25000000 0.50000000 0.00000000 0.09803922 0.09803922 0.09803922
v 0.25000000 0.50000000 0.00000000 0.09803922 0.09803922 0.09803922
v 0.25000000 0.50000000 0.25000000 0.09803922 0.09803922 0.09803922
v 0.00000000 0.50000000 0.25000000 0.09803922 0.09803922 0.09803922
v -0.50000000 0.50000000 0.25000000 0.09803922 0.09803922 0.09803922
v -0.25000000 0.50000000 0.25000000 0.09803922 0.09803922 0.09803922
v -0.50000000 0.50000000 -0.25000000 0.09803922 0.09803922 0.09803922
v -0.25000000 0.50000000 -0.50000000 0.09803922 0.09803922 0.09803922
v 0.25000000 0.50000000 -0.50000000 0.09803922 0.09803922 0.09803922
v 0.25000000 0.50000000 -0.25000000 0.09803922 0.09803922 0.09803922
v -0.25000000 0.50000000 0.50000000 0.09803922 0.09803922 0.09803922
v 0.50000000 0.50000000 -0.25000000 0.09803922 0.09803922 0.09803922
v 0.50000000 0.50000000 0.25000000 0.09803922 0.09803922 0.09803922
v 0.25000000 0.50000000 0.50000000 0.09803922 0.09803922 0.09803922
v -0.12500000 0.50000000 -0.25000000 0.09803922 0.09803922 0.09803922
v -0.12500000 0.50000000 -0.12500000 0.09803922 0.09803922 0.09803922
v -0.25000000 0.50000000 -0.12500000 0.09803922 0.09803922 0.09803922
v 0.25000000 0.50000000 0.12500000 0.09803922 0.09803922 0.09803922
v 0.12500000 0.50000000 0.25000000 0.09803922 0.09803922 0.09803922
v 0.12500000 0.50000000 0.12500000 0.09803922 0.09803922 0.09803922
v -0.37500000 0.50000000 0.12500000 0.09803922 0.09803922 0.09803922
v -0.25000000 0.50000000 0.12500000 0.09803922 0.09803922 0.09803922
v -0.37500000 0.50000000 0.25000000 0.09803922 0.09803922 0.09803922
v -0.37500000 0.50000000 -0.37500000 0.09803922 0.09803922 0.09803922
v -0.25000000 0.50000000 -0.37500000 0.09803922 0.09803922 0.09803922
v -0.37500000 0.50000000 -0.25000000 0.09803922 0.09803922 0.09803922
v 0.12500000 0.50000000 -0.37500000 0.09803922 0.09803922 0.09803922
v 0.25000000 0.50000000 -0.37500000 0.09803922 0.09803922 0.09803922
v 0.12500000 0.50000000 -0.25000000 0.09803922 0.09803922 0.09803922
v -0.12500000 0.50000000 0.25000000 0.09803922 0.09803922 0.09803922
v -0.12500000 0.50000000 0.37500000 0.09803922 0.09803922 0.09803922
v -0.25000000 0.50000000 0.37500000 0.09803922 0.09803922 0.09803922
v 0.37500000 0.50000000 -0.25000000 0.09803922 0.09803922 0.09803922
v 0.37500000 0.50000000 -0.12500000 0.09803922 0.09803922 0.09803922
v 0.25000000 0.50000000 -0.12500000 0.09803922 0.09803922 0.09803922
v 0.37500000 0.50000000 0.25000000 0.09803922 0.09803922 0.09803922
v 0.37500000 0.50000000 0.37500000 0.09803922 0.09803922 0.09803922
v 0.25000000 0.50000000 0.37500000 0.09803922 0.09803922 0.09803922
v -0.37500000 0.50000000 -0.12500000 0.09803922 0.09803922 0.09803922
v -0.37500000 0.50000000 0.00000000 0.09803922 0.09803922 0.09803922
v -0.12500000 0.50000000 -0.37500000 0.09803922 0.09803922 0.09803922
v 0.00000000 0.50000000 -0.37500000 0.09803922 0.09803922 0.09803922
v 0.00000000 0.50000000 -0.12500000 0.09803922 0.09803922 0.09803922
v -0.12500000 0.50000000 0.00000000 0.09803922 0.09803922 0.09803922
v 0.12500000 0.50000000 0.00000000 0.09803922 0.09803922 0.09803922
v 0.00000000 0.50000000 0.12500000 0.09803922 0.09803922 0.09803922
v 0.37500000 0.50000000 0.00000000 0.09803922 0.09803922 0.09803922
v 0.37500000 0.50000000 0.12500000 0.09803922 0.09803922 0.09803922
v 0.12500000 0.50000000 0.37500000 0.09803922 0.09803922 0.09803922
v 0.00000000 0.50000000 0.37500000 0.09803922 0.09803922 0.09803922
v -0.50000000 0.50000000 0.37500000 0.09803922 0.09803922 0.09803922
v -0.37500000 0.50000000 0.37500000 0.09803922 0.09803922 0.09803922
v -0.50000000 0.50000000 0.12500000 0.09803922 0.09803922 0.09803922
v -0.12500000 0.50000000 0.12500000 0.09803922 0.09803922 0.09803922
v -0.50000000 0.50000000 -0.12500000 0.09803922 0.09803922 0.09803922
v -0.50000000 0.50000000 -0.37500000 0.09803922 0.09803922 0.09803922
v -0.37500000 0.50000000 -0.50000000 0.09803922 0.09803922 0.09803922
v -0.12500000 0.50000000 -0.50000000 0.09803922 0.09803922 0.09803922
v 0.12500000 0.50000000 -0.12500000 0.09803922 0.09803922 0.09803922
v 0.12500000 0.50000000 -0.50000000 0.09803922 0.09803922 0.09803922
v 0.37500000 0.50000000 -0.50000000 0.09803922 0.09803922 0.09803922
v 0.37500000 0.50000000 -0.37500000 0.09803922 0.09803922 0.09803922
v -0.37500000 0.50000000 0.50000000 0.09803922 0.09803922 0.09803922
v -0.12500000 0.50000000 0.50000000 0.09803922 0.09803922 0.09803922
v 0.50000000 0.50000000 -0.37500000 0.09803922 0.09803922 0.09803922
v 0.50000000 0.50000000 -0.12500000 0.09803922 0.09803922 0.09803922
v 0.12500000 0.50000000 0.50000000 0.09803922 0.09803922 0.09803922
v 0.50000000 0.50000000 0.12500000 0.09803922 0.09803922 0.09803922
v 0.50000000 0.50000000 0.37500000 0.09803922 0.09803922 0.09803922
v 0.37500000 0.50000000 0.50000000 0.09803922 0.09803922 0.09803922
vn 0.00000000 -1.00000000 0.00000000
vn 0.00000000 -1.00000000 0.00000000
vn 0.00000000 -1.00000000 0.00000000
vn 0.00000000 -1.00000000 0.00000000
vn 0.00000000 -1.00000000 0.00000000
vn 0.00000000 -1.00000000 0.00000000
vn 0.00000000 -1.00000000 0.00000000
vn 0.00000000 -1.00000000 0.00000000
vn 0.00000000 -1.00000000 0.00000000
vn 0.00000000 -1.00000000 0.00000000
vn 0.00000000 -1.00000000 0.00000000
vn 0.00000000 -1.00000000 0.00000000
vn 0.00000000 -1.00000000 0.00000000
vn 0.00000000 -1.00000000 0.00000000
vn 0.00000000 -1.00000000 0.00000000
vn 0.00000000 -1.00000000 0.00000000
vn 0.00000000 -1.00000000 0.00000000
vn 0.00000000 -1.00000000 0.00000000
vn 0.00000000 -1.00000000 0.00000000
vn 0.00000000 -1.00000000 0.00000000
vn 0.00000000 -1.00000000 0.00000000
vn 0.00000000 -1.00000000 0.00000000
vn 0.00000000 -1.00000000 0.00000000
vn 0.00000000 -1.00000000 0.00000000
vn 0.00000000 -1.00000000 0.00000000
vn 0.00000000 -1.00000000 0.00000000
vn 0.00000000 -1.00000000 0.00000000
vn 0.00000000 -1.00000000 0.00000000
vn 0.00000000 -1.00000000 0.00000000
vn 0.00000000 -1.00000000 0.00000000
vn 0.00000000 -1.00000000 0.00000000
vn 0.00000000 -1.00000000 0.00000000
vn 0.00000000 -1.00000000 0.00000000
vn 0.00000000 -1.00000000 0.00000000
vn 0.00000000 -1.00000000 0.00000000
vn 0.00000000 -1.00000000 0.00000000
vn 0.00000000 -1.00000000 0.00000000
vn 0.00000000 -1.00000000 0.00000000
vn 0.00000000 -1.00000000 0.00000000
vn 0.00000000 -1.00000000 0.00000000
vn 0.00000000 -1.00000000 0.00000000
vn 0.00000000 -1.00000000 0.00000000
vn 0.00000000 -1.00000000 0.00000000
vn 0.00000000 -1.00000000 0.00000000
vn 0.00000000 -1.00000000 0.00000000
vn 0.00000000 -1.00000000 0.00000000
vn 0.00000000 -1.00000000 0.00000000
vn 0.00000000 -1.00000000 0.00000000
vn 0.00000000 -1.00000000 0.00000000
vn 0.00000000 -1.00000000 0.00000000
vn 0.00000000 -1.00000000 0.00000000
vn 0.00000000 -1.00000000 0.00000000
vn 0.00000000 -1.00000000 0.00000000
vn 0.00000000 -1.00000000 0.00000000
vn 0.00000000 -1.00000000 0.00000000
vn 0.00000000 -1.00000000 0.00000000
vn 0.00000000 -1.00000000 0.00000000
vn 0.00000000 -1.00000000 0.00000000
vn 0.00000000 -1.00000000 0.00000000
vn 0.00000000 -1.00000000 0.00000000
vn 0.00000000 -1.00000000 0.00000000
vn 0.00000000 -1.00000000 0.00000000
vn 0.00000000 -1.00000000 0.00000000
vn 0.00000000 -1.00000000 0.00000000
vn 0.00000000 -1.00000000 0.00000000
vn 0.00000000 -1.00000000 0.00000000
vn 0.00000000 -1.00000000 0.00000000
vn 0.00000000 -1.00000000 0.00000000
vn 0.00000000 -1.00000000 0.00000000
vn 0.00000000 -1.00000000 0.00000000
vn 0.00000000 -1.00000000 0.00000000
vn 0.00000000 -1.00000000 0.00000000
vn 0.00000000 -1.00000000 0.00000000
vn 0.00000000 -1.00000000 0.00000000
vn 0.00000000 -1.00000000 0.00000000
vn 0.00000000 -1.00000000 0.00000000
vn 0.00000000 -1.00000000 0.00000000
vn 0.00000000 -1.00000000 0.00000000
vn 0.00000000 -1.00000000 0.00000000
vn 0.00000000 -1.00000000 0.00000000
vn 0.00000000 -1.00000000 0.00000000
f 26//26 27//27 28//28
f 54//54 11//11 40//40
f 7//7 54//54 70//70
f 52//52 69//69 6//6
f 36//36 19//19 69//69
f 10//10 36//36 52//52
f 35//35 68//68 19//19
f 67//67 2//2 68//68
f 18//18 67//67 35//35
f 50//50 37//37 10//10
f 66//66 18//18 37//37
f 5//5 66//66 50//50
f 65//65 55//55 7//7
f 33//33 12//12 55//55
f 70//70 40//40 21//21
f 17//17 33//33 65//65
f 64//64 5//5 51//51
f 16//16 64//64 32//32
f 63//63 34//34 17//17
f 62//62 16//16 34//34
f 1//1 62//62 63//63
f 61//61 60//60 9//9
f 30//30 14//14 60//60
f 15//15 30//30 61//61
f 29//29 59//59 14//14
f 58//58 8//8 59//59
f 13//13 58//58 29//29
f 57//57 31//31 15//15
f 56//56 13//13 31//31
f 32//32 51//51 12//12
f 7//7 56//56 57//57
f 11//11 53//53 38//38
f 38//38 71//71 20//20
f 25//25 48//48 81//81
f 47//47 79//79 24//24
f 59//59 8//8 79//79
f 14//14 59//59 47//47
f 78//78 49//49 25//25
f 60//60 14//14 49//49
f 9//9 60//60 78//78
f 58//58 77//77 8//8
f 45//45 23//23 77//77
f 13//13 45//45 58//58
f 44//44 76//76 23//23
f 73//73 4//4 76//76
f 21//21 73//73 44//44
f 53//53 6//6 71//71
f 56//56 46//46 13//13
f 7//7 70//70 56//56
f 75//75 61//61 9//9
f 42//42 15//15 61//61
f 22//22 42//42 75//75
f 41//41 57//57 15//15
f 65//65 7//7 57//57
f 17//17 65//65 41//41
f 74//74 43//43 22//22
f 63//63 17//17 43//43
f 1//1 63//63 74//74
f 73//73 72//72 4//4
f 39//39 20//20 72//72
f 21//21 39//39 73//73
f 70//70 21//21 46//46
f 55//55 54//54 7//7
f 27//27 11//11 54//54
f 12//12 27//27 55//55
f 45//45 77//77 58//58
f 73//73 76//76 44//44
f 70//70 46//46 56//56
f 42//42 61//61 75//75
f 65//65 57//57 41//41
f 63//63 43//43 74//74
f 39//39 72//72 73//73
f 53//53 71//71 38//38
f 54//54 40//40 70//70
f 36//36 69//69 52//52
f 67//67 68//68 35//35
f 66//66 37//37 50//50
f 33//33 55//55 65//65
f 60//60 49//49 78//78
f 64//64 51//51 32//32
f 30//30 60//60 61//61
f 58//58 59//59 29//29
f 56//56 31//31 57//57
f 27//27 54//54 55//55
f 52//52 53//53 26//26
f 50//50 28//28 51//51
f 47//47 48//48 49//49
f 44//44 45//45 46//46
f 41//41 42//42 43//43
f 38//38 39//39 40//40
f 35//35 36//36 37//37
f 32//32 33//33 34//34
f 29//29 30//30 31//31
f 62//62 34//34 63//63
f 59//59 79//79 47//47
f 48//48 80//80 81//81
f 10//10 26//26 28//28
f 26//26 53//53 11//11
f 52//52 6//6 53//53
f 10//10 52//52 26//26
f 51//51 28//28 12//12
f 50//50 10//10 28//28
f 5//5 50//50 51//51
f 49//49 48//48 25//25
f 47//47 24//24 48//48
f 14//14 47//47 49//49
f 46//46 45//45 13//13
f 44//44 23//23 45//45
f 21//21 44//44 46//46
f 43//43 42//42 22//22
f 41//41 15//15 42//42
f 17//17 41//41 43//43
f 40//40 39//39 21//21
f 38//38 20//20 39//39
f 11//11 38//38 40//40
f 37//37 36//36 10//10
f 35//35 19//19 36//36
f 18//18 35//35 37//37
f 34//34 33//33 17//17
f 32//32 12//12 33//33
f 16//16 32//32 34//34
f 31//31 30//30 15//15
f 29//29 14//14 30//30
f 13//13 29//29 31//31
f 28//28 27//27 12//12
f 26//26 11//11 27//27
f 48//48 24//24 80//80
f 81//81 80//80 3//3

