####
#
# OBJ File Generated by Meshlab
#
####
# Object quadrant.obj
#
# Vertices: 547
# Faces: 1008
#
####
v -0.0849880 -0.0000000 1.7299640
v -0.1697710 0.0000000 1.7237099
v -0.2541450 0.0000000 1.7133040
v -0.3379060 0.0000000 1.6987700
v -0.4208540 0.0000000 1.6801430
v -0.5027880 0.0000000 1.6574690
v -0.5835100 -0.0000000 1.6308020
v -0.6628270 0.0000000 1.6002060
v -0.7405470 -0.0000000 1.5657550
v -0.8164830 0.0000000 1.5275320
v -0.8904520 -0.0000000 1.4856290
v -0.9622760 0.0000000 1.4401480
v -1.0317810 0.0000000 1.3911960
v -1.0988010 0.0000000 1.3388931
v -1.1631740 0.0000000 1.2833650
v -1.2247450 0.0000000 1.2247450
v -1.2833650 0.0000000 1.1631740
v -1.3388931 0.0000000 1.0988010
v -1.3911951 0.0000000 1.0317810
v -1.4401470 -0.0000000 0.9622760
v -1.4856290 -0.0000000 0.8904520
v -1.5275320 -0.0000000 0.8164830
v -1.5657550 -0.0000000 0.7405470
v -1.6002049 0.0000000 0.6628270
v -1.6308020 0.0000000 0.5835100
v -1.6574690 0.0000000 0.5027880
v -1.6801420 0.0000000 0.4208540
v -1.6987690 0.0000000 0.3379060
v -1.7133040 0.0000000 0.2541450
v -1.7237099 0.0000000 0.1697710
v -1.7299640 0.0000000 0.0849880
v -0.0845780 0.0083300 1.7299640
v -0.1689530 0.0166400 1.7237099
v -0.2529210 0.0249110 1.7133040
v -0.3362790 0.0331210 1.6987700
v -0.4188270 0.0412510 1.6801430
v -0.5003670 0.0492820 1.6574690
v -0.5807000 0.0571940 1.6308020
v -0.6596350 0.0649690 1.6002060
v -0.7369810 0.0725860 1.5657550
v -0.8125510 0.0800290 1.5275320
v -0.8861640 0.0872790 1.4856290
v -0.9576420 0.0943200 1.4401480
v -1.0268130 0.1011320 1.3911960
v -1.0935100 0.1077010 1.3388931
v -1.1575730 0.1140110 1.2833650
v -1.2188470 0.1200460 1.2247450
v -1.2771850 0.1257920 1.1631740
v -1.3324460 0.1312350 1.0988010
v -1.3844960 0.1363610 1.0317810
v -1.4332120 0.1411590 0.9622760
v -1.4784750 0.1456170 0.8904520
v -1.5201761 0.1497240 0.8164830
v -1.5582160 0.1534710 0.7405470
v -1.5925000 0.1568480 0.6628270
v -1.6229490 0.1598470 0.5835100
v -1.6494870 0.1624600 0.5027880
v -1.6720520 0.1646830 0.4208540
v -1.6905890 0.1665090 0.3379060
v -1.7050540 0.1679330 0.2541450
v -1.7154100 0.1689530 0.1697710
v -1.7216340 0.1695660 0.0849880
v -0.0833550 0.0165800 1.7299640
v -0.1665090 0.0331210 1.7237099
v -0.2492610 0.0495810 1.7133040
v -0.3314130 0.0659220 1.6987700
v -0.4127670 0.0821050 1.6801430
v -0.4931270 0.0980890 1.6574690
v -0.5722980 0.1138370 1.6308020
v -0.6500910 0.1293110 1.6002060
v -0.7263180 0.1444730 1.5657550
v -0.8007940 0.1592880 1.5275320
v -0.8733420 0.1737180 1.4856290
v -0.9437860 0.1877310 1.4401480
v -1.0119560 0.2012910 1.3911960
v -1.0776880 0.2143660 1.3388931
v -1.1408240 0.2269240 1.2833650
v -1.2012110 0.2389360 1.2247450
v -1.2587050 0.2503720 1.1631740
v -1.3131660 0.2612050 1.0988010
v -1.3644640 0.2714090 1.0317810
v -1.4124750 0.2809590 0.9622760
v -1.4570830 0.2898320 0.8904520
v -1.4981810 0.2980070 0.8164830
v -1.5356700 0.3054640 0.7405470
v -1.5694580 0.3121850 0.6628270
v -1.5994660 0.3181540 0.5835100
v -1.6256210 0.3233560 0.5027880
v -1.6478590 0.3277800 0.4208540
v -1.6661270 0.3314130 0.3379060
v -1.6803830 0.3342490 0.2541450
v -1.6905890 0.3362790 0.1697710
v -1.6967230 0.3374990 0.0849880
v -0.0813280 0.0246710 1.7299640
v -0.1624600 0.0492820 1.7237099
v -0.2432010 0.0737740 1.7133040
v -0.3233560 0.0980890 1.6987700
v -0.4027320 0.1221670 1.6801430
v -0.4811380 0.1459520 1.6574690
v -0.5583840 0.1693840 1.6308020
v -0.6342860 0.1924090 1.6002060
v -0.7086590 0.2149690 1.5657550
v -0.7813250 0.2370120 1.5275320
v -0.8521090 0.2584840 1.4856290
v -0.9208400 0.2793340 1.4401480
v -0.9873530 0.2995100 1.3911960
v -1.0514870 0.3189650 1.3388931
v -1.1130880 0.3376520 1.2833650
v -1.1720070 0.3555250 1.2247450
v -1.2281040 0.3725410 1.1631740
v -1.2812400 0.3886600 1.0988010
v -1.3312910 0.4038430 1.0317810
v -1.3781350 0.4180520 0.9622760
v -1.4216580 0.4312550 0.8904520
v -1.4617569 0.4434190 0.8164830
v -1.4983341 0.4545150 0.7405470
v -1.5313010 0.4645150 0.6628270
v -1.5605800 0.4733970 0.5835100
v -1.5860990 0.4811380 0.5027880
v -1.6077960 0.4877200 0.4208540
v -1.6256200 0.4931270 0.3379060
v -1.6395290 0.4973460 0.2541450
v -1.6494880 0.5003670 0.1697710
v -1.6554720 0.5021820 0.0849880
v -0.0785180 0.0325230 1.7299640
v -0.1568480 0.0649680 1.7237099
v -0.2347990 0.0972570 1.7133040
v -0.3121850 0.1293110 1.6987700
v -0.3888180 0.1610540 1.6801430
v -0.4645150 0.1924090 1.6574690
v -0.5390930 0.2233000 1.6308020
v -0.6123720 0.2536530 1.6002060
v -0.6841760 0.2833950 1.5657550
v -0.7543310 0.3124540 1.5275320
v -0.8226700 0.3407610 1.4856290
v -0.8890270 0.3682470 1.4401480
v -0.9532420 0.3948460 1.3911960
v -1.0151600 0.4204930 1.3388931
v -1.0746320 0.4451280 1.2833650
v -1.1315160 0.4686900 1.2247450
v -1.1856750 0.4911230 1.1631740
v -1.2369760 0.5123720 1.0988010
v -1.2852970 0.5323870 1.0317810
v -1.3305219 0.5511200 0.9622760
v -1.3725420 0.5685250 0.8904520
v -1.4112550 0.5845610 0.8164830
v -1.4465690 0.5991880 0.7405470
v -1.4783970 0.6123720 0.6628270
v -1.5066640 0.6240810 0.5835100
v -1.5313010 0.6342860 0.5027880
v -1.5522490 0.6429630 0.4208540
v -1.5694580 0.6500910 0.3379060
v -1.5828860 0.6556530 0.2541450
v -1.5925000 0.6596350 0.1697710
v -1.5982780 0.6620290 0.0849880
v -0.0749520 0.0400630 1.7299640
v -0.1497240 0.0800290 1.7237099
v -0.2241350 0.1198030 1.7133040
v -0.2980070 0.1592880 1.6987700
v -0.3711600 0.1983890 1.6801430
v -0.4434190 0.2370130 1.6574690
v -0.5146100 0.2750650 1.6308020
v -0.5845610 0.3124550 1.6002060
v -0.6531040 0.3490910 1.5657550
v -0.7200730 0.3848870 1.5275320
v -0.7853080 0.4197560 1.4856290
v -0.8486510 0.4536140 1.4401480
v -0.9099500 0.4863780 1.3911960
v -0.9690560 0.5179710 1.3388931
v -1.0258280 0.5483170 1.2833650
v -1.0801280 0.5773410 1.2247450
v -1.1318270 0.6049740 1.1631740
v -1.1807981 0.6311500 1.0988010
v -1.2269250 0.6558050 1.0317810
v -1.2700959 0.6788800 0.9622760
v -1.3102070 0.7003200 0.8904520
v -1.3471630 0.7200730 0.8164830
v -1.3808730 0.7380920 0.7405470
v -1.4112550 0.7543310 0.6628270
v -1.4382390 0.7687550 0.5835100
v -1.4617569 0.7813250 0.5027880
v -1.4817530 0.7920140 0.4208540
v -1.4981800 0.8007940 0.3379060
v -1.5109990 0.8076460 0.2541450
v -1.5201761 0.8125510 0.1697710
v -1.5256920 0.8155000 0.0849880
v -0.0706650 0.0472170 1.7299640
v -0.1411590 0.0943200 1.7237099
v -0.2113130 0.1411950 1.7133040
v -0.2809590 0.1877310 1.6987700
v -0.3499270 0.2338140 1.6801430
v -0.4180530 0.2793340 1.6574690
v -0.4851710 0.3241810 1.6308020
v -0.5511200 0.3682470 1.6002060
v -0.6157420 0.4114260 1.5657550
v -0.6788800 0.4536130 1.5275320
v -0.7403840 0.4947080 1.4856290
v -0.8001030 0.5346120 1.4401480
v -0.8578950 0.5732270 1.3911960
v -0.9136200 0.6104610 1.3388931
v -0.9671440 0.6462250 1.2833650
v -1.0183380 0.6804320 1.2247450
v -1.0670789 0.7129990 1.1631740
v -1.1132480 0.7438490 1.0988010
v -1.1567360 0.7729070 1.0317810
v -1.1974380 0.8001030 0.9622760
v -1.2352550 0.8253710 0.8904520
v -1.2700959 0.8486510 0.8164830
v -1.3018780 0.8698870 0.7405470
v -1.3305219 0.8890260 0.6628270
v -1.3559620 0.9060250 0.5835100
v -1.3781350 0.9208400 0.5027880
v -1.3969870 0.9334370 0.4208540
v -1.4124750 0.9437850 0.3379060
v -1.4245600 0.9518610 0.2541450
v -1.4332120 0.9576420 0.1697710
v -1.4384130 0.9611170 0.0849880
v -0.0656960 0.0539160 1.7299640
v -0.1312340 0.1077010 1.7237099
v -0.1964560 0.1612280 1.7133040
v -0.2612050 0.2143650 1.6987700
v -0.3253240 0.2669870 1.6801430
v -0.3886600 0.3189650 1.6574690
v -0.4510590 0.3701750 1.6308020
v -0.5123720 0.4204930 1.6002060
v -0.5724510 0.4697980 1.5657550
v -0.6311490 0.5179710 1.5275320
v -0.6883290 0.5648970 1.4856290
v -0.7438490 0.6104610 1.4401480
v -0.7975780 0.6545550 1.3911960
v -0.8493850 0.6970720 1.3388931
v -0.8991450 0.7379100 1.2833650
v -0.9467400 0.7769700 1.2247450
v -0.9920550 0.8141580 1.1631740
v -1.0349780 0.8493850 1.0988010
v -1.0754080 0.8825650 1.0317810
v -1.1132489 0.9136190 0.9622760
v -1.1484060 0.9424730 0.8904520
v -1.1807981 0.9690560 0.8164830
v -1.2103450 0.9933040 0.7405470
v -1.2369750 1.0151590 0.6628270
v -1.2606270 1.0345700 0.5835100
v -1.2812400 1.0514870 0.5027880
v -1.2987670 1.0658710 0.4208540
v -1.3131660 1.0776880 0.3379060
v -1.3244010 1.0869080 0.2541450
v -1.3324460 1.0935100 0.1697710
v -1.3372800 1.0974780 0.0849880
v -0.0600950 0.0600950 1.7299640
v -0.1200460 0.1200460 1.7237099
v -0.1797070 0.1797070 1.7133040
v -0.2389360 0.2389360 1.6987700
v -0.2975890 0.2975890 1.6801430
v -0.3555250 0.3555250 1.6574690
v -0.4126040 0.4126040 1.6308020
v -0.4686890 0.4686890 1.6002060
v -0.5236460 0.5236460 1.5657550
v -0.5773400 0.5773400 1.5275320
v -0.6296450 0.6296440 1.4856290
v -0.6804320 0.6804320 1.4401480
v -0.7295790 0.7295800 1.3911960
v -0.7769700 0.7769700 1.3388931
v -0.8224880 0.8224880 1.2833650
v -0.8660250 0.8660250 1.2247450
v -0.9074760 0.9074760 1.1631740
v -0.9467400 0.9467400 1.0988010
v -0.9837230 0.9837240 1.0317810
v -1.0183380 1.0183370 0.9622760
v -1.0504980 1.0504980 0.8904520
v -1.0801280 1.0801280 0.8164830
v -1.1071560 1.1071560 0.7405470
v -1.1315160 1.1315160 0.6628270
v -1.1531510 1.1531510 0.5835100
v -1.1720070 1.1720070 0.5027880
v -1.1880400 1.1880400 0.4208540
v -1.2012110 1.2012110 0.3379060
v -1.2114880 1.2114890 0.2541450
v -1.2188470 1.2188470 0.1697710
v -1.2232690 1.2232690 0.0849880
v -0.0539160 0.0656960 1.7299640
v -0.1077010 0.1312340 1.7237099
v -0.1612280 0.1964560 1.7133040
v -0.2143650 0.2612050 1.6987700
v -0.2669870 0.3253240 1.6801430
v -0.3189650 0.3886600 1.6574690
v -0.3701750 0.4510590 1.6308020
v -0.4204930 0.5123720 1.6002060
v -0.4697980 0.5724510 1.5657550
v -0.5179710 0.6311500 1.5275320
v -0.5648970 0.6883290 1.4856290
v -0.6104610 0.7438490 1.4401480
v -0.6545550 0.7975780 1.3911960
v -0.6970720 0.8493850 1.3388931
v -0.7379090 0.8991460 1.2833650
v -0.7769700 0.9467400 1.2247450
v -0.8141580 0.9920550 1.1631740
v -0.8493840 1.0349780 1.0988010
v -0.8825650 1.0754080 1.0317810
v -0.9136200 1.1132480 0.9622760
v -0.9424730 1.1484060 0.8904520
v -0.9690560 1.1807981 0.8164830
v -0.9933050 1.2103450 0.7405470
v -1.0151590 1.2369750 0.6628270
v -1.0345700 1.2606270 0.5835100
v -1.0514870 1.2812411 0.5027880
v -1.0658710 1.2987680 0.4208540
v -1.0776880 1.3131660 0.3379060
v -1.0869080 1.3244020 0.2541450
v -1.0935100 1.3324460 0.1697710
v -1.0974770 1.3372800 0.0849880
v -0.0472170 0.0706650 1.7299640
v -0.0943190 0.1411590 1.7237099
v -0.1411950 0.2113130 1.7133040
v -0.1877310 0.2809590 1.6987700
v -0.2338140 0.3499270 1.6801430
v -0.2793340 0.4180530 1.6574690
v -0.3241810 0.4851710 1.6308020
v -0.3682470 0.5511210 1.6002060
v -0.4114260 0.6157420 1.5657550
v -0.4536130 0.6788800 1.5275320
v -0.4947090 0.7403840 1.4856290
v -0.5346120 0.8001030 1.4401480
v -0.5732270 0.8578950 1.3911960
v -0.6104610 0.9136200 1.3388931
v -0.6462250 0.9671440 1.2833650
v -0.6804320 1.0183380 1.2247450
v -0.7129990 1.0670789 1.1631740
v -0.7438490 1.1132489 1.0988010
v -0.7729060 1.1567360 1.0317810
v -0.8001030 1.1974380 0.9622760
v -0.8253710 1.2352550 0.8904520
v -0.8486510 1.2700959 0.8164830
v -0.8698870 1.3018780 0.7405470
v -0.8890260 1.3305219 0.6628270
v -0.9060250 1.3559620 0.5835100
v -0.9208400 1.3781350 0.5027880
v -0.9334370 1.3969870 0.4208540
v -0.9437850 1.4124750 0.3379060
v -0.9518600 1.4245600 0.2541450
v -0.9576420 1.4332130 0.1697710
v -0.9611160 1.4384130 0.0849880
v -0.0400630 0.0749520 1.7299640
v -0.0800290 0.1497240 1.7237099
v -0.1198030 0.2241350 1.7133040
v -0.1592880 0.2980070 1.6987700
v -0.1983890 0.3711600 1.6801430
v -0.2370130 0.4434190 1.6574690
v -0.2750650 0.5146100 1.6308020
v -0.3124540 0.5845610 1.6002060
v -0.3490910 0.6531040 1.5657550
v -0.3848870 0.7200730 1.5275320
v -0.4197560 0.7853080 1.4856290
v -0.4536140 0.8486510 1.4401480
v -0.4863780 0.9099500 1.3911960
v -0.5179710 0.9690560 1.3388931
v -0.5483160 1.0258280 1.2833650
v -0.5773410 1.0801280 1.2247450
v -0.6049740 1.1318270 1.1631740
v -0.6311490 1.1807981 1.0988010
v -0.6558050 1.2269250 1.0317810
v -0.6788810 1.2700959 0.9622760
v -0.7003200 1.3102070 0.8904520
v -0.7200730 1.3471620 0.8164830
v -0.7380920 1.3808730 0.7405470
v -0.7543310 1.4112550 0.6628270
v -0.7687540 1.4382390 0.5835100
v -0.7813250 1.4617569 0.5027880
v -0.7920130 1.4817530 0.4208540
v -0.8007940 1.4981800 0.3379060
v -0.8076460 1.5109990 0.2541450
v -0.8125510 1.5201770 0.1697710
v -0.8154990 1.5256920 0.0849880
v -0.0325230 0.0785180 1.7299640
v -0.0649680 0.1568480 1.7237099
v -0.0972570 0.2347990 1.7133040
v -0.1293110 0.3121840 1.6987700
v -0.1610540 0.3888180 1.6801430
v -0.1924090 0.4645150 1.6574690
v -0.2233000 0.5390930 1.6308020
v -0.2536530 0.6123720 1.6002060
v -0.2833950 0.6841760 1.5657550
v -0.3124540 0.7543310 1.5275320
v -0.3407610 0.8226700 1.4856290
v -0.3682470 0.8890270 1.4401480
v -0.3948450 0.9532420 1.3911960
v -0.4204930 1.0151600 1.3388931
v -0.4451270 1.0746330 1.2833650
v -0.4686890 1.1315171 1.2247450
v -0.4911230 1.1856750 1.1631740
v -0.5123720 1.2369760 1.0988010
v -0.5323870 1.2852970 1.0317810
v -0.5511200 1.3305219 0.9622760
v -0.5685250 1.3725420 0.8904520
v -0.5845610 1.4112550 0.8164830
v -0.5991890 1.4465690 0.7405470
v -0.6123720 1.4783970 0.6628270
v -0.6240810 1.5066640 0.5835100
v -0.6342860 1.5313010 0.5027880
v -0.6429620 1.5522490 0.4208540
v -0.6500910 1.5694580 0.3379060
v -0.6556530 1.5828860 0.2541450
v -0.6596350 1.5925010 0.1697710
v -0.6620280 1.5982780 0.0849880
v -0.0246710 0.0813280 1.7299640
v -0.0492820 0.1624600 1.7237099
v -0.0737740 0.2432010 1.7133040
v -0.0980890 0.3233560 1.6987700
v -0.1221670 0.4027320 1.6801430
v -0.1459520 0.4811380 1.6574690
v -0.1693840 0.5583840 1.6308020
v -0.1924080 0.6342860 1.6002060
v -0.2149690 0.7086590 1.5657550
v -0.2370120 0.7813250 1.5275320
v -0.2584850 0.8521090 1.4856290
v -0.2793340 0.9208400 1.4401480
v -0.2995100 0.9873530 1.3911960
v -0.3189650 1.0514870 1.3388931
v -0.3376510 1.1130880 1.2833650
v -0.3555250 1.1720080 1.2247450
v -0.3725410 1.2281040 1.1631740
v -0.3886600 1.2812400 1.0988010
v -0.4038420 1.3312900 1.0317810
v -0.4180530 1.3781340 0.9622760
v -0.4312550 1.4216580 0.8904520
v -0.4434190 1.4617560 0.8164830
v -0.4545150 1.4983341 0.7405470
v -0.4645150 1.5313010 0.6628270
v -0.4733970 1.5605800 0.5835100
v -0.4811380 1.5860990 0.5027880
v -0.4877190 1.6077960 0.4208540
v -0.4931260 1.6256200 0.3379060
v -0.4973460 1.6395290 0.2541450
v -0.5003670 1.6494880 0.1697710
v -0.5021820 1.6554720 0.0849880
v -0.0165800 0.0833550 1.7299640
v -0.0331210 0.1665080 1.7237099
v -0.0495810 0.2492610 1.7133040
v -0.0659220 0.3314130 1.6987700
v -0.0821040 0.4127670 1.6801430
v -0.0980890 0.4931270 1.6574690
v -0.1138370 0.5722980 1.6308020
v -0.1293110 0.6500910 1.6002060
v -0.1444740 0.7263180 1.5657550
v -0.1592880 0.8007940 1.5275320
v -0.1737190 0.8733420 1.4856290
v -0.1877310 0.9437860 1.4401480
v -0.2012900 1.0119560 1.3911960
v -0.2143650 1.0776880 1.3388931
v -0.2269240 1.1408240 1.2833650
v -0.2389360 1.2012120 1.2247450
v -0.2503720 1.2587060 1.1631740
v -0.2612050 1.3131660 1.0988010
v -0.2714080 1.3644630 1.0317810
v -0.2809590 1.4124740 0.9622760
v -0.2898320 1.4570830 0.8904520
v -0.2980070 1.4981800 0.8164830
v -0.3054640 1.5356690 0.7405470
v -0.3121840 1.5694571 0.6628270
v -0.3181530 1.5994660 0.5835100
v -0.3233560 1.6256210 0.5027880
v -0.3277790 1.6478590 0.4208540
v -0.3314130 1.6661270 0.3379060
v -0.3342490 1.6803830 0.2541450
v -0.3362790 1.6905890 0.1697710
v -0.3374990 1.6967230 0.0849880
v -0.0083300 0.0845780 1.7299640
v -0.0166400 0.1689530 1.7237099
v -0.0249110 0.2529210 1.7133040
v -0.0331210 0.3362790 1.6987700
v -0.0412510 0.4188270 1.6801430
v -0.0492820 0.5003670 1.6574690
v -0.0571940 0.5807000 1.6308020
v -0.0649680 0.6596350 1.6002060
v -0.0725860 0.7369810 1.5657550
v -0.0800290 0.8125510 1.5275320
v -0.0872800 0.8861640 1.4856290
v -0.0943190 0.9576420 1.4401480
v -0.1011320 1.0268130 1.3911960
v -0.1077010 1.0935100 1.3388931
v -0.1140110 1.1575730 1.2833650
v -0.1200460 1.2188470 1.2247450
v -0.1257920 1.2771850 1.1631740
v -0.1312340 1.3324460 1.0988010
v -0.1363610 1.3844960 1.0317810
v -0.1411590 1.4332120 0.9622760
v -0.1456170 1.4784750 0.8904520
v -0.1497240 1.5201761 0.8164830
v -0.1534710 1.5582150 0.7405470
v -0.1568470 1.5924990 0.6628270
v -0.1598460 1.6229490 0.5835100
v -0.1624600 1.6494870 0.5027880
v -0.1646820 1.6720520 0.4208540
v -0.1665080 1.6905880 0.3379060
v -0.1679330 1.7050540 0.2541450
v -0.1689530 1.7154100 0.1697710
v -0.1695660 1.7216340 0.0849880
v 0.0000000 0.0000000 1.7320510
v 0.0000000 0.0000000 1.7320510
v -1.7320499 0.0000000 0.0000000
v -1.7237090 0.1697710 0.0000000
v -1.6987690 0.3379060 0.0000000
v -1.6574680 0.5027870 0.0000000
v -1.6002049 0.6628270 0.0000000
v -1.5275310 0.8164820 0.0000000
v -1.4401470 0.9622750 0.0000000
v -1.3388920 1.0988010 0.0000000
v -1.2247440 1.2247440 0.0000000
v -1.0988010 1.3388920 0.0000000
v -0.9622750 1.4401470 0.0000000
v -0.8164820 1.5275310 0.0000000
v -0.6628270 1.6002049 0.0000000
v -0.5027870 1.6574680 0.0000000
v -0.3379060 1.6987690 0.0000000
v -0.1697710 1.7237090 0.0000000
v -0.0000000 0.0849880 1.7299640
v 0.0000000 0.1697710 1.7237099
v 0.0000000 0.2541450 1.7133040
v -0.0000000 0.3379060 1.6987700
v 0.0000000 0.4208540 1.6801430
v 0.0000000 0.5027880 1.6574690
v 0.0000000 0.5835100 1.6308020
v 0.0000000 0.6628270 1.6002060
v -0.0000000 0.7405470 1.5657550
v 0.0000000 0.8164820 1.5275320
v -0.0000000 0.8904520 1.4856290
v 0.0000000 0.9622760 1.4401480
v 0.0000000 1.0317810 1.3911960
v 0.0000000 1.0988010 1.3388931
v 0.0000000 1.1631740 1.2833650
v 0.0000000 1.2247450 1.2247450
v 0.0000000 1.2833650 1.1631740
v 0.0000000 1.3388931 1.0988010
v 0.0000000 1.3911951 1.0317810
v -0.0000000 1.4401460 0.9622760
v 0.0000000 1.4856280 0.8904520
v -0.0000000 1.5275310 0.8164830
v -0.0000000 1.5657550 0.7405470
v 0.0000000 1.6002049 0.6628270
v 0.0000000 1.6308020 0.5835100
v 0.0000000 1.6574680 0.5027880
v 0.0000000 1.6801420 0.4208540
v 0.0000000 1.6987680 0.3379060
v 0.0000000 1.7133040 0.2541450
v 0.0000000 1.7237099 0.1697710
v 0.0000000 1.7299640 0.0849880
v 0.0000000 1.7320490 0.0000000
v 0.0000000 0.0000000 1.7320510
# 547 vertices, 0 vertices normals

f 14 13 44
f 14 44 45
f 15 14 45
f 15 45 46
f 16 15 46
f 16 46 47
f 17 16 47
f 17 47 48
f 18 17 48
f 18 48 49
f 19 18 49
f 19 49 50
f 20 19 50
f 20 50 51
f 21 20 51
f 21 51 52
f 22 21 52
f 22 52 53
f 23 22 53
f 23 53 54
f 24 23 54
f 24 54 55
f 25 24 55
f 25 55 56
f 26 25 56
f 26 56 57
f 27 26 57
f 27 57 58
f 1 547 32
f 28 27 58
f 28 58 59
f 2 1 32
f 2 32 33
f 29 28 59
f 29 59 60
f 3 2 33
f 3 33 34
f 30 29 60
f 30 60 61
f 4 3 34
f 4 34 35
f 31 30 61
f 31 61 62
f 5 4 35
f 5 35 36
f 499 31 62
f 499 62 500
f 6 5 36
f 6 36 37
f 7 6 37
f 7 37 38
f 8 7 38
f 8 38 39
f 9 8 39
f 9 39 40
f 10 9 40
f 10 40 41
f 11 10 41
f 11 41 42
f 12 11 42
f 12 42 43
f 13 12 43
f 13 43 44
f 47 46 77
f 47 77 78
f 48 47 78
f 48 78 79
f 49 48 79
f 49 79 80
f 50 49 80
f 50 80 81
f 51 50 81
f 51 81 82
f 52 51 82
f 52 82 83
f 53 52 83
f 53 83 84
f 54 53 84
f 54 84 85
f 55 54 85
f 55 85 86
f 56 55 86
f 56 86 87
f 57 56 87
f 57 87 88
f 58 57 88
f 58 88 89
f 32 547 63
f 59 58 89
f 59 89 90
f 33 32 63
f 33 63 64
f 60 59 90
f 60 90 91
f 34 33 64
f 34 64 65
f 61 60 91
f 61 91 92
f 35 34 65
f 35 65 66
f 62 61 92
f 62 92 93
f 36 35 66
f 36 66 67
f 500 62 93
f 500 93 501
f 37 36 67
f 37 67 68
f 38 37 68
f 38 68 69
f 39 38 69
f 39 69 70
f 40 39 70
f 40 70 71
f 41 40 71
f 41 71 72
f 42 41 72
f 42 72 73
f 43 42 73
f 43 73 74
f 44 43 74
f 44 74 75
f 45 44 75
f 45 75 76
f 46 45 76
f 46 76 77
f 80 79 110
f 80 110 111
f 81 80 111
f 81 111 112
f 82 81 112
f 82 112 113
f 83 82 113
f 83 113 114
f 84 83 114
f 84 114 115
f 85 84 115
f 85 115 116
f 86 85 116
f 86 116 117
f 87 86 117
f 87 117 118
f 88 87 118
f 88 118 119
f 89 88 119
f 89 119 120
f 63 547 94
f 90 89 120
f 90 120 121
f 64 63 94
f 64 94 95
f 91 90 121
f 91 121 122
f 65 64 95
f 65 95 96
f 92 91 122
f 92 122 123
f 66 65 96
f 66 96 97
f 93 92 123
f 93 123 124
f 67 66 97
f 67 97 98
f 501 93 124
f 501 124 502
f 68 67 98
f 68 98 99
f 69 68 99
f 69 99 100
f 70 69 100
f 70 100 101
f 71 70 101
f 71 101 102
f 72 71 102
f 72 102 103
f 73 72 103
f 73 103 104
f 74 73 104
f 74 104 105
f 75 74 105
f 75 105 106
f 76 75 106
f 76 106 107
f 77 76 107
f 77 107 108
f 78 77 108
f 78 108 109
f 79 78 109
f 79 109 110
f 113 112 143
f 113 143 144
f 114 113 144
f 114 144 145
f 115 114 145
f 115 145 146
f 116 115 146
f 116 146 147
f 117 116 147
f 117 147 148
f 118 117 148
f 118 148 149
f 119 118 149
f 119 149 150
f 120 119 150
f 120 150 151
f 94 547 125
f 121 120 151
f 121 151 152
f 95 94 125
f 95 125 126
f 122 121 152
f 122 152 153
f 96 95 126
f 96 126 127
f 123 122 153
f 123 153 154
f 97 96 127
f 97 127 128
f 124 123 154
f 124 154 155
f 98 97 128
f 98 128 129
f 502 124 155
f 502 155 503
f 99 98 129
f 99 129 130
f 100 99 130
f 100 130 131
f 101 100 131
f 101 131 132
f 102 101 132
f 102 132 133
f 103 102 133
f 103 133 134
f 104 103 134
f 104 134 135
f 105 104 135
f 105 135 136
f 106 105 136
f 106 136 137
f 107 106 137
f 107 137 138
f 108 107 138
f 108 138 139
f 109 108 139
f 109 139 140
f 110 109 140
f 110 140 141
f 111 110 141
f 111 141 142
f 112 111 142
f 112 142 143
f 146 145 176
f 146 176 177
f 147 146 177
f 147 177 178
f 148 147 178
f 148 178 179
f 149 148 179
f 149 179 180
f 150 149 180
f 150 180 181
f 151 150 181
f 151 181 182
f 125 547 156
f 152 151 182
f 152 182 183
f 126 125 156
f 126 156 157
f 153 152 183
f 153 183 184
f 127 126 157
f 127 157 158
f 154 153 184
f 154 184 185
f 128 127 158
f 128 158 159
f 155 154 185
f 155 185 186
f 129 128 159
f 129 159 160
f 503 155 186
f 503 186 504
f 130 129 160
f 130 160 161
f 131 130 161
f 131 161 162
f 132 131 162
f 132 162 163
f 133 132 163
f 133 163 164
f 134 133 164
f 134 164 165
f 135 134 165
f 135 165 166
f 136 135 166
f 136 166 167
f 137 136 167
f 137 167 168
f 138 137 168
f 138 168 169
f 139 138 169
f 139 169 170
f 140 139 170
f 140 170 171
f 141 140 171
f 141 171 172
f 142 141 172
f 142 172 173
f 143 142 173
f 143 173 174
f 144 143 174
f 144 174 175
f 145 144 175
f 145 175 176
f 179 178 209
f 179 209 210
f 180 179 210
f 180 210 211
f 181 180 211
f 181 211 212
f 182 181 212
f 182 212 213
f 156 547 187
f 183 182 213
f 183 213 214
f 157 156 187
f 157 187 188
f 184 183 214
f 184 214 215
f 158 157 188
f 158 188 189
f 185 184 215
f 185 215 216
f 159 158 189
f 159 189 190
f 186 185 216
f 186 216 217
f 160 159 190
f 160 190 191
f 504 186 217
f 504 217 505
f 161 160 191
f 161 191 192
f 162 161 192
f 162 192 193
f 163 162 193
f 163 193 194
f 164 163 194
f 164 194 195
f 165 164 195
f 165 195 196
f 166 165 196
f 166 196 197
f 167 166 197
f 167 197 198
f 168 167 198
f 168 198 199
f 169 168 199
f 169 199 200
f 170 169 200
f 170 200 201
f 171 170 201
f 171 201 202
f 172 171 202
f 172 202 203
f 173 172 203
f 173 203 204
f 174 173 204
f 174 204 205
f 175 174 205
f 175 205 206
f 176 175 206
f 176 206 207
f 177 176 207
f 177 207 208
f 178 177 208
f 178 208 209
f 212 211 242
f 212 242 243
f 213 212 243
f 213 243 244
f 187 547 218
f 214 213 244
f 214 244 245
f 188 187 218
f 188 218 219
f 215 214 245
f 215 245 246
f 189 188 219
f 189 219 220
f 216 215 246
f 216 246 247
f 190 189 220
f 190 220 221
f 217 216 247
f 217 247 248
f 191 190 221
f 191 221 222
f 505 217 248
f 505 248 506
f 192 191 222
f 192 222 223
f 193 192 223
f 193 223 224
f 194 193 224
f 194 224 225
f 195 194 225
f 195 225 226
f 196 195 226
f 196 226 227
f 197 196 227
f 197 227 228
f 198 197 228
f 198 228 229
f 199 198 229
f 199 229 230
f 200 199 230
f 200 230 231
f 201 200 231
f 201 231 232
f 202 201 232
f 202 232 233
f 203 202 233
f 203 233 234
f 204 203 234
f 204 234 235
f 205 204 235
f 205 235 236
f 206 205 236
f 206 236 237
f 207 206 237
f 207 237 238
f 208 207 238
f 208 238 239
f 209 208 239
f 209 239 240
f 210 209 240
f 210 240 241
f 211 210 241
f 211 241 242
f 228 227 258
f 228 258 259
f 229 228 259
f 229 259 260
f 230 229 260
f 230 260 261
f 231 230 261
f 231 261 262
f 232 231 262
f 232 262 263
f 233 232 263
f 233 263 264
f 234 233 264
f 234 264 265
f 235 234 265
f 235 265 266
f 236 235 266
f 236 266 267
f 237 236 267
f 237 267 268
f 238 237 268
f 238 268 269
f 239 238 269
f 239 269 270
f 240 239 270
f 240 270 271
f 241 240 271
f 241 271 272
f 242 241 272
f 242 272 273
f 243 242 273
f 243 273 274
f 244 243 274
f 244 274 275
f 218 547 249
f 245 244 275
f 245 275 276
f 219 218 249
f 219 249 250
f 246 245 276
f 246 276 277
f 220 219 250
f 220 250 251
f 247 246 277
f 247 277 278
f 221 220 251
f 221 251 252
f 248 247 278
f 248 278 279
f 222 221 252
f 222 252 253
f 506 248 279
f 506 279 507
f 223 222 253
f 223 253 254
f 224 223 254
f 224 254 255
f 225 224 255
f 225 255 256
f 226 225 256
f 226 256 257
f 227 226 257
f 227 257 258
f 261 260 291
f 261 291 292
f 262 261 292
f 262 292 293
f 263 262 293
f 263 293 294
f 264 263 294
f 264 294 295
f 265 264 295
f 265 295 296
f 266 265 296
f 266 296 297
f 267 266 297
f 267 297 298
f 268 267 298
f 268 298 299
f 269 268 299
f 269 299 300
f 270 269 300
f 270 300 301
f 271 270 301
f 271 301 302
f 272 271 302
f 272 302 303
f 273 272 303
f 273 303 304
f 274 273 304
f 274 304 305
f 275 274 305
f 275 305 306
f 249 547 280
f 276 275 306
f 276 306 307
f 250 249 280
f 250 280 281
f 277 276 307
f 277 307 308
f 251 250 281
f 251 281 282
f 278 277 308
f 278 308 309
f 252 251 282
f 252 282 283
f 279 278 309
f 279 309 310
f 253 252 283
f 253 283 284
f 507 279 310
f 507 310 508
f 254 253 284
f 254 284 285
f 255 254 285
f 255 285 286
f 256 255 286
f 256 286 287
f 257 256 287
f 257 287 288
f 258 257 288
f 258 288 289
f 259 258 289
f 259 289 290
f 260 259 290
f 260 290 291
f 294 293 324
f 294 324 325
f 295 294 325
f 295 325 326
f 296 295 326
f 296 326 327
f 297 296 327
f 297 327 328
f 298 297 328
f 298 328 329
f 299 298 329
f 299 329 330
f 300 299 330
f 300 330 331
f 301 300 331
f 301 331 332
f 302 301 332
f 302 332 333
f 303 302 333
f 303 333 334
f 304 303 334
f 304 334 335
f 305 304 335
f 305 335 336
f 306 305 336
f 306 336 337
f 280 547 311
f 307 306 337
f 307 337 338
f 281 280 311
f 281 311 312
f 308 307 338
f 308 338 339
f 282 281 312
f 282 312 313
f 309 308 339
f 309 339 340
f 283 282 313
f 283 313 314
f 310 309 340
f 310 340 341
f 284 283 314
f 284 314 315
f 508 310 341
f 508 341 509
f 285 284 315
f 285 315 316
f 286 285 316
f 286 316 317
f 287 286 317
f 287 317 318
f 288 287 318
f 288 318 319
f 289 288 319
f 289 319 320
f 290 289 320
f 290 320 321
f 291 290 321
f 291 321 322
f 292 291 322
f 292 322 323
f 293 292 323
f 293 323 324
f 327 326 357
f 327 357 358
f 328 327 358
f 328 358 359
f 329 328 359
f 329 359 360
f 330 329 360
f 330 360 361
f 331 330 361
f 331 361 362
f 332 331 362
f 332 362 363
f 333 332 363
f 333 363 364
f 334 333 364
f 334 364 365
f 335 334 365
f 335 365 366
f 336 335 366
f 336 366 367
f 337 336 367
f 337 367 368
f 311 547 342
f 338 337 368
f 338 368 369
f 312 311 342
f 312 342 343
f 339 338 369
f 339 369 370
f 313 312 343
f 313 343 344
f 340 339 370
f 340 370 371
f 314 313 344
f 314 344 345
f 341 340 371
f 341 371 372
f 315 314 345
f 315 345 346
f 509 341 372
f 509 372 510
f 316 315 346
f 316 346 347
f 317 316 347
f 317 347 348
f 318 317 348
f 318 348 349
f 319 318 349
f 319 349 350
f 320 319 350
f 320 350 351
f 321 320 351
f 321 351 352
f 322 321 352
f 322 352 353
f 323 322 353
f 323 353 354
f 324 323 354
f 324 354 355
f 325 324 355
f 325 355 356
f 326 325 356
f 326 356 357
f 360 359 390
f 360 390 391
f 361 360 391
f 361 391 392
f 362 361 392
f 362 392 393
f 363 362 393
f 363 393 394
f 364 363 394
f 364 394 395
f 365 364 395
f 365 395 396
f 366 365 396
f 366 396 397
f 367 366 397
f 367 397 398
f 368 367 398
f 368 398 399
f 342 547 373
f 369 368 399
f 369 399 400
f 343 342 373
f 343 373 374
f 370 369 400
f 370 400 401
f 344 343 374
f 344 374 375
f 371 370 401
f 371 401 402
f 345 344 375
f 345 375 376
f 372 371 402
f 372 402 403
f 346 345 376
f 346 376 377
f 510 372 403
f 510 403 511
f 347 346 377
f 347 377 378
f 348 347 378
f 348 378 379
f 349 348 379
f 349 379 380
f 350 349 380
f 350 380 381
f 351 350 381
f 351 381 382
f 352 351 382
f 352 382 383
f 353 352 383
f 353 383 384
f 354 353 384
f 354 384 385
f 355 354 385
f 355 385 386
f 356 355 386
f 356 386 387
f 357 356 387
f 357 387 388
f 358 357 388
f 358 388 389
f 359 358 389
f 359 389 390
f 393 392 423
f 393 423 424
f 394 393 424
f 394 424 425
f 395 394 425
f 395 425 426
f 396 395 426
f 396 426 427
f 397 396 427
f 397 427 428
f 398 397 428
f 398 428 429
f 399 398 429
f 399 429 430
f 373 547 404
f 400 399 430
f 400 430 431
f 374 373 404
f 374 404 405
f 401 400 431
f 401 431 432
f 375 374 405
f 375 405 406
f 402 401 432
f 402 432 433
f 376 375 406
f 376 406 407
f 403 402 433
f 403 433 434
f 377 376 407
f 377 407 408
f 511 403 434
f 511 434 512
f 378 377 408
f 378 408 409
f 379 378 409
f 379 409 410
f 380 379 410
f 380 410 411
f 381 380 411
f 381 411 412
f 382 381 412
f 382 412 413
f 383 382 413
f 383 413 414
f 384 383 414
f 384 414 415
f 385 384 415
f 385 415 416
f 386 385 416
f 386 416 417
f 387 386 417
f 387 417 418
f 388 387 418
f 388 418 419
f 389 388 419
f 389 419 420
f 390 389 420
f 390 420 421
f 391 390 421
f 391 421 422
f 392 391 422
f 392 422 423
f 426 425 456
f 426 456 457
f 427 426 457
f 427 457 458
f 428 427 458
f 428 458 459
f 429 428 459
f 429 459 460
f 430 429 460
f 430 460 461
f 404 547 435
f 431 430 461
f 431 461 462
f 405 404 435
f 405 435 436
f 432 431 462
f 432 462 463
f 406 405 436
f 406 436 437
f 433 432 463
f 433 463 464
f 407 406 437
f 407 437 438
f 434 433 464
f 434 464 465
f 408 407 438
f 408 438 439
f 512 434 465
f 512 465 513
f 409 408 439
f 409 439 440
f 410 409 440
f 410 440 441
f 411 410 441
f 411 441 442
f 412 411 442
f 412 442 443
f 413 412 443
f 413 443 444
f 414 413 444
f 414 444 445
f 415 414 445
f 415 445 446
f 416 415 446
f 416 446 447
f 417 416 447
f 417 447 448
f 418 417 448
f 418 448 449
f 419 418 449
f 419 449 450
f 420 419 450
f 420 450 451
f 421 420 451
f 421 451 452
f 422 421 452
f 422 452 453
f 423 422 453
f 423 453 454
f 424 423 454
f 424 454 455
f 425 424 455
f 425 455 456
f 459 458 489
f 459 489 490
f 460 459 490
f 460 490 491
f 461 460 491
f 461 491 492
f 435 498 466
f 462 461 492
f 462 492 493
f 436 435 466
f 436 466 467
f 463 462 493
f 463 493 494
f 437 436 467
f 437 467 468
f 464 463 494
f 464 494 495
f 438 437 468
f 438 468 469
f 465 464 495
f 465 495 496
f 439 438 469
f 439 469 470
f 513 465 496
f 513 496 514
f 440 439 470
f 440 470 471
f 441 440 471
f 441 471 472
f 442 441 472
f 442 472 473
f 443 442 473
f 443 473 474
f 444 443 474
f 444 474 475
f 445 444 475
f 445 475 476
f 446 445 476
f 446 476 477
f 447 446 477
f 447 477 478
f 448 447 478
f 448 478 479
f 449 448 479
f 449 479 480
f 450 449 480
f 450 480 481
f 451 450 481
f 451 481 482
f 452 451 482
f 452 482 483
f 453 452 483
f 453 483 484
f 454 453 484
f 454 484 485
f 455 454 485
f 455 485 486
f 456 455 486
f 456 486 487
f 457 456 487
f 457 487 488
f 458 457 488
f 458 488 489
f 492 491 540
f 492 540 541
f 466 498 515
f 493 492 541
f 493 541 542
f 467 466 515
f 467 515 516
f 494 493 542
f 494 542 543
f 468 467 516
f 468 516 517
f 495 494 543
f 495 543 544
f 469 468 517
f 469 517 518
f 496 495 544
f 496 544 545
f 470 469 518
f 470 518 519
f 514 496 545
f 514 545 546
f 471 470 519
f 471 519 520
f 472 471 520
f 472 520 521
f 473 472 521
f 473 521 522
f 474 473 522
f 474 522 523
f 475 474 523
f 475 523 524
f 476 475 524
f 476 524 525
f 477 476 525
f 477 525 526
f 478 477 526
f 478 526 527
f 479 478 527
f 479 527 528
f 480 479 528
f 480 528 529
f 481 480 529
f 481 529 530
f 482 481 530
f 482 530 531
f 483 482 531
f 483 531 532
f 484 483 532
f 484 532 533
f 485 484 533
f 485 533 534
f 486 485 534
f 486 534 535
f 487 486 535
f 487 535 536
f 488 487 536
f 488 536 537
f 489 488 537
f 489 537 538
f 490 489 538
f 490 538 539
f 491 490 539
f 491 539 540
l 1 1
# 1008 faces, 0 coords texture

# End of File
